<?xml version="1.0" encoding="utf-8" standalone="no"?>
<!DOCTYPE svg PUBLIC "-//W3C//DTD SVG 1.1//EN"
  "http://www.w3.org/Graphics/SVG/1.1/DTD/svg11.dtd">
<svg xmlns:xlink="http://www.w3.org/1999/xlink" width="554.40625pt" height="392.626875pt" viewBox="0 0 554.40625 392.626875" xmlns="http://www.w3.org/2000/svg" version="1.1">
 <metadata>
  <rdf:RDF xmlns:dc="http://purl.org/dc/elements/1.1/" xmlns:cc="http://creativecommons.org/ns#" xmlns:rdf="http://www.w3.org/1999/02/22-rdf-syntax-ns#">
   <cc:Work>
    <dc:type rdf:resource="http://purl.org/dc/dcmitype/StillImage"/>
    <dc:date>2026-01-15T11:52:36.673029</dc:date>
    <dc:format>image/svg+xml</dc:format>
    <dc:creator>
     <cc:Agent>
      <dc:title>Matplotlib v3.10.8, https://matplotlib.org/</dc:title>
     </cc:Agent>
    </dc:creator>
   </cc:Work>
  </rdf:RDF>
 </metadata>
 <defs>
  <style type="text/css">*{stroke-linejoin: round; stroke-linecap: butt}</style>
 </defs>
 <g id="figure_1">
  <g id="patch_1">
   <path d="M 0 392.626875 
L 554.40625 392.626875 
L 554.40625 0 
L 0 0 
z
" style="fill: #ffffff"/>
  </g>
  <g id="axes_1">
   <g id="patch_2">
    <path d="M 45.00625 356.03625 
L 547.20625 356.03625 
L 547.20625 23.39625 
L 45.00625 23.39625 
z
" style="fill: #ffffff"/>
   </g>
   <g id="matplotlib.axis_1">
    <g id="xtick_1">
     <g id="line2d_1">
      <defs>
       <path id="m6e1666f5e1" d="M 0 0 
L 0 3.5 
" style="stroke: #000000; stroke-width: 0.8"/>
      </defs>
      <g>
       <use xlink:href="#m6e1666f5e1" x="67.833523" y="356.03625" style="stroke: #000000; stroke-width: 0.8"/>
      </g>
     </g>
     <g id="text_1">
      <!-- 104 -->
      <g transform="translate(58.83821 369.8925) scale(0.1 -0.1)">
       <defs>
        <path id="WenQuanYiZenHei-31" d="M 3556 0 
L 488 0 
L 488 406 
L 1800 406 
L 1800 3725 
Q 1231 3125 588 2788 
L 588 3338 
Q 1456 3781 1931 4388 
L 2331 4388 
L 2331 406 
L 3556 406 
L 3556 0 
z
" transform="scale(0.015625)"/>
        <path id="WenQuanYiZenHei-30" d="M 3581 2175 
Q 3581 1288 3169 638 
Q 2713 -63 1938 -63 
Q 1025 -63 563 831 
Q 256 1425 256 2188 
Q 256 3188 700 3819 
Q 1138 4456 1888 4456 
Q 2863 4456 3306 3500 
Q 3581 2925 3581 2175 
z
M 3019 2100 
Q 3019 3356 2500 3806 
L 2350 3919 
Q 2144 4031 1888 4031 
Q 1100 4031 888 2956 
Q 819 2625 819 2225 
Q 819 1013 1338 569 
Q 1588 356 1938 356 
Q 2675 356 2925 1294 
Q 3019 1663 3019 2100 
z
" transform="scale(0.015625)"/>
        <path id="WenQuanYiZenHei-34" d="M 3631 1025 
L 2913 1025 
L 2913 0 
L 2381 0 
L 2381 1025 
L 219 1025 
L 219 1388 
L 2225 4388 
L 2913 4388 
L 2913 1444 
L 3631 1444 
L 3631 1025 
z
M 2381 1444 
L 2381 3963 
L 788 1444 
L 2381 1444 
z
" transform="scale(0.015625)"/>
       </defs>
       <use xlink:href="#WenQuanYiZenHei-31"/>
       <use xlink:href="#WenQuanYiZenHei-30" transform="translate(59.960938 0)"/>
       <use xlink:href="#WenQuanYiZenHei-34" transform="translate(119.921875 0)"/>
      </g>
     </g>
    </g>
    <g id="xtick_2">
     <g id="line2d_2">
      <g>
       <use xlink:href="#m6e1666f5e1" x="113.488068" y="356.03625" style="stroke: #000000; stroke-width: 0.8"/>
      </g>
     </g>
     <g id="text_2">
      <!-- 105 -->
      <g transform="translate(104.492756 369.8925) scale(0.1 -0.1)">
       <defs>
        <path id="WenQuanYiZenHei-35" d="M 3531 1488 
Q 3531 688 2913 250 
Q 2456 -63 1844 -63 
Q 1175 -63 706 350 
Q 413 613 306 975 
L 781 1131 
Q 1000 538 1569 406 
Q 1706 369 1856 369 
Q 2550 369 2850 869 
Q 3000 1131 3000 1494 
Q 3000 2056 2581 2356 
Q 2319 2538 1969 2538 
Q 1400 2538 1031 2075 
Q 981 2013 938 1938 
L 500 2031 
L 644 4388 
L 3244 4388 
L 3200 3919 
L 1044 3919 
L 950 2500 
Q 1431 2975 2006 2975 
Q 2713 2975 3163 2475 
Q 3531 2063 3531 1488 
z
" transform="scale(0.015625)"/>
       </defs>
       <use xlink:href="#WenQuanYiZenHei-31"/>
       <use xlink:href="#WenQuanYiZenHei-30" transform="translate(59.960938 0)"/>
       <use xlink:href="#WenQuanYiZenHei-35" transform="translate(119.921875 0)"/>
      </g>
     </g>
    </g>
    <g id="xtick_3">
     <g id="line2d_3">
      <g>
       <use xlink:href="#m6e1666f5e1" x="159.142614" y="356.03625" style="stroke: #000000; stroke-width: 0.8"/>
      </g>
     </g>
     <g id="text_3">
      <!-- 106 -->
      <g transform="translate(150.147301 369.8925) scale(0.1 -0.1)">
       <defs>
        <path id="WenQuanYiZenHei-36" d="M 3550 1431 
Q 3550 725 3006 288 
Q 2581 -63 1994 -63 
Q 1013 -63 563 825 
Q 288 1363 288 2081 
Q 288 3294 856 3938 
Q 1319 4456 2075 4456 
Q 2969 4456 3363 3756 
Q 3431 3631 3481 3481 
L 2988 3350 
Q 2750 3994 2075 4006 
Q 1056 4006 844 2669 
Q 794 2356 794 1981 
L 806 1981 
Q 1006 2506 1544 2744 
Q 1819 2869 2119 2869 
Q 2788 2869 3213 2375 
Q 3550 1975 3550 1431 
z
M 3038 1406 
Q 3038 1906 2656 2213 
Q 2381 2431 2038 2431 
Q 1525 2431 1181 2044 
Q 919 1744 919 1356 
Q 919 881 1344 581 
Q 1631 375 1981 375 
Q 2519 375 2838 781 
Q 3038 1050 3038 1406 
z
" transform="scale(0.015625)"/>
       </defs>
       <use xlink:href="#WenQuanYiZenHei-31"/>
       <use xlink:href="#WenQuanYiZenHei-30" transform="translate(59.960938 0)"/>
       <use xlink:href="#WenQuanYiZenHei-36" transform="translate(119.921875 0)"/>
      </g>
     </g>
    </g>
    <g id="xtick_4">
     <g id="line2d_4">
      <g>
       <use xlink:href="#m6e1666f5e1" x="204.797159" y="356.03625" style="stroke: #000000; stroke-width: 0.8"/>
      </g>
     </g>
     <g id="text_4">
      <!-- 107 -->
      <g transform="translate(195.801847 369.8925) scale(0.1 -0.1)">
       <defs>
        <path id="WenQuanYiZenHei-37" d="M 3400 4056 
Q 1838 2175 1838 0 
L 1275 0 
Q 1269 1438 2056 2825 
Q 2381 3400 2825 3913 
L 444 3913 
L 500 4388 
L 3400 4388 
L 3400 4056 
z
" transform="scale(0.015625)"/>
       </defs>
       <use xlink:href="#WenQuanYiZenHei-31"/>
       <use xlink:href="#WenQuanYiZenHei-30" transform="translate(59.960938 0)"/>
       <use xlink:href="#WenQuanYiZenHei-37" transform="translate(119.921875 0)"/>
      </g>
     </g>
    </g>
    <g id="xtick_5">
     <g id="line2d_5">
      <g>
       <use xlink:href="#m6e1666f5e1" x="250.451705" y="356.03625" style="stroke: #000000; stroke-width: 0.8"/>
      </g>
     </g>
     <g id="text_5">
      <!-- 108 -->
      <g transform="translate(241.456392 369.8925) scale(0.1 -0.1)">
       <defs>
        <path id="WenQuanYiZenHei-38" d="M 3619 1175 
Q 3619 431 2850 100 
Q 2444 -63 1944 -63 
Q 1231 -63 725 269 
Q 225 594 225 1125 
Q 225 1881 1269 2281 
Q 719 2481 519 2938 
Q 444 3119 444 3319 
Q 444 4000 1144 4294 
Q 1519 4456 1963 4456 
Q 2669 4456 3094 4094 
Q 3425 3813 3425 3369 
Q 3425 2638 2575 2356 
Q 3231 2056 3450 1725 
Q 3619 1488 3619 1175 
z
M 2944 3344 
Q 2944 3906 2288 4019 
Q 2138 4044 1969 4044 
Q 1438 4044 1163 3775 
Q 1000 3613 1000 3375 
Q 1000 2925 1594 2663 
Q 1756 2588 1931 2550 
Q 2581 2725 2788 2956 
Q 2944 3125 2944 3344 
z
M 3075 1094 
Q 3075 1738 1875 2050 
Q 1094 1881 850 1463 
Q 763 1313 763 1131 
Q 763 569 1456 406 
Q 1681 344 1944 344 
Q 2519 344 2850 619 
Q 3075 813 3075 1094 
z
" transform="scale(0.015625)"/>
       </defs>
       <use xlink:href="#WenQuanYiZenHei-31"/>
       <use xlink:href="#WenQuanYiZenHei-30" transform="translate(59.960938 0)"/>
       <use xlink:href="#WenQuanYiZenHei-38" transform="translate(119.921875 0)"/>
      </g>
     </g>
    </g>
    <g id="xtick_6">
     <g id="line2d_6">
      <g>
       <use xlink:href="#m6e1666f5e1" x="296.10625" y="356.03625" style="stroke: #000000; stroke-width: 0.8"/>
      </g>
     </g>
     <g id="text_6">
      <!-- 109 -->
      <g transform="translate(287.110938 369.8925) scale(0.1 -0.1)">
       <defs>
        <path id="WenQuanYiZenHei-39" d="M 3544 2300 
Q 3544 1163 3019 513 
Q 2563 -63 1775 -63 
Q 956 -63 563 488 
Q 463 631 394 813 
L 838 975 
Q 1025 494 1550 388 
Q 1656 369 1775 369 
Q 2594 369 2900 1325 
Q 3044 1769 3038 2313 
L 3025 2313 
Q 2675 1638 1944 1544 
Q 1844 1531 1744 1531 
Q 1050 1531 625 2031 
Q 294 2419 294 2963 
Q 294 3656 813 4094 
Q 1238 4456 1819 4456 
Q 2988 4456 3381 3363 
Q 3544 2900 3544 2300 
z
M 2925 2994 
Q 2925 3563 2469 3844 
Q 2206 4006 1863 4006 
Q 1275 4006 988 3563 
Q 844 3344 825 3056 
Q 819 3006 819 2956 
Q 819 2413 1269 2131 
Q 1538 1963 1875 1963 
Q 2363 1963 2681 2350 
Q 2925 2638 2925 2994 
z
" transform="scale(0.015625)"/>
       </defs>
       <use xlink:href="#WenQuanYiZenHei-31"/>
       <use xlink:href="#WenQuanYiZenHei-30" transform="translate(59.960938 0)"/>
       <use xlink:href="#WenQuanYiZenHei-39" transform="translate(119.921875 0)"/>
      </g>
     </g>
    </g>
    <g id="xtick_7">
     <g id="line2d_7">
      <g>
       <use xlink:href="#m6e1666f5e1" x="341.760795" y="356.03625" style="stroke: #000000; stroke-width: 0.8"/>
      </g>
     </g>
     <g id="text_7">
      <!-- 110 -->
      <g transform="translate(332.765483 369.8925) scale(0.1 -0.1)">
       <use xlink:href="#WenQuanYiZenHei-31"/>
       <use xlink:href="#WenQuanYiZenHei-31" transform="translate(59.960938 0)"/>
       <use xlink:href="#WenQuanYiZenHei-30" transform="translate(119.921875 0)"/>
      </g>
     </g>
    </g>
    <g id="xtick_8">
     <g id="line2d_8">
      <g>
       <use xlink:href="#m6e1666f5e1" x="387.415341" y="356.03625" style="stroke: #000000; stroke-width: 0.8"/>
      </g>
     </g>
     <g id="text_8">
      <!-- 111 -->
      <g transform="translate(378.420028 369.8925) scale(0.1 -0.1)">
       <use xlink:href="#WenQuanYiZenHei-31"/>
       <use xlink:href="#WenQuanYiZenHei-31" transform="translate(59.960938 0)"/>
       <use xlink:href="#WenQuanYiZenHei-31" transform="translate(119.921875 0)"/>
      </g>
     </g>
    </g>
    <g id="xtick_9">
     <g id="line2d_9">
      <g>
       <use xlink:href="#m6e1666f5e1" x="433.069886" y="356.03625" style="stroke: #000000; stroke-width: 0.8"/>
      </g>
     </g>
     <g id="text_9">
      <!-- 112 -->
      <g transform="translate(424.074574 369.8925) scale(0.1 -0.1)">
       <defs>
        <path id="WenQuanYiZenHei-32" d="M 3488 0 
L 369 0 
L 369 456 
L 2150 1850 
Q 2931 2463 2931 3144 
Q 2931 3619 2488 3863 
Q 2231 4013 1931 4013 
Q 1425 4013 1113 3619 
Q 894 3356 881 3013 
L 369 3169 
Q 531 3981 1213 4300 
Q 1544 4456 1950 4456 
Q 2631 4456 3088 4044 
L 3225 3888 
L 3350 3706 
Q 3481 3444 3481 3144 
Q 3481 2313 2519 1569 
L 1069 456 
L 3488 456 
L 3488 0 
z
" transform="scale(0.015625)"/>
       </defs>
       <use xlink:href="#WenQuanYiZenHei-31"/>
       <use xlink:href="#WenQuanYiZenHei-31" transform="translate(59.960938 0)"/>
       <use xlink:href="#WenQuanYiZenHei-32" transform="translate(119.921875 0)"/>
      </g>
     </g>
    </g>
    <g id="xtick_10">
     <g id="line2d_10">
      <g>
       <use xlink:href="#m6e1666f5e1" x="478.724432" y="356.03625" style="stroke: #000000; stroke-width: 0.8"/>
      </g>
     </g>
     <g id="text_10">
      <!-- 113 -->
      <g transform="translate(469.729119 369.8925) scale(0.1 -0.1)">
       <defs>
        <path id="WenQuanYiZenHei-33" d="M 3588 1231 
Q 3588 494 2875 144 
Q 2450 -63 1925 -63 
Q 1044 -63 556 488 
Q 356 706 256 1000 
L 769 1169 
Q 994 375 1913 375 
Q 2631 375 2900 788 
Q 3019 975 3019 1231 
Q 3019 1638 2638 1881 
Q 2325 2081 1613 2069 
L 1338 2069 
L 1338 2494 
Q 1969 2494 2094 2506 
Q 2325 2544 2463 2613 
Q 2763 2756 2844 3100 
Q 2863 3169 2863 3244 
Q 2863 3744 2381 3944 
L 2163 4006 
Q 2056 4025 1931 4025 
Q 1388 4025 1075 3631 
Q 969 3488 906 3313 
L 419 3456 
Q 675 4150 1400 4369 
Q 1669 4456 1975 4456 
Q 2694 4456 3106 4050 
Q 3419 3744 3419 3275 
Q 3419 2813 3025 2513 
Q 2825 2356 2575 2319 
L 2575 2306 
Q 3181 2213 3450 1769 
Q 3588 1525 3588 1231 
z
" transform="scale(0.015625)"/>
       </defs>
       <use xlink:href="#WenQuanYiZenHei-31"/>
       <use xlink:href="#WenQuanYiZenHei-31" transform="translate(59.960938 0)"/>
       <use xlink:href="#WenQuanYiZenHei-33" transform="translate(119.921875 0)"/>
      </g>
     </g>
    </g>
    <g id="xtick_11">
     <g id="line2d_11">
      <g>
       <use xlink:href="#m6e1666f5e1" x="524.378977" y="356.03625" style="stroke: #000000; stroke-width: 0.8"/>
      </g>
     </g>
     <g id="text_11">
      <!-- 114 -->
      <g transform="translate(515.383665 369.8925) scale(0.1 -0.1)">
       <use xlink:href="#WenQuanYiZenHei-31"/>
       <use xlink:href="#WenQuanYiZenHei-31" transform="translate(59.960938 0)"/>
       <use xlink:href="#WenQuanYiZenHei-34" transform="translate(119.921875 0)"/>
      </g>
     </g>
    </g>
    <g id="text_12">
     <!-- (1)有機化學品 -->
     <g transform="translate(265.109375 383.7175) scale(0.1 -0.1)">
      <defs>
       <path id="WenQuanYiZenHei-28" d="M 1606 -1094 
L 1275 -1094 
Q 475 -100 338 1231 
Q 319 1438 319 1656 
Q 319 3031 1156 4244 
Q 1213 4313 1269 4388 
L 1600 4388 
Q 806 3169 794 1681 
Q 794 188 1606 -1094 
z
" transform="scale(0.015625)"/>
       <path id="WenQuanYiZenHei-29" d="M 1600 1656 
Q 1600 306 869 -788 
Q 769 -950 644 -1094 
L 313 -1094 
Q 1125 188 1125 1681 
Q 1125 3169 338 4363 
Q 325 4375 319 4388 
L 650 4388 
Q 1525 3231 1594 1863 
Q 1600 1763 1600 1656 
z
" transform="scale(0.015625)"/>
       <path id="WenQuanYiZenHei-6709" d="M 4619 44 
L 4619 831 
L 2269 831 
L 2281 169 
Q 2288 -288 2319 -750 
Q 2069 -725 1819 -756 
Q 1838 -294 1825 163 
L 1794 2381 
Q 1194 1650 456 1150 
Q 331 1406 81 1538 
Q 1144 2231 1781 3100 
L 1781 3250 
L 1881 3250 
Q 2138 3625 2269 3975 
L 1075 3975 
Q 713 3975 350 3956 
Q 369 4156 350 4350 
Q 713 4331 1075 4331 
L 2406 4331 
Q 2588 4819 2669 5138 
Q 2925 5038 3200 4994 
Q 3088 4663 2950 4331 
L 5406 4331 
Q 5769 4331 6138 4350 
Q 6113 4156 6138 3956 
Q 5769 3975 5406 3975 
L 2794 3975 
Q 2613 3594 2400 3250 
L 5075 3250 
L 5075 -125 
Q 5075 -406 4888 -581 
Q 4631 -819 3938 -813 
Q 4006 -500 3794 -263 
Q 3988 -288 4247 -291 
Q 4506 -294 4562 -247 
Q 4619 -200 4619 44 
z
M 4619 2188 
L 4619 2888 
L 2238 2888 
L 2250 2188 
L 4619 2188 
z
M 4619 1188 
L 4619 1831 
L 2256 1831 
L 2263 1188 
L 4619 1188 
z
" transform="scale(0.015625)"/>
       <path id="WenQuanYiZenHei-6a5f" d="M 4750 756 
Q 5063 1169 5300 1625 
Q 5494 1513 5706 1444 
Q 5450 856 5006 381 
Q 5275 50 5625 -194 
Q 5663 181 5675 563 
Q 5869 425 6100 413 
Q 6106 -75 5988 -550 
Q 5981 -650 5906 -700 
Q 5800 -781 5681 -725 
Q 5119 -400 4713 106 
Q 4150 -388 3425 -669 
Q 3381 -463 3225 -319 
Q 3956 -50 4469 444 
Q 4119 1000 3963 1675 
L 3063 1675 
L 3056 1263 
L 3681 519 
L 3344 238 
L 2988 656 
Q 2838 -56 2369 -544 
Q 2213 -356 1969 -325 
Q 2738 269 2656 1675 
L 2063 1663 
Q 2081 1806 2063 1950 
L 2650 1938 
Q 2650 2138 2638 2344 
Q 2856 2319 3081 2344 
Q 3069 2138 3063 1938 
L 3913 1938 
L 3856 2381 
L 3444 2331 
Q 3413 2563 3350 2794 
Q 3119 2725 2712 2575 
Q 2306 2425 2150 2375 
L 2069 2625 
Q 2163 2656 2213 2738 
Q 2406 3050 2750 3725 
L 2081 3713 
L 2081 3975 
Q 2163 3963 2219 4025 
Q 2356 4188 2547 4584 
Q 2738 4981 2744 5181 
Q 2969 5088 3213 5050 
Q 3181 4931 3025 4656 
Q 2869 4381 2753 4197 
Q 2638 4013 2613 3975 
L 2869 3963 
Q 3088 4413 3169 4650 
Q 3375 4525 3606 4444 
Q 3550 4325 3481 4206 
L 2681 2831 
L 3281 3025 
Q 3213 3244 3113 3450 
L 3513 3644 
Q 3744 3156 3844 2631 
Q 3838 2688 3838 3850 
L 3819 5144 
Q 4038 5119 4263 5144 
L 4244 3975 
Q 4313 3969 4363 4025 
Q 4500 4181 4697 4578 
Q 4894 4975 4906 5181 
Q 5131 5088 5369 5050 
Q 5344 4938 5184 4659 
Q 5025 4381 4903 4190 
Q 4781 4000 4763 3975 
L 5031 3963 
Q 5256 4419 5344 4656 
Q 5550 4525 5781 4438 
Q 5650 4206 4838 2838 
L 5431 3025 
Q 5363 3256 5275 3481 
L 5688 3638 
Q 5913 3044 6050 2419 
L 5619 2325 
Q 5569 2563 5500 2794 
Q 5275 2731 4875 2587 
Q 4475 2444 4306 2394 
L 4244 2581 
Q 4269 2231 4319 1938 
L 4969 1938 
L 4731 2294 
L 5100 2538 
L 5475 1975 
L 5425 1938 
L 6088 1950 
Q 6075 1806 6088 1663 
Q 5825 1675 5563 1675 
L 4375 1675 
Q 4500 1169 4750 756 
z
M 4244 2644 
Q 4325 2675 4375 2756 
Q 4563 3069 4906 3725 
L 4238 3713 
Q 4231 2881 4244 2644 
z
M 413 681 
Q 263 794 19 794 
Q 388 1556 713 2575 
L 994 3431 
L 225 3419 
Q 238 3569 225 3719 
L 1038 3706 
L 1038 4394 
Q 1038 4806 1019 5225 
Q 1244 5200 1463 5225 
Q 1444 4806 1444 4394 
L 1444 3706 
L 2188 3719 
Q 2169 3569 2188 3419 
L 1444 3431 
L 1444 2763 
L 1631 2888 
L 2144 2094 
L 1775 1850 
L 1444 2356 
L 1444 138 
Q 1444 -275 1463 -694 
Q 1244 -669 1019 -694 
Q 1038 -275 1038 138 
L 1038 2169 
Q 906 1813 700 1338 
L 413 681 
z
" transform="scale(0.015625)"/>
       <path id="WenQuanYiZenHei-5316" d="M 3863 81 
Q 3863 -63 3922 -166 
Q 3981 -269 4088 -269 
L 5500 -269 
Q 5625 -263 5656 -138 
Q 5694 -31 5713 113 
L 5844 1019 
Q 6044 875 6294 875 
L 6081 -413 
Q 6056 -569 5963 -663 
Q 5913 -700 5850 -700 
L 4081 -700 
Q 3825 -700 3609 -509 
Q 3394 -319 3394 81 
L 3394 1456 
Q 2775 1044 2156 775 
Q 2075 1050 1844 1231 
Q 2706 1588 3394 2031 
L 3394 4138 
Q 3394 4613 3375 5081 
Q 3631 5056 3888 5081 
Q 3863 4613 3863 4138 
L 3863 2356 
Q 4375 2756 4869 3325 
Q 5213 3706 5406 3950 
Q 5606 3756 5844 3600 
Q 4881 2531 3863 1775 
L 3863 81 
z
M 1838 -769 
Q 1581 -744 1325 -769 
Q 1344 -300 1344 175 
L 1344 2838 
Q 944 2375 469 2044 
Q 331 2300 75 2431 
Q 556 2750 987 3175 
Q 1419 3600 1656 4075 
Q 1894 4588 2069 5150 
Q 2331 5044 2606 4988 
Q 2275 4131 1813 3444 
L 1813 175 
Q 1813 -300 1838 -769 
z
" transform="scale(0.015625)"/>
       <path id="WenQuanYiZenHei-5b78" d="M 5838 850 
Q 5819 706 5838 563 
Q 5575 575 5313 575 
L 3500 575 
L 3500 -263 
Q 3500 -450 3331 -588 
Q 3075 -800 2456 -794 
Q 2525 -513 2325 -300 
Q 2506 -325 2772 -328 
Q 3038 -331 3066 -300 
Q 3094 -269 3094 -194 
L 3094 575 
L 969 575 
Q 706 575 444 563 
Q 456 706 444 850 
Q 706 838 969 838 
L 3094 838 
L 3094 1181 
L 3906 1588 
L 2019 1588 
Q 1756 1588 1494 1575 
Q 1506 1719 1494 1863 
Q 1756 1844 2019 1844 
L 4744 1844 
L 4819 1519 
Q 4619 1494 4444 1406 
L 3500 931 
L 3500 838 
L 5313 838 
Q 5575 838 5838 850 
z
M 606 1531 
L 206 1531 
L 206 2488 
Q 506 2488 813 2488 
L 813 4706 
L 900 4706 
Q 1094 4775 1594 5025 
L 1963 5200 
Q 2044 4994 2163 4806 
Q 1719 4563 1350 4456 
L 1213 4400 
Q 1213 4263 1213 4119 
L 1669 4119 
Q 1931 4119 2194 4131 
Q 2181 3988 2194 3850 
Q 1931 3863 1669 3863 
L 1213 3863 
L 1213 3313 
L 1719 3313 
Q 1956 3313 2194 3325 
Q 2181 3200 2194 3069 
Q 1956 3081 1719 3081 
L 1213 3081 
L 1213 2488 
L 2494 2488 
Q 2406 2613 2281 2681 
Q 2581 2869 2844 3106 
L 2431 3444 
L 2700 3794 
L 3150 3425 
Q 3306 3600 3500 3850 
L 3575 3788 
L 3163 4163 
Q 2913 3956 2550 3713 
Q 2469 3913 2281 4019 
Q 2581 4200 2844 4444 
L 2431 4775 
L 2700 5125 
L 3150 4763 
Q 3306 4931 3500 5181 
Q 3663 5031 3856 4925 
Q 3694 4688 3488 4469 
L 3900 4081 
L 3594 3769 
Q 3719 3669 3856 3588 
Q 3694 3350 3488 3138 
L 3900 2750 
L 3650 2488 
L 5088 2488 
L 5088 3075 
L 4619 3075 
Q 4381 3075 4144 3063 
Q 4156 3188 4144 3319 
Q 4381 3306 4619 3306 
L 5088 3306 
L 5088 3856 
L 4669 3856 
Q 4406 3856 4144 3844 
Q 4156 3988 4144 4125 
Q 4406 4113 4669 4113 
L 5088 4113 
L 5088 4681 
L 4638 4681 
Q 4375 4681 4113 4669 
Q 4131 4813 4113 4956 
Q 4375 4944 4638 4944 
L 5488 4944 
L 5488 2488 
L 6044 2488 
L 6044 1531 
L 5644 1531 
L 5644 2231 
L 606 2231 
L 606 1531 
z
M 3531 2488 
L 3163 2831 
Q 2963 2663 2713 2488 
L 3531 2488 
z
" transform="scale(0.015625)"/>
       <path id="WenQuanYiZenHei-54c1" d="M 4025 -769 
Q 3788 -744 3544 -769 
Q 3569 -331 3569 113 
L 3569 2106 
L 5925 2106 
L 5925 -756 
L 5488 -756 
L 5488 -288 
L 4006 -288 
Q 4013 -531 4025 -769 
z
M 781 -769 
Q 544 -744 306 -769 
Q 325 -331 325 113 
L 325 2106 
L 2681 2106 
L 2681 -756 
L 2250 -756 
L 2250 -288 
L 763 -288 
Q 769 -531 781 -769 
z
M 1913 2588 
L 1481 2588 
L 1481 5075 
L 4938 5069 
L 4938 2588 
L 4506 2588 
L 4506 2944 
L 1913 2944 
L 1913 2588 
z
M 5488 1788 
L 4000 1788 
L 4000 31 
L 5488 31 
L 5488 1788 
z
M 2250 1788 
L 763 1788 
L 763 31 
L 2250 31 
L 2250 1788 
z
M 4506 4750 
L 1913 4750 
L 1913 3263 
L 4506 3263 
L 4506 4750 
z
" transform="scale(0.015625)"/>
      </defs>
      <use xlink:href="#WenQuanYiZenHei-28"/>
      <use xlink:href="#WenQuanYiZenHei-31" transform="translate(29.980469 0)"/>
      <use xlink:href="#WenQuanYiZenHei-29" transform="translate(89.941406 0)"/>
      <use xlink:href="#WenQuanYiZenHei-6709" transform="translate(119.921875 0)"/>
      <use xlink:href="#WenQuanYiZenHei-6a5f" transform="translate(219.921875 0)"/>
      <use xlink:href="#WenQuanYiZenHei-5316" transform="translate(319.921875 0)"/>
      <use xlink:href="#WenQuanYiZenHei-5b78" transform="translate(419.921875 0)"/>
      <use xlink:href="#WenQuanYiZenHei-54c1" transform="translate(519.921875 0)"/>
     </g>
    </g>
   </g>
   <g id="matplotlib.axis_2">
    <g id="ytick_1">
     <g id="line2d_12">
      <defs>
       <path id="ma0da3c6bd2" d="M 0 0 
L -3.5 0 
" style="stroke: #000000; stroke-width: 0.8"/>
      </defs>
      <g>
       <use xlink:href="#ma0da3c6bd2" x="45.00625" y="221.669029" style="stroke: #000000; stroke-width: 0.8"/>
      </g>
     </g>
     <g id="text_13">
      <!-- $\mathdefault{10^{6}}$ -->
      <g transform="translate(21.40625 225.138561) scale(0.1 -0.1)">
       <use xlink:href="#WenQuanYiZenHei-31" transform="translate(0 0.715625)"/>
       <use xlink:href="#WenQuanYiZenHei-30" transform="translate(59.960938 0.715625)"/>
       <use xlink:href="#WenQuanYiZenHei-36" transform="translate(120.810547 36.2625) scale(0.7)"/>
      </g>
     </g>
    </g>
    <g id="ytick_2">
     <g id="line2d_13">
      <defs>
       <path id="m7fe3bf11e1" d="M 0 0 
L -2 0 
" style="stroke: #000000; stroke-width: 0.6"/>
      </defs>
      <g>
       <use xlink:href="#m7fe3bf11e1" x="45.00625" y="338.765603" style="stroke: #000000; stroke-width: 0.6"/>
      </g>
     </g>
    </g>
    <g id="ytick_3">
     <g id="line2d_14">
      <g>
       <use xlink:href="#m7fe3bf11e1" x="45.00625" y="310.78608" style="stroke: #000000; stroke-width: 0.6"/>
      </g>
     </g>
    </g>
    <g id="ytick_4">
     <g id="line2d_15">
      <g>
       <use xlink:href="#m7fe3bf11e1" x="45.00625" y="289.083476" style="stroke: #000000; stroke-width: 0.6"/>
      </g>
     </g>
    </g>
    <g id="ytick_5">
     <g id="line2d_16">
      <g>
       <use xlink:href="#m7fe3bf11e1" x="45.00625" y="271.351157" style="stroke: #000000; stroke-width: 0.6"/>
      </g>
     </g>
    </g>
    <g id="ytick_6">
     <g id="line2d_17">
      <g>
       <use xlink:href="#m7fe3bf11e1" x="45.00625" y="256.358695" style="stroke: #000000; stroke-width: 0.6"/>
      </g>
     </g>
    </g>
    <g id="ytick_7">
     <g id="line2d_18">
      <g>
       <use xlink:href="#m7fe3bf11e1" x="45.00625" y="243.371634" style="stroke: #000000; stroke-width: 0.6"/>
      </g>
     </g>
    </g>
    <g id="ytick_8">
     <g id="line2d_19">
      <g>
       <use xlink:href="#m7fe3bf11e1" x="45.00625" y="231.916234" style="stroke: #000000; stroke-width: 0.6"/>
      </g>
     </g>
    </g>
    <g id="ytick_9">
     <g id="line2d_20">
      <g>
       <use xlink:href="#m7fe3bf11e1" x="45.00625" y="154.254583" style="stroke: #000000; stroke-width: 0.6"/>
      </g>
     </g>
    </g>
    <g id="ytick_10">
     <g id="line2d_21">
      <g>
       <use xlink:href="#m7fe3bf11e1" x="45.00625" y="114.81966" style="stroke: #000000; stroke-width: 0.6"/>
      </g>
     </g>
    </g>
    <g id="ytick_11">
     <g id="line2d_22">
      <g>
       <use xlink:href="#m7fe3bf11e1" x="45.00625" y="86.840137" style="stroke: #000000; stroke-width: 0.6"/>
      </g>
     </g>
    </g>
    <g id="ytick_12">
     <g id="line2d_23">
      <g>
       <use xlink:href="#m7fe3bf11e1" x="45.00625" y="65.137533" style="stroke: #000000; stroke-width: 0.6"/>
      </g>
     </g>
    </g>
    <g id="ytick_13">
     <g id="line2d_24">
      <g>
       <use xlink:href="#m7fe3bf11e1" x="45.00625" y="47.405214" style="stroke: #000000; stroke-width: 0.6"/>
      </g>
     </g>
    </g>
    <g id="ytick_14">
     <g id="line2d_25">
      <g>
       <use xlink:href="#m7fe3bf11e1" x="45.00625" y="32.412752" style="stroke: #000000; stroke-width: 0.6"/>
      </g>
     </g>
    </g>
    <g id="text_14">
     <!-- 國家/地區別 -->
     <g transform="translate(15.696875 217.313906) rotate(-90) scale(0.1 -0.1)">
      <defs>
       <path id="WenQuanYiZenHei-570b" d="M 3681 1469 
Q 3294 2275 3288 3525 
L 1738 3525 
Q 1431 3525 1131 3513 
Q 1150 3675 1131 3838 
Q 1431 3825 1738 3825 
L 3288 3825 
L 3269 4681 
Q 3500 4656 3731 4681 
L 3719 3825 
L 4450 3825 
L 4000 4431 
L 4338 4681 
L 913 4681 
L 913 25 
L 5338 25 
L 5338 4681 
L 4394 4681 
L 4900 4000 
L 4663 3825 
Q 4900 3825 5131 3838 
Q 5113 3675 5131 3513 
Q 4831 3525 4525 3525 
L 3713 3525 
Q 3706 2594 3969 1888 
Q 4213 2431 4331 3088 
Q 4581 3025 4838 3013 
Q 4650 2144 4175 1438 
Q 4381 1056 4681 756 
Q 4675 1075 4650 1388 
Q 4869 1269 5113 1288 
Q 5175 794 5106 300 
Q 5094 106 4913 75 
Q 4825 63 4756 113 
Q 4244 513 3894 1075 
Q 3338 419 2588 100 
Q 2513 356 2306 519 
Q 3169 863 3681 1469 
z
M 1063 1181 
Q 1781 1181 2363 1313 
Q 2569 1356 3013 1469 
L 3006 1200 
Q 1825 894 1188 663 
Q 1200 938 1063 1181 
z
M 931 -769 
Q 700 -750 469 -769 
Q 488 -344 488 88 
L 488 4981 
L 5763 4975 
L 5763 -763 
L 5338 -763 
L 5338 -250 
L 913 -250 
Q 919 -513 931 -769 
z
M 1731 2744 
L 1731 2069 
L 2456 2069 
L 2463 2744 
L 1731 2744 
z
M 1306 3038 
L 2888 3038 
L 2875 1769 
L 1306 1769 
L 1306 3038 
z
" transform="scale(0.015625)"/>
       <path id="WenQuanYiZenHei-5bb6" d="M 1750 3363 
Q 1438 3363 1125 3344 
Q 1144 3513 1125 3681 
Q 1438 3669 1750 3669 
L 4469 3669 
Q 4781 3669 5094 3681 
Q 5075 3513 5094 3344 
Q 4781 3363 4469 3363 
L 3294 3363 
L 3319 3338 
L 2994 3050 
Q 3488 2794 3706 2075 
Q 4088 2256 4431 2512 
Q 4775 2769 5200 3169 
Q 5350 2981 5531 2838 
Q 5069 2350 4419 1969 
Q 4663 881 5394 350 
Q 5713 119 6075 -25 
Q 5850 -150 5763 -388 
Q 5138 -125 4700 456 
Q 4263 1038 4063 1775 
L 3800 1650 
Q 3931 669 3613 -238 
Q 3550 -388 3444 -538 
Q 3219 -850 2744 -925 
Q 2675 -638 2406 -525 
Q 3038 -531 3213 -106 
Q 3419 488 3413 1181 
Q 1988 -113 431 -544 
Q 394 -275 206 -81 
Q 869 88 1512 384 
Q 2156 681 2575 1040 
Q 2994 1400 3331 1756 
L 3356 1731 
Q 3306 2000 3219 2219 
Q 1938 956 538 606 
Q 506 869 325 1069 
Q 869 1194 1387 1419 
Q 1906 1644 2256 1941 
Q 2606 2238 2894 2556 
L 3188 2281 
Q 3025 2613 2750 2694 
Q 2663 2719 2575 2706 
Q 1606 1963 638 1638 
Q 581 1900 388 2081 
Q 1575 2450 2281 3025 
Q 2431 3150 2663 3363 
L 1750 3363 
z
M 781 3469 
L 350 3469 
L 350 4669 
L 3006 4669 
L 2463 5050 
L 2731 5438 
L 3406 4963 
L 3200 4669 
L 5863 4669 
L 5863 3469 
L 5431 3469 
L 5431 4363 
L 781 4363 
L 781 3469 
z
" transform="scale(0.015625)"/>
       <path id="WenQuanYiZenHei-2f" d="M 3213 4388 
L 563 -1094 
L 138 -1094 
L 2775 4388 
L 3213 4388 
z
" transform="scale(0.015625)"/>
       <path id="WenQuanYiZenHei-5730" d="M 3238 -688 
Q 2981 -688 2775 -500 
Q 2569 -313 2569 75 
L 2569 2438 
Q 2263 2325 1956 2194 
Q 1906 2388 1819 2563 
L 2569 2825 
L 2569 3406 
Q 2569 3863 2550 4325 
Q 2800 4294 3044 4325 
Q 3025 3863 3025 3406 
L 3025 2988 
L 3819 3281 
L 3819 4344 
Q 3819 4800 3800 5263 
Q 4050 5238 4294 5263 
Q 4275 4800 4275 4344 
L 4275 3450 
L 5700 3975 
L 5700 1388 
Q 5669 994 5350 869 
Q 5050 738 4625 744 
Q 4694 1050 4488 1294 
Q 4669 1275 4916 1269 
Q 5163 1263 5203 1303 
Q 5244 1344 5244 1506 
L 5244 3425 
L 4275 3069 
L 4275 1331 
Q 4275 869 4294 413 
Q 4050 438 3800 413 
Q 3819 869 3819 1331 
L 3819 2900 
L 3025 2606 
L 3025 75 
Q 3025 -69 3081 -175 
Q 3138 -281 3244 -281 
L 5456 -275 
Q 5575 -275 5653 -165 
Q 5731 -56 5750 100 
L 5875 988 
Q 6075 850 6313 856 
L 6138 -244 
Q 6113 -431 6025 -559 
Q 5938 -688 5794 -688 
L 3238 -688 
z
M -31 625 
Q 481 763 956 975 
L 956 3206 
L 638 3206 
Q 356 3206 69 3188 
Q 88 3356 69 3531 
Q 356 3513 638 3513 
L 956 3513 
L 956 4263 
Q 956 4700 938 5131 
Q 1150 5106 1363 5131 
Q 1344 4700 1344 4263 
L 1344 3513 
L 2131 3531 
Q 2113 3356 2131 3188 
L 1344 3206 
L 1344 1163 
L 2044 1531 
L 2088 1256 
Q 1206 775 775 519 
L 188 144 
Q 131 438 -31 625 
z
" transform="scale(0.015625)"/>
       <path id="WenQuanYiZenHei-5340" d="M 3738 650 
Q 3813 1400 3738 2150 
L 5625 2150 
Q 5544 1400 5613 650 
L 3738 650 
z
M 1406 650 
Q 1488 1400 1406 2150 
L 3294 2150 
Q 3213 1400 3281 650 
L 1406 650 
z
M 2125 2756 
Q 2200 3431 2125 4106 
L 4869 4106 
Q 4788 3431 4863 2756 
L 2125 2756 
z
M 4163 1850 
L 4163 950 
L 5194 950 
L 5200 1850 
L 4163 1850 
z
M 1831 1850 
L 1831 950 
L 2863 950 
L 2869 1850 
L 1831 1850 
z
M 2544 3806 
L 2544 3056 
L 4444 3056 
L 4444 3806 
L 2544 3806 
z
M 6025 5013 
Q 6006 4844 6025 4675 
Q 5700 4688 5369 4688 
L 863 4688 
L 863 -25 
L 6131 -25 
L 6131 -338 
L 413 -338 
L 406 5000 
L 5369 5000 
Q 5700 5000 6025 5013 
z
" transform="scale(0.015625)"/>
       <path id="WenQuanYiZenHei-5225" d="M 1213 2813 
L 769 2813 
L 769 4969 
L 3263 4969 
L 3263 2813 
L 2819 2813 
L 2819 3075 
L 1850 3075 
L 1850 2281 
L 3306 2281 
L 3306 -194 
Q 3306 -431 3147 -575 
Q 2988 -719 2769 -775 
Q 2531 -831 2156 -825 
Q 2225 -519 2006 -281 
Q 2206 -306 2487 -309 
Q 2769 -313 2816 -275 
Q 2863 -238 2863 -69 
L 2863 1938 
L 1850 1938 
Q 1906 756 1350 -38 
Q 1031 -500 544 -788 
Q 419 -538 156 -450 
Q 669 -231 988 225 
Q 1406 813 1406 1663 
L 1406 3075 
Q 1313 3075 1213 3075 
L 1213 2813 
z
M 2819 4625 
L 1219 4625 
L 1213 3419 
L 2819 3419 
L 2819 4625 
z
M 4831 -888 
Q 4881 -544 4688 -350 
Q 4881 -375 5122 -378 
Q 5363 -381 5434 -325 
Q 5506 -269 5506 38 
L 5506 4181 
Q 5506 4631 5488 5075 
Q 5719 5050 5956 5075 
Q 5931 4631 5931 4181 
L 5931 -106 
Q 5931 -656 5538 -800 
Q 5206 -913 4831 -888 
z
M 4694 756 
Q 4456 781 4225 756 
Q 4244 1200 4244 1650 
L 4244 3269 
Q 4244 3713 4225 4163 
Q 4456 4138 4694 4163 
Q 4669 3713 4669 3269 
L 4669 1650 
Q 4669 1200 4694 756 
z
" transform="scale(0.015625)"/>
      </defs>
      <use xlink:href="#WenQuanYiZenHei-570b"/>
      <use xlink:href="#WenQuanYiZenHei-5bb6" transform="translate(100 0)"/>
      <use xlink:href="#WenQuanYiZenHei-2f" transform="translate(200 0)"/>
      <use xlink:href="#WenQuanYiZenHei-5730" transform="translate(251.953125 0)"/>
      <use xlink:href="#WenQuanYiZenHei-5340" transform="translate(351.953125 0)"/>
      <use xlink:href="#WenQuanYiZenHei-5225" transform="translate(451.953125 0)"/>
     </g>
    </g>
   </g>
   <g id="line2d_26">
    <path d="M 67.833523 61.086281 
L 113.488068 73.0432 
L 159.142614 54.64332 
L 204.797159 38.51625 
L 250.451705 68.818096 
L 296.10625 95.975011 
L 341.760795 58.601668 
L 387.415341 76.614762 
L 433.069886 107.017173 
L 478.724432 129.428094 
L 524.378977 139.98563 
" clip-path="url(#p8e933b923d)" style="fill: none; stroke: #1f77b4; stroke-width: 1.5; stroke-linecap: square"/>
    <defs>
     <path id="mbc486bfad6" d="M -3 3 
L 3 3 
L 3 -3 
L -3 -3 
z
" style="stroke: #1f77b4; stroke-linejoin: miter"/>
    </defs>
    <g clip-path="url(#p8e933b923d)">
     <use xlink:href="#mbc486bfad6" x="67.833523" y="61.086281" style="fill: #1f77b4; stroke: #1f77b4; stroke-linejoin: miter"/>
     <use xlink:href="#mbc486bfad6" x="113.488068" y="73.0432" style="fill: #1f77b4; stroke: #1f77b4; stroke-linejoin: miter"/>
     <use xlink:href="#mbc486bfad6" x="159.142614" y="54.64332" style="fill: #1f77b4; stroke: #1f77b4; stroke-linejoin: miter"/>
     <use xlink:href="#mbc486bfad6" x="204.797159" y="38.51625" style="fill: #1f77b4; stroke: #1f77b4; stroke-linejoin: miter"/>
     <use xlink:href="#mbc486bfad6" x="250.451705" y="68.818096" style="fill: #1f77b4; stroke: #1f77b4; stroke-linejoin: miter"/>
     <use xlink:href="#mbc486bfad6" x="296.10625" y="95.975011" style="fill: #1f77b4; stroke: #1f77b4; stroke-linejoin: miter"/>
     <use xlink:href="#mbc486bfad6" x="341.760795" y="58.601668" style="fill: #1f77b4; stroke: #1f77b4; stroke-linejoin: miter"/>
     <use xlink:href="#mbc486bfad6" x="387.415341" y="76.614762" style="fill: #1f77b4; stroke: #1f77b4; stroke-linejoin: miter"/>
     <use xlink:href="#mbc486bfad6" x="433.069886" y="107.017173" style="fill: #1f77b4; stroke: #1f77b4; stroke-linejoin: miter"/>
     <use xlink:href="#mbc486bfad6" x="478.724432" y="129.428094" style="fill: #1f77b4; stroke: #1f77b4; stroke-linejoin: miter"/>
     <use xlink:href="#mbc486bfad6" x="524.378977" y="139.98563" style="fill: #1f77b4; stroke: #1f77b4; stroke-linejoin: miter"/>
    </g>
   </g>
   <g id="line2d_27">
    <path d="M 67.833523 334.169899 
L 113.488068 332.299821 
L 159.142614 307.091777 
L 204.797159 310.858321 
L 250.451705 338.525671 
L 296.10625 340.91625 
L 341.760795 265.06117 
L 387.415341 258.668281 
L 433.069886 277.376998 
L 478.724432 271.981485 
L 524.378977 296.320377 
" clip-path="url(#p8e933b923d)" style="fill: none; stroke: #ff7f0e; stroke-width: 1.5; stroke-linecap: square"/>
    <defs>
     <path id="m982a272c8e" d="M 0 3 
C 0.795609 3 1.55874 2.683901 2.12132 2.12132 
C 2.683901 1.55874 3 0.795609 3 0 
C 3 -0.795609 2.683901 -1.55874 2.12132 -2.12132 
C 1.55874 -2.683901 0.795609 -3 0 -3 
C -0.795609 -3 -1.55874 -2.683901 -2.12132 -2.12132 
C -2.683901 -1.55874 -3 -0.795609 -3 0 
C -3 0.795609 -2.683901 1.55874 -2.12132 2.12132 
C -1.55874 2.683901 -0.795609 3 0 3 
z
" style="stroke: #ff7f0e"/>
    </defs>
    <g clip-path="url(#p8e933b923d)">
     <use xlink:href="#m982a272c8e" x="67.833523" y="334.169899" style="fill: #ff7f0e; stroke: #ff7f0e"/>
     <use xlink:href="#m982a272c8e" x="113.488068" y="332.299821" style="fill: #ff7f0e; stroke: #ff7f0e"/>
     <use xlink:href="#m982a272c8e" x="159.142614" y="307.091777" style="fill: #ff7f0e; stroke: #ff7f0e"/>
     <use xlink:href="#m982a272c8e" x="204.797159" y="310.858321" style="fill: #ff7f0e; stroke: #ff7f0e"/>
     <use xlink:href="#m982a272c8e" x="250.451705" y="338.525671" style="fill: #ff7f0e; stroke: #ff7f0e"/>
     <use xlink:href="#m982a272c8e" x="296.10625" y="340.91625" style="fill: #ff7f0e; stroke: #ff7f0e"/>
     <use xlink:href="#m982a272c8e" x="341.760795" y="265.06117" style="fill: #ff7f0e; stroke: #ff7f0e"/>
     <use xlink:href="#m982a272c8e" x="387.415341" y="258.668281" style="fill: #ff7f0e; stroke: #ff7f0e"/>
     <use xlink:href="#m982a272c8e" x="433.069886" y="277.376998" style="fill: #ff7f0e; stroke: #ff7f0e"/>
     <use xlink:href="#m982a272c8e" x="478.724432" y="271.981485" style="fill: #ff7f0e; stroke: #ff7f0e"/>
     <use xlink:href="#m982a272c8e" x="524.378977" y="296.320377" style="fill: #ff7f0e; stroke: #ff7f0e"/>
    </g>
   </g>
   <g id="patch_3">
    <path d="M 45.00625 356.03625 
L 45.00625 23.39625 
" style="fill: none; stroke: #000000; stroke-width: 0.8; stroke-linejoin: miter; stroke-linecap: square"/>
   </g>
   <g id="patch_4">
    <path d="M 547.20625 356.03625 
L 547.20625 23.39625 
" style="fill: none; stroke: #000000; stroke-width: 0.8; stroke-linejoin: miter; stroke-linecap: square"/>
   </g>
   <g id="patch_5">
    <path d="M 45.00625 356.03625 
L 547.20625 356.03625 
" style="fill: none; stroke: #000000; stroke-width: 0.8; stroke-linejoin: miter; stroke-linecap: square"/>
   </g>
   <g id="patch_6">
    <path d="M 45.00625 23.39625 
L 547.20625 23.39625 
" style="fill: none; stroke: #000000; stroke-width: 0.8; stroke-linejoin: miter; stroke-linecap: square"/>
   </g>
   <g id="text_15">
    <!-- 104 年度國家財政部出口統計 (1)有機化學品 -->
    <g transform="translate(178.5175 17.39625) scale(0.12 -0.12)">
     <defs>
      <path id="WenQuanYiZenHei-20" transform="scale(0.015625)"/>
      <path id="WenQuanYiZenHei-5e74" d="M 3638 -769 
Q 3388 -744 3138 -769 
Q 3163 -313 3163 150 
L 3163 1044 
L 969 1044 
Q 606 1044 244 1025 
Q 263 1219 244 1419 
Q 606 1400 969 1400 
L 1406 1400 
L 1400 2963 
L 3163 2963 
L 3163 3925 
L 1725 3925 
Q 1131 2881 494 2244 
Q 319 2463 50 2544 
Q 756 3219 1125 3794 
Q 1494 4369 1763 5169 
Q 2006 5044 2269 4969 
L 1925 4281 
L 5044 4281 
Q 5406 4281 5769 4300 
Q 5750 4106 5769 3906 
Q 5406 3925 5044 3925 
L 3613 3925 
L 3613 2963 
L 4769 2963 
Q 5131 2963 5494 2981 
Q 5475 2788 5494 2588 
Q 5131 2606 4769 2606 
L 3613 2606 
L 3613 1400 
L 5406 1400 
Q 5769 1400 6131 1419 
Q 6113 1219 6131 1025 
Q 5769 1044 5406 1044 
L 3613 1044 
L 3613 150 
Q 3613 -313 3638 -769 
z
M 3163 1400 
L 3163 2606 
L 1850 2606 
L 1856 1400 
L 3163 1400 
z
" transform="scale(0.015625)"/>
      <path id="WenQuanYiZenHei-5ea6" d="M 1863 1488 
Q 1881 1663 1863 1838 
Q 2181 1819 2506 1819 
L 5231 1819 
Q 4863 869 4081 213 
Q 4381 25 4763 -94 
Q 5388 -294 6044 -238 
Q 5894 -450 5913 -706 
Q 4731 -769 3744 -44 
Q 2731 -725 1519 -731 
Q 1450 -475 1300 -256 
Q 2431 -356 3388 244 
Q 2825 763 2413 1500 
Q 2138 1500 1863 1488 
z
M 5400 3613 
Q 5725 3613 6050 3631 
Q 6031 3456 6050 3281 
Q 5725 3294 5400 3294 
L 4800 3294 
Q 4794 2600 4794 2275 
L 2531 2275 
Q 2531 2781 2531 3294 
L 2213 3294 
Q 1894 3294 1569 3281 
Q 1588 3456 1569 3631 
Q 1894 3613 2213 3613 
L 2531 3613 
Q 2531 3963 2513 4306 
Q 2750 4281 2988 4306 
Q 2975 3963 2969 3613 
L 4363 3613 
Q 4363 3944 4350 4275 
Q 4588 4250 4825 4275 
Q 4806 3944 4800 3613 
L 5400 3613 
z
M 1013 4738 
L 3413 4738 
L 3025 5069 
L 3331 5431 
L 3856 4981 
L 3650 4738 
L 5444 4738 
Q 5769 4738 6094 4750 
Q 6075 4575 6094 4400 
Q 5769 4419 5444 4419 
L 1444 4419 
L 1456 1550 
Q 1463 44 600 -738 
Q 444 -525 181 -481 
Q 1044 100 1019 1550 
L 1013 4738 
z
M 2863 1500 
Q 3250 869 3719 475 
Q 4256 906 4581 1500 
L 2863 1500 
z
M 2969 3294 
Q 2969 2956 2969 2594 
L 4356 2594 
Q 4363 2931 4363 3294 
L 2969 3294 
z
" transform="scale(0.015625)"/>
      <path id="WenQuanYiZenHei-8ca1" d="M 3594 3363 
Q 3281 3363 2969 3344 
Q 2988 3513 2969 3681 
Q 3281 3669 3594 3669 
L 4706 3669 
L 4706 4313 
Q 4706 4744 4688 5181 
Q 4925 5156 5156 5181 
Q 5138 4744 5138 4313 
L 5138 3669 
L 5563 3669 
Q 5875 3669 6188 3681 
Q 6169 3513 6188 3344 
Q 5875 3363 5563 3363 
L 5138 3363 
L 5138 -44 
Q 5138 -481 4900 -644 
Q 4644 -819 4025 -813 
Q 4094 -513 3888 -288 
Q 4075 -313 4319 -316 
Q 4563 -319 4638 -263 
Q 4719 -144 4706 231 
L 4706 2669 
Q 3869 1169 3038 206 
Q 2856 406 2600 463 
Q 3469 1400 3950 2231 
Q 4225 2694 4556 3363 
L 3594 3363 
z
M 2331 -756 
Q 2050 -150 1688 394 
L 2031 575 
L 2031 881 
L 925 881 
L 925 556 
L 888 556 
Q 1088 494 1313 463 
Q 1138 -194 688 -656 
Q 569 -788 431 -919 
Q 294 -750 56 -681 
Q 588 -206 825 556 
L 469 556 
L 469 4969 
L 2488 4969 
L 2488 556 
L 2163 556 
Q 2506 19 2794 -588 
L 2331 -756 
z
M 2031 3681 
L 2031 4700 
L 925 4700 
L 925 3681 
L 2031 3681 
z
M 2031 2394 
L 2031 3444 
L 925 3444 
L 925 2394 
L 2031 2394 
z
M 2031 2156 
L 925 2156 
L 925 1119 
L 2031 1119 
L 2031 2156 
z
" transform="scale(0.015625)"/>
      <path id="WenQuanYiZenHei-653f" d="M 2925 2750 
Q 2906 2575 2925 2400 
Q 2656 2413 2444 2413 
L 2031 2413 
L 2031 381 
Q 2388 475 3094 681 
L 3094 394 
Q 1206 -156 175 -538 
Q 175 -250 19 -13 
Q 275 13 538 56 
L 538 2356 
Q 538 2800 513 3238 
Q 750 3213 994 3238 
Q 969 2800 969 2356 
L 969 131 
Q 1275 188 1600 269 
L 1600 4275 
L 813 4275 
Q 488 4275 169 4263 
Q 181 4438 169 4613 
Q 488 4594 813 4594 
L 2556 4594 
Q 2881 4594 3206 4613 
Q 3188 4438 3206 4263 
Q 2881 4275 2556 4275 
L 2031 4275 
L 2031 2731 
L 2275 2731 
Q 2600 2731 2925 2750 
z
M 3569 5031 
Q 3800 4963 4069 4944 
Q 3950 4400 3788 3869 
L 3763 3781 
L 5275 3781 
Q 5619 3781 5956 3800 
Q 5938 3600 5956 3406 
L 5256 3419 
Q 5188 1925 4613 888 
Q 5206 106 6194 -306 
Q 5975 -438 5881 -694 
Q 4969 -288 4388 519 
Q 3750 -469 2663 -906 
Q 2600 -613 2413 -438 
Q 3531 -44 4131 913 
Q 3600 1806 3481 2963 
Q 3256 2381 2875 1806 
Q 2700 1981 2419 2025 
Q 2681 2406 2968 2937 
Q 3256 3469 3381 3991 
Q 3506 4513 3569 5031 
z
M 3831 3419 
Q 3850 2794 3997 2244 
Q 4144 1694 4350 1300 
Q 4763 2181 4788 3419 
L 3831 3419 
z
" transform="scale(0.015625)"/>
      <path id="WenQuanYiZenHei-90e8" d="M 1169 -763 
Q 931 -738 700 -763 
Q 719 -331 719 106 
L 719 1925 
L 3125 1925 
L 3125 -750 
L 2694 -750 
L 2694 -38 
L 1150 -38 
Q 1150 -400 1169 -763 
z
M 3763 2806 
Q 3744 2638 3763 2469 
Q 3450 2481 3138 2481 
L 694 2481 
Q 381 2481 69 2469 
Q 88 2638 69 2806 
Q 381 2788 694 2788 
L 1150 2788 
Q 875 3388 531 3950 
L 931 4200 
Q 1313 3575 1613 2906 
L 1350 2788 
L 2006 2788 
Q 2475 3350 2681 4288 
L 831 4288 
Q 519 4288 206 4275 
Q 225 4444 206 4613 
Q 519 4594 831 4594 
L 1688 4594 
L 1256 5094 
L 1613 5400 
L 2169 4756 
L 1988 4594 
L 3013 4594 
Q 3325 4594 3638 4613 
Q 3619 4444 3638 4275 
Q 3388 4281 3138 4288 
Q 3056 3538 2538 2788 
L 3138 2788 
Q 3450 2788 3763 2806 
z
M 2694 1619 
L 1150 1619 
L 1150 275 
L 2694 275 
L 2694 1619 
z
M 4431 -856 
Q 4225 -831 4019 -856 
Q 4038 -394 4038 75 
L 4038 4819 
L 5856 4819 
L 5856 4438 
Q 5763 4313 5713 4156 
L 5238 2756 
Q 5600 2450 5806 1972 
Q 6013 1494 6013 947 
Q 6013 400 5325 56 
L 5081 -56 
Q 4994 188 4869 388 
L 5263 531 
Q 5650 669 5650 950 
Q 5650 1494 5428 1969 
Q 5206 2444 4819 2719 
L 5400 4438 
L 4413 4438 
L 4413 75 
Q 4413 -388 4431 -856 
z
" transform="scale(0.015625)"/>
      <path id="WenQuanYiZenHei-51fa" d="M 5400 -594 
Q 5150 -569 4906 -594 
Q 4919 -356 4919 -119 
L 431 -119 
L 431 981 
Q 431 1438 406 1894 
Q 656 1869 900 1894 
Q 881 1438 881 981 
L 881 238 
L 2675 238 
L 2675 2500 
L 688 2500 
L 688 3488 
Q 688 3950 663 4406 
Q 913 4381 1163 4406 
Q 1138 3950 1138 3488 
L 1138 2856 
L 2675 2856 
L 2675 4344 
Q 2675 4806 2656 5263 
Q 2906 5238 3150 5263 
Q 3131 4806 3131 4344 
L 3131 2856 
L 4669 2856 
Q 4669 3175 4669 3562 
Q 4669 3950 4644 4406 
Q 4894 4381 5144 4406 
Q 5125 3988 5122 3516 
Q 5119 3044 5119 2500 
L 3131 2500 
L 3131 238 
L 4925 238 
L 4925 981 
Q 4925 1438 4906 1894 
Q 5150 1869 5400 1894 
Q 5381 1438 5381 981 
L 5381 325 
Q 5381 -138 5400 -594 
z
" transform="scale(0.015625)"/>
      <path id="WenQuanYiZenHei-53e3" d="M 1181 -781 
Q 925 -756 669 -781 
Q 688 -313 688 163 
L 694 4506 
L 5288 4506 
L 5288 -769 
L 4825 -769 
L 4825 219 
L 1156 219 
L 1156 163 
Q 1156 -313 1181 -781 
z
M 4825 4113 
L 1156 4113 
L 1156 619 
L 4825 619 
L 4825 4113 
z
" transform="scale(0.015625)"/>
      <path id="WenQuanYiZenHei-7d71" d="M 4894 -663 
Q 4594 -663 4434 -488 
Q 4275 -313 4275 -44 
L 4275 2250 
L 3844 2188 
L 3844 1556 
Q 3844 781 3403 143 
Q 2963 -494 2275 -788 
Q 2181 -538 1931 -438 
Q 2581 -244 3003 303 
Q 3425 850 3425 1556 
L 3425 2119 
L 2619 1988 
L 2575 2275 
Q 2675 2306 2750 2381 
Q 2931 2575 3209 3081 
Q 3488 3588 3575 3950 
L 3125 3950 
Q 2831 3950 2538 3938 
Q 2556 4094 2538 4250 
Q 2831 4238 3125 4238 
L 4044 4238 
L 3513 4950 
L 3875 5225 
L 4563 4325 
L 4450 4238 
L 5306 4238 
Q 5600 4238 5894 4250 
Q 5875 4094 5894 3938 
Q 5600 3950 5306 3950 
L 4081 3950 
Q 3988 3656 3638 3081 
Q 3325 2538 3200 2369 
L 4956 2631 
L 4581 3156 
L 4950 3431 
Q 5456 2756 5881 2031 
L 5481 1794 
Q 5313 2094 5125 2375 
L 4694 2319 
L 4694 -44 
Q 4694 -150 4750 -228 
Q 4806 -306 4900 -306 
L 5594 -306 
Q 5669 -300 5688 -238 
L 5825 663 
Q 6013 544 6231 538 
L 6038 -506 
Q 6019 -594 5969 -644 
Q 5938 -663 5894 -663 
L 4894 -663 
z
M 2631 431 
L 2200 263 
L 1838 1194 
L 2269 1363 
L 2631 431 
z
M 1819 163 
L 1388 -6 
L 1025 925 
L 1456 1094 
L 1819 163 
z
M 125 -294 
Q 338 288 444 900 
L 900 819 
Q 781 169 556 -456 
L 125 -294 
z
M 2600 1781 
L 2231 1506 
L 2069 1725 
L 1863 1700 
L 200 1350 
L 144 1631 
Q 263 1663 344 1756 
Q 738 2219 1388 3138 
L 225 3119 
L 225 3413 
Q 325 3413 400 3481 
Q 613 3688 953 4272 
Q 1294 4856 1331 5188 
Q 1569 5088 1819 5044 
Q 1788 4919 1709 4766 
Q 1631 4613 1290 4094 
Q 950 3575 819 3413 
L 1463 3394 
L 1575 3406 
Q 1844 3806 1963 4044 
Q 2163 3888 2388 3775 
Q 2269 3588 1869 3075 
L 831 1769 
L 1813 1950 
L 1881 1975 
L 1594 2363 
L 1963 2638 
L 2600 1781 
z
" transform="scale(0.015625)"/>
      <path id="WenQuanYiZenHei-8a08" d="M 4600 -763 
Q 4363 -738 4119 -763 
Q 4144 -325 4144 119 
L 4144 2806 
L 3338 2806 
Q 3019 2806 2694 2794 
Q 2713 2969 2694 3144 
Q 3019 3125 3338 3125 
L 4144 3125 
L 4144 4463 
Q 4144 4900 4119 5338 
Q 4363 5313 4600 5338 
Q 4575 4900 4575 4463 
L 4575 3125 
L 5538 3125 
Q 5863 3125 6188 3144 
Q 6169 2969 6188 2794 
Q 5863 2806 5538 2806 
L 4575 2806 
L 4575 119 
Q 4575 -325 4600 -763 
z
M 675 -844 
Q 425 -819 175 -844 
Q 200 -431 200 -13 
L 200 1413 
L 2363 1413 
L 2363 -831 
L 1900 -831 
L 1900 -300 
L 656 -300 
Q 663 -569 675 -844 
z
M 2281 2444 
Q 2263 2294 2281 2144 
Q 1969 2156 1663 2156 
L 913 2156 
Q 606 2156 294 2144 
Q 313 2294 294 2444 
Q 606 2431 913 2431 
L 1663 2431 
Q 1969 2431 2281 2444 
z
M 2294 3394 
Q 2275 3244 2294 3094 
Q 1988 3106 1675 3106 
L 900 3106 
Q 588 3106 281 3094 
Q 294 3244 281 3394 
Q 588 3381 900 3381 
L 1675 3381 
Q 1988 3381 2294 3394 
z
M 2556 4356 
Q 2538 4206 2556 4056 
Q 2244 4075 1938 4075 
L 706 4075 
Q 400 4075 88 4056 
Q 106 4206 88 4356 
Q 400 4344 706 4344 
L 1938 4344 
Q 2244 4344 2556 4356 
z
M 1719 4731 
L 1413 4369 
L 569 4944 
L 869 5306 
L 1719 4731 
z
M 1900 1144 
L 656 1144 
L 656 -50 
L 1900 -50 
L 1900 1144 
z
" transform="scale(0.015625)"/>
     </defs>
     <use xlink:href="#WenQuanYiZenHei-31"/>
     <use xlink:href="#WenQuanYiZenHei-30" transform="translate(59.960938 0)"/>
     <use xlink:href="#WenQuanYiZenHei-34" transform="translate(119.921875 0)"/>
     <use xlink:href="#WenQuanYiZenHei-20" transform="translate(179.882812 0)"/>
     <use xlink:href="#WenQuanYiZenHei-5e74" transform="translate(209.863281 0)"/>
     <use xlink:href="#WenQuanYiZenHei-5ea6" transform="translate(309.863281 0)"/>
     <use xlink:href="#WenQuanYiZenHei-570b" transform="translate(409.863281 0)"/>
     <use xlink:href="#WenQuanYiZenHei-5bb6" transform="translate(509.863281 0)"/>
     <use xlink:href="#WenQuanYiZenHei-8ca1" transform="translate(609.863281 0)"/>
     <use xlink:href="#WenQuanYiZenHei-653f" transform="translate(709.863281 0)"/>
     <use xlink:href="#WenQuanYiZenHei-90e8" transform="translate(809.863281 0)"/>
     <use xlink:href="#WenQuanYiZenHei-51fa" transform="translate(909.863281 0)"/>
     <use xlink:href="#WenQuanYiZenHei-53e3" transform="translate(1009.863281 0)"/>
     <use xlink:href="#WenQuanYiZenHei-7d71" transform="translate(1109.863281 0)"/>
     <use xlink:href="#WenQuanYiZenHei-8a08" transform="translate(1209.863281 0)"/>
     <use xlink:href="#WenQuanYiZenHei-20" transform="translate(1309.863281 0)"/>
     <use xlink:href="#WenQuanYiZenHei-28" transform="translate(1339.84375 0)"/>
     <use xlink:href="#WenQuanYiZenHei-31" transform="translate(1369.824219 0)"/>
     <use xlink:href="#WenQuanYiZenHei-29" transform="translate(1429.785156 0)"/>
     <use xlink:href="#WenQuanYiZenHei-6709" transform="translate(1459.765625 0)"/>
     <use xlink:href="#WenQuanYiZenHei-6a5f" transform="translate(1559.765625 0)"/>
     <use xlink:href="#WenQuanYiZenHei-5316" transform="translate(1659.765625 0)"/>
     <use xlink:href="#WenQuanYiZenHei-5b78" transform="translate(1759.765625 0)"/>
     <use xlink:href="#WenQuanYiZenHei-54c1" transform="translate(1859.765625 0)"/>
    </g>
   </g>
   <g id="legend_1">
    <g id="patch_7">
     <path d="M 483.45 58.718125 
L 540.20625 58.718125 
Q 542.20625 58.718125 542.20625 56.718125 
L 542.20625 30.39625 
Q 542.20625 28.39625 540.20625 28.39625 
L 483.45 28.39625 
Q 481.45 28.39625 481.45 30.39625 
L 481.45 56.718125 
Q 481.45 58.718125 483.45 58.718125 
z
" style="fill: #ffffff; opacity: 0.8; stroke: #cccccc; stroke-linejoin: miter"/>
    </g>
    <g id="line2d_28">
     <path d="M 485.45 35.89625 
L 495.45 35.89625 
L 505.45 35.89625 
" style="fill: none; stroke: #1f77b4; stroke-width: 1.5; stroke-linecap: square"/>
     <g>
      <use xlink:href="#mbc486bfad6" x="495.45" y="35.89625" style="fill: #1f77b4; stroke: #1f77b4; stroke-linejoin: miter"/>
     </g>
    </g>
    <g id="text_16">
     <!-- China -->
     <g transform="translate(513.45 39.39625) scale(0.1 -0.1)">
      <defs>
       <path id="WenQuanYiZenHei-43" d="M 3681 1369 
Q 3388 163 2413 -31 
Q 2238 -63 2056 -63 
Q 1075 -63 588 844 
Q 269 1444 269 2238 
Q 269 3294 819 3913 
Q 1306 4456 2100 4456 
Q 3031 4456 3469 3638 
Q 3613 3375 3681 3050 
L 3163 2956 
Q 2906 3894 2244 3981 
Q 2163 3994 2081 3994 
Q 1281 3994 994 3075 
Q 869 2675 869 2194 
Q 869 1350 1231 838 
Q 1544 394 2056 394 
Q 2888 394 3163 1406 
Q 3175 1444 3181 1481 
L 3681 1369 
z
" transform="scale(0.015625)"/>
       <path id="WenQuanYiZenHei-68" d="M 3006 0 
L 2506 0 
L 2506 1894 
Q 2506 2538 2313 2750 
L 2206 2844 
L 2063 2900 
Q 1969 2925 1856 2925 
Q 1488 2925 1194 2581 
Q 956 2231 950 1669 
L 950 0 
L 450 0 
L 450 4388 
L 950 4388 
L 950 2650 
L 969 2650 
Q 1288 3338 1975 3338 
Q 2706 3338 2931 2650 
Q 3006 2413 3006 2119 
L 3006 0 
z
" transform="scale(0.015625)"/>
       <path id="WenQuanYiZenHei-69" d="M 1044 3825 
L 494 3825 
L 494 4388 
L 1044 4388 
L 1044 3825 
z
M 1019 0 
L 519 0 
L 519 3250 
L 1019 3250 
L 1019 0 
z
" transform="scale(0.015625)"/>
       <path id="WenQuanYiZenHei-6e" d="M 3013 0 
L 2513 0 
L 2513 2013 
Q 2513 2425 2444 2575 
Q 2438 2594 2425 2613 
Q 2288 2856 1956 2900 
Q 1913 2906 1869 2906 
Q 1263 2906 1038 2288 
Q 944 2019 944 1700 
L 944 0 
L 444 0 
L 444 3250 
L 913 3250 
L 913 2650 
L 925 2650 
Q 1156 3150 1644 3288 
Q 1788 3338 1938 3338 
Q 2544 3338 2844 2856 
L 2863 2831 
Q 3013 2569 3013 1931 
L 3013 0 
z
" transform="scale(0.015625)"/>
       <path id="WenQuanYiZenHei-61" d="M 3181 0 
L 2681 0 
L 2625 606 
Q 2294 -63 1488 -63 
Q 856 -63 544 331 
Q 350 575 350 919 
Q 350 1400 763 1706 
Q 850 1781 956 1825 
Q 1375 2025 2344 2019 
L 2625 2019 
L 2625 2156 
Q 2625 2756 2200 2894 
L 1975 2938 
Q 1894 2944 1800 2944 
Q 1025 2944 906 2369 
L 444 2444 
Q 525 3075 1281 3263 
Q 1544 3338 1844 3338 
Q 2675 3338 2931 2894 
Q 3113 2594 3113 1944 
L 3113 688 
Q 3113 244 3181 0 
z
M 2625 1425 
L 2625 1638 
L 2206 1638 
Q 888 1638 888 894 
Q 888 488 1319 363 
Q 1444 325 1594 325 
Q 2125 325 2425 769 
Q 2625 1063 2625 1425 
z
" transform="scale(0.015625)"/>
      </defs>
      <use xlink:href="#WenQuanYiZenHei-43"/>
      <use xlink:href="#WenQuanYiZenHei-68" transform="translate(61.914062 0)"/>
      <use xlink:href="#WenQuanYiZenHei-69" transform="translate(115.820312 0)"/>
      <use xlink:href="#WenQuanYiZenHei-6e" transform="translate(139.746094 0)"/>
      <use xlink:href="#WenQuanYiZenHei-61" transform="translate(193.652344 0)"/>
     </g>
    </g>
    <g id="line2d_29">
     <path d="M 485.45 49.557187 
L 495.45 49.557187 
L 505.45 49.557187 
" style="fill: none; stroke: #ff7f0e; stroke-width: 1.5; stroke-linecap: square"/>
     <g>
      <use xlink:href="#m982a272c8e" x="495.45" y="49.557187" style="fill: #ff7f0e; stroke: #ff7f0e"/>
     </g>
    </g>
    <g id="text_17">
     <!-- USA -->
     <g transform="translate(513.45 53.057187) scale(0.1 -0.1)">
      <defs>
       <path id="WenQuanYiZenHei-55" d="M 3544 1613 
Q 3544 919 3338 569 
Q 3281 494 3225 425 
Q 2819 -63 2044 -63 
Q 944 -63 644 731 
Q 519 1075 519 1613 
L 519 4388 
L 1069 4388 
L 1069 1613 
Q 1069 869 1363 619 
Q 1600 425 2088 425 
Q 2869 425 3031 1088 
Q 3088 1306 3088 1613 
L 3088 4388 
L 3544 4388 
L 3544 1613 
z
" transform="scale(0.015625)"/>
       <path id="WenQuanYiZenHei-53" d="M 3688 1256 
Q 3688 444 2931 106 
Q 2544 -63 2050 -63 
Q 700 -63 269 1181 
L 763 1294 
Q 963 613 1663 450 
Q 1850 406 2063 406 
Q 2700 406 2975 750 
Q 3119 925 3119 1181 
Q 3119 1631 2550 1850 
L 2144 1963 
Q 1406 2150 1338 2175 
Q 1013 2281 844 2431 
Q 488 2750 488 3244 
Q 488 3994 1181 4300 
Q 1538 4456 1975 4456 
Q 2881 4456 3338 3800 
L 3463 3569 
Q 3506 3481 3538 3381 
L 3038 3244 
Q 2956 3675 2488 3900 
Q 2238 4019 1963 4019 
Q 1506 4019 1219 3756 
Q 1025 3575 1025 3319 
Q 1025 2888 1563 2688 
Q 1694 2644 2394 2481 
Q 3019 2338 3275 2125 
Q 3688 1794 3688 1256 
z
" transform="scale(0.015625)"/>
       <path id="WenQuanYiZenHei-41" d="M 3550 0 
L 2988 0 
L 2550 1281 
L 919 1281 
L 531 0 
L 69 0 
L 1494 4388 
L 2125 4388 
L 3550 0 
z
M 2425 1694 
L 1756 3800 
L 1075 1694 
L 2425 1694 
z
" transform="scale(0.015625)"/>
      </defs>
      <use xlink:href="#WenQuanYiZenHei-55"/>
      <use xlink:href="#WenQuanYiZenHei-53" transform="translate(63.964844 0)"/>
      <use xlink:href="#WenQuanYiZenHei-41" transform="translate(125.878906 0)"/>
     </g>
    </g>
   </g>
  </g>
 </g>
 <defs>
  <clipPath id="p8e933b923d">
   <rect x="45.00625" y="23.39625" width="502.2" height="332.64"/>
  </clipPath>
 </defs>
</svg>
