<?xml version="1.0" encoding="utf-8" standalone="no"?>
<!DOCTYPE svg PUBLIC "-//W3C//DTD SVG 1.1//EN"
  "http://www.w3.org/Graphics/SVG/1.1/DTD/svg11.dtd">
<svg xmlns:xlink="http://www.w3.org/1999/xlink" width="617.80625pt" height="392.758125pt" viewBox="0 0 617.80625 392.758125" xmlns="http://www.w3.org/2000/svg" version="1.1">
 <metadata>
  <rdf:RDF xmlns:dc="http://purl.org/dc/elements/1.1/" xmlns:cc="http://creativecommons.org/ns#" xmlns:rdf="http://www.w3.org/1999/02/22-rdf-syntax-ns#">
   <cc:Work>
    <dc:type rdf:resource="http://purl.org/dc/dcmitype/StillImage"/>
    <dc:date>2026-01-15T11:52:30.984857</dc:date>
    <dc:format>image/svg+xml</dc:format>
    <dc:creator>
     <cc:Agent>
      <dc:title>Matplotlib v3.10.8, https://matplotlib.org/</dc:title>
     </cc:Agent>
    </dc:creator>
   </cc:Work>
  </rdf:RDF>
 </metadata>
 <defs>
  <style type="text/css">*{stroke-linejoin: round; stroke-linecap: butt}</style>
 </defs>
 <g id="figure_1">
  <g id="patch_1">
   <path d="M 0 392.758125 
L 617.80625 392.758125 
L 617.80625 0 
L 0 0 
z
" style="fill: #ffffff"/>
  </g>
  <g id="axes_1">
   <g id="patch_2">
    <path d="M 108.40625 356.03625 
L 610.60625 356.03625 
L 610.60625 23.39625 
L 108.40625 23.39625 
z
" style="fill: #ffffff"/>
   </g>
   <g id="patch_3">
    <path d="M -445078.727075 38.51625 
L 587.778977 38.51625 
L 587.778977 63.201964 
L -445078.727075 63.201964 
z
" clip-path="url(#p058a1ef89e)" style="fill: #b3b3b3"/>
   </g>
   <g id="patch_4">
    <path d="M -445078.727075 69.373393 
L 411.943191 69.373393 
L 411.943191 94.059107 
L -445078.727075 94.059107 
z
" clip-path="url(#p058a1ef89e)" style="fill: #f6cf71"/>
   </g>
   <g id="patch_5">
    <path d="M -445078.727075 100.230536 
L 351.943886 100.230536 
L 351.943886 124.91625 
L -445078.727075 124.91625 
z
" clip-path="url(#p058a1ef89e)" style="fill: #66c5cc"/>
   </g>
   <g id="patch_6">
    <path d="M -445078.727075 131.087679 
L 242.911009 131.087679 
L 242.911009 155.773393 
L -445078.727075 155.773393 
z
" clip-path="url(#p058a1ef89e)" style="fill: #dcb0f2"/>
   </g>
   <g id="patch_7">
    <path d="M -445078.727075 161.944821 
L 237.53133 161.944821 
L 237.53133 186.630536 
L -445078.727075 186.630536 
z
" clip-path="url(#p058a1ef89e)" style="fill: #9eb9f3"/>
   </g>
   <g id="patch_8">
    <path d="M -445078.727075 192.801964 
L 233.811878 192.801964 
L 233.811878 217.487679 
L -445078.727075 217.487679 
z
" clip-path="url(#p058a1ef89e)" style="fill: #f89c74"/>
   </g>
   <g id="patch_9">
    <path d="M -445078.727075 223.659107 
L 216.733867 223.659107 
L 216.733867 248.344821 
L -445078.727075 248.344821 
z
" clip-path="url(#p058a1ef89e)" style="fill: #fe88b1"/>
   </g>
   <g id="patch_10">
    <path d="M -445078.727075 254.51625 
L 157.414179 254.51625 
L 157.414179 279.201964 
L -445078.727075 279.201964 
z
" clip-path="url(#p058a1ef89e)" style="fill: #f6cf71"/>
   </g>
   <g id="patch_11">
    <path d="M -445078.727075 285.373393 
L 134.565183 285.373393 
L 134.565183 310.059107 
L -445078.727075 310.059107 
z
" clip-path="url(#p058a1ef89e)" style="fill: #f89c74"/>
   </g>
   <g id="patch_12">
    <path d="M -445078.727075 316.230536 
L 131.233523 316.230536 
L 131.233523 340.91625 
L -445078.727075 340.91625 
z
" clip-path="url(#p058a1ef89e)" style="fill: #66c5cc"/>
   </g>
   <g id="matplotlib.axis_1">
    <g id="xtick_1">
     <g id="line2d_1">
      <defs>
       <path id="mcb418777eb" d="M 0 0 
L 0 3.5 
" style="stroke: #000000; stroke-width: 0.8"/>
      </defs>
      <g>
       <use xlink:href="#mcb418777eb" x="313.459343" y="356.03625" style="stroke: #000000; stroke-width: 0.8"/>
      </g>
     </g>
     <g id="text_1">
      <!-- $\mathdefault{10^{6}}$ -->
      <g transform="translate(305.159343 369.975312) scale(0.1 -0.1)">
       <defs>
        <path id="WenQuanYiZenHei-31" d="M 3556 0 
L 488 0 
L 488 406 
L 1800 406 
L 1800 3725 
Q 1231 3125 588 2788 
L 588 3338 
Q 1456 3781 1931 4388 
L 2331 4388 
L 2331 406 
L 3556 406 
L 3556 0 
z
" transform="scale(0.015625)"/>
        <path id="WenQuanYiZenHei-30" d="M 3581 2175 
Q 3581 1288 3169 638 
Q 2713 -63 1938 -63 
Q 1025 -63 563 831 
Q 256 1425 256 2188 
Q 256 3188 700 3819 
Q 1138 4456 1888 4456 
Q 2863 4456 3306 3500 
Q 3581 2925 3581 2175 
z
M 3019 2100 
Q 3019 3356 2500 3806 
L 2350 3919 
Q 2144 4031 1888 4031 
Q 1100 4031 888 2956 
Q 819 2625 819 2225 
Q 819 1013 1338 569 
Q 1588 356 1938 356 
Q 2675 356 2925 1294 
Q 3019 1663 3019 2100 
z
" transform="scale(0.015625)"/>
        <path id="WenQuanYiZenHei-36" d="M 3550 1431 
Q 3550 725 3006 288 
Q 2581 -63 1994 -63 
Q 1013 -63 563 825 
Q 288 1363 288 2081 
Q 288 3294 856 3938 
Q 1319 4456 2075 4456 
Q 2969 4456 3363 3756 
Q 3431 3631 3481 3481 
L 2988 3350 
Q 2750 3994 2075 4006 
Q 1056 4006 844 2669 
Q 794 2356 794 1981 
L 806 1981 
Q 1006 2506 1544 2744 
Q 1819 2869 2119 2869 
Q 2788 2869 3213 2375 
Q 3550 1975 3550 1431 
z
M 3038 1406 
Q 3038 1906 2656 2213 
Q 2381 2431 2038 2431 
Q 1525 2431 1181 2044 
Q 919 1744 919 1356 
Q 919 881 1344 581 
Q 1631 375 1981 375 
Q 2519 375 2838 781 
Q 3038 1050 3038 1406 
z
" transform="scale(0.015625)"/>
       </defs>
       <use xlink:href="#WenQuanYiZenHei-31" transform="translate(0 0.715625)"/>
       <use xlink:href="#WenQuanYiZenHei-30" transform="translate(59.960938 0.715625)"/>
       <use xlink:href="#WenQuanYiZenHei-36" transform="translate(120.810547 36.2625) scale(0.7)"/>
      </g>
     </g>
    </g>
    <g id="xtick_2">
     <g id="line2d_2">
      <defs>
       <path id="m31d5e692c0" d="M 0 0 
L 0 2 
" style="stroke: #000000; stroke-width: 0.6"/>
      </defs>
      <g>
       <use xlink:href="#m31d5e692c0" x="137.277067" y="356.03625" style="stroke: #000000; stroke-width: 0.6"/>
      </g>
     </g>
    </g>
    <g id="xtick_3">
     <g id="line2d_3">
      <g>
       <use xlink:href="#m31d5e692c0" x="180.182596" y="356.03625" style="stroke: #000000; stroke-width: 0.6"/>
      </g>
     </g>
    </g>
    <g id="xtick_4">
     <g id="line2d_4">
      <g>
       <use xlink:href="#m31d5e692c0" x="215.238966" y="356.03625" style="stroke: #000000; stroke-width: 0.6"/>
      </g>
     </g>
    </g>
    <g id="xtick_5">
     <g id="line2d_5">
      <g>
       <use xlink:href="#m31d5e692c0" x="244.878705" y="356.03625" style="stroke: #000000; stroke-width: 0.6"/>
      </g>
     </g>
    </g>
    <g id="xtick_6">
     <g id="line2d_6">
      <g>
       <use xlink:href="#m31d5e692c0" x="270.553814" y="356.03625" style="stroke: #000000; stroke-width: 0.6"/>
      </g>
     </g>
    </g>
    <g id="xtick_7">
     <g id="line2d_7">
      <g>
       <use xlink:href="#m31d5e692c0" x="293.200865" y="356.03625" style="stroke: #000000; stroke-width: 0.6"/>
      </g>
     </g>
    </g>
    <g id="xtick_8">
     <g id="line2d_8">
      <g>
       <use xlink:href="#m31d5e692c0" x="446.736091" y="356.03625" style="stroke: #000000; stroke-width: 0.6"/>
      </g>
     </g>
    </g>
    <g id="xtick_9">
     <g id="line2d_9">
      <g>
       <use xlink:href="#m31d5e692c0" x="524.69799" y="356.03625" style="stroke: #000000; stroke-width: 0.6"/>
      </g>
     </g>
    </g>
    <g id="xtick_10">
     <g id="line2d_10">
      <g>
       <use xlink:href="#m31d5e692c0" x="580.012838" y="356.03625" style="stroke: #000000; stroke-width: 0.6"/>
      </g>
     </g>
    </g>
    <g id="text_2">
     <!-- (1)石油煉製品 -->
     <g transform="translate(328.509375 383.84875) scale(0.1 -0.1)">
      <defs>
       <path id="WenQuanYiZenHei-28" d="M 1606 -1094 
L 1275 -1094 
Q 475 -100 338 1231 
Q 319 1438 319 1656 
Q 319 3031 1156 4244 
Q 1213 4313 1269 4388 
L 1600 4388 
Q 806 3169 794 1681 
Q 794 188 1606 -1094 
z
" transform="scale(0.015625)"/>
       <path id="WenQuanYiZenHei-29" d="M 1600 1656 
Q 1600 306 869 -788 
Q 769 -950 644 -1094 
L 313 -1094 
Q 1125 188 1125 1681 
Q 1125 3169 338 4363 
Q 325 4375 319 4388 
L 650 4388 
Q 1525 3231 1594 1863 
Q 1600 1763 1600 1656 
z
" transform="scale(0.015625)"/>
       <path id="WenQuanYiZenHei-77f3" d="M 1413 4506 
Q 1031 4506 650 4488 
Q 669 4694 650 4900 
Q 1031 4881 1413 4881 
L 5375 4881 
Q 5756 4881 6138 4900 
Q 6113 4694 6138 4488 
Q 5756 4506 5375 4506 
L 3319 4506 
Q 2900 3531 2331 2694 
L 5406 2694 
L 5406 -763 
L 4950 -763 
L 4950 -194 
L 2288 -194 
Q 2294 -481 2306 -775 
Q 2056 -750 1806 -775 
Q 1825 -313 1825 156 
L 1819 1994 
Q 1200 1231 469 656 
Q 325 900 63 1019 
Q 681 1481 1237 2056 
Q 1794 2631 2119 3197 
Q 2444 3763 2775 4506 
L 1413 4506 
z
M 4950 181 
L 4950 2313 
L 2275 2313 
L 2281 181 
L 4950 181 
z
" transform="scale(0.015625)"/>
       <path id="WenQuanYiZenHei-6cb9" d="M 2775 -769 
Q 2531 -744 2288 -769 
Q 2313 -319 2313 125 
L 2313 3556 
L 3838 3556 
L 3838 4369 
Q 3838 4813 3813 5256 
Q 4056 5231 4300 5256 
Q 4275 4813 4275 4369 
L 4275 3556 
L 5863 3556 
L 5863 -756 
L 5425 -756 
L 5425 -338 
L 2756 -338 
Q 2763 -550 2775 -769 
z
M 4275 -6 
L 5425 -6 
L 5425 1456 
L 4275 1456 
L 4275 -6 
z
M 3838 -6 
L 3838 1456 
L 2750 1456 
L 2750 -6 
L 3838 -6 
z
M 4275 1788 
L 5425 1788 
L 5425 3225 
L 4275 3225 
L 4275 1788 
z
M 3838 1788 
L 3838 3225 
L 2750 3225 
L 2750 1788 
L 3838 1788 
z
M 875 -738 
Q 631 -588 275 -575 
Q 531 -69 800 581 
Q 1069 1231 1588 2838 
L 1819 2706 
L 1156 338 
L 875 -738 
z
M 1331 2856 
L 963 2550 
L 100 3400 
L 469 3713 
L 1331 2856 
z
M 1438 3913 
Q 1031 4388 563 4800 
L 913 5125 
Q 1406 4688 1831 4188 
L 1438 3913 
z
" transform="scale(0.015625)"/>
       <path id="WenQuanYiZenHei-7149" d="M 4350 75 
Q 4350 -344 4369 -769 
Q 4144 -744 3913 -769 
Q 3938 -344 3938 75 
L 3938 1044 
Q 3331 88 2194 -688 
Q 2100 -488 1906 -381 
Q 2494 -6 2906 453 
Q 3319 913 3706 1531 
L 2556 1531 
Q 2631 2569 2556 3613 
L 3938 3613 
L 3938 4163 
L 3019 4163 
Q 2738 4163 2450 4144 
Q 2469 4300 2450 4456 
Q 2738 4444 3019 4444 
L 3938 4444 
Q 3938 4850 3913 5256 
Q 4144 5231 4369 5256 
Q 4350 4850 4350 4444 
L 5294 4444 
Q 5581 4444 5863 4456 
Q 5850 4300 5863 4144 
Q 5581 4163 5294 4163 
L 4350 4163 
L 4350 3613 
L 5669 3613 
Q 5588 2569 5663 1531 
L 4500 1531 
Q 4819 981 5178 606 
Q 5538 231 6181 -175 
Q 5944 -256 5819 -469 
Q 5025 38 4350 1063 
L 4350 75 
z
M 2975 1813 
L 3938 1813 
L 3938 3331 
L 2975 3331 
L 2975 2831 
L 3256 3044 
L 3856 2238 
L 3494 1963 
L 2975 2663 
L 2975 1813 
z
M 4350 3331 
L 4350 2150 
Q 4619 2506 4863 3044 
Q 5050 2931 5250 2863 
L 5250 3331 
L 4350 3331 
z
M 4350 1813 
L 5250 1813 
L 5250 2794 
Q 5050 2388 4700 1931 
Q 4556 2088 4350 2125 
L 4350 1813 
z
M 506 -738 
Q 369 -550 106 -519 
Q 531 -181 775 325 
Q 1113 1019 1113 2169 
L 1113 4288 
Q 1113 4706 1094 5131 
Q 1313 5106 1525 5131 
Q 1506 4706 1506 4288 
L 1506 3250 
L 2000 3988 
Q 2163 3838 2350 3725 
Q 2231 3531 2131 3400 
L 1506 2569 
L 1500 1850 
L 1506 1856 
Q 1956 1125 2344 331 
L 1963 119 
Q 1775 506 1569 875 
L 1425 1138 
Q 1225 -44 506 -738 
z
M 56 2294 
Q 319 2944 513 3656 
L 925 3531 
Q 725 2794 450 2113 
L 56 2294 
z
" transform="scale(0.015625)"/>
       <path id="WenQuanYiZenHei-88fd" d="M 1838 -238 
L 1838 369 
Q 1213 -25 394 -375 
Q 344 -163 175 -25 
Q 1056 325 1888 944 
L 2306 1269 
L 844 1269 
Q 569 1269 294 1256 
Q 306 1406 294 1556 
Q 569 1544 844 1544 
L 2988 1544 
L 2631 1813 
L 2819 2056 
L 2744 2056 
Q 2800 2331 2631 2556 
Q 2913 2519 3188 2538 
Q 3231 2544 3231 2600 
L 3231 3125 
L 2381 3125 
L 2381 2825 
Q 2381 2406 2406 1994 
Q 2181 2019 1956 1994 
Q 1975 2406 1975 2825 
L 1975 3125 
L 1150 3125 
L 1150 2919 
Q 1156 2506 1181 2088 
Q 950 2106 731 2081 
Q 744 2500 738 2913 
L 731 3363 
L 1144 3369 
L 1144 3338 
L 1975 3338 
L 1975 3713 
L 1194 3713 
Q 944 3713 694 3700 
Q 700 3763 700 3831 
L 531 3650 
Q 406 3825 200 3888 
Q 450 4131 625 4409 
Q 800 4688 994 5138 
Q 1200 5038 1413 4975 
Q 1344 4781 1256 4613 
L 1975 4613 
Q 1969 4938 1956 5256 
Q 2181 5238 2406 5256 
Q 2388 4938 2381 4613 
L 3006 4613 
Q 3288 4613 3563 4631 
Q 3544 4481 3563 4331 
Q 3288 4344 3006 4344 
L 2381 4344 
L 2381 3956 
L 3238 3956 
Q 3488 3956 3738 3969 
Q 3725 3831 3738 3700 
Q 3488 3713 3238 3713 
L 2381 3713 
L 2381 3338 
L 3644 3338 
L 3644 2563 
Q 3644 2394 3469 2259 
Q 3294 2125 3025 2081 
L 3575 1663 
L 3481 1544 
L 5438 1544 
Q 5713 1544 5988 1556 
Q 5975 1406 5988 1256 
Q 5713 1269 5438 1269 
L 3319 1269 
Q 3681 856 4044 569 
Q 4481 838 4975 1238 
Q 5100 1044 5256 888 
Q 4944 619 4406 313 
Q 5075 -106 6081 -269 
Q 5900 -431 5863 -675 
Q 4981 -538 4231 -28 
Q 3481 481 2894 1194 
Q 2594 894 2250 644 
L 2250 -213 
L 3475 63 
L 3500 -219 
Q 3269 -250 2778 -412 
Q 2288 -575 1888 -744 
L 1794 -344 
Q 1838 -300 1838 -238 
z
M 5256 2681 
L 5256 4425 
Q 5256 4844 5238 5256 
Q 5463 5238 5688 5256 
Q 5669 4844 5669 4425 
L 5669 2538 
Q 5650 2169 5369 2044 
Q 5094 1919 4694 1925 
Q 4756 2206 4575 2425 
Q 4731 2400 4943 2397 
Q 5156 2394 5206 2431 
Q 5256 2469 5256 2681 
z
M 4638 2731 
Q 4413 2756 4188 2731 
Q 4206 3144 4206 3563 
L 4206 3919 
Q 4206 4338 4188 4750 
Q 4413 4725 4638 4750 
Q 4619 4338 4619 3919 
L 4619 3563 
Q 4619 3144 4638 2731 
z
M 1975 3956 
L 1975 4344 
L 1094 4344 
Q 969 4156 813 3963 
L 1975 3956 
z
" transform="scale(0.015625)"/>
       <path id="WenQuanYiZenHei-54c1" d="M 4025 -769 
Q 3788 -744 3544 -769 
Q 3569 -331 3569 113 
L 3569 2106 
L 5925 2106 
L 5925 -756 
L 5488 -756 
L 5488 -288 
L 4006 -288 
Q 4013 -531 4025 -769 
z
M 781 -769 
Q 544 -744 306 -769 
Q 325 -331 325 113 
L 325 2106 
L 2681 2106 
L 2681 -756 
L 2250 -756 
L 2250 -288 
L 763 -288 
Q 769 -531 781 -769 
z
M 1913 2588 
L 1481 2588 
L 1481 5075 
L 4938 5069 
L 4938 2588 
L 4506 2588 
L 4506 2944 
L 1913 2944 
L 1913 2588 
z
M 5488 1788 
L 4000 1788 
L 4000 31 
L 5488 31 
L 5488 1788 
z
M 2250 1788 
L 763 1788 
L 763 31 
L 2250 31 
L 2250 1788 
z
M 4506 4750 
L 1913 4750 
L 1913 3263 
L 4506 3263 
L 4506 4750 
z
" transform="scale(0.015625)"/>
      </defs>
      <use xlink:href="#WenQuanYiZenHei-28"/>
      <use xlink:href="#WenQuanYiZenHei-31" transform="translate(29.980469 0)"/>
      <use xlink:href="#WenQuanYiZenHei-29" transform="translate(89.941406 0)"/>
      <use xlink:href="#WenQuanYiZenHei-77f3" transform="translate(119.921875 0)"/>
      <use xlink:href="#WenQuanYiZenHei-6cb9" transform="translate(219.921875 0)"/>
      <use xlink:href="#WenQuanYiZenHei-7149" transform="translate(319.921875 0)"/>
      <use xlink:href="#WenQuanYiZenHei-88fd" transform="translate(419.921875 0)"/>
      <use xlink:href="#WenQuanYiZenHei-54c1" transform="translate(519.921875 0)"/>
     </g>
    </g>
   </g>
   <g id="matplotlib.axis_2">
    <g id="ytick_1">
     <g id="line2d_11">
      <defs>
       <path id="m0c5a9e53f6" d="M 0 0 
L -3.5 0 
" style="stroke: #000000; stroke-width: 0.8"/>
      </defs>
      <g>
       <use xlink:href="#m0c5a9e53f6" x="108.40625" y="50.859107" style="stroke: #000000; stroke-width: 0.8"/>
      </g>
     </g>
     <g id="text_3">
      <!-- 南韓 -->
      <g transform="translate(81.40625 54.764576) scale(0.1 -0.1)">
       <defs>
        <path id="WenQuanYiZenHei-5357" d="M 3363 -769 
Q 3125 -744 2888 -769 
Q 2906 -325 2906 113 
L 2906 700 
L 1906 700 
Q 1581 700 1263 681 
Q 1281 856 1263 1031 
Q 1581 1019 1906 1019 
L 2906 1019 
L 2906 1619 
L 2050 1619 
Q 1731 1619 1406 1606 
Q 1425 1781 1406 1956 
L 2281 1938 
Q 2013 2375 1694 2781 
L 2000 3025 
L 1013 3025 
L 1019 131 
Q 1019 -306 1044 -750 
Q 800 -725 563 -750 
Q 588 -306 581 131 
L 581 3344 
L 2906 3344 
L 2906 4075 
L 763 4075 
Q 438 4075 119 4056 
Q 131 4231 119 4406 
Q 438 4394 763 4394 
L 2906 4394 
Q 2906 4825 2888 5256 
Q 3125 5231 3363 5256 
Q 3344 4825 3344 4394 
L 5488 4394 
Q 5813 4394 6131 4406 
Q 6119 4231 6131 4056 
Q 5813 4075 5488 4075 
L 3344 4075 
L 3344 3344 
L 5663 3344 
L 5663 -125 
Q 5663 -506 5388 -650 
Q 5100 -806 4544 -800 
Q 4613 -494 4400 -269 
Q 4594 -294 4856 -297 
Q 5119 -300 5175 -253 
Q 5231 -206 5231 50 
L 5231 3025 
L 4063 3025 
Q 4238 2894 4431 2800 
Q 4269 2525 3831 1938 
L 4200 1938 
Q 4519 1938 4844 1956 
Q 4825 1781 4844 1606 
Q 4519 1619 4200 1619 
L 3600 1619 
Q 3588 1588 3569 1619 
L 3344 1619 
L 3344 1019 
L 4344 1019 
Q 4669 1019 4988 1031 
Q 4969 856 4988 681 
Q 4669 700 4344 700 
L 3344 700 
L 3344 113 
Q 3344 -325 3363 -769 
z
M 3300 1938 
Q 3394 2063 3475 2181 
L 4006 3025 
L 2113 3025 
Q 2500 2525 2819 1975 
L 2750 1938 
L 3300 1938 
z
" transform="scale(0.015625)"/>
        <path id="WenQuanYiZenHei-97d3" d="M 3019 1356 
L 3044 1356 
L 3056 1394 
L 3231 1350 
L 4144 1350 
L 4144 1856 
L 3238 1856 
Q 3306 2425 3238 2994 
L 5563 2994 
Q 5481 2425 5544 1856 
L 4544 1856 
L 4544 1350 
L 5275 1350 
Q 5531 1350 5788 1363 
Q 5775 1225 5788 1088 
Q 5531 1100 5275 1100 
L 4544 1100 
L 4544 469 
L 6081 469 
L 6081 213 
L 4544 213 
L 4544 44 
Q 4544 -363 4563 -763 
Q 4344 -744 4125 -763 
Q 4144 -363 4144 44 
L 4144 213 
L 2763 213 
L 3019 1256 
L 3019 1356 
z
M 6131 3656 
Q 6119 3513 6131 3375 
Q 5875 3388 5619 3388 
L 3306 3388 
Q 3050 3388 2794 3375 
Q 2813 3513 2794 3656 
Q 3050 3644 3306 3644 
L 3713 3644 
L 3850 4331 
L 3019 4319 
Q 3038 4456 3019 4594 
L 3894 4581 
Q 3956 4913 4006 5238 
Q 4213 5175 4431 5156 
Q 4363 4869 4306 4581 
L 5500 4581 
L 5500 3644 
L 6131 3656 
z
M 1631 -763 
Q 1413 -744 1194 -763 
Q 1213 -363 1213 44 
L 1213 688 
L 681 688 
Q 419 688 163 675 
Q 181 813 163 950 
Q 419 938 681 938 
L 1213 938 
L 1213 1675 
L 375 1675 
Q 444 2650 375 3619 
L 1206 3619 
L 1206 4194 
L 706 4194 
Q 450 4194 194 4181 
Q 213 4319 194 4456 
Q 450 4444 706 4444 
L 1206 4450 
Q 1206 4856 1188 5256 
Q 1406 5238 1625 5256 
L 1606 4444 
L 2100 4444 
Q 2356 4444 2613 4456 
Q 2600 4319 2613 4181 
Q 2356 4194 2100 4194 
L 1606 4194 
L 1606 3619 
L 2463 3619 
Q 2388 2650 2463 1675 
L 1613 1675 
L 1613 938 
L 2206 938 
Q 2463 938 2719 950 
Q 2706 813 2719 675 
Q 2463 688 2206 688 
L 1613 688 
L 1613 44 
Q 1613 -363 1631 -763 
z
M 4144 469 
L 4144 1100 
L 3394 1100 
L 3238 469 
L 4144 469 
z
M 3631 2744 
L 3631 2106 
L 5150 2106 
L 5156 2744 
L 3631 2744 
z
M 5100 3644 
L 5100 4331 
L 4250 4331 
L 4119 3644 
L 5100 3644 
z
M 775 3369 
L 775 2769 
L 2063 2769 
L 2063 3369 
L 775 3369 
z
M 775 2538 
L 775 1931 
L 2063 1931 
L 2063 2538 
L 775 2538 
z
" transform="scale(0.015625)"/>
       </defs>
       <use xlink:href="#WenQuanYiZenHei-5357"/>
       <use xlink:href="#WenQuanYiZenHei-97d3" transform="translate(100 0)"/>
      </g>
     </g>
    </g>
    <g id="ytick_2">
     <g id="line2d_12">
      <g>
       <use xlink:href="#m0c5a9e53f6" x="108.40625" y="81.71625" style="stroke: #000000; stroke-width: 0.8"/>
      </g>
     </g>
     <g id="text_4">
      <!-- 新加坡 -->
      <g transform="translate(71.40625 85.729531) scale(0.1 -0.1)">
       <defs>
        <path id="WenQuanYiZenHei-65b0" d="M 5419 -763 
Q 5188 -738 4963 -763 
Q 4981 -344 4981 75 
L 4981 2819 
L 4188 2819 
L 4188 1706 
Q 4188 63 3163 -738 
Q 3019 -519 2769 -469 
Q 3769 131 3769 1706 
L 3769 4769 
L 3875 4769 
L 3844 4831 
L 4294 4781 
Q 4438 4769 4894 4816 
Q 5350 4863 5512 4931 
Q 5675 5000 5763 5094 
Q 5850 4881 5981 4694 
Q 5713 4544 5263 4519 
L 4188 4438 
L 4188 3100 
L 5563 3100 
Q 5850 3100 6131 3113 
Q 6119 2956 6131 2806 
L 5394 2819 
L 5394 75 
Q 5394 -344 5419 -763 
z
M 2981 213 
Q 2656 744 2256 1225 
L 2606 1513 
Q 3025 1006 3369 450 
L 2981 213 
z
M 1169 1525 
Q 1375 1419 1594 1363 
Q 1281 488 469 -469 
Q 331 -300 119 -244 
Q 575 263 888 900 
Q 1038 1206 1169 1525 
z
M 1825 6 
L 1825 1769 
L 1081 1769 
Q 794 1769 513 1756 
Q 525 1913 513 2063 
Q 794 2050 1081 2050 
L 1825 2050 
L 1825 2775 
L 994 2775 
Q 706 2775 425 2763 
Q 438 2919 425 3075 
Q 706 3056 994 3056 
L 1825 3056 
L 1825 3088 
L 1906 3088 
Q 2288 3656 2588 4381 
Q 2794 4269 3013 4206 
Q 2800 3675 2381 3056 
L 3013 3056 
Q 3294 3056 3581 3075 
Q 3563 2919 3581 2763 
Q 3294 2775 3013 2775 
L 2238 2775 
L 2238 2050 
L 2925 2050 
Q 3206 2050 3494 2063 
Q 3475 1913 3494 1756 
Q 3206 1769 2925 1769 
L 2238 1769 
L 2238 -156 
Q 2238 -413 2075 -581 
Q 1844 -794 1306 -794 
Q 1363 -519 1188 -288 
Q 1338 -313 1534 -316 
Q 1731 -319 1778 -278 
Q 1825 -238 1825 6 
z
M 1875 3388 
L 1500 3131 
L 825 4088 
L 1200 4350 
L 1875 3388 
z
M 3419 4713 
Q 3400 4563 3419 4406 
Q 3131 4419 2850 4419 
L 1125 4419 
Q 838 4419 556 4406 
Q 569 4563 556 4713 
Q 838 4700 1125 4700 
L 1763 4700 
L 1388 5088 
L 1719 5406 
L 2288 4813 
L 2175 4700 
L 2850 4700 
Q 3131 4700 3419 4713 
z
" transform="scale(0.015625)"/>
        <path id="WenQuanYiZenHei-52a0" d="M 4100 -194 
L 3638 -194 
L 3638 4250 
L 5725 4250 
L 5725 -194 
L 5269 -194 
L 5269 150 
L 4100 150 
L 4100 -194 
z
M 144 -519 
Q 1475 894 1394 3688 
L 1188 3688 
Q 806 3688 425 3669 
Q 444 3875 425 4081 
Q 806 4063 1188 4063 
L 1394 4063 
L 1394 4331 
Q 1394 4800 1369 5263 
Q 1619 5238 1875 5263 
Q 1850 4794 1850 4331 
L 1850 4063 
L 3125 4063 
L 3125 181 
Q 3125 -225 2838 -381 
Q 2531 -544 1950 -538 
Q 2025 -219 1800 19 
Q 2000 -6 2269 -9 
Q 2538 -13 2600 38 
Q 2663 119 2663 375 
L 2663 3688 
L 1850 3688 
L 1850 3506 
Q 1875 856 669 -650 
Q 438 -456 144 -519 
z
M 5269 3875 
L 4100 3875 
L 4100 531 
L 5269 531 
L 5269 3875 
z
" transform="scale(0.015625)"/>
        <path id="WenQuanYiZenHei-5761" d="M 1513 -463 
Q 2544 294 2531 2050 
L 2531 4238 
L 3950 4238 
L 3950 4369 
Q 3950 4813 3931 5256 
Q 4169 5231 4413 5256 
Q 4388 4813 4388 4369 
L 4388 4238 
L 5938 4238 
L 5994 3850 
Q 5913 3850 5881 3794 
L 5494 3025 
L 5100 3219 
L 5444 3906 
L 4388 3906 
L 4388 2581 
L 5419 2581 
Q 5325 1394 4575 469 
Q 5213 -125 6125 -244 
Q 5931 -419 5894 -681 
Q 4988 -531 4300 169 
Q 3619 -506 2706 -781 
Q 2569 -550 2363 -381 
Q 3319 -181 4013 506 
Q 3450 1244 3250 2250 
L 2969 2250 
Q 3019 313 1963 -700 
Q 1788 -481 1513 -463 
z
M 3656 2250 
Q 3863 1375 4281 806 
Q 4788 1444 4931 2250 
L 3656 2250 
z
M 2969 2581 
L 3950 2581 
L 3950 3906 
L 2969 3906 
L 2969 2581 
z
M -31 625 
Q 513 763 1019 975 
L 1019 3206 
L 681 3206 
Q 375 3206 75 3188 
Q 94 3356 75 3531 
Q 375 3513 681 3513 
L 1019 3513 
L 1019 4263 
Q 1019 4700 1000 5131 
Q 1225 5106 1456 5131 
Q 1431 4700 1431 4263 
L 1431 3513 
L 2269 3531 
Q 2256 3356 2269 3188 
L 1431 3206 
L 1431 1163 
L 2181 1531 
L 2225 1256 
Q 1288 775 825 519 
L 194 144 
Q 138 438 -31 625 
z
" transform="scale(0.015625)"/>
       </defs>
       <use xlink:href="#WenQuanYiZenHei-65b0"/>
       <use xlink:href="#WenQuanYiZenHei-52a0" transform="translate(100 0)"/>
       <use xlink:href="#WenQuanYiZenHei-5761" transform="translate(200 0)"/>
      </g>
     </g>
    </g>
    <g id="ytick_3">
     <g id="line2d_13">
      <g>
       <use xlink:href="#m0c5a9e53f6" x="108.40625" y="112.573393" style="stroke: #000000; stroke-width: 0.8"/>
      </g>
     </g>
     <g id="text_5">
      <!-- 菲律賓 -->
      <g transform="translate(71.40625 116.772612) scale(0.1 -0.1)">
       <defs>
        <path id="WenQuanYiZenHei-83f2" d="M 6131 875 
Q 6119 713 6131 544 
Q 5831 563 5531 563 
L 3925 563 
L 3925 94 
Q 3925 -338 3950 -769 
Q 3713 -744 3481 -769 
Q 3506 -338 3506 94 
L 3506 2700 
Q 3506 3131 3481 3563 
Q 3713 3538 3950 3563 
Q 3938 3300 3931 3044 
L 5275 3044 
Q 5581 3044 5881 3056 
Q 5863 2894 5881 2731 
Q 5581 2744 5275 2744 
L 3925 2744 
L 3925 1938 
L 5025 1938 
Q 5325 1938 5631 1956 
Q 5613 1788 5631 1625 
Q 5325 1644 5025 1644 
L 3925 1644 
L 3925 856 
L 5531 856 
Q 5831 856 6131 875 
z
M 2513 -769 
Q 2281 -744 2050 -769 
Q 2069 -338 2069 94 
L 2069 544 
L 738 544 
Q 431 544 131 525 
Q 150 688 131 856 
Q 431 838 738 838 
L 2069 838 
L 2069 1638 
L 1006 1638 
Q 700 1638 400 1625 
Q 419 1788 400 1950 
Q 700 1938 1006 1938 
L 2069 1938 
L 2069 2700 
L 738 2700 
Q 431 2700 131 2688 
Q 150 2850 131 3013 
Q 431 3000 738 3000 
L 2069 3000 
Q 2063 3281 2050 3563 
Q 2281 3538 2513 3563 
Q 2494 3131 2494 2700 
L 2494 94 
Q 2494 -338 2513 -769 
z
M 4356 3663 
Q 4125 3688 3894 3663 
Q 3906 3969 3913 4256 
L 2100 4256 
Q 2106 3956 2119 3663 
Q 1888 3688 1656 3663 
Q 1669 3969 1675 4256 
L 719 4256 
Q 419 4256 119 4244 
Q 131 4406 119 4569 
Q 419 4556 719 4556 
L 1675 4556 
Q 1675 4906 1656 5256 
Q 1888 5231 2119 5256 
Q 2106 4900 2100 4556 
L 3913 4556 
Q 3913 4906 3894 5256 
Q 4125 5231 4356 5256 
Q 4338 4900 4338 4556 
L 5469 4556 
Q 5769 4556 6069 4569 
Q 6056 4406 6069 4244 
Q 5769 4256 5469 4256 
L 4338 4256 
Q 4344 3956 4356 3663 
z
" transform="scale(0.015625)"/>
        <path id="WenQuanYiZenHei-5f8b" d="M 4181 -769 
Q 3944 -744 3706 -769 
Q 3725 -331 3725 113 
L 3725 331 
L 2650 331 
Q 2331 331 2006 313 
Q 2025 488 2006 663 
Q 2331 650 2650 650 
L 3725 650 
L 3725 1275 
L 2981 1275 
Q 2656 1275 2331 1263 
Q 2350 1438 2331 1613 
Q 2656 1594 2981 1594 
L 3725 1594 
L 3725 2181 
L 2963 2181 
Q 2638 2181 2319 2169 
Q 2338 2344 2319 2519 
Q 2638 2500 2963 2500 
L 3725 2500 
L 3725 3119 
L 2963 3119 
Q 2638 3119 2319 3100 
Q 2338 3275 2319 3450 
Q 2638 3438 2963 3438 
L 3725 3438 
L 3725 4063 
L 3013 4063 
Q 2688 4063 2363 4050 
Q 2381 4225 2363 4400 
Q 2688 4381 3013 4381 
L 3725 4381 
Q 3719 4750 3706 5113 
Q 3944 5088 4181 5113 
Q 4163 4750 4163 4381 
L 5606 4381 
L 5606 3438 
Q 5888 3438 6175 3450 
Q 6156 3275 6175 3100 
Q 5888 3113 5606 3119 
L 5600 2181 
L 4156 2181 
L 4156 1594 
L 5044 1594 
Q 5369 1594 5694 1613 
Q 5675 1438 5694 1263 
Q 5369 1275 5044 1275 
L 4156 1275 
L 4156 650 
L 5400 650 
Q 5725 650 6050 663 
Q 6031 488 6050 313 
Q 5725 331 5400 331 
L 4156 331 
L 4156 113 
Q 4156 -331 4181 -769 
z
M 4156 2500 
L 5169 2500 
L 5169 3119 
L 4156 3119 
L 4156 2500 
z
M 4156 3438 
L 5169 3438 
L 5169 4063 
L 4156 4063 
L 4156 3438 
z
M 1744 3663 
Q 1931 3519 2156 3419 
Q 1856 2919 1494 2469 
L 1494 13 
Q 1494 -419 1513 -850 
Q 1275 -825 1031 -850 
Q 1056 -419 1056 13 
L 1056 1956 
L 394 1263 
Q 263 1438 38 1513 
Q 706 2144 1281 2981 
L 1744 3663 
z
M 1569 5094 
Q 1763 4969 1994 4875 
Q 1581 4119 913 3525 
Q 688 3325 450 3138 
Q 338 3331 125 3425 
Q 713 3850 1169 4488 
Q 1381 4788 1569 5094 
z
" transform="scale(0.015625)"/>
        <path id="WenQuanYiZenHei-8cd3" d="M 1438 175 
Q 1500 1188 1456 2131 
Q 1131 2069 763 2013 
Q 581 2331 231 2425 
Q 1594 2544 2950 2963 
L 2969 3850 
L 1713 3850 
Q 1463 3850 1213 3844 
Q 1225 3975 1213 4113 
Q 1463 4100 1713 4100 
L 4688 4100 
Q 4938 4100 5188 4113 
Q 5175 3975 5188 3844 
Q 4938 3850 4688 3850 
L 3375 3850 
L 3388 3106 
Q 4200 3388 4906 3763 
Q 4988 3525 5113 3313 
Q 3863 2800 2788 2475 
L 5156 2475 
Q 5075 1325 5144 175 
L 4494 175 
Q 5231 -131 5931 -506 
L 5719 -906 
Q 4975 -506 4188 -188 
L 4338 175 
L 2269 175 
Q 2375 0 2513 -150 
Q 1744 -731 550 -994 
Q 544 -781 406 -613 
Q 906 -519 1312 -328 
Q 1719 -138 2194 175 
L 1438 175 
z
M 2388 3800 
Q 2469 3588 2588 3400 
Q 1919 3063 963 2744 
Q 925 2956 769 3106 
Q 1525 3369 2388 3800 
z
M 863 3831 
L 450 3831 
L 450 4806 
L 3050 4806 
L 2613 5050 
L 2831 5444 
L 3525 5063 
L 3381 4806 
L 6031 4806 
L 6031 3831 
L 5625 3831 
L 5625 4538 
L 863 4538 
L 863 3831 
z
M 1844 2206 
L 1844 1788 
L 4744 1788 
L 4744 2206 
L 1844 2206 
z
M 1844 1538 
L 1844 1106 
L 4744 1106 
L 4744 1538 
L 1844 1538 
z
M 1844 856 
L 1844 450 
L 4738 450 
L 4738 856 
L 1844 856 
z
" transform="scale(0.015625)"/>
       </defs>
       <use xlink:href="#WenQuanYiZenHei-83f2"/>
       <use xlink:href="#WenQuanYiZenHei-5f8b" transform="translate(100 0)"/>
       <use xlink:href="#WenQuanYiZenHei-8cd3" transform="translate(200 0)"/>
      </g>
     </g>
    </g>
    <g id="ytick_4">
     <g id="line2d_14">
      <g>
       <use xlink:href="#m0c5a9e53f6" x="108.40625" y="143.430536" style="stroke: #000000; stroke-width: 0.8"/>
      </g>
     </g>
     <g id="text_6">
      <!-- 大洋洲 -->
      <g transform="translate(71.40625 147.317254) scale(0.1 -0.1)">
       <defs>
        <path id="WenQuanYiZenHei-5927" d="M 1281 3069 
Q 863 3069 438 3050 
Q 463 3275 438 3506 
Q 863 3488 1281 3488 
L 2931 3488 
L 2931 4300 
Q 2931 4781 2906 5263 
Q 3163 5231 3425 5263 
Q 3400 4781 3400 4300 
L 3400 3488 
L 5188 3488 
Q 5606 3488 6025 3506 
Q 6000 3275 6025 3050 
Q 5606 3069 5188 3069 
L 3481 3069 
Q 3894 1500 4863 550 
Q 5431 25 6156 -313 
Q 5906 -438 5788 -694 
Q 4919 -269 4284 515 
Q 3650 1300 3281 2294 
Q 3038 1256 2350 443 
Q 1663 -369 700 -775 
Q 556 -475 231 -413 
Q 1394 -50 2119 903 
Q 2844 1856 2919 3069 
L 1281 3069 
z
" transform="scale(0.015625)"/>
        <path id="WenQuanYiZenHei-6d0b" d="M 4231 -769 
Q 3994 -744 3750 -769 
Q 3775 -325 3775 113 
L 3775 981 
L 2669 981 
Q 2350 981 2025 969 
Q 2044 1144 2025 1319 
Q 2350 1300 2669 1300 
L 3775 1300 
L 3775 2231 
L 3025 2231 
Q 2700 2231 2381 2219 
Q 2400 2394 2381 2569 
Q 2700 2550 3025 2550 
L 3775 2550 
L 3775 3463 
L 2394 3463 
L 2394 3781 
L 3400 3781 
Q 3163 4369 2744 4856 
L 3113 5169 
Q 3588 4606 3856 3925 
L 3506 3781 
L 4044 3781 
Q 4288 4056 4469 4365 
Q 4650 4675 4869 5156 
Q 5081 5044 5313 4975 
Q 5088 4406 4600 3781 
L 5313 3781 
Q 5631 3781 5956 3800 
Q 5938 3625 5956 3450 
Q 5631 3463 5313 3463 
L 4338 3463 
L 4306 3431 
Q 4281 3475 4206 3463 
L 4206 2550 
L 5156 2550 
Q 5481 2550 5806 2569 
Q 5788 2394 5806 2219 
Q 5481 2231 5156 2231 
L 4206 2231 
L 4206 1300 
L 5525 1300 
Q 5850 1300 6175 1319 
Q 6156 1144 6175 969 
Q 5850 981 5525 981 
L 4206 981 
L 4206 113 
Q 4206 -325 4231 -769 
z
M 906 -738 
Q 656 -588 288 -575 
Q 550 -69 831 581 
Q 1113 1231 1650 2838 
L 1900 2706 
L 1200 338 
L 906 -738 
z
M 1388 2856 
L 1000 2550 
L 100 3400 
L 488 3713 
L 1388 2856 
z
M 1494 3913 
Q 1075 4388 588 4800 
L 950 5125 
Q 1469 4688 1906 4188 
L 1494 3913 
z
" transform="scale(0.015625)"/>
        <path id="WenQuanYiZenHei-6d32" d="M 5794 -769 
Q 5550 -744 5313 -769 
Q 5338 -325 5338 113 
L 5338 4375 
Q 5338 4819 5313 5256 
Q 5550 5231 5794 5256 
Q 5769 4819 5769 4375 
L 5769 113 
Q 5769 -325 5794 -769 
z
M 4444 -769 
Q 4206 -744 3969 -769 
Q 3988 -325 3988 113 
L 3988 4288 
Q 3988 4725 3969 5169 
Q 4206 5144 4444 5169 
Q 4425 4725 4425 4288 
L 4425 3206 
L 4794 3369 
Q 5069 2738 5250 2075 
L 4788 1950 
Q 4638 2494 4425 3013 
L 4425 113 
Q 4425 -325 4444 -769 
z
M 2688 2100 
L 2688 4363 
Q 2688 4806 2669 5244 
Q 2906 5219 3144 5244 
Q 3125 4806 3125 4363 
L 3125 3175 
L 3525 3325 
Q 3763 2700 3906 2050 
L 3438 1950 
Q 3319 2506 3125 3044 
L 3125 2100 
Q 3125 188 1938 -744 
Q 1788 -513 1513 -475 
Q 2688 250 2688 2100 
z
M 1706 1950 
Q 1981 2631 2169 3338 
L 2631 3213 
Q 2438 2475 2150 1769 
L 1706 1950 
z
M 819 -738 
Q 594 -588 256 -575 
Q 494 -69 747 581 
Q 1000 1231 1481 2838 
L 1706 2706 
L 1081 338 
L 819 -738 
z
M 1244 2856 
L 900 2550 
L 94 3400 
L 438 3713 
L 1244 2856 
z
M 1344 3913 
Q 969 4388 525 4800 
L 850 5125 
Q 1319 4688 1713 4188 
L 1344 3913 
z
" transform="scale(0.015625)"/>
       </defs>
       <use xlink:href="#WenQuanYiZenHei-5927"/>
       <use xlink:href="#WenQuanYiZenHei-6d0b" transform="translate(100 0)"/>
       <use xlink:href="#WenQuanYiZenHei-6d32" transform="translate(200 0)"/>
      </g>
     </g>
    </g>
    <g id="ytick_5">
     <g id="line2d_15">
      <g>
       <use xlink:href="#m0c5a9e53f6" x="108.40625" y="174.287679" style="stroke: #000000; stroke-width: 0.8"/>
      </g>
     </g>
     <g id="text_7">
      <!-- 馬來西亞 -->
      <g transform="translate(61.40625 178.207991) scale(0.1 -0.1)">
       <defs>
        <path id="WenQuanYiZenHei-99ac" d="M 5100 681 
L 4775 331 
L 3938 1119 
L 4263 1463 
L 5100 681 
z
M 3513 100 
Q 3119 575 2656 994 
L 2975 1350 
Q 3463 913 3881 406 
L 3513 100 
z
M 2200 -94 
Q 1925 444 1575 944 
L 1963 1219 
Q 2338 694 2625 119 
L 2200 -94 
z
M -69 -150 
Q 425 525 838 1244 
L 1250 1006 
Q 825 263 319 -431 
L -69 -150 
z
M 5638 -106 
L 5638 1631 
L 1019 1631 
L 1013 5013 
L 4975 5013 
Q 5300 5013 5625 5031 
Q 5606 4856 5625 4681 
Q 5300 4694 4975 4694 
L 3475 4694 
L 3475 4044 
L 4781 4044 
Q 5106 4044 5431 4056 
Q 5413 3881 5431 3706 
Q 5106 3725 4781 3725 
L 3475 3725 
L 3475 2981 
L 4781 2981 
Q 5106 2981 5431 3000 
Q 5413 2825 5431 2650 
Q 5106 2663 4781 2663 
L 3475 2663 
L 3475 1950 
L 6075 1950 
L 6075 -213 
Q 6075 -438 5856 -625 
Q 5625 -825 4950 -819 
Q 5019 -513 4806 -288 
Q 5000 -313 5275 -316 
Q 5550 -319 5594 -284 
Q 5638 -250 5638 -106 
z
M 3044 1950 
L 3044 2663 
L 1450 2663 
L 1456 1950 
L 3044 1950 
z
M 3044 2981 
L 3044 3725 
L 1450 3725 
L 1450 2981 
L 3044 2981 
z
M 3044 4044 
L 3044 4694 
L 1450 4694 
Q 1450 4369 1450 4044 
L 3044 4044 
z
" transform="scale(0.015625)"/>
        <path id="WenQuanYiZenHei-4f86" d="M 3331 125 
Q 3331 -319 3350 -769 
Q 3113 -744 2869 -769 
Q 2894 -319 2894 125 
L 2894 1606 
Q 1894 144 406 -444 
Q 338 -175 131 0 
Q 744 225 1300 594 
Q 1856 963 2213 1438 
Q 2331 1600 2506 1881 
L 2350 1781 
Q 2063 2238 1675 2619 
Q 1350 2013 794 1531 
Q 669 1725 456 1819 
Q 950 2219 1203 2716 
Q 1456 3213 1569 3938 
Q 1806 3888 2050 3888 
Q 2019 3475 1881 3088 
Q 2338 2675 2675 2163 
Q 2806 2388 2881 2538 
L 2894 2538 
L 2894 4150 
L 1138 4150 
Q 800 4150 463 4131 
Q 481 4313 463 4494 
Q 800 4475 1138 4475 
L 2888 4475 
Q 2888 4869 2869 5256 
Q 3113 5231 3350 5256 
Q 3331 4869 3331 4475 
L 5200 4475 
Q 5538 4475 5875 4494 
Q 5856 4313 5875 4131 
Q 5538 4150 5200 4150 
L 3331 4150 
L 3331 2519 
L 3444 2306 
Q 3769 2675 3966 3087 
Q 4163 3500 4313 4056 
Q 4544 3981 4781 3950 
Q 4713 3600 4569 3269 
Q 5125 2750 5525 2113 
L 5119 1856 
Q 4788 2381 4344 2813 
Q 4081 2350 3669 1913 
Q 4131 1188 4718 734 
Q 5306 281 6119 31 
Q 5900 -113 5825 -363 
Q 5056 -113 4425 434 
Q 3794 981 3331 1713 
L 3331 125 
z
" transform="scale(0.015625)"/>
        <path id="WenQuanYiZenHei-897f" d="M 700 3606 
L 2188 3606 
L 2188 4513 
L 844 4513 
Q 481 4513 113 4494 
Q 138 4694 113 4888 
Q 481 4869 844 4869 
L 5406 4869 
Q 5769 4869 6138 4888 
Q 6113 4694 6138 4494 
Q 5769 4513 5406 4513 
L 3925 4513 
L 3925 3606 
L 5506 3606 
L 5506 -763 
L 5050 -763 
L 5050 -200 
L 1169 -200 
Q 1175 -488 1188 -775 
Q 938 -750 694 -775 
Q 713 -319 713 144 
L 700 3606 
z
M 3475 3250 
L 2638 3250 
L 2638 2663 
Q 2638 1950 2234 1378 
Q 1831 806 1188 556 
Q 1175 594 1163 631 
L 1163 163 
L 5050 163 
L 5050 1119 
L 4144 1119 
Q 3869 1119 3672 1312 
Q 3475 1506 3475 1781 
L 3475 3250 
z
M 3925 3250 
L 3925 1781 
Q 3925 1656 3987 1565 
Q 4050 1475 4150 1475 
L 5050 1475 
L 5050 3250 
L 3925 3250 
z
M 2188 3250 
L 1156 3250 
L 1163 1063 
Q 1625 1269 1906 1700 
Q 2188 2131 2188 2663 
L 2188 3250 
z
M 3475 3606 
L 3475 4513 
L 2638 4513 
L 2638 3606 
L 3475 3606 
z
" transform="scale(0.015625)"/>
        <path id="WenQuanYiZenHei-4e9e" d="M 6138 -88 
Q 6113 -269 6138 -450 
Q 5800 -431 5463 -431 
L 788 -431 
Q 450 -431 113 -450 
Q 138 -269 113 -88 
Q 450 -106 788 -106 
L 2056 -106 
L 2056 1300 
L 538 1300 
L 531 3356 
L 1969 3356 
L 1969 4606 
L 863 4606 
Q 525 4606 194 4594 
Q 213 4775 194 4956 
Q 525 4938 863 4938 
L 5263 4938 
Q 5600 4938 5938 4956 
Q 5919 4775 5938 4594 
Q 5600 4606 5263 4606 
L 4100 4606 
L 4100 3369 
L 5550 3369 
L 5538 1325 
L 4113 1325 
L 4113 -106 
L 5463 -106 
Q 5800 -106 6138 -88 
z
M 3675 -106 
L 3675 1656 
L 5100 1656 
L 5106 3038 
L 3663 3038 
L 3663 4606 
L 2406 4606 
L 2406 3025 
L 969 3025 
L 975 1631 
L 2494 1631 
L 2494 -106 
L 3675 -106 
z
" transform="scale(0.015625)"/>
       </defs>
       <use xlink:href="#WenQuanYiZenHei-99ac"/>
       <use xlink:href="#WenQuanYiZenHei-4f86" transform="translate(100 0)"/>
       <use xlink:href="#WenQuanYiZenHei-897f" transform="translate(200 0)"/>
       <use xlink:href="#WenQuanYiZenHei-4e9e" transform="translate(300 0)"/>
      </g>
     </g>
    </g>
    <g id="ytick_6">
     <g id="line2d_16">
      <g>
       <use xlink:href="#m0c5a9e53f6" x="108.40625" y="205.144821" style="stroke: #000000; stroke-width: 0.8"/>
      </g>
     </g>
     <g id="text_8">
      <!-- 香港 -->
      <g transform="translate(81.40625 209.065915) scale(0.1 -0.1)">
       <defs>
        <path id="WenQuanYiZenHei-9999" d="M 1975 -763 
Q 1738 -738 1494 -763 
Q 1519 -325 1519 119 
L 1519 2119 
Q 988 1713 394 1519 
Q 344 1781 144 1963 
Q 619 2106 1069 2365 
Q 1519 2625 1806 2969 
Q 1981 3175 2213 3531 
L 1113 3531 
Q 788 3531 463 3513 
Q 481 3688 463 3863 
Q 788 3850 1113 3850 
L 2981 3850 
L 2981 4694 
L 975 4538 
L 744 4963 
Q 1681 4906 3081 5063 
Q 4306 5188 4956 5319 
Q 4950 5069 5000 4825 
Q 4419 4800 3413 4725 
L 3413 3850 
L 5256 3850 
Q 5581 3850 5900 3863 
Q 5881 3688 5900 3513 
Q 5581 3531 5256 3531 
L 4006 3531 
Q 4463 2969 4928 2622 
Q 5394 2275 6125 1975 
Q 5900 1850 5813 1606 
Q 5013 1956 4413 2531 
Q 3900 3013 3513 3531 
L 3413 3531 
L 3413 2144 
L 4806 2144 
L 4806 -750 
L 4369 -750 
L 4369 -281 
L 1956 -281 
Q 1963 -525 1975 -763 
z
M 4369 1088 
L 4369 1825 
L 1950 1825 
L 1950 1088 
L 4369 1088 
z
M 4369 769 
L 1950 769 
L 1950 38 
L 4369 38 
L 4369 769 
z
M 1550 2144 
L 2981 2144 
L 2981 3531 
L 2775 3531 
Q 2269 2700 1550 2144 
z
" transform="scale(0.015625)"/>
        <path id="WenQuanYiZenHei-6e2f" d="M 3175 -656 
Q 2881 -656 2718 -484 
Q 2556 -313 2556 -44 
L 2556 1513 
Q 2138 1031 1544 644 
Q 1456 844 1263 956 
Q 1775 1275 2131 1697 
Q 2488 2119 2806 2769 
L 2319 2769 
Q 2025 2769 1731 2756 
Q 1750 2913 1731 3069 
Q 2025 3056 2319 3056 
L 2844 3056 
L 2844 3875 
L 2544 3875 
Q 2250 3875 1956 3856 
Q 1975 4019 1956 4175 
Q 2250 4163 2544 4163 
L 2844 4163 
L 2844 4413 
Q 2844 4838 2825 5263 
Q 3050 5238 3281 5263 
Q 3263 4838 3263 4413 
L 3263 4163 
L 4231 4163 
L 4231 4413 
Q 4231 4838 4206 5263 
Q 4438 5238 4669 5263 
Q 4650 4838 4650 4413 
L 4650 4163 
L 5069 4163 
Q 5363 4163 5656 4175 
Q 5638 4019 5656 3856 
Q 5363 3875 5069 3875 
L 4650 3875 
L 4650 3056 
L 5338 3056 
Q 5631 3056 5925 3069 
Q 5906 2913 5925 2756 
Q 5631 2769 5338 2769 
L 4563 2769 
Q 4875 2225 5219 1900 
Q 5563 1575 6156 1281 
Q 5925 1175 5825 950 
Q 5250 1244 4738 1856 
L 4738 438 
L 4319 438 
L 4319 606 
L 2975 606 
L 2975 -44 
Q 2975 -150 3031 -228 
Q 3088 -306 3181 -306 
L 4756 -300 
Q 4838 -300 4897 -228 
Q 4956 -156 4975 -50 
L 5081 550 
Q 5269 438 5488 425 
L 5313 -344 
Q 5288 -475 5222 -565 
Q 5156 -656 5050 -656 
L 3175 -656 
z
M 2975 875 
L 4319 875 
L 4319 1606 
L 2975 1606 
L 2975 875 
z
M 2850 1894 
L 4706 1894 
Q 4375 2306 4131 2769 
L 3275 2769 
Q 3131 2313 2850 1894 
z
M 4231 3056 
L 4231 3875 
L 3263 3875 
L 3263 3056 
L 4231 3056 
z
M 775 -738 
Q 563 -588 244 -575 
Q 469 -69 709 581 
Q 950 1231 1406 2838 
L 1613 2706 
L 1025 338 
L 775 -738 
z
M 1181 2856 
L 850 2550 
L 88 3400 
L 413 3713 
L 1181 2856 
z
M 1275 3913 
Q 919 4388 500 4800 
L 806 5125 
Q 1250 4688 1625 4188 
L 1275 3913 
z
" transform="scale(0.015625)"/>
       </defs>
       <use xlink:href="#WenQuanYiZenHei-9999"/>
       <use xlink:href="#WenQuanYiZenHei-6e2f" transform="translate(100 0)"/>
      </g>
     </g>
    </g>
    <g id="ytick_7">
     <g id="line2d_17">
      <g>
       <use xlink:href="#m0c5a9e53f6" x="108.40625" y="236.001964" style="stroke: #000000; stroke-width: 0.8"/>
      </g>
     </g>
     <g id="text_9">
      <!-- 澳大利亞 -->
      <g transform="translate(61.40625 240.016027) scale(0.1 -0.1)">
       <defs>
        <path id="WenQuanYiZenHei-6fb3" d="M 2456 794 
Q 2188 794 1919 781 
Q 1931 931 1919 1075 
Q 2188 1063 2456 1063 
L 3519 1063 
Q 3588 1300 3619 1456 
L 3638 1456 
L 3638 2419 
Q 3350 1975 2769 1538 
Q 2725 1631 2644 1706 
Q 2650 1544 2656 1388 
Q 2438 1406 2213 1388 
Q 2231 1794 2231 2206 
L 2231 4556 
L 3156 4556 
Q 3425 4800 3644 5175 
Q 3825 5044 4025 4950 
Q 3919 4744 3744 4556 
L 5488 4556 
L 5488 1444 
L 5081 1444 
L 5081 2856 
L 4038 2856 
L 4038 2794 
L 4050 2813 
Q 4588 2419 5069 1963 
L 4756 1644 
Q 4413 1969 4038 2263 
L 4038 1419 
L 3950 1419 
L 4063 1406 
Q 4031 1231 3988 1063 
L 5419 1063 
Q 5688 1063 5956 1075 
Q 5944 931 5956 781 
Q 5688 794 5419 794 
L 4206 794 
Q 4888 -213 6100 -350 
Q 5925 -519 5900 -763 
Q 5256 -669 4737 -278 
Q 4219 113 3850 675 
Q 3556 25 2984 -387 
Q 2413 -800 1725 -838 
Q 1744 -588 1606 -375 
Q 2156 -356 2631 -106 
Q 3219 188 3425 794 
L 2456 794 
z
M 4038 3338 
Q 4344 3638 4538 4113 
Q 4738 4006 4950 3944 
Q 4775 3494 4369 3094 
L 5081 3094 
L 5081 4294 
L 4038 4294 
L 4038 3338 
z
M 2638 3094 
L 3638 3094 
L 3638 4294 
L 3456 4294 
L 3375 4219 
Q 3356 4256 3325 4294 
L 2638 4294 
Q 2638 4100 2638 3894 
L 3013 4119 
L 3463 3369 
L 3081 3138 
L 2638 3875 
L 2638 3094 
z
M 4038 3094 
L 4319 3094 
Q 4206 3238 4038 3300 
L 4038 3094 
z
M 2638 2856 
L 2638 1938 
Q 3000 2225 3381 2856 
L 2638 2856 
z
M 844 -738 
Q 613 -588 269 -575 
Q 513 -69 772 581 
Q 1031 1231 1531 2838 
L 1763 2706 
L 1119 338 
L 844 -738 
z
M 1288 2856 
L 931 2550 
L 94 3400 
L 450 3713 
L 1288 2856 
z
M 1388 3913 
Q 1000 4388 544 4800 
L 881 5125 
Q 1363 4688 1775 4188 
L 1388 3913 
z
" transform="scale(0.015625)"/>
        <path id="WenQuanYiZenHei-5229" d="M 1038 2931 
Q 688 2931 338 2913 
Q 363 3106 338 3294 
Q 688 3275 1038 3275 
L 1731 3275 
L 1731 4281 
Q 1169 4119 500 3981 
Q 488 4213 344 4400 
Q 1263 4569 2219 4950 
L 3025 5288 
Q 3100 5050 3225 4838 
Q 2719 4600 2175 4419 
L 2175 3275 
L 2819 3275 
Q 3169 3275 3519 3294 
Q 3500 3106 3519 2913 
Q 3169 2931 2819 2931 
L 2175 2931 
L 2175 2856 
Q 2825 2200 3413 1475 
L 3031 1169 
Q 2619 1675 2175 2150 
L 2175 138 
Q 2175 -313 2194 -769 
Q 1950 -738 1706 -769 
Q 1731 -313 1731 138 
L 1731 2075 
Q 1206 919 431 163 
Q 269 388 0 469 
Q 888 1281 1250 2106 
Q 1394 2438 1550 2931 
L 1038 2931 
z
M 4756 -888 
Q 4806 -544 4606 -350 
Q 4806 -375 5059 -378 
Q 5313 -381 5388 -325 
Q 5463 -269 5463 38 
L 5463 4181 
Q 5463 4631 5444 5075 
Q 5688 5050 5931 5075 
Q 5913 4631 5913 4181 
L 5913 -106 
Q 5913 -656 5500 -800 
Q 5150 -913 4756 -888 
z
M 4613 756 
Q 4369 781 4119 756 
Q 4144 1200 4144 1650 
L 4144 3269 
Q 4144 3713 4119 4163 
Q 4369 4138 4613 4163 
Q 4588 3713 4588 3269 
L 4588 1650 
Q 4588 1200 4613 756 
z
" transform="scale(0.015625)"/>
       </defs>
       <use xlink:href="#WenQuanYiZenHei-6fb3"/>
       <use xlink:href="#WenQuanYiZenHei-5927" transform="translate(100 0)"/>
       <use xlink:href="#WenQuanYiZenHei-5229" transform="translate(200 0)"/>
       <use xlink:href="#WenQuanYiZenHei-4e9e" transform="translate(300 0)"/>
      </g>
     </g>
    </g>
    <g id="ytick_8">
     <g id="line2d_18">
      <g>
       <use xlink:href="#m0c5a9e53f6" x="108.40625" y="266.859107" style="stroke: #000000; stroke-width: 0.8"/>
      </g>
     </g>
     <g id="text_10">
      <!-- 中東 -->
      <g transform="translate(81.40625 270.741138) scale(0.1 -0.1)">
       <defs>
        <path id="WenQuanYiZenHei-4e2d" d="M 3200 -688 
Q 2944 -663 2694 -688 
Q 2719 -225 2719 244 
L 2719 1700 
L 813 1700 
L 813 1375 
L 356 1375 
L 356 3938 
L 2719 3938 
L 2719 4331 
Q 2719 4794 2694 5263 
Q 2944 5238 3200 5263 
Q 3175 4794 3175 4331 
L 3175 3938 
L 5538 3938 
L 5538 1375 
L 5081 1375 
L 5081 1700 
L 3175 1700 
L 3175 244 
Q 3175 -225 3200 -688 
z
M 3175 2075 
L 5081 2075 
L 5081 3563 
L 3175 3563 
L 3175 2075 
z
M 2719 2075 
L 2719 3563 
L 813 3563 
L 813 2075 
L 2719 2075 
z
" transform="scale(0.015625)"/>
        <path id="WenQuanYiZenHei-6771" d="M 5181 3719 
Q 5100 2631 5181 1544 
L 3669 1544 
Q 4181 956 4731 584 
Q 5281 213 6119 -56 
Q 5900 -200 5825 -450 
Q 5175 -231 4644 138 
Q 3931 638 3306 1350 
L 3306 125 
Q 3306 -319 3331 -769 
Q 3088 -744 2844 -769 
Q 2869 -319 2869 125 
L 2869 1138 
Q 1688 -31 406 -525 
Q 338 -263 131 -81 
Q 1625 431 2625 1544 
L 988 1544 
Q 1063 2631 988 3719 
L 2869 3719 
L 2869 4144 
L 931 4144 
Q 594 4144 263 4131 
Q 281 4313 263 4494 
Q 594 4475 931 4475 
L 2869 4475 
Q 2869 4869 2844 5256 
Q 3088 5231 3331 5256 
Q 3313 4869 3306 4475 
L 5244 4475 
Q 5581 4475 5919 4494 
Q 5900 4313 5919 4131 
Q 5581 4144 5244 4144 
L 3306 4144 
L 3306 3719 
L 5181 3719 
z
M 3306 2725 
L 4744 2725 
L 4744 3388 
L 3306 3388 
L 3306 2725 
z
M 2869 2725 
L 2869 3388 
L 1425 3388 
L 1425 2725 
L 2869 2725 
z
M 3306 2394 
L 3306 1869 
L 4744 1869 
L 4744 2394 
L 3306 2394 
z
M 2869 2394 
L 1425 2394 
L 1425 1869 
L 2869 1869 
L 2869 2394 
z
" transform="scale(0.015625)"/>
       </defs>
       <use xlink:href="#WenQuanYiZenHei-4e2d"/>
       <use xlink:href="#WenQuanYiZenHei-6771" transform="translate(100 0)"/>
      </g>
     </g>
    </g>
    <g id="ytick_9">
     <g id="line2d_19">
      <g>
       <use xlink:href="#m0c5a9e53f6" x="108.40625" y="297.71625" style="stroke: #000000; stroke-width: 0.8"/>
      </g>
     </g>
     <g id="text_11">
      <!-- 阿拉伯聯合大公國 -->
      <g transform="translate(21.40625 301.715469) scale(0.1 -0.1)">
       <defs>
        <path id="WenQuanYiZenHei-963f" d="M 3238 825 
L 2788 825 
L 2788 3681 
L 4413 3675 
L 4413 825 
L 3969 825 
L 3969 1400 
L 3238 1400 
L 3238 825 
z
M 5113 119 
L 5113 4519 
L 3125 4519 
Q 2775 4519 2425 4500 
Q 2450 4688 2425 4875 
Q 2775 4863 3125 4863 
L 5481 4863 
Q 5831 4863 6181 4875 
Q 6163 4688 6181 4500 
Q 5869 4513 5556 4519 
L 5556 -63 
Q 5563 -438 5356 -619 
Q 5056 -850 4456 -825 
Q 4525 -519 4319 -281 
Q 4500 -306 4740 -309 
Q 4981 -313 5047 -256 
Q 5113 -200 5113 119 
z
M 3969 3331 
L 3238 3331 
L 3238 1744 
L 3969 1744 
L 3969 3331 
z
M 825 -850 
Q 588 -825 350 -850 
Q 375 -419 375 19 
L 369 4938 
L 2294 4938 
L 2294 4625 
Q 2181 4513 2106 4375 
L 1506 3238 
Q 2213 2319 2213 1156 
Q 2175 400 1588 163 
L 1425 88 
Q 1306 300 1156 481 
Q 1313 538 1475 606 
Q 1788 744 1819 1156 
Q 1819 1744 1622 2300 
Q 1425 2856 1050 3313 
L 1750 4625 
L 800 4625 
L 806 19 
Q 806 -419 825 -850 
z
" transform="scale(0.015625)"/>
        <path id="WenQuanYiZenHei-62c9" d="M 6181 -175 
Q 6163 -356 6181 -544 
Q 5844 -525 5506 -525 
L 3019 -525 
Q 2681 -525 2350 -544 
Q 2369 -356 2350 -175 
Q 2681 -194 3019 -194 
L 4044 -194 
Q 4650 919 4775 1769 
Q 4863 2350 4869 2938 
Q 5131 2900 5400 2913 
Q 5181 1000 4613 -194 
L 5506 -194 
Q 5844 -194 6181 -175 
z
M 3525 2969 
Q 3806 1706 4031 438 
L 3556 350 
Q 3338 1613 3050 2863 
L 3525 2969 
z
M 6000 3769 
Q 5975 3588 6000 3406 
Q 5663 3425 5325 3425 
L 3506 3425 
Q 3169 3425 2838 3406 
Q 2856 3588 2838 3769 
Q 3169 3756 3506 3756 
L 4163 3756 
Q 3894 4350 3544 4906 
L 3950 5163 
Q 4331 4563 4619 3919 
L 4256 3756 
L 5325 3756 
Q 5663 3756 6000 3769 
z
M 31 1769 
Q 675 1881 1263 2094 
L 1263 3425 
L 819 3425 
Q 488 3425 156 3413 
Q 175 3569 156 3731 
Q 488 3719 819 3719 
L 1263 3719 
L 1263 4275 
Q 1263 4700 1238 5125 
Q 1500 5100 1756 5125 
Q 1731 4700 1731 4275 
L 1731 3719 
L 2538 3731 
Q 2519 3569 2538 3413 
L 1731 3425 
L 1731 2269 
L 2406 2538 
L 2456 2281 
L 1731 1975 
L 1731 -113 
Q 1738 -650 1294 -788 
Q 925 -900 506 -869 
Q 563 -544 350 -363 
Q 563 -381 831 -384 
Q 1100 -388 1178 -331 
Q 1256 -275 1263 50 
L 1263 1763 
L 963 1625 
L 288 1294 
Q 225 1581 31 1769 
z
" transform="scale(0.015625)"/>
        <path id="WenQuanYiZenHei-4f2f" d="M 5819 3938 
L 5819 -756 
L 5369 -756 
L 5369 -256 
L 3144 -256 
Q 3150 -513 3163 -769 
Q 2919 -744 2675 -769 
Q 2694 -319 2694 138 
L 2688 3944 
Q 3000 3944 3325 3938 
Q 3581 4256 3813 4694 
L 4063 5169 
Q 4275 5044 4506 4963 
Q 4300 4481 3888 3938 
L 5819 3938 
z
M 5369 1988 
L 5369 3594 
L 3613 3594 
L 3556 3531 
Q 3531 3563 3494 3594 
Q 3331 3594 3138 3594 
L 3138 1988 
L 5369 1988 
z
M 5369 88 
L 5369 1638 
L 3138 1638 
L 3144 88 
L 5369 88 
z
M 2269 4925 
Q 1994 4075 1569 3338 
L 1569 31 
Q 1569 -413 1594 -850 
Q 1350 -825 1106 -850 
Q 1125 -413 1125 31 
L 1125 2681 
Q 806 2269 406 1931 
Q 256 2156 -6 2256 
Q 350 2544 663 2875 
Q 1175 3425 1400 3950 
Q 1606 4469 1744 5050 
Q 1988 4963 2269 4925 
z
" transform="scale(0.015625)"/>
        <path id="WenQuanYiZenHei-806f" d="M 5025 -769 
Q 4806 -744 4588 -769 
Q 4606 -363 4606 38 
L 4606 1400 
Q 4606 1800 4588 2206 
Q 4806 2181 5025 2206 
Q 5006 1800 5006 1400 
L 5006 919 
L 5675 919 
L 5681 1263 
Q 5681 1663 5663 2069 
Q 5881 2044 6100 2063 
Q 6081 1650 6075 663 
L 5006 663 
L 5006 38 
Q 5006 -363 5025 -769 
z
M 3694 650 
Q 3263 681 2644 569 
L 2663 1256 
Q 2663 1663 2644 2069 
Q 2863 2044 3081 2069 
Q 3063 1663 3063 1256 
L 3063 963 
L 3694 913 
L 3694 1400 
Q 3694 1800 3675 2206 
Q 3894 2181 4113 2206 
Q 4094 1800 4094 1400 
L 4094 719 
Q 4094 113 3594 -363 
Q 3250 -688 2794 -813 
Q 2744 -569 2544 -431 
Q 2994 -381 3331 -62 
Q 3669 256 3694 650 
z
M 6256 2531 
L 5875 2313 
L 5644 2713 
L 4331 2569 
L 4306 2819 
Q 4400 2831 4463 2894 
Q 4775 3206 5206 3763 
L 4256 3631 
L 4225 3888 
Q 4313 3900 4425 4003 
Q 4538 4106 4794 4463 
Q 5106 4869 5188 5175 
Q 5394 5050 5619 4969 
Q 5556 4831 5253 4450 
Q 4950 4069 4856 3963 
L 5325 4013 
L 5406 4031 
Q 5656 4369 5750 4575 
Q 5938 4419 6156 4313 
Q 6031 4119 5553 3572 
Q 5075 3025 4938 2881 
L 5519 2925 
L 5375 3169 
L 5756 3394 
L 6256 2531 
z
M 4344 2531 
L 3963 2313 
L 3731 2713 
L 2419 2569 
L 2394 2819 
Q 2481 2831 2550 2894 
Q 2863 3206 3294 3763 
L 2344 3631 
L 2313 3888 
Q 2400 3900 2512 4003 
Q 2625 4106 2881 4463 
Q 3194 4869 3275 5175 
Q 3481 5050 3706 4969 
Q 3644 4831 3341 4450 
Q 3038 4069 2944 3963 
L 3413 4013 
L 3494 4031 
Q 3738 4369 3838 4575 
Q 4025 4419 4244 4313 
Q 4119 4119 3641 3572 
Q 3163 3025 3025 2881 
L 3606 2925 
L 3463 3169 
L 3844 3394 
L 4344 2531 
z
M 144 275 
Q 131 581 13 788 
Q 244 806 475 844 
L 475 4475 
Q 263 4475 56 4463 
Q 69 4625 56 4788 
Q 319 4775 575 4775 
L 1806 4775 
Q 2063 4775 2325 4788 
Q 2313 4625 2325 4463 
Q 2113 4475 1894 4475 
L 1894 1231 
L 2175 1325 
L 2181 1063 
L 1894 963 
L 1894 6 
Q 1894 -425 1913 -856 
Q 1713 -831 1513 -856 
Q 1531 -425 1531 6 
L 1531 831 
Q 1063 663 759 541 
Q 456 419 144 275 
z
M 1531 3481 
L 1531 4475 
L 838 4475 
L 838 3481 
L 1531 3481 
z
M 1531 2219 
L 1531 3181 
L 838 3181 
L 838 2219 
L 1531 2219 
z
M 1531 1925 
L 838 1925 
L 838 919 
Q 1125 988 1531 1113 
L 1531 1925 
z
" transform="scale(0.015625)"/>
        <path id="WenQuanYiZenHei-5408" d="M 3219 4825 
Q 4050 3150 6106 2681 
Q 5894 2513 5838 2250 
Q 5275 2388 4731 2700 
Q 4713 2519 4731 2338 
Q 4369 2356 4006 2356 
L 2200 2356 
Q 1838 2356 1469 2338 
Q 1494 2531 1469 2731 
Q 1838 2713 2200 2713 
L 4006 2713 
Q 4344 2713 4681 2731 
Q 3581 3375 2969 4431 
Q 1875 2806 425 2075 
Q 338 2344 106 2506 
Q 731 2806 1306 3240 
Q 1881 3675 2231 4188 
Q 2563 4694 2838 5250 
Q 3069 5100 3325 5006 
L 3219 4825 
z
M 1675 -919 
Q 1431 -894 1188 -919 
Q 1206 -444 1206 31 
L 1206 1650 
L 5113 1644 
L 5113 -906 
L 4669 -906 
L 4669 -406 
L 1656 -406 
Q 1663 -663 1675 -919 
z
M 4669 1281 
L 1650 1281 
L 1650 -44 
L 4669 -44 
L 4669 1281 
z
" transform="scale(0.015625)"/>
        <path id="WenQuanYiZenHei-516c" d="M 4188 1194 
Q 4813 313 5356 -631 
L 4913 -888 
L 4469 -150 
L 4100 -188 
L 1038 -650 
L 981 -256 
Q 1144 -219 1244 -88 
Q 1544 288 2081 1238 
Q 2619 2188 2756 2694 
Q 3006 2563 3275 2481 
Q 3138 2138 2506 1122 
Q 1875 106 1694 -156 
L 4050 163 
L 4244 206 
L 3769 900 
L 4188 1194 
z
M 6156 2100 
Q 5900 1994 5775 1750 
Q 4825 2300 4244 3231 
Q 3719 4050 3444 5056 
L 3850 5156 
Q 4169 4019 4706 3303 
Q 5244 2588 6156 2100 
z
M 2063 4913 
Q 2331 4813 2606 4775 
Q 2144 3338 1244 2256 
Q 888 1838 475 1513 
Q 325 1763 63 1875 
Q 544 2238 978 2703 
Q 1413 3169 1638 3675 
Q 1888 4263 2063 4913 
z
" transform="scale(0.015625)"/>
        <path id="WenQuanYiZenHei-570b" d="M 3681 1469 
Q 3294 2275 3288 3525 
L 1738 3525 
Q 1431 3525 1131 3513 
Q 1150 3675 1131 3838 
Q 1431 3825 1738 3825 
L 3288 3825 
L 3269 4681 
Q 3500 4656 3731 4681 
L 3719 3825 
L 4450 3825 
L 4000 4431 
L 4338 4681 
L 913 4681 
L 913 25 
L 5338 25 
L 5338 4681 
L 4394 4681 
L 4900 4000 
L 4663 3825 
Q 4900 3825 5131 3838 
Q 5113 3675 5131 3513 
Q 4831 3525 4525 3525 
L 3713 3525 
Q 3706 2594 3969 1888 
Q 4213 2431 4331 3088 
Q 4581 3025 4838 3013 
Q 4650 2144 4175 1438 
Q 4381 1056 4681 756 
Q 4675 1075 4650 1388 
Q 4869 1269 5113 1288 
Q 5175 794 5106 300 
Q 5094 106 4913 75 
Q 4825 63 4756 113 
Q 4244 513 3894 1075 
Q 3338 419 2588 100 
Q 2513 356 2306 519 
Q 3169 863 3681 1469 
z
M 1063 1181 
Q 1781 1181 2363 1313 
Q 2569 1356 3013 1469 
L 3006 1200 
Q 1825 894 1188 663 
Q 1200 938 1063 1181 
z
M 931 -769 
Q 700 -750 469 -769 
Q 488 -344 488 88 
L 488 4981 
L 5763 4975 
L 5763 -763 
L 5338 -763 
L 5338 -250 
L 913 -250 
Q 919 -513 931 -769 
z
M 1731 2744 
L 1731 2069 
L 2456 2069 
L 2463 2744 
L 1731 2744 
z
M 1306 3038 
L 2888 3038 
L 2875 1769 
L 1306 1769 
L 1306 3038 
z
" transform="scale(0.015625)"/>
       </defs>
       <use xlink:href="#WenQuanYiZenHei-963f"/>
       <use xlink:href="#WenQuanYiZenHei-62c9" transform="translate(100 0)"/>
       <use xlink:href="#WenQuanYiZenHei-4f2f" transform="translate(200 0)"/>
       <use xlink:href="#WenQuanYiZenHei-806f" transform="translate(300 0)"/>
       <use xlink:href="#WenQuanYiZenHei-5408" transform="translate(400 0)"/>
       <use xlink:href="#WenQuanYiZenHei-5927" transform="translate(500 0)"/>
       <use xlink:href="#WenQuanYiZenHei-516c" transform="translate(600 0)"/>
       <use xlink:href="#WenQuanYiZenHei-570b" transform="translate(700 0)"/>
      </g>
     </g>
    </g>
    <g id="ytick_10">
     <g id="line2d_20">
      <g>
       <use xlink:href="#m0c5a9e53f6" x="108.40625" y="328.573393" style="stroke: #000000; stroke-width: 0.8"/>
      </g>
     </g>
     <g id="text_12">
      <!-- 日本 -->
      <g transform="translate(81.40625 332.460112) scale(0.1 -0.1)">
       <defs>
        <path id="WenQuanYiZenHei-65e5" d="M 1494 -775 
Q 1244 -750 988 -775 
Q 1013 -313 1013 156 
L 1013 4875 
L 5269 4875 
L 5269 -763 
L 4813 -763 
L 4813 156 
L 1469 156 
Q 1469 -313 1494 -775 
z
M 4813 2700 
L 4813 4500 
L 1469 4500 
L 1469 2700 
L 4813 2700 
z
M 4813 531 
L 4813 2325 
L 1469 2325 
L 1469 531 
L 4813 531 
z
" transform="scale(0.015625)"/>
        <path id="WenQuanYiZenHei-672c" d="M 4713 1181 
Q 4694 975 4713 769 
Q 4331 788 3950 788 
L 3369 788 
L 3369 163 
Q 3369 -300 3394 -769 
Q 3138 -738 2888 -769 
Q 2913 -300 2913 163 
L 2913 788 
L 2325 788 
Q 1944 788 1563 769 
Q 1588 975 1563 1181 
Q 1944 1163 2325 1163 
L 2913 1163 
L 2913 3200 
Q 1881 1388 463 363 
Q 331 613 69 738 
Q 1725 1856 2563 3569 
L 1081 3569 
Q 700 3569 319 3550 
Q 338 3756 319 3963 
Q 700 3944 1081 3944 
L 2913 3944 
L 2913 4331 
Q 2913 4794 2888 5263 
Q 3138 5231 3394 5263 
Q 3369 4794 3369 4331 
L 3369 3944 
L 5200 3944 
Q 5581 3944 5963 3963 
Q 5938 3756 5963 3550 
Q 5581 3569 5200 3569 
L 3738 3569 
Q 4181 2650 4728 2034 
Q 5275 1419 6163 900 
Q 5906 806 5769 569 
Q 4906 1100 4294 1894 
Q 3756 2588 3369 3375 
L 3369 1163 
L 3950 1163 
Q 4331 1163 4713 1181 
z
" transform="scale(0.015625)"/>
       </defs>
       <use xlink:href="#WenQuanYiZenHei-65e5"/>
       <use xlink:href="#WenQuanYiZenHei-672c" transform="translate(100 0)"/>
      </g>
     </g>
    </g>
    <g id="text_13">
     <!-- 國家/地區別 -->
     <g transform="translate(15.696875 217.313906) rotate(-90) scale(0.1 -0.1)">
      <defs>
       <path id="WenQuanYiZenHei-5bb6" d="M 1750 3363 
Q 1438 3363 1125 3344 
Q 1144 3513 1125 3681 
Q 1438 3669 1750 3669 
L 4469 3669 
Q 4781 3669 5094 3681 
Q 5075 3513 5094 3344 
Q 4781 3363 4469 3363 
L 3294 3363 
L 3319 3338 
L 2994 3050 
Q 3488 2794 3706 2075 
Q 4088 2256 4431 2512 
Q 4775 2769 5200 3169 
Q 5350 2981 5531 2838 
Q 5069 2350 4419 1969 
Q 4663 881 5394 350 
Q 5713 119 6075 -25 
Q 5850 -150 5763 -388 
Q 5138 -125 4700 456 
Q 4263 1038 4063 1775 
L 3800 1650 
Q 3931 669 3613 -238 
Q 3550 -388 3444 -538 
Q 3219 -850 2744 -925 
Q 2675 -638 2406 -525 
Q 3038 -531 3213 -106 
Q 3419 488 3413 1181 
Q 1988 -113 431 -544 
Q 394 -275 206 -81 
Q 869 88 1512 384 
Q 2156 681 2575 1040 
Q 2994 1400 3331 1756 
L 3356 1731 
Q 3306 2000 3219 2219 
Q 1938 956 538 606 
Q 506 869 325 1069 
Q 869 1194 1387 1419 
Q 1906 1644 2256 1941 
Q 2606 2238 2894 2556 
L 3188 2281 
Q 3025 2613 2750 2694 
Q 2663 2719 2575 2706 
Q 1606 1963 638 1638 
Q 581 1900 388 2081 
Q 1575 2450 2281 3025 
Q 2431 3150 2663 3363 
L 1750 3363 
z
M 781 3469 
L 350 3469 
L 350 4669 
L 3006 4669 
L 2463 5050 
L 2731 5438 
L 3406 4963 
L 3200 4669 
L 5863 4669 
L 5863 3469 
L 5431 3469 
L 5431 4363 
L 781 4363 
L 781 3469 
z
" transform="scale(0.015625)"/>
       <path id="WenQuanYiZenHei-2f" d="M 3213 4388 
L 563 -1094 
L 138 -1094 
L 2775 4388 
L 3213 4388 
z
" transform="scale(0.015625)"/>
       <path id="WenQuanYiZenHei-5730" d="M 3238 -688 
Q 2981 -688 2775 -500 
Q 2569 -313 2569 75 
L 2569 2438 
Q 2263 2325 1956 2194 
Q 1906 2388 1819 2563 
L 2569 2825 
L 2569 3406 
Q 2569 3863 2550 4325 
Q 2800 4294 3044 4325 
Q 3025 3863 3025 3406 
L 3025 2988 
L 3819 3281 
L 3819 4344 
Q 3819 4800 3800 5263 
Q 4050 5238 4294 5263 
Q 4275 4800 4275 4344 
L 4275 3450 
L 5700 3975 
L 5700 1388 
Q 5669 994 5350 869 
Q 5050 738 4625 744 
Q 4694 1050 4488 1294 
Q 4669 1275 4916 1269 
Q 5163 1263 5203 1303 
Q 5244 1344 5244 1506 
L 5244 3425 
L 4275 3069 
L 4275 1331 
Q 4275 869 4294 413 
Q 4050 438 3800 413 
Q 3819 869 3819 1331 
L 3819 2900 
L 3025 2606 
L 3025 75 
Q 3025 -69 3081 -175 
Q 3138 -281 3244 -281 
L 5456 -275 
Q 5575 -275 5653 -165 
Q 5731 -56 5750 100 
L 5875 988 
Q 6075 850 6313 856 
L 6138 -244 
Q 6113 -431 6025 -559 
Q 5938 -688 5794 -688 
L 3238 -688 
z
M -31 625 
Q 481 763 956 975 
L 956 3206 
L 638 3206 
Q 356 3206 69 3188 
Q 88 3356 69 3531 
Q 356 3513 638 3513 
L 956 3513 
L 956 4263 
Q 956 4700 938 5131 
Q 1150 5106 1363 5131 
Q 1344 4700 1344 4263 
L 1344 3513 
L 2131 3531 
Q 2113 3356 2131 3188 
L 1344 3206 
L 1344 1163 
L 2044 1531 
L 2088 1256 
Q 1206 775 775 519 
L 188 144 
Q 131 438 -31 625 
z
" transform="scale(0.015625)"/>
       <path id="WenQuanYiZenHei-5340" d="M 3738 650 
Q 3813 1400 3738 2150 
L 5625 2150 
Q 5544 1400 5613 650 
L 3738 650 
z
M 1406 650 
Q 1488 1400 1406 2150 
L 3294 2150 
Q 3213 1400 3281 650 
L 1406 650 
z
M 2125 2756 
Q 2200 3431 2125 4106 
L 4869 4106 
Q 4788 3431 4863 2756 
L 2125 2756 
z
M 4163 1850 
L 4163 950 
L 5194 950 
L 5200 1850 
L 4163 1850 
z
M 1831 1850 
L 1831 950 
L 2863 950 
L 2869 1850 
L 1831 1850 
z
M 2544 3806 
L 2544 3056 
L 4444 3056 
L 4444 3806 
L 2544 3806 
z
M 6025 5013 
Q 6006 4844 6025 4675 
Q 5700 4688 5369 4688 
L 863 4688 
L 863 -25 
L 6131 -25 
L 6131 -338 
L 413 -338 
L 406 5000 
L 5369 5000 
Q 5700 5000 6025 5013 
z
" transform="scale(0.015625)"/>
       <path id="WenQuanYiZenHei-5225" d="M 1213 2813 
L 769 2813 
L 769 4969 
L 3263 4969 
L 3263 2813 
L 2819 2813 
L 2819 3075 
L 1850 3075 
L 1850 2281 
L 3306 2281 
L 3306 -194 
Q 3306 -431 3147 -575 
Q 2988 -719 2769 -775 
Q 2531 -831 2156 -825 
Q 2225 -519 2006 -281 
Q 2206 -306 2487 -309 
Q 2769 -313 2816 -275 
Q 2863 -238 2863 -69 
L 2863 1938 
L 1850 1938 
Q 1906 756 1350 -38 
Q 1031 -500 544 -788 
Q 419 -538 156 -450 
Q 669 -231 988 225 
Q 1406 813 1406 1663 
L 1406 3075 
Q 1313 3075 1213 3075 
L 1213 2813 
z
M 2819 4625 
L 1219 4625 
L 1213 3419 
L 2819 3419 
L 2819 4625 
z
M 4831 -888 
Q 4881 -544 4688 -350 
Q 4881 -375 5122 -378 
Q 5363 -381 5434 -325 
Q 5506 -269 5506 38 
L 5506 4181 
Q 5506 4631 5488 5075 
Q 5719 5050 5956 5075 
Q 5931 4631 5931 4181 
L 5931 -106 
Q 5931 -656 5538 -800 
Q 5206 -913 4831 -888 
z
M 4694 756 
Q 4456 781 4225 756 
Q 4244 1200 4244 1650 
L 4244 3269 
Q 4244 3713 4225 4163 
Q 4456 4138 4694 4163 
Q 4669 3713 4669 3269 
L 4669 1650 
Q 4669 1200 4694 756 
z
" transform="scale(0.015625)"/>
      </defs>
      <use xlink:href="#WenQuanYiZenHei-570b"/>
      <use xlink:href="#WenQuanYiZenHei-5bb6" transform="translate(100 0)"/>
      <use xlink:href="#WenQuanYiZenHei-2f" transform="translate(200 0)"/>
      <use xlink:href="#WenQuanYiZenHei-5730" transform="translate(251.953125 0)"/>
      <use xlink:href="#WenQuanYiZenHei-5340" transform="translate(351.953125 0)"/>
      <use xlink:href="#WenQuanYiZenHei-5225" transform="translate(451.953125 0)"/>
     </g>
    </g>
   </g>
   <g id="patch_13">
    <path d="M 108.40625 356.03625 
L 108.40625 23.39625 
" style="fill: none; stroke: #000000; stroke-width: 0.8; stroke-linejoin: miter; stroke-linecap: square"/>
   </g>
   <g id="patch_14">
    <path d="M 610.60625 356.03625 
L 610.60625 23.39625 
" style="fill: none; stroke: #000000; stroke-width: 0.8; stroke-linejoin: miter; stroke-linecap: square"/>
   </g>
   <g id="patch_15">
    <path d="M 108.40625 356.03625 
L 610.60625 356.03625 
" style="fill: none; stroke: #000000; stroke-width: 0.8; stroke-linejoin: miter; stroke-linecap: square"/>
   </g>
   <g id="patch_16">
    <path d="M 108.40625 23.39625 
L 610.60625 23.39625 
" style="fill: none; stroke: #000000; stroke-width: 0.8; stroke-linejoin: miter; stroke-linecap: square"/>
   </g>
   <g id="text_14">
    <!-- 108年度國家財政部出口統計 (1)石油煉製品 Top 10 -->
    <g transform="translate(223.453438 17.39625) scale(0.12 -0.12)">
     <defs>
      <path id="WenQuanYiZenHei-38" d="M 3619 1175 
Q 3619 431 2850 100 
Q 2444 -63 1944 -63 
Q 1231 -63 725 269 
Q 225 594 225 1125 
Q 225 1881 1269 2281 
Q 719 2481 519 2938 
Q 444 3119 444 3319 
Q 444 4000 1144 4294 
Q 1519 4456 1963 4456 
Q 2669 4456 3094 4094 
Q 3425 3813 3425 3369 
Q 3425 2638 2575 2356 
Q 3231 2056 3450 1725 
Q 3619 1488 3619 1175 
z
M 2944 3344 
Q 2944 3906 2288 4019 
Q 2138 4044 1969 4044 
Q 1438 4044 1163 3775 
Q 1000 3613 1000 3375 
Q 1000 2925 1594 2663 
Q 1756 2588 1931 2550 
Q 2581 2725 2788 2956 
Q 2944 3125 2944 3344 
z
M 3075 1094 
Q 3075 1738 1875 2050 
Q 1094 1881 850 1463 
Q 763 1313 763 1131 
Q 763 569 1456 406 
Q 1681 344 1944 344 
Q 2519 344 2850 619 
Q 3075 813 3075 1094 
z
" transform="scale(0.015625)"/>
      <path id="WenQuanYiZenHei-5e74" d="M 3638 -769 
Q 3388 -744 3138 -769 
Q 3163 -313 3163 150 
L 3163 1044 
L 969 1044 
Q 606 1044 244 1025 
Q 263 1219 244 1419 
Q 606 1400 969 1400 
L 1406 1400 
L 1400 2963 
L 3163 2963 
L 3163 3925 
L 1725 3925 
Q 1131 2881 494 2244 
Q 319 2463 50 2544 
Q 756 3219 1125 3794 
Q 1494 4369 1763 5169 
Q 2006 5044 2269 4969 
L 1925 4281 
L 5044 4281 
Q 5406 4281 5769 4300 
Q 5750 4106 5769 3906 
Q 5406 3925 5044 3925 
L 3613 3925 
L 3613 2963 
L 4769 2963 
Q 5131 2963 5494 2981 
Q 5475 2788 5494 2588 
Q 5131 2606 4769 2606 
L 3613 2606 
L 3613 1400 
L 5406 1400 
Q 5769 1400 6131 1419 
Q 6113 1219 6131 1025 
Q 5769 1044 5406 1044 
L 3613 1044 
L 3613 150 
Q 3613 -313 3638 -769 
z
M 3163 1400 
L 3163 2606 
L 1850 2606 
L 1856 1400 
L 3163 1400 
z
" transform="scale(0.015625)"/>
      <path id="WenQuanYiZenHei-5ea6" d="M 1863 1488 
Q 1881 1663 1863 1838 
Q 2181 1819 2506 1819 
L 5231 1819 
Q 4863 869 4081 213 
Q 4381 25 4763 -94 
Q 5388 -294 6044 -238 
Q 5894 -450 5913 -706 
Q 4731 -769 3744 -44 
Q 2731 -725 1519 -731 
Q 1450 -475 1300 -256 
Q 2431 -356 3388 244 
Q 2825 763 2413 1500 
Q 2138 1500 1863 1488 
z
M 5400 3613 
Q 5725 3613 6050 3631 
Q 6031 3456 6050 3281 
Q 5725 3294 5400 3294 
L 4800 3294 
Q 4794 2600 4794 2275 
L 2531 2275 
Q 2531 2781 2531 3294 
L 2213 3294 
Q 1894 3294 1569 3281 
Q 1588 3456 1569 3631 
Q 1894 3613 2213 3613 
L 2531 3613 
Q 2531 3963 2513 4306 
Q 2750 4281 2988 4306 
Q 2975 3963 2969 3613 
L 4363 3613 
Q 4363 3944 4350 4275 
Q 4588 4250 4825 4275 
Q 4806 3944 4800 3613 
L 5400 3613 
z
M 1013 4738 
L 3413 4738 
L 3025 5069 
L 3331 5431 
L 3856 4981 
L 3650 4738 
L 5444 4738 
Q 5769 4738 6094 4750 
Q 6075 4575 6094 4400 
Q 5769 4419 5444 4419 
L 1444 4419 
L 1456 1550 
Q 1463 44 600 -738 
Q 444 -525 181 -481 
Q 1044 100 1019 1550 
L 1013 4738 
z
M 2863 1500 
Q 3250 869 3719 475 
Q 4256 906 4581 1500 
L 2863 1500 
z
M 2969 3294 
Q 2969 2956 2969 2594 
L 4356 2594 
Q 4363 2931 4363 3294 
L 2969 3294 
z
" transform="scale(0.015625)"/>
      <path id="WenQuanYiZenHei-8ca1" d="M 3594 3363 
Q 3281 3363 2969 3344 
Q 2988 3513 2969 3681 
Q 3281 3669 3594 3669 
L 4706 3669 
L 4706 4313 
Q 4706 4744 4688 5181 
Q 4925 5156 5156 5181 
Q 5138 4744 5138 4313 
L 5138 3669 
L 5563 3669 
Q 5875 3669 6188 3681 
Q 6169 3513 6188 3344 
Q 5875 3363 5563 3363 
L 5138 3363 
L 5138 -44 
Q 5138 -481 4900 -644 
Q 4644 -819 4025 -813 
Q 4094 -513 3888 -288 
Q 4075 -313 4319 -316 
Q 4563 -319 4638 -263 
Q 4719 -144 4706 231 
L 4706 2669 
Q 3869 1169 3038 206 
Q 2856 406 2600 463 
Q 3469 1400 3950 2231 
Q 4225 2694 4556 3363 
L 3594 3363 
z
M 2331 -756 
Q 2050 -150 1688 394 
L 2031 575 
L 2031 881 
L 925 881 
L 925 556 
L 888 556 
Q 1088 494 1313 463 
Q 1138 -194 688 -656 
Q 569 -788 431 -919 
Q 294 -750 56 -681 
Q 588 -206 825 556 
L 469 556 
L 469 4969 
L 2488 4969 
L 2488 556 
L 2163 556 
Q 2506 19 2794 -588 
L 2331 -756 
z
M 2031 3681 
L 2031 4700 
L 925 4700 
L 925 3681 
L 2031 3681 
z
M 2031 2394 
L 2031 3444 
L 925 3444 
L 925 2394 
L 2031 2394 
z
M 2031 2156 
L 925 2156 
L 925 1119 
L 2031 1119 
L 2031 2156 
z
" transform="scale(0.015625)"/>
      <path id="WenQuanYiZenHei-653f" d="M 2925 2750 
Q 2906 2575 2925 2400 
Q 2656 2413 2444 2413 
L 2031 2413 
L 2031 381 
Q 2388 475 3094 681 
L 3094 394 
Q 1206 -156 175 -538 
Q 175 -250 19 -13 
Q 275 13 538 56 
L 538 2356 
Q 538 2800 513 3238 
Q 750 3213 994 3238 
Q 969 2800 969 2356 
L 969 131 
Q 1275 188 1600 269 
L 1600 4275 
L 813 4275 
Q 488 4275 169 4263 
Q 181 4438 169 4613 
Q 488 4594 813 4594 
L 2556 4594 
Q 2881 4594 3206 4613 
Q 3188 4438 3206 4263 
Q 2881 4275 2556 4275 
L 2031 4275 
L 2031 2731 
L 2275 2731 
Q 2600 2731 2925 2750 
z
M 3569 5031 
Q 3800 4963 4069 4944 
Q 3950 4400 3788 3869 
L 3763 3781 
L 5275 3781 
Q 5619 3781 5956 3800 
Q 5938 3600 5956 3406 
L 5256 3419 
Q 5188 1925 4613 888 
Q 5206 106 6194 -306 
Q 5975 -438 5881 -694 
Q 4969 -288 4388 519 
Q 3750 -469 2663 -906 
Q 2600 -613 2413 -438 
Q 3531 -44 4131 913 
Q 3600 1806 3481 2963 
Q 3256 2381 2875 1806 
Q 2700 1981 2419 2025 
Q 2681 2406 2968 2937 
Q 3256 3469 3381 3991 
Q 3506 4513 3569 5031 
z
M 3831 3419 
Q 3850 2794 3997 2244 
Q 4144 1694 4350 1300 
Q 4763 2181 4788 3419 
L 3831 3419 
z
" transform="scale(0.015625)"/>
      <path id="WenQuanYiZenHei-90e8" d="M 1169 -763 
Q 931 -738 700 -763 
Q 719 -331 719 106 
L 719 1925 
L 3125 1925 
L 3125 -750 
L 2694 -750 
L 2694 -38 
L 1150 -38 
Q 1150 -400 1169 -763 
z
M 3763 2806 
Q 3744 2638 3763 2469 
Q 3450 2481 3138 2481 
L 694 2481 
Q 381 2481 69 2469 
Q 88 2638 69 2806 
Q 381 2788 694 2788 
L 1150 2788 
Q 875 3388 531 3950 
L 931 4200 
Q 1313 3575 1613 2906 
L 1350 2788 
L 2006 2788 
Q 2475 3350 2681 4288 
L 831 4288 
Q 519 4288 206 4275 
Q 225 4444 206 4613 
Q 519 4594 831 4594 
L 1688 4594 
L 1256 5094 
L 1613 5400 
L 2169 4756 
L 1988 4594 
L 3013 4594 
Q 3325 4594 3638 4613 
Q 3619 4444 3638 4275 
Q 3388 4281 3138 4288 
Q 3056 3538 2538 2788 
L 3138 2788 
Q 3450 2788 3763 2806 
z
M 2694 1619 
L 1150 1619 
L 1150 275 
L 2694 275 
L 2694 1619 
z
M 4431 -856 
Q 4225 -831 4019 -856 
Q 4038 -394 4038 75 
L 4038 4819 
L 5856 4819 
L 5856 4438 
Q 5763 4313 5713 4156 
L 5238 2756 
Q 5600 2450 5806 1972 
Q 6013 1494 6013 947 
Q 6013 400 5325 56 
L 5081 -56 
Q 4994 188 4869 388 
L 5263 531 
Q 5650 669 5650 950 
Q 5650 1494 5428 1969 
Q 5206 2444 4819 2719 
L 5400 4438 
L 4413 4438 
L 4413 75 
Q 4413 -388 4431 -856 
z
" transform="scale(0.015625)"/>
      <path id="WenQuanYiZenHei-51fa" d="M 5400 -594 
Q 5150 -569 4906 -594 
Q 4919 -356 4919 -119 
L 431 -119 
L 431 981 
Q 431 1438 406 1894 
Q 656 1869 900 1894 
Q 881 1438 881 981 
L 881 238 
L 2675 238 
L 2675 2500 
L 688 2500 
L 688 3488 
Q 688 3950 663 4406 
Q 913 4381 1163 4406 
Q 1138 3950 1138 3488 
L 1138 2856 
L 2675 2856 
L 2675 4344 
Q 2675 4806 2656 5263 
Q 2906 5238 3150 5263 
Q 3131 4806 3131 4344 
L 3131 2856 
L 4669 2856 
Q 4669 3175 4669 3562 
Q 4669 3950 4644 4406 
Q 4894 4381 5144 4406 
Q 5125 3988 5122 3516 
Q 5119 3044 5119 2500 
L 3131 2500 
L 3131 238 
L 4925 238 
L 4925 981 
Q 4925 1438 4906 1894 
Q 5150 1869 5400 1894 
Q 5381 1438 5381 981 
L 5381 325 
Q 5381 -138 5400 -594 
z
" transform="scale(0.015625)"/>
      <path id="WenQuanYiZenHei-53e3" d="M 1181 -781 
Q 925 -756 669 -781 
Q 688 -313 688 163 
L 694 4506 
L 5288 4506 
L 5288 -769 
L 4825 -769 
L 4825 219 
L 1156 219 
L 1156 163 
Q 1156 -313 1181 -781 
z
M 4825 4113 
L 1156 4113 
L 1156 619 
L 4825 619 
L 4825 4113 
z
" transform="scale(0.015625)"/>
      <path id="WenQuanYiZenHei-7d71" d="M 4894 -663 
Q 4594 -663 4434 -488 
Q 4275 -313 4275 -44 
L 4275 2250 
L 3844 2188 
L 3844 1556 
Q 3844 781 3403 143 
Q 2963 -494 2275 -788 
Q 2181 -538 1931 -438 
Q 2581 -244 3003 303 
Q 3425 850 3425 1556 
L 3425 2119 
L 2619 1988 
L 2575 2275 
Q 2675 2306 2750 2381 
Q 2931 2575 3209 3081 
Q 3488 3588 3575 3950 
L 3125 3950 
Q 2831 3950 2538 3938 
Q 2556 4094 2538 4250 
Q 2831 4238 3125 4238 
L 4044 4238 
L 3513 4950 
L 3875 5225 
L 4563 4325 
L 4450 4238 
L 5306 4238 
Q 5600 4238 5894 4250 
Q 5875 4094 5894 3938 
Q 5600 3950 5306 3950 
L 4081 3950 
Q 3988 3656 3638 3081 
Q 3325 2538 3200 2369 
L 4956 2631 
L 4581 3156 
L 4950 3431 
Q 5456 2756 5881 2031 
L 5481 1794 
Q 5313 2094 5125 2375 
L 4694 2319 
L 4694 -44 
Q 4694 -150 4750 -228 
Q 4806 -306 4900 -306 
L 5594 -306 
Q 5669 -300 5688 -238 
L 5825 663 
Q 6013 544 6231 538 
L 6038 -506 
Q 6019 -594 5969 -644 
Q 5938 -663 5894 -663 
L 4894 -663 
z
M 2631 431 
L 2200 263 
L 1838 1194 
L 2269 1363 
L 2631 431 
z
M 1819 163 
L 1388 -6 
L 1025 925 
L 1456 1094 
L 1819 163 
z
M 125 -294 
Q 338 288 444 900 
L 900 819 
Q 781 169 556 -456 
L 125 -294 
z
M 2600 1781 
L 2231 1506 
L 2069 1725 
L 1863 1700 
L 200 1350 
L 144 1631 
Q 263 1663 344 1756 
Q 738 2219 1388 3138 
L 225 3119 
L 225 3413 
Q 325 3413 400 3481 
Q 613 3688 953 4272 
Q 1294 4856 1331 5188 
Q 1569 5088 1819 5044 
Q 1788 4919 1709 4766 
Q 1631 4613 1290 4094 
Q 950 3575 819 3413 
L 1463 3394 
L 1575 3406 
Q 1844 3806 1963 4044 
Q 2163 3888 2388 3775 
Q 2269 3588 1869 3075 
L 831 1769 
L 1813 1950 
L 1881 1975 
L 1594 2363 
L 1963 2638 
L 2600 1781 
z
" transform="scale(0.015625)"/>
      <path id="WenQuanYiZenHei-8a08" d="M 4600 -763 
Q 4363 -738 4119 -763 
Q 4144 -325 4144 119 
L 4144 2806 
L 3338 2806 
Q 3019 2806 2694 2794 
Q 2713 2969 2694 3144 
Q 3019 3125 3338 3125 
L 4144 3125 
L 4144 4463 
Q 4144 4900 4119 5338 
Q 4363 5313 4600 5338 
Q 4575 4900 4575 4463 
L 4575 3125 
L 5538 3125 
Q 5863 3125 6188 3144 
Q 6169 2969 6188 2794 
Q 5863 2806 5538 2806 
L 4575 2806 
L 4575 119 
Q 4575 -325 4600 -763 
z
M 675 -844 
Q 425 -819 175 -844 
Q 200 -431 200 -13 
L 200 1413 
L 2363 1413 
L 2363 -831 
L 1900 -831 
L 1900 -300 
L 656 -300 
Q 663 -569 675 -844 
z
M 2281 2444 
Q 2263 2294 2281 2144 
Q 1969 2156 1663 2156 
L 913 2156 
Q 606 2156 294 2144 
Q 313 2294 294 2444 
Q 606 2431 913 2431 
L 1663 2431 
Q 1969 2431 2281 2444 
z
M 2294 3394 
Q 2275 3244 2294 3094 
Q 1988 3106 1675 3106 
L 900 3106 
Q 588 3106 281 3094 
Q 294 3244 281 3394 
Q 588 3381 900 3381 
L 1675 3381 
Q 1988 3381 2294 3394 
z
M 2556 4356 
Q 2538 4206 2556 4056 
Q 2244 4075 1938 4075 
L 706 4075 
Q 400 4075 88 4056 
Q 106 4206 88 4356 
Q 400 4344 706 4344 
L 1938 4344 
Q 2244 4344 2556 4356 
z
M 1719 4731 
L 1413 4369 
L 569 4944 
L 869 5306 
L 1719 4731 
z
M 1900 1144 
L 656 1144 
L 656 -50 
L 1900 -50 
L 1900 1144 
z
" transform="scale(0.015625)"/>
      <path id="WenQuanYiZenHei-20" transform="scale(0.015625)"/>
      <path id="WenQuanYiZenHei-54" d="M 3119 3913 
L 1869 3913 
L 1869 0 
L 1319 0 
L 1319 3913 
L 69 3913 
L 69 4388 
L 3119 4388 
L 3119 3913 
z
" transform="scale(0.015625)"/>
      <path id="WenQuanYiZenHei-6f" d="M 3175 1644 
Q 3175 813 2681 331 
Q 2281 -63 1663 -63 
Q 856 -63 481 656 
Q 256 1088 256 1650 
Q 256 2494 763 2969 
Q 1150 3338 1750 3338 
Q 2525 3338 2919 2656 
Q 3175 2219 3175 1644 
z
M 2619 1650 
Q 2619 2481 2181 2788 
Q 1981 2925 1706 2925 
Q 1069 2925 875 2188 
Q 813 1938 813 1650 
Q 813 750 1288 463 
Q 1463 350 1706 350 
Q 2400 350 2575 1169 
Q 2619 1394 2619 1650 
z
" transform="scale(0.015625)"/>
      <path id="WenQuanYiZenHei-70" d="M 3256 1650 
Q 3256 838 2856 350 
Q 2513 -63 1969 -63 
Q 1344 -63 1000 513 
L 1000 -1063 
L 500 -1063 
L 500 3250 
L 956 3250 
L 956 2625 
L 969 2625 
Q 1169 3163 1688 3294 
Q 1825 3338 1969 3338 
Q 2713 3338 3056 2600 
Q 3256 2175 3256 1650 
z
M 2694 1631 
Q 2694 2419 2319 2731 
L 2181 2825 
Q 2038 2894 1856 2894 
Q 1419 2894 1150 2463 
Q 1106 2400 1075 2325 
Q 1000 2169 1000 2100 
L 1000 1275 
Q 1000 875 1319 581 
Q 1563 356 1856 356 
Q 2525 356 2669 1238 
Q 2694 1419 2694 1631 
z
" transform="scale(0.015625)"/>
     </defs>
     <use xlink:href="#WenQuanYiZenHei-31"/>
     <use xlink:href="#WenQuanYiZenHei-30" transform="translate(59.960938 0)"/>
     <use xlink:href="#WenQuanYiZenHei-38" transform="translate(119.921875 0)"/>
     <use xlink:href="#WenQuanYiZenHei-5e74" transform="translate(179.882812 0)"/>
     <use xlink:href="#WenQuanYiZenHei-5ea6" transform="translate(279.882812 0)"/>
     <use xlink:href="#WenQuanYiZenHei-570b" transform="translate(379.882812 0)"/>
     <use xlink:href="#WenQuanYiZenHei-5bb6" transform="translate(479.882812 0)"/>
     <use xlink:href="#WenQuanYiZenHei-8ca1" transform="translate(579.882812 0)"/>
     <use xlink:href="#WenQuanYiZenHei-653f" transform="translate(679.882812 0)"/>
     <use xlink:href="#WenQuanYiZenHei-90e8" transform="translate(779.882812 0)"/>
     <use xlink:href="#WenQuanYiZenHei-51fa" transform="translate(879.882812 0)"/>
     <use xlink:href="#WenQuanYiZenHei-53e3" transform="translate(979.882812 0)"/>
     <use xlink:href="#WenQuanYiZenHei-7d71" transform="translate(1079.882812 0)"/>
     <use xlink:href="#WenQuanYiZenHei-8a08" transform="translate(1179.882812 0)"/>
     <use xlink:href="#WenQuanYiZenHei-20" transform="translate(1279.882812 0)"/>
     <use xlink:href="#WenQuanYiZenHei-28" transform="translate(1309.863281 0)"/>
     <use xlink:href="#WenQuanYiZenHei-31" transform="translate(1339.84375 0)"/>
     <use xlink:href="#WenQuanYiZenHei-29" transform="translate(1399.804688 0)"/>
     <use xlink:href="#WenQuanYiZenHei-77f3" transform="translate(1429.785156 0)"/>
     <use xlink:href="#WenQuanYiZenHei-6cb9" transform="translate(1529.785156 0)"/>
     <use xlink:href="#WenQuanYiZenHei-7149" transform="translate(1629.785156 0)"/>
     <use xlink:href="#WenQuanYiZenHei-88fd" transform="translate(1729.785156 0)"/>
     <use xlink:href="#WenQuanYiZenHei-54c1" transform="translate(1829.785156 0)"/>
     <use xlink:href="#WenQuanYiZenHei-20" transform="translate(1929.785156 0)"/>
     <use xlink:href="#WenQuanYiZenHei-54" transform="translate(1959.765625 0)"/>
     <use xlink:href="#WenQuanYiZenHei-6f" transform="translate(2009.765625 0)"/>
     <use xlink:href="#WenQuanYiZenHei-70" transform="translate(2063.671875 0)"/>
     <use xlink:href="#WenQuanYiZenHei-20" transform="translate(2117.578125 0)"/>
     <use xlink:href="#WenQuanYiZenHei-31" transform="translate(2147.558594 0)"/>
     <use xlink:href="#WenQuanYiZenHei-30" transform="translate(2207.519531 0)"/>
    </g>
   </g>
  </g>
 </g>
 <defs>
  <clipPath id="p058a1ef89e">
   <rect x="108.40625" y="23.39625" width="502.2" height="332.64"/>
  </clipPath>
 </defs>
</svg>
