<?xml version="1.0" encoding="utf-8" standalone="no"?>
<!DOCTYPE svg PUBLIC "-//W3C//DTD SVG 1.1//EN"
  "http://www.w3.org/Graphics/SVG/1.1/DTD/svg11.dtd">
<svg xmlns:xlink="http://www.w3.org/1999/xlink" width="577.80625pt" height="392.83625pt" viewBox="0 0 577.80625 392.83625" xmlns="http://www.w3.org/2000/svg" version="1.1">
 <metadata>
  <rdf:RDF xmlns:dc="http://purl.org/dc/elements/1.1/" xmlns:cc="http://creativecommons.org/ns#" xmlns:rdf="http://www.w3.org/1999/02/22-rdf-syntax-ns#">
   <cc:Work>
    <dc:type rdf:resource="http://purl.org/dc/dcmitype/StillImage"/>
    <dc:date>2026-01-15T11:52:08.908764</dc:date>
    <dc:format>image/svg+xml</dc:format>
    <dc:creator>
     <cc:Agent>
      <dc:title>Matplotlib v3.10.8, https://matplotlib.org/</dc:title>
     </cc:Agent>
    </dc:creator>
   </cc:Work>
  </rdf:RDF>
 </metadata>
 <defs>
  <style type="text/css">*{stroke-linejoin: round; stroke-linecap: butt}</style>
 </defs>
 <g id="figure_1">
  <g id="patch_1">
   <path d="M 0 392.83625 
L 577.80625 392.83625 
L 577.80625 0 
L 0 0 
z
" style="fill: #ffffff"/>
  </g>
  <g id="axes_1">
   <g id="patch_2">
    <path d="M 68.40625 356.03625 
L 570.60625 356.03625 
L 570.60625 23.39625 
L 68.40625 23.39625 
z
" style="fill: #ffffff"/>
   </g>
   <g id="patch_3">
    <path d="M -262271.402644 38.51625 
L 547.778977 38.51625 
L 547.778977 63.201964 
L -262271.402644 63.201964 
z
" clip-path="url(#pc6c7ca35ad)" style="fill: #66c5cc"/>
   </g>
   <g id="patch_4">
    <path d="M -262271.402644 69.373393 
L 388.377583 69.373393 
L 388.377583 94.059107 
L -262271.402644 94.059107 
z
" clip-path="url(#pc6c7ca35ad)" style="fill: #f6cf71"/>
   </g>
   <g id="patch_5">
    <path d="M -262271.402644 100.230536 
L 216.749538 100.230536 
L 216.749538 124.91625 
L -262271.402644 124.91625 
z
" clip-path="url(#pc6c7ca35ad)" style="fill: #f89c74"/>
   </g>
   <g id="patch_6">
    <path d="M -262271.402644 131.087679 
L 165.933301 131.087679 
L 165.933301 155.773393 
L -262271.402644 155.773393 
z
" clip-path="url(#pc6c7ca35ad)" style="fill: #9eb9f3"/>
   </g>
   <g id="patch_7">
    <path d="M -262271.402644 161.944821 
L 155.755539 161.944821 
L 155.755539 186.630536 
L -262271.402644 186.630536 
z
" clip-path="url(#pc6c7ca35ad)" style="fill: #8be0a4"/>
   </g>
   <g id="patch_8">
    <path d="M -262271.402644 192.801964 
L 133.222086 192.801964 
L 133.222086 217.487679 
L -262271.402644 217.487679 
z
" clip-path="url(#pc6c7ca35ad)" style="fill: #f6cf71"/>
   </g>
   <g id="patch_9">
    <path d="M -262271.402644 223.659107 
L 124.758778 223.659107 
L 124.758778 248.344821 
L -262271.402644 248.344821 
z
" clip-path="url(#pc6c7ca35ad)" style="fill: #dcb0f2"/>
   </g>
   <g id="patch_10">
    <path d="M -262271.402644 254.51625 
L 113.615475 254.51625 
L 113.615475 279.201964 
L -262271.402644 279.201964 
z
" clip-path="url(#pc6c7ca35ad)" style="fill: #87c55f"/>
   </g>
   <g id="patch_11">
    <path d="M -262271.402644 285.373393 
L 111.106769 285.373393 
L 111.106769 310.059107 
L -262271.402644 310.059107 
z
" clip-path="url(#pc6c7ca35ad)" style="fill: #c9db74"/>
   </g>
   <g id="patch_12">
    <path d="M -262271.402644 316.230536 
L 91.233523 316.230536 
L 91.233523 340.91625 
L -262271.402644 340.91625 
z
" clip-path="url(#pc6c7ca35ad)" style="fill: #b497e7"/>
   </g>
   <g id="matplotlib.axis_1">
    <g id="xtick_1">
     <g id="line2d_1">
      <defs>
       <path id="mdd08b322f0" d="M 0 0 
L 0 3.5 
" style="stroke: #000000; stroke-width: 0.8"/>
      </defs>
      <g>
       <use xlink:href="#mdd08b322f0" x="70.239488" y="356.03625" style="stroke: #000000; stroke-width: 0.8"/>
      </g>
     </g>
     <g id="text_1">
      <!-- $\mathdefault{10^{3}}$ -->
      <g transform="translate(61.939488 369.975312) scale(0.1 -0.1)">
       <defs>
        <path id="WenQuanYiZenHei-31" d="M 3556 0 
L 488 0 
L 488 406 
L 1800 406 
L 1800 3725 
Q 1231 3125 588 2788 
L 588 3338 
Q 1456 3781 1931 4388 
L 2331 4388 
L 2331 406 
L 3556 406 
L 3556 0 
z
" transform="scale(0.015625)"/>
        <path id="WenQuanYiZenHei-30" d="M 3581 2175 
Q 3581 1288 3169 638 
Q 2713 -63 1938 -63 
Q 1025 -63 563 831 
Q 256 1425 256 2188 
Q 256 3188 700 3819 
Q 1138 4456 1888 4456 
Q 2863 4456 3306 3500 
Q 3581 2925 3581 2175 
z
M 3019 2100 
Q 3019 3356 2500 3806 
L 2350 3919 
Q 2144 4031 1888 4031 
Q 1100 4031 888 2956 
Q 819 2625 819 2225 
Q 819 1013 1338 569 
Q 1588 356 1938 356 
Q 2675 356 2925 1294 
Q 3019 1663 3019 2100 
z
" transform="scale(0.015625)"/>
        <path id="WenQuanYiZenHei-33" d="M 3588 1231 
Q 3588 494 2875 144 
Q 2450 -63 1925 -63 
Q 1044 -63 556 488 
Q 356 706 256 1000 
L 769 1169 
Q 994 375 1913 375 
Q 2631 375 2900 788 
Q 3019 975 3019 1231 
Q 3019 1638 2638 1881 
Q 2325 2081 1613 2069 
L 1338 2069 
L 1338 2494 
Q 1969 2494 2094 2506 
Q 2325 2544 2463 2613 
Q 2763 2756 2844 3100 
Q 2863 3169 2863 3244 
Q 2863 3744 2381 3944 
L 2163 4006 
Q 2056 4025 1931 4025 
Q 1388 4025 1075 3631 
Q 969 3488 906 3313 
L 419 3456 
Q 675 4150 1400 4369 
Q 1669 4456 1975 4456 
Q 2694 4456 3106 4050 
Q 3419 3744 3419 3275 
Q 3419 2813 3025 2513 
Q 2825 2356 2575 2319 
L 2575 2306 
Q 3181 2213 3450 1769 
Q 3588 1525 3588 1231 
z
" transform="scale(0.015625)"/>
       </defs>
       <use xlink:href="#WenQuanYiZenHei-31" transform="translate(0 0.715625)"/>
       <use xlink:href="#WenQuanYiZenHei-30" transform="translate(59.960938 0.715625)"/>
       <use xlink:href="#WenQuanYiZenHei-33" transform="translate(120.810547 36.2625) scale(0.7)"/>
      </g>
     </g>
    </g>
    <g id="xtick_2">
     <g id="line2d_2">
      <g>
       <use xlink:href="#mdd08b322f0" x="331.79646" y="356.03625" style="stroke: #000000; stroke-width: 0.8"/>
      </g>
     </g>
     <g id="text_2">
      <!-- $\mathdefault{10^{4}}$ -->
      <g transform="translate(323.49646 369.8925) scale(0.1 -0.1)">
       <defs>
        <path id="WenQuanYiZenHei-34" d="M 3631 1025 
L 2913 1025 
L 2913 0 
L 2381 0 
L 2381 1025 
L 219 1025 
L 219 1388 
L 2225 4388 
L 2913 4388 
L 2913 1444 
L 3631 1444 
L 3631 1025 
z
M 2381 1444 
L 2381 3963 
L 788 1444 
L 2381 1444 
z
" transform="scale(0.015625)"/>
       </defs>
       <use xlink:href="#WenQuanYiZenHei-31" transform="translate(0 0.459375)"/>
       <use xlink:href="#WenQuanYiZenHei-30" transform="translate(59.960938 0.459375)"/>
       <use xlink:href="#WenQuanYiZenHei-34" transform="translate(120.810547 36.00625) scale(0.7)"/>
      </g>
     </g>
    </g>
    <g id="xtick_3">
     <g id="line2d_3">
      <defs>
       <path id="m210fa1b799" d="M 0 0 
L 0 2 
" style="stroke: #000000; stroke-width: 0.6"/>
      </defs>
      <g>
       <use xlink:href="#m210fa1b799" x="148.975982" y="356.03625" style="stroke: #000000; stroke-width: 0.6"/>
      </g>
     </g>
    </g>
    <g id="xtick_4">
     <g id="line2d_4">
      <g>
       <use xlink:href="#m210fa1b799" x="195.033879" y="356.03625" style="stroke: #000000; stroke-width: 0.6"/>
      </g>
     </g>
    </g>
    <g id="xtick_5">
     <g id="line2d_5">
      <g>
       <use xlink:href="#m210fa1b799" x="227.712476" y="356.03625" style="stroke: #000000; stroke-width: 0.6"/>
      </g>
     </g>
    </g>
    <g id="xtick_6">
     <g id="line2d_6">
      <g>
       <use xlink:href="#m210fa1b799" x="253.059966" y="356.03625" style="stroke: #000000; stroke-width: 0.6"/>
      </g>
     </g>
    </g>
    <g id="xtick_7">
     <g id="line2d_7">
      <g>
       <use xlink:href="#m210fa1b799" x="273.770373" y="356.03625" style="stroke: #000000; stroke-width: 0.6"/>
      </g>
     </g>
    </g>
    <g id="xtick_8">
     <g id="line2d_8">
      <g>
       <use xlink:href="#m210fa1b799" x="291.280772" y="356.03625" style="stroke: #000000; stroke-width: 0.6"/>
      </g>
     </g>
    </g>
    <g id="xtick_9">
     <g id="line2d_9">
      <g>
       <use xlink:href="#m210fa1b799" x="306.44897" y="356.03625" style="stroke: #000000; stroke-width: 0.6"/>
      </g>
     </g>
    </g>
    <g id="xtick_10">
     <g id="line2d_10">
      <g>
       <use xlink:href="#m210fa1b799" x="319.828269" y="356.03625" style="stroke: #000000; stroke-width: 0.6"/>
      </g>
     </g>
    </g>
    <g id="xtick_11">
     <g id="line2d_11">
      <g>
       <use xlink:href="#m210fa1b799" x="410.532953" y="356.03625" style="stroke: #000000; stroke-width: 0.6"/>
      </g>
     </g>
    </g>
    <g id="xtick_12">
     <g id="line2d_12">
      <g>
       <use xlink:href="#m210fa1b799" x="456.59085" y="356.03625" style="stroke: #000000; stroke-width: 0.6"/>
      </g>
     </g>
    </g>
    <g id="xtick_13">
     <g id="line2d_13">
      <g>
       <use xlink:href="#m210fa1b799" x="489.269447" y="356.03625" style="stroke: #000000; stroke-width: 0.6"/>
      </g>
     </g>
    </g>
    <g id="xtick_14">
     <g id="line2d_14">
      <g>
       <use xlink:href="#m210fa1b799" x="514.616937" y="356.03625" style="stroke: #000000; stroke-width: 0.6"/>
      </g>
     </g>
    </g>
    <g id="xtick_15">
     <g id="line2d_15">
      <g>
       <use xlink:href="#m210fa1b799" x="535.327344" y="356.03625" style="stroke: #000000; stroke-width: 0.6"/>
      </g>
     </g>
    </g>
    <g id="xtick_16">
     <g id="line2d_16">
      <g>
       <use xlink:href="#m210fa1b799" x="552.837743" y="356.03625" style="stroke: #000000; stroke-width: 0.6"/>
      </g>
     </g>
    </g>
    <g id="xtick_17">
     <g id="line2d_17">
      <g>
       <use xlink:href="#m210fa1b799" x="568.005941" y="356.03625" style="stroke: #000000; stroke-width: 0.6"/>
      </g>
     </g>
    </g>
    <g id="text_3">
     <!-- (1)食用蔬菜 -->
     <g transform="translate(293.509375 383.926875) scale(0.1 -0.1)">
      <defs>
       <path id="WenQuanYiZenHei-28" d="M 1606 -1094 
L 1275 -1094 
Q 475 -100 338 1231 
Q 319 1438 319 1656 
Q 319 3031 1156 4244 
Q 1213 4313 1269 4388 
L 1600 4388 
Q 806 3169 794 1681 
Q 794 188 1606 -1094 
z
" transform="scale(0.015625)"/>
       <path id="WenQuanYiZenHei-29" d="M 1600 1656 
Q 1600 306 869 -788 
Q 769 -950 644 -1094 
L 313 -1094 
Q 1125 188 1125 1681 
Q 1125 3169 338 4363 
Q 325 4375 319 4388 
L 650 4388 
Q 1525 3231 1594 1863 
Q 1600 1763 1600 1656 
z
" transform="scale(0.015625)"/>
       <path id="WenQuanYiZenHei-98df" d="M 5213 -819 
Q 3925 6 2538 675 
L 2750 1106 
Q 3288 844 3819 556 
Q 4081 681 4581 975 
L 4944 1188 
Q 5044 969 5194 781 
Q 4869 569 4281 300 
Q 4888 -44 5475 -419 
L 5213 -819 
z
M 1338 -69 
L 1338 3044 
Q 900 2731 425 2494 
Q 331 2750 113 2906 
Q 1425 3531 2100 4269 
Q 2513 4719 2856 5219 
Q 2969 5119 3094 5031 
L 3138 5056 
L 3194 4963 
L 3281 4913 
L 3250 4875 
Q 3713 4181 4397 3759 
Q 5081 3338 6088 3181 
Q 5894 3006 5856 2750 
Q 5319 2838 4794 3081 
L 4794 1213 
L 1769 1213 
L 1769 -188 
L 3250 225 
L 3294 -100 
Q 3031 -144 2437 -359 
Q 1844 -575 1394 -769 
L 1281 -344 
Q 1338 -213 1338 -69 
z
M 1769 1531 
L 4363 1531 
L 4363 2050 
L 1769 2050 
L 1769 1531 
z
M 4363 2369 
L 4363 2794 
L 1769 2781 
Q 1769 2575 1769 2369 
L 4363 2369 
z
M 4731 3113 
Q 3656 3644 2988 4569 
Q 2194 3681 1406 3100 
L 3094 3106 
L 2394 3688 
L 2700 4056 
L 3531 3363 
L 3319 3106 
L 4731 3113 
z
" transform="scale(0.015625)"/>
       <path id="WenQuanYiZenHei-7528" d="M 3556 -775 
Q 3306 -744 3050 -775 
Q 3075 -306 3075 156 
L 3075 1606 
L 1481 1606 
Q 1450 813 1234 250 
Q 1019 -313 625 -738 
Q 438 -519 156 -500 
Q 631 -100 828 472 
Q 1025 1044 1025 1856 
L 1013 4963 
L 5688 4963 
L 5688 150 
Q 5688 -294 5413 -456 
Q 5119 -625 4500 -619 
Q 4575 -300 4350 -63 
Q 4556 -88 4822 -91 
Q 5088 -94 5156 -38 
Q 5244 56 5231 394 
L 5231 1606 
L 3531 1606 
L 3531 156 
Q 3531 -306 3556 -775 
z
M 3531 1981 
L 5231 1981 
L 5231 3025 
L 3531 3025 
L 3531 1981 
z
M 3075 1981 
L 3075 3025 
L 1481 3025 
L 1481 1981 
L 3075 1981 
z
M 3531 3400 
L 5231 3400 
L 5231 4588 
L 3531 4588 
L 3531 3400 
z
M 3075 3400 
L 3075 4588 
L 1475 4581 
L 1475 3400 
L 3075 3400 
z
" transform="scale(0.015625)"/>
       <path id="WenQuanYiZenHei-852c" d="M 5375 -675 
Q 5088 -675 4931 -509 
Q 4775 -344 4775 -88 
L 4775 656 
Q 4775 1069 4756 1481 
Q 4981 1456 5200 1481 
Q 5181 1069 5181 656 
L 5181 -88 
Q 5181 -188 5237 -263 
Q 5294 -338 5381 -338 
L 5650 -338 
Q 5694 -338 5706 -306 
Q 5725 -219 5725 -113 
L 5825 413 
Q 6006 306 6213 294 
L 6050 -394 
L 6025 -581 
Q 6013 -663 5931 -675 
L 5375 -675 
z
M 4219 -788 
Q 3994 -769 3769 -788 
Q 3788 -381 3788 31 
L 3788 656 
Q 3788 1069 3769 1481 
Q 3994 1456 4219 1481 
Q 4194 1069 4194 656 
L 4194 31 
Q 4194 -381 4219 -788 
z
M 2881 463 
L 2881 656 
Q 2881 1069 2863 1481 
Q 3088 1456 3306 1481 
Q 3288 1069 3288 656 
Q 3338 50 2975 -338 
Q 2663 -694 2225 -825 
Q 2181 -581 1981 -438 
Q 2375 -388 2628 -116 
Q 2881 156 2881 463 
z
M 5894 3331 
Q 5881 3188 5894 3038 
Q 5625 3050 5356 3050 
L 3906 3050 
Q 4000 3006 4088 2969 
Q 4038 2869 3834 2634 
Q 3631 2400 3487 2250 
Q 3344 2100 3306 2069 
L 4788 2163 
Q 4600 2356 4406 2544 
L 4706 2869 
Q 5213 2400 5650 1869 
L 5306 1581 
L 5006 1931 
L 4794 1925 
L 2656 1756 
L 2631 2019 
Q 2725 2025 2831 2106 
Q 2938 2188 3206 2500 
Q 3475 2813 3600 3050 
L 3069 3050 
Q 2800 3050 2531 3038 
Q 2544 3188 2531 3331 
Q 2800 3319 3069 3319 
L 3894 3319 
L 3431 3781 
L 3744 4100 
L 4356 3488 
L 4188 3319 
L 5356 3319 
Q 5625 3319 5894 3331 
z
M 2531 1631 
Q 2513 1488 2531 1338 
Q 2281 1350 2100 1350 
Q 1919 1350 1806 1350 
L 1806 313 
L 2500 544 
L 2519 306 
Q 1488 -69 981 -269 
L 294 -563 
Q 275 -300 119 -81 
Q 306 -56 488 -25 
L 488 1250 
Q 488 1663 469 2075 
Q 688 2050 913 2075 
Q 894 1663 894 1250 
L 894 56 
Q 1138 113 1406 188 
L 1406 2388 
L 1369 2413 
L 1938 3181 
L 831 3181 
Q 563 3181 294 3169 
Q 306 3313 294 3463 
Q 563 3444 831 3444 
L 2419 3444 
L 2488 3113 
Q 2375 3081 2297 2987 
Q 2219 2894 1806 2325 
L 1806 1619 
Q 1900 1619 2081 1619 
Q 2263 1619 2531 1631 
z
M 4175 4013 
Q 3938 4031 3706 4013 
Q 3725 4256 3725 4494 
L 2381 4494 
Q 2388 4256 2400 4013 
Q 2169 4031 1938 4013 
Q 1950 4256 1956 4494 
L 719 4494 
Q 419 4494 119 4481 
Q 131 4613 119 4744 
Q 419 4731 719 4731 
L 1956 4731 
Q 1950 5013 1938 5294 
Q 2169 5275 2400 5294 
Q 2381 5006 2381 4731 
L 3725 4731 
Q 3725 5019 3706 5306 
Q 3938 5281 4175 5306 
Q 4156 5013 4150 4731 
L 5531 4731 
Q 5831 4731 6131 4744 
Q 6119 4613 6131 4481 
Q 5831 4494 5531 4494 
L 4156 4494 
Q 4156 4256 4175 4013 
z
" transform="scale(0.015625)"/>
       <path id="WenQuanYiZenHei-83dc" d="M 3444 94 
Q 3444 -338 3463 -769 
Q 3231 -744 3000 -769 
Q 3019 -338 3019 94 
L 3019 1000 
Q 2519 394 1844 -53 
Q 1169 -500 363 -656 
Q 344 -388 181 -188 
Q 656 -106 1172 91 
Q 1688 288 2069 644 
Q 2294 850 2588 1206 
L 925 1206 
Q 625 1206 319 1194 
Q 338 1356 319 1519 
Q 625 1506 925 1506 
L 3013 1506 
Q 3006 1731 3000 1963 
Q 3206 1938 3413 1956 
Q 2956 2394 2413 2700 
L 2638 3106 
Q 3238 2769 3738 2288 
L 3419 1956 
Q 3444 1956 3463 1963 
Q 3450 1731 3450 1506 
L 5494 1506 
Q 5794 1506 6094 1519 
Q 6081 1356 6094 1194 
Q 5794 1206 5494 1206 
L 3856 1206 
Q 4331 544 4862 244 
Q 5394 -56 6075 -119 
Q 5894 -300 5875 -550 
Q 5475 -500 5090 -328 
Q 4706 -156 4400 94 
Q 3831 550 3444 1138 
L 3444 94 
z
M 5175 3150 
Q 5325 2969 5513 2831 
Q 5025 2306 4281 1713 
Q 4169 1906 3963 1994 
Q 4538 2463 5175 3150 
z
M 1894 1694 
Q 1406 2100 869 2438 
L 1113 2838 
Q 1681 2481 2194 2050 
L 1894 1694 
z
M 3950 4300 
L 2213 4300 
Q 2219 4025 2231 3750 
Q 2000 3775 1763 3750 
Q 1781 4050 1788 4300 
L 894 4300 
Q 594 4300 294 4288 
Q 306 4450 294 4613 
Q 594 4600 894 4600 
L 1788 4600 
Q 1781 4931 1763 5256 
Q 2000 5231 2231 5256 
L 2213 4600 
L 3950 4600 
Q 3944 4931 3931 5256 
Q 4163 5231 4394 5256 
Q 4381 4931 4375 4600 
L 5444 4600 
Q 5750 4600 6050 4613 
Q 6031 4450 6050 4288 
Q 5750 4300 5444 4300 
L 4375 4300 
L 4375 3669 
L 5100 3775 
Q 5094 3531 5138 3288 
Q 3331 3219 1038 3013 
L 813 3431 
L 1325 3419 
Q 1544 3419 1872 3431 
Q 2200 3444 2744 3491 
Q 3288 3538 3950 3619 
L 3950 4300 
z
" transform="scale(0.015625)"/>
      </defs>
      <use xlink:href="#WenQuanYiZenHei-28"/>
      <use xlink:href="#WenQuanYiZenHei-31" transform="translate(29.980469 0)"/>
      <use xlink:href="#WenQuanYiZenHei-29" transform="translate(89.941406 0)"/>
      <use xlink:href="#WenQuanYiZenHei-98df" transform="translate(119.921875 0)"/>
      <use xlink:href="#WenQuanYiZenHei-7528" transform="translate(219.921875 0)"/>
      <use xlink:href="#WenQuanYiZenHei-852c" transform="translate(319.921875 0)"/>
      <use xlink:href="#WenQuanYiZenHei-83dc" transform="translate(419.921875 0)"/>
     </g>
    </g>
   </g>
   <g id="matplotlib.axis_2">
    <g id="ytick_1">
     <g id="line2d_18">
      <defs>
       <path id="mfe0b4be019" d="M 0 0 
L -3.5 0 
" style="stroke: #000000; stroke-width: 0.8"/>
      </defs>
      <g>
       <use xlink:href="#mfe0b4be019" x="68.40625" y="50.859107" style="stroke: #000000; stroke-width: 0.8"/>
      </g>
     </g>
     <g id="text_4">
      <!-- 日本 -->
      <g transform="translate(41.40625 54.745826) scale(0.1 -0.1)">
       <defs>
        <path id="WenQuanYiZenHei-65e5" d="M 1494 -775 
Q 1244 -750 988 -775 
Q 1013 -313 1013 156 
L 1013 4875 
L 5269 4875 
L 5269 -763 
L 4813 -763 
L 4813 156 
L 1469 156 
Q 1469 -313 1494 -775 
z
M 4813 2700 
L 4813 4500 
L 1469 4500 
L 1469 2700 
L 4813 2700 
z
M 4813 531 
L 4813 2325 
L 1469 2325 
L 1469 531 
L 4813 531 
z
" transform="scale(0.015625)"/>
        <path id="WenQuanYiZenHei-672c" d="M 4713 1181 
Q 4694 975 4713 769 
Q 4331 788 3950 788 
L 3369 788 
L 3369 163 
Q 3369 -300 3394 -769 
Q 3138 -738 2888 -769 
Q 2913 -300 2913 163 
L 2913 788 
L 2325 788 
Q 1944 788 1563 769 
Q 1588 975 1563 1181 
Q 1944 1163 2325 1163 
L 2913 1163 
L 2913 3200 
Q 1881 1388 463 363 
Q 331 613 69 738 
Q 1725 1856 2563 3569 
L 1081 3569 
Q 700 3569 319 3550 
Q 338 3756 319 3963 
Q 700 3944 1081 3944 
L 2913 3944 
L 2913 4331 
Q 2913 4794 2888 5263 
Q 3138 5231 3394 5263 
Q 3369 4794 3369 4331 
L 3369 3944 
L 5200 3944 
Q 5581 3944 5963 3963 
Q 5938 3756 5963 3550 
Q 5581 3569 5200 3569 
L 3738 3569 
Q 4181 2650 4728 2034 
Q 5275 1419 6163 900 
Q 5906 806 5769 569 
Q 4906 1100 4294 1894 
Q 3756 2588 3369 3375 
L 3369 1163 
L 3950 1163 
Q 4331 1163 4713 1181 
z
" transform="scale(0.015625)"/>
       </defs>
       <use xlink:href="#WenQuanYiZenHei-65e5"/>
       <use xlink:href="#WenQuanYiZenHei-672c" transform="translate(100 0)"/>
      </g>
     </g>
    </g>
    <g id="ytick_2">
     <g id="line2d_19">
      <g>
       <use xlink:href="#mfe0b4be019" x="68.40625" y="81.71625" style="stroke: #000000; stroke-width: 0.8"/>
      </g>
     </g>
     <g id="text_5">
      <!-- 美國 -->
      <g transform="translate(41.40625 85.8225) scale(0.1 -0.1)">
       <defs>
        <path id="WenQuanYiZenHei-7f8e" d="M 1044 1231 
Q 719 1231 400 1213 
Q 419 1388 400 1563 
Q 719 1550 1044 1550 
L 2919 1550 
L 2919 2194 
L 1031 2194 
Q 706 2194 381 2181 
Q 400 2356 381 2531 
Q 706 2513 1031 2513 
L 2925 2513 
L 2925 3163 
L 1663 3163 
Q 1338 3163 1019 3150 
Q 1031 3325 1019 3500 
Q 1338 3481 1663 3481 
L 2925 3481 
L 2925 4131 
L 1313 4131 
Q 994 4131 669 4113 
Q 688 4288 669 4463 
Q 994 4450 1313 4450 
L 2250 4450 
L 1681 5169 
L 2056 5469 
L 2763 4563 
L 2619 4450 
L 3531 4450 
Q 3819 4756 4100 5194 
Q 4288 5044 4506 4938 
Q 4363 4694 4131 4450 
L 4956 4450 
Q 5275 4450 5600 4463 
Q 5581 4288 5600 4113 
Q 5275 4131 4956 4131 
L 3819 4131 
L 3769 4081 
Q 3750 4106 3731 4131 
L 3356 4131 
L 3356 3481 
L 4606 3481 
Q 4931 3481 5256 3500 
Q 5238 3325 5256 3150 
Q 4931 3163 4606 3163 
L 3356 3163 
L 3356 2513 
L 5244 2513 
Q 5563 2513 5888 2531 
Q 5869 2356 5888 2181 
Q 5563 2194 5244 2194 
L 3350 2194 
L 3350 1550 
L 5394 1550 
Q 5713 1550 6038 1563 
Q 6019 1388 6038 1213 
Q 5713 1231 5394 1231 
L 3513 1231 
Q 4025 444 4794 19 
Q 5369 -281 6088 -375 
Q 5900 -556 5869 -813 
Q 5056 -700 4384 -218 
Q 3713 263 3219 969 
Q 3025 519 2594 131 
Q 1800 -600 619 -850 
Q 556 -556 275 -431 
Q 1519 -263 2306 444 
Q 2713 806 2856 1231 
L 1044 1231 
z
" transform="scale(0.015625)"/>
        <path id="WenQuanYiZenHei-570b" d="M 3681 1469 
Q 3294 2275 3288 3525 
L 1738 3525 
Q 1431 3525 1131 3513 
Q 1150 3675 1131 3838 
Q 1431 3825 1738 3825 
L 3288 3825 
L 3269 4681 
Q 3500 4656 3731 4681 
L 3719 3825 
L 4450 3825 
L 4000 4431 
L 4338 4681 
L 913 4681 
L 913 25 
L 5338 25 
L 5338 4681 
L 4394 4681 
L 4900 4000 
L 4663 3825 
Q 4900 3825 5131 3838 
Q 5113 3675 5131 3513 
Q 4831 3525 4525 3525 
L 3713 3525 
Q 3706 2594 3969 1888 
Q 4213 2431 4331 3088 
Q 4581 3025 4838 3013 
Q 4650 2144 4175 1438 
Q 4381 1056 4681 756 
Q 4675 1075 4650 1388 
Q 4869 1269 5113 1288 
Q 5175 794 5106 300 
Q 5094 106 4913 75 
Q 4825 63 4756 113 
Q 4244 513 3894 1075 
Q 3338 419 2588 100 
Q 2513 356 2306 519 
Q 3169 863 3681 1469 
z
M 1063 1181 
Q 1781 1181 2363 1313 
Q 2569 1356 3013 1469 
L 3006 1200 
Q 1825 894 1188 663 
Q 1200 938 1063 1181 
z
M 931 -769 
Q 700 -750 469 -769 
Q 488 -344 488 88 
L 488 4981 
L 5763 4975 
L 5763 -763 
L 5338 -763 
L 5338 -250 
L 913 -250 
Q 919 -513 931 -769 
z
M 1731 2744 
L 1731 2069 
L 2456 2069 
L 2463 2744 
L 1731 2744 
z
M 1306 3038 
L 2888 3038 
L 2875 1769 
L 1306 1769 
L 1306 3038 
z
" transform="scale(0.015625)"/>
       </defs>
       <use xlink:href="#WenQuanYiZenHei-7f8e"/>
       <use xlink:href="#WenQuanYiZenHei-570b" transform="translate(100 0)"/>
      </g>
     </g>
    </g>
    <g id="ytick_3">
     <g id="line2d_20">
      <g>
       <use xlink:href="#mfe0b4be019" x="68.40625" y="112.573393" style="stroke: #000000; stroke-width: 0.8"/>
      </g>
     </g>
     <g id="text_6">
      <!-- 香港 -->
      <g transform="translate(41.40625 116.494487) scale(0.1 -0.1)">
       <defs>
        <path id="WenQuanYiZenHei-9999" d="M 1975 -763 
Q 1738 -738 1494 -763 
Q 1519 -325 1519 119 
L 1519 2119 
Q 988 1713 394 1519 
Q 344 1781 144 1963 
Q 619 2106 1069 2365 
Q 1519 2625 1806 2969 
Q 1981 3175 2213 3531 
L 1113 3531 
Q 788 3531 463 3513 
Q 481 3688 463 3863 
Q 788 3850 1113 3850 
L 2981 3850 
L 2981 4694 
L 975 4538 
L 744 4963 
Q 1681 4906 3081 5063 
Q 4306 5188 4956 5319 
Q 4950 5069 5000 4825 
Q 4419 4800 3413 4725 
L 3413 3850 
L 5256 3850 
Q 5581 3850 5900 3863 
Q 5881 3688 5900 3513 
Q 5581 3531 5256 3531 
L 4006 3531 
Q 4463 2969 4928 2622 
Q 5394 2275 6125 1975 
Q 5900 1850 5813 1606 
Q 5013 1956 4413 2531 
Q 3900 3013 3513 3531 
L 3413 3531 
L 3413 2144 
L 4806 2144 
L 4806 -750 
L 4369 -750 
L 4369 -281 
L 1956 -281 
Q 1963 -525 1975 -763 
z
M 4369 1088 
L 4369 1825 
L 1950 1825 
L 1950 1088 
L 4369 1088 
z
M 4369 769 
L 1950 769 
L 1950 38 
L 4369 38 
L 4369 769 
z
M 1550 2144 
L 2981 2144 
L 2981 3531 
L 2775 3531 
Q 2269 2700 1550 2144 
z
" transform="scale(0.015625)"/>
        <path id="WenQuanYiZenHei-6e2f" d="M 3175 -656 
Q 2881 -656 2718 -484 
Q 2556 -313 2556 -44 
L 2556 1513 
Q 2138 1031 1544 644 
Q 1456 844 1263 956 
Q 1775 1275 2131 1697 
Q 2488 2119 2806 2769 
L 2319 2769 
Q 2025 2769 1731 2756 
Q 1750 2913 1731 3069 
Q 2025 3056 2319 3056 
L 2844 3056 
L 2844 3875 
L 2544 3875 
Q 2250 3875 1956 3856 
Q 1975 4019 1956 4175 
Q 2250 4163 2544 4163 
L 2844 4163 
L 2844 4413 
Q 2844 4838 2825 5263 
Q 3050 5238 3281 5263 
Q 3263 4838 3263 4413 
L 3263 4163 
L 4231 4163 
L 4231 4413 
Q 4231 4838 4206 5263 
Q 4438 5238 4669 5263 
Q 4650 4838 4650 4413 
L 4650 4163 
L 5069 4163 
Q 5363 4163 5656 4175 
Q 5638 4019 5656 3856 
Q 5363 3875 5069 3875 
L 4650 3875 
L 4650 3056 
L 5338 3056 
Q 5631 3056 5925 3069 
Q 5906 2913 5925 2756 
Q 5631 2769 5338 2769 
L 4563 2769 
Q 4875 2225 5219 1900 
Q 5563 1575 6156 1281 
Q 5925 1175 5825 950 
Q 5250 1244 4738 1856 
L 4738 438 
L 4319 438 
L 4319 606 
L 2975 606 
L 2975 -44 
Q 2975 -150 3031 -228 
Q 3088 -306 3181 -306 
L 4756 -300 
Q 4838 -300 4897 -228 
Q 4956 -156 4975 -50 
L 5081 550 
Q 5269 438 5488 425 
L 5313 -344 
Q 5288 -475 5222 -565 
Q 5156 -656 5050 -656 
L 3175 -656 
z
M 2975 875 
L 4319 875 
L 4319 1606 
L 2975 1606 
L 2975 875 
z
M 2850 1894 
L 4706 1894 
Q 4375 2306 4131 2769 
L 3275 2769 
Q 3131 2313 2850 1894 
z
M 4231 3056 
L 4231 3875 
L 3263 3875 
L 3263 3056 
L 4231 3056 
z
M 775 -738 
Q 563 -588 244 -575 
Q 469 -69 709 581 
Q 950 1231 1406 2838 
L 1613 2706 
L 1025 338 
L 775 -738 
z
M 1181 2856 
L 850 2550 
L 88 3400 
L 413 3713 
L 1181 2856 
z
M 1275 3913 
Q 919 4388 500 4800 
L 806 5125 
Q 1250 4688 1625 4188 
L 1275 3913 
z
" transform="scale(0.015625)"/>
       </defs>
       <use xlink:href="#WenQuanYiZenHei-9999"/>
       <use xlink:href="#WenQuanYiZenHei-6e2f" transform="translate(100 0)"/>
      </g>
     </g>
    </g>
    <g id="ytick_4">
     <g id="line2d_21">
      <g>
       <use xlink:href="#mfe0b4be019" x="68.40625" y="143.430536" style="stroke: #000000; stroke-width: 0.8"/>
      </g>
     </g>
     <g id="text_7">
      <!-- 南韓 -->
      <g transform="translate(41.40625 147.336004) scale(0.1 -0.1)">
       <defs>
        <path id="WenQuanYiZenHei-5357" d="M 3363 -769 
Q 3125 -744 2888 -769 
Q 2906 -325 2906 113 
L 2906 700 
L 1906 700 
Q 1581 700 1263 681 
Q 1281 856 1263 1031 
Q 1581 1019 1906 1019 
L 2906 1019 
L 2906 1619 
L 2050 1619 
Q 1731 1619 1406 1606 
Q 1425 1781 1406 1956 
L 2281 1938 
Q 2013 2375 1694 2781 
L 2000 3025 
L 1013 3025 
L 1019 131 
Q 1019 -306 1044 -750 
Q 800 -725 563 -750 
Q 588 -306 581 131 
L 581 3344 
L 2906 3344 
L 2906 4075 
L 763 4075 
Q 438 4075 119 4056 
Q 131 4231 119 4406 
Q 438 4394 763 4394 
L 2906 4394 
Q 2906 4825 2888 5256 
Q 3125 5231 3363 5256 
Q 3344 4825 3344 4394 
L 5488 4394 
Q 5813 4394 6131 4406 
Q 6119 4231 6131 4056 
Q 5813 4075 5488 4075 
L 3344 4075 
L 3344 3344 
L 5663 3344 
L 5663 -125 
Q 5663 -506 5388 -650 
Q 5100 -806 4544 -800 
Q 4613 -494 4400 -269 
Q 4594 -294 4856 -297 
Q 5119 -300 5175 -253 
Q 5231 -206 5231 50 
L 5231 3025 
L 4063 3025 
Q 4238 2894 4431 2800 
Q 4269 2525 3831 1938 
L 4200 1938 
Q 4519 1938 4844 1956 
Q 4825 1781 4844 1606 
Q 4519 1619 4200 1619 
L 3600 1619 
Q 3588 1588 3569 1619 
L 3344 1619 
L 3344 1019 
L 4344 1019 
Q 4669 1019 4988 1031 
Q 4969 856 4988 681 
Q 4669 700 4344 700 
L 3344 700 
L 3344 113 
Q 3344 -325 3363 -769 
z
M 3300 1938 
Q 3394 2063 3475 2181 
L 4006 3025 
L 2113 3025 
Q 2500 2525 2819 1975 
L 2750 1938 
L 3300 1938 
z
" transform="scale(0.015625)"/>
        <path id="WenQuanYiZenHei-97d3" d="M 3019 1356 
L 3044 1356 
L 3056 1394 
L 3231 1350 
L 4144 1350 
L 4144 1856 
L 3238 1856 
Q 3306 2425 3238 2994 
L 5563 2994 
Q 5481 2425 5544 1856 
L 4544 1856 
L 4544 1350 
L 5275 1350 
Q 5531 1350 5788 1363 
Q 5775 1225 5788 1088 
Q 5531 1100 5275 1100 
L 4544 1100 
L 4544 469 
L 6081 469 
L 6081 213 
L 4544 213 
L 4544 44 
Q 4544 -363 4563 -763 
Q 4344 -744 4125 -763 
Q 4144 -363 4144 44 
L 4144 213 
L 2763 213 
L 3019 1256 
L 3019 1356 
z
M 6131 3656 
Q 6119 3513 6131 3375 
Q 5875 3388 5619 3388 
L 3306 3388 
Q 3050 3388 2794 3375 
Q 2813 3513 2794 3656 
Q 3050 3644 3306 3644 
L 3713 3644 
L 3850 4331 
L 3019 4319 
Q 3038 4456 3019 4594 
L 3894 4581 
Q 3956 4913 4006 5238 
Q 4213 5175 4431 5156 
Q 4363 4869 4306 4581 
L 5500 4581 
L 5500 3644 
L 6131 3656 
z
M 1631 -763 
Q 1413 -744 1194 -763 
Q 1213 -363 1213 44 
L 1213 688 
L 681 688 
Q 419 688 163 675 
Q 181 813 163 950 
Q 419 938 681 938 
L 1213 938 
L 1213 1675 
L 375 1675 
Q 444 2650 375 3619 
L 1206 3619 
L 1206 4194 
L 706 4194 
Q 450 4194 194 4181 
Q 213 4319 194 4456 
Q 450 4444 706 4444 
L 1206 4450 
Q 1206 4856 1188 5256 
Q 1406 5238 1625 5256 
L 1606 4444 
L 2100 4444 
Q 2356 4444 2613 4456 
Q 2600 4319 2613 4181 
Q 2356 4194 2100 4194 
L 1606 4194 
L 1606 3619 
L 2463 3619 
Q 2388 2650 2463 1675 
L 1613 1675 
L 1613 938 
L 2206 938 
Q 2463 938 2719 950 
Q 2706 813 2719 675 
Q 2463 688 2206 688 
L 1613 688 
L 1613 44 
Q 1613 -363 1631 -763 
z
M 4144 469 
L 4144 1100 
L 3394 1100 
L 3238 469 
L 4144 469 
z
M 3631 2744 
L 3631 2106 
L 5150 2106 
L 5156 2744 
L 3631 2744 
z
M 5100 3644 
L 5100 4331 
L 4250 4331 
L 4119 3644 
L 5100 3644 
z
M 775 3369 
L 775 2769 
L 2063 2769 
L 2063 3369 
L 775 3369 
z
M 775 2538 
L 775 1931 
L 2063 1931 
L 2063 2538 
L 775 2538 
z
" transform="scale(0.015625)"/>
       </defs>
       <use xlink:href="#WenQuanYiZenHei-5357"/>
       <use xlink:href="#WenQuanYiZenHei-97d3" transform="translate(100 0)"/>
      </g>
     </g>
    </g>
    <g id="ytick_5">
     <g id="line2d_22">
      <g>
       <use xlink:href="#mfe0b4be019" x="68.40625" y="174.287679" style="stroke: #000000; stroke-width: 0.8"/>
      </g>
     </g>
     <g id="text_8">
      <!-- 中東 -->
      <g transform="translate(41.40625 178.16971) scale(0.1 -0.1)">
       <defs>
        <path id="WenQuanYiZenHei-4e2d" d="M 3200 -688 
Q 2944 -663 2694 -688 
Q 2719 -225 2719 244 
L 2719 1700 
L 813 1700 
L 813 1375 
L 356 1375 
L 356 3938 
L 2719 3938 
L 2719 4331 
Q 2719 4794 2694 5263 
Q 2944 5238 3200 5263 
Q 3175 4794 3175 4331 
L 3175 3938 
L 5538 3938 
L 5538 1375 
L 5081 1375 
L 5081 1700 
L 3175 1700 
L 3175 244 
Q 3175 -225 3200 -688 
z
M 3175 2075 
L 5081 2075 
L 5081 3563 
L 3175 3563 
L 3175 2075 
z
M 2719 2075 
L 2719 3563 
L 813 3563 
L 813 2075 
L 2719 2075 
z
" transform="scale(0.015625)"/>
        <path id="WenQuanYiZenHei-6771" d="M 5181 3719 
Q 5100 2631 5181 1544 
L 3669 1544 
Q 4181 956 4731 584 
Q 5281 213 6119 -56 
Q 5900 -200 5825 -450 
Q 5175 -231 4644 138 
Q 3931 638 3306 1350 
L 3306 125 
Q 3306 -319 3331 -769 
Q 3088 -744 2844 -769 
Q 2869 -319 2869 125 
L 2869 1138 
Q 1688 -31 406 -525 
Q 338 -263 131 -81 
Q 1625 431 2625 1544 
L 988 1544 
Q 1063 2631 988 3719 
L 2869 3719 
L 2869 4144 
L 931 4144 
Q 594 4144 263 4131 
Q 281 4313 263 4494 
Q 594 4475 931 4475 
L 2869 4475 
Q 2869 4869 2844 5256 
Q 3088 5231 3331 5256 
Q 3313 4869 3306 4475 
L 5244 4475 
Q 5581 4475 5919 4494 
Q 5900 4313 5919 4131 
Q 5581 4144 5244 4144 
L 3306 4144 
L 3306 3719 
L 5181 3719 
z
M 3306 2725 
L 4744 2725 
L 4744 3388 
L 3306 3388 
L 3306 2725 
z
M 2869 2725 
L 2869 3388 
L 1425 3388 
L 1425 2725 
L 2869 2725 
z
M 3306 2394 
L 3306 1869 
L 4744 1869 
L 4744 2394 
L 3306 2394 
z
M 2869 2394 
L 1425 2394 
L 1425 1869 
L 2869 1869 
L 2869 2394 
z
" transform="scale(0.015625)"/>
       </defs>
       <use xlink:href="#WenQuanYiZenHei-4e2d"/>
       <use xlink:href="#WenQuanYiZenHei-6771" transform="translate(100 0)"/>
      </g>
     </g>
    </g>
    <g id="ytick_6">
     <g id="line2d_23">
      <g>
       <use xlink:href="#mfe0b4be019" x="68.40625" y="205.144821" style="stroke: #000000; stroke-width: 0.8"/>
      </g>
     </g>
     <g id="text_9">
      <!-- 歐洲 -->
      <g transform="translate(41.40625 209.099509) scale(0.1 -0.1)">
       <defs>
        <path id="WenQuanYiZenHei-6b50" d="M 2725 675 
L 2319 675 
L 2319 2263 
L 3581 2263 
L 3581 675 
L 3175 675 
L 3175 894 
L 2725 894 
L 2725 675 
z
M 1288 675 
L 881 675 
L 881 2250 
L 2131 2250 
L 2131 675 
L 1725 675 
L 1725 894 
L 1288 894 
L 1288 675 
z
M 1319 2788 
Q 1394 3419 1319 4050 
L 2956 4050 
Q 2881 3419 2944 2788 
L 1319 2788 
z
M 3444 4725 
Q 3425 4581 3444 4431 
Q 3175 4444 2906 4444 
L 675 4444 
L 675 250 
L 3600 250 
L 3600 -13 
L 269 -13 
L 269 4713 
L 2906 4713 
Q 3175 4713 3444 4725 
z
M 3175 2000 
L 2725 2000 
L 2725 1138 
L 3175 1138 
L 3175 2000 
z
M 1725 1988 
L 1288 1988 
L 1288 1138 
L 1725 1138 
L 1725 1988 
z
M 1725 3788 
L 1725 3056 
L 2544 3056 
L 2550 3788 
L 1725 3788 
z
M 3169 -869 
Q 3088 -613 2869 -519 
Q 3481 -313 3900 269 
Q 4456 1025 4406 2169 
Q 4406 2594 4388 3019 
Q 4575 2994 4769 3019 
Q 4750 2594 4750 2175 
Q 4806 1800 4925 1375 
Q 5150 556 5638 56 
Q 5906 -238 6219 -444 
Q 6025 -544 5925 -756 
Q 5325 -331 4963 419 
Q 4794 756 4669 1144 
Q 4506 481 4156 -6 
Q 3750 -581 3169 -869 
z
M 4438 4975 
Q 4425 4288 4256 3675 
L 5888 3675 
L 5938 3319 
Q 5875 3306 5844 3250 
L 5500 2444 
L 5188 2638 
L 5506 3388 
L 4169 3388 
Q 3969 2800 3681 2306 
Q 3563 2450 3369 2494 
Q 3519 2744 3681 3112 
Q 3844 3481 3931 3972 
Q 4019 4463 4056 4994 
Q 4244 4963 4438 4975 
z
" transform="scale(0.015625)"/>
        <path id="WenQuanYiZenHei-6d32" d="M 5794 -769 
Q 5550 -744 5313 -769 
Q 5338 -325 5338 113 
L 5338 4375 
Q 5338 4819 5313 5256 
Q 5550 5231 5794 5256 
Q 5769 4819 5769 4375 
L 5769 113 
Q 5769 -325 5794 -769 
z
M 4444 -769 
Q 4206 -744 3969 -769 
Q 3988 -325 3988 113 
L 3988 4288 
Q 3988 4725 3969 5169 
Q 4206 5144 4444 5169 
Q 4425 4725 4425 4288 
L 4425 3206 
L 4794 3369 
Q 5069 2738 5250 2075 
L 4788 1950 
Q 4638 2494 4425 3013 
L 4425 113 
Q 4425 -325 4444 -769 
z
M 2688 2100 
L 2688 4363 
Q 2688 4806 2669 5244 
Q 2906 5219 3144 5244 
Q 3125 4806 3125 4363 
L 3125 3175 
L 3525 3325 
Q 3763 2700 3906 2050 
L 3438 1950 
Q 3319 2506 3125 3044 
L 3125 2100 
Q 3125 188 1938 -744 
Q 1788 -513 1513 -475 
Q 2688 250 2688 2100 
z
M 1706 1950 
Q 1981 2631 2169 3338 
L 2631 3213 
Q 2438 2475 2150 1769 
L 1706 1950 
z
M 819 -738 
Q 594 -588 256 -575 
Q 494 -69 747 581 
Q 1000 1231 1481 2838 
L 1706 2706 
L 1081 338 
L 819 -738 
z
M 1244 2856 
L 900 2550 
L 94 3400 
L 438 3713 
L 1244 2856 
z
M 1344 3913 
Q 969 4388 525 4800 
L 850 5125 
Q 1319 4688 1713 4188 
L 1344 3913 
z
" transform="scale(0.015625)"/>
       </defs>
       <use xlink:href="#WenQuanYiZenHei-6b50"/>
       <use xlink:href="#WenQuanYiZenHei-6d32" transform="translate(100 0)"/>
      </g>
     </g>
    </g>
    <g id="ytick_7">
     <g id="line2d_24">
      <g>
       <use xlink:href="#mfe0b4be019" x="68.40625" y="236.001964" style="stroke: #000000; stroke-width: 0.8"/>
      </g>
     </g>
     <g id="text_10">
      <!-- 新加坡 -->
      <g transform="translate(31.40625 240.015246) scale(0.1 -0.1)">
       <defs>
        <path id="WenQuanYiZenHei-65b0" d="M 5419 -763 
Q 5188 -738 4963 -763 
Q 4981 -344 4981 75 
L 4981 2819 
L 4188 2819 
L 4188 1706 
Q 4188 63 3163 -738 
Q 3019 -519 2769 -469 
Q 3769 131 3769 1706 
L 3769 4769 
L 3875 4769 
L 3844 4831 
L 4294 4781 
Q 4438 4769 4894 4816 
Q 5350 4863 5512 4931 
Q 5675 5000 5763 5094 
Q 5850 4881 5981 4694 
Q 5713 4544 5263 4519 
L 4188 4438 
L 4188 3100 
L 5563 3100 
Q 5850 3100 6131 3113 
Q 6119 2956 6131 2806 
L 5394 2819 
L 5394 75 
Q 5394 -344 5419 -763 
z
M 2981 213 
Q 2656 744 2256 1225 
L 2606 1513 
Q 3025 1006 3369 450 
L 2981 213 
z
M 1169 1525 
Q 1375 1419 1594 1363 
Q 1281 488 469 -469 
Q 331 -300 119 -244 
Q 575 263 888 900 
Q 1038 1206 1169 1525 
z
M 1825 6 
L 1825 1769 
L 1081 1769 
Q 794 1769 513 1756 
Q 525 1913 513 2063 
Q 794 2050 1081 2050 
L 1825 2050 
L 1825 2775 
L 994 2775 
Q 706 2775 425 2763 
Q 438 2919 425 3075 
Q 706 3056 994 3056 
L 1825 3056 
L 1825 3088 
L 1906 3088 
Q 2288 3656 2588 4381 
Q 2794 4269 3013 4206 
Q 2800 3675 2381 3056 
L 3013 3056 
Q 3294 3056 3581 3075 
Q 3563 2919 3581 2763 
Q 3294 2775 3013 2775 
L 2238 2775 
L 2238 2050 
L 2925 2050 
Q 3206 2050 3494 2063 
Q 3475 1913 3494 1756 
Q 3206 1769 2925 1769 
L 2238 1769 
L 2238 -156 
Q 2238 -413 2075 -581 
Q 1844 -794 1306 -794 
Q 1363 -519 1188 -288 
Q 1338 -313 1534 -316 
Q 1731 -319 1778 -278 
Q 1825 -238 1825 6 
z
M 1875 3388 
L 1500 3131 
L 825 4088 
L 1200 4350 
L 1875 3388 
z
M 3419 4713 
Q 3400 4563 3419 4406 
Q 3131 4419 2850 4419 
L 1125 4419 
Q 838 4419 556 4406 
Q 569 4563 556 4713 
Q 838 4700 1125 4700 
L 1763 4700 
L 1388 5088 
L 1719 5406 
L 2288 4813 
L 2175 4700 
L 2850 4700 
Q 3131 4700 3419 4713 
z
" transform="scale(0.015625)"/>
        <path id="WenQuanYiZenHei-52a0" d="M 4100 -194 
L 3638 -194 
L 3638 4250 
L 5725 4250 
L 5725 -194 
L 5269 -194 
L 5269 150 
L 4100 150 
L 4100 -194 
z
M 144 -519 
Q 1475 894 1394 3688 
L 1188 3688 
Q 806 3688 425 3669 
Q 444 3875 425 4081 
Q 806 4063 1188 4063 
L 1394 4063 
L 1394 4331 
Q 1394 4800 1369 5263 
Q 1619 5238 1875 5263 
Q 1850 4794 1850 4331 
L 1850 4063 
L 3125 4063 
L 3125 181 
Q 3125 -225 2838 -381 
Q 2531 -544 1950 -538 
Q 2025 -219 1800 19 
Q 2000 -6 2269 -9 
Q 2538 -13 2600 38 
Q 2663 119 2663 375 
L 2663 3688 
L 1850 3688 
L 1850 3506 
Q 1875 856 669 -650 
Q 438 -456 144 -519 
z
M 5269 3875 
L 4100 3875 
L 4100 531 
L 5269 531 
L 5269 3875 
z
" transform="scale(0.015625)"/>
        <path id="WenQuanYiZenHei-5761" d="M 1513 -463 
Q 2544 294 2531 2050 
L 2531 4238 
L 3950 4238 
L 3950 4369 
Q 3950 4813 3931 5256 
Q 4169 5231 4413 5256 
Q 4388 4813 4388 4369 
L 4388 4238 
L 5938 4238 
L 5994 3850 
Q 5913 3850 5881 3794 
L 5494 3025 
L 5100 3219 
L 5444 3906 
L 4388 3906 
L 4388 2581 
L 5419 2581 
Q 5325 1394 4575 469 
Q 5213 -125 6125 -244 
Q 5931 -419 5894 -681 
Q 4988 -531 4300 169 
Q 3619 -506 2706 -781 
Q 2569 -550 2363 -381 
Q 3319 -181 4013 506 
Q 3450 1244 3250 2250 
L 2969 2250 
Q 3019 313 1963 -700 
Q 1788 -481 1513 -463 
z
M 3656 2250 
Q 3863 1375 4281 806 
Q 4788 1444 4931 2250 
L 3656 2250 
z
M 2969 2581 
L 3950 2581 
L 3950 3906 
L 2969 3906 
L 2969 2581 
z
M -31 625 
Q 513 763 1019 975 
L 1019 3206 
L 681 3206 
Q 375 3206 75 3188 
Q 94 3356 75 3531 
Q 375 3513 681 3513 
L 1019 3513 
L 1019 4263 
Q 1019 4700 1000 5131 
Q 1225 5106 1456 5131 
Q 1431 4700 1431 4263 
L 1431 3513 
L 2269 3531 
Q 2256 3356 2269 3188 
L 1431 3206 
L 1431 1163 
L 2181 1531 
L 2225 1256 
Q 1288 775 825 519 
L 194 144 
Q 138 438 -31 625 
z
" transform="scale(0.015625)"/>
       </defs>
       <use xlink:href="#WenQuanYiZenHei-65b0"/>
       <use xlink:href="#WenQuanYiZenHei-52a0" transform="translate(100 0)"/>
       <use xlink:href="#WenQuanYiZenHei-5761" transform="translate(200 0)"/>
      </g>
     </g>
    </g>
    <g id="ytick_8">
     <g id="line2d_25">
      <g>
       <use xlink:href="#mfe0b4be019" x="68.40625" y="266.859107" style="stroke: #000000; stroke-width: 0.8"/>
      </g>
     </g>
     <g id="text_11">
      <!-- 中國大陸 -->
      <g transform="translate(21.40625 270.80442) scale(0.1 -0.1)">
       <defs>
        <path id="WenQuanYiZenHei-5927" d="M 1281 3069 
Q 863 3069 438 3050 
Q 463 3275 438 3506 
Q 863 3488 1281 3488 
L 2931 3488 
L 2931 4300 
Q 2931 4781 2906 5263 
Q 3163 5231 3425 5263 
Q 3400 4781 3400 4300 
L 3400 3488 
L 5188 3488 
Q 5606 3488 6025 3506 
Q 6000 3275 6025 3050 
Q 5606 3069 5188 3069 
L 3481 3069 
Q 3894 1500 4863 550 
Q 5431 25 6156 -313 
Q 5906 -438 5788 -694 
Q 4919 -269 4284 515 
Q 3650 1300 3281 2294 
Q 3038 1256 2350 443 
Q 1663 -369 700 -775 
Q 556 -475 231 -413 
Q 1394 -50 2119 903 
Q 2844 1856 2919 3069 
L 1281 3069 
z
" transform="scale(0.015625)"/>
        <path id="WenQuanYiZenHei-9678" d="M 6175 -231 
Q 6156 -400 6175 -569 
Q 5863 -550 5550 -550 
L 2731 -550 
Q 2419 -550 2106 -569 
Q 2125 -400 2106 -231 
Q 2419 -244 2731 -244 
L 3931 -244 
L 3931 644 
L 3119 644 
Q 2806 644 2494 631 
Q 2513 800 2494 969 
Q 2806 956 3119 956 
L 3931 956 
L 3913 1888 
Q 4150 1863 4381 1888 
L 4363 956 
L 5219 956 
Q 5531 956 5844 969 
Q 5825 800 5844 631 
Q 5531 644 5219 644 
L 4363 644 
L 4363 -244 
L 5550 -244 
Q 5863 -244 6175 -231 
z
M 2894 2938 
Q 2581 2938 2269 2925 
Q 2288 3094 2269 3263 
Q 2581 3244 2894 3244 
L 3931 3244 
L 3931 4044 
L 3181 4044 
Q 2869 4044 2556 4031 
Q 2575 4200 2556 4369 
Q 2869 4356 3181 4356 
L 3931 4356 
Q 3931 4781 3913 5213 
Q 4150 5188 4381 5213 
Q 4363 4781 4363 4356 
L 5163 4356 
Q 5475 4356 5788 4369 
Q 5769 4200 5788 4031 
Q 5475 4044 5163 4044 
L 4363 4044 
L 4363 3244 
L 5431 3244 
Q 5744 3244 6056 3263 
Q 6038 3094 6056 2925 
Q 5744 2938 5431 2938 
L 5006 2938 
Q 5563 2400 6050 1800 
L 5681 1500 
Q 5206 2088 4656 2619 
L 4963 2938 
L 2894 2938 
z
M 3331 2900 
Q 3531 2775 3750 2694 
Q 3369 1856 2388 1356 
Q 2319 1569 2138 1706 
Q 2531 1888 2803 2166 
Q 3075 2444 3331 2900 
z
M 763 -850 
Q 544 -825 325 -850 
Q 344 -419 344 19 
L 338 4938 
L 2106 4938 
L 2106 4625 
Q 2006 4513 1938 4375 
L 1381 3238 
Q 2038 2319 2038 1156 
Q 2000 400 1463 163 
L 1313 88 
Q 1206 300 1063 481 
Q 1206 538 1356 606 
Q 1644 744 1675 1156 
Q 1675 1744 1494 2300 
Q 1313 2856 969 3313 
L 1606 4625 
L 738 4625 
L 744 19 
Q 744 -419 763 -850 
z
" transform="scale(0.015625)"/>
       </defs>
       <use xlink:href="#WenQuanYiZenHei-4e2d"/>
       <use xlink:href="#WenQuanYiZenHei-570b" transform="translate(100 0)"/>
       <use xlink:href="#WenQuanYiZenHei-5927" transform="translate(200 0)"/>
       <use xlink:href="#WenQuanYiZenHei-9678" transform="translate(300 0)"/>
      </g>
     </g>
    </g>
    <g id="ytick_9">
     <g id="line2d_26">
      <g>
       <use xlink:href="#mfe0b4be019" x="68.40625" y="297.71625" style="stroke: #000000; stroke-width: 0.8"/>
      </g>
     </g>
     <g id="text_12">
      <!-- 大洋洲 -->
      <g transform="translate(31.40625 301.602969) scale(0.1 -0.1)">
       <defs>
        <path id="WenQuanYiZenHei-6d0b" d="M 4231 -769 
Q 3994 -744 3750 -769 
Q 3775 -325 3775 113 
L 3775 981 
L 2669 981 
Q 2350 981 2025 969 
Q 2044 1144 2025 1319 
Q 2350 1300 2669 1300 
L 3775 1300 
L 3775 2231 
L 3025 2231 
Q 2700 2231 2381 2219 
Q 2400 2394 2381 2569 
Q 2700 2550 3025 2550 
L 3775 2550 
L 3775 3463 
L 2394 3463 
L 2394 3781 
L 3400 3781 
Q 3163 4369 2744 4856 
L 3113 5169 
Q 3588 4606 3856 3925 
L 3506 3781 
L 4044 3781 
Q 4288 4056 4469 4365 
Q 4650 4675 4869 5156 
Q 5081 5044 5313 4975 
Q 5088 4406 4600 3781 
L 5313 3781 
Q 5631 3781 5956 3800 
Q 5938 3625 5956 3450 
Q 5631 3463 5313 3463 
L 4338 3463 
L 4306 3431 
Q 4281 3475 4206 3463 
L 4206 2550 
L 5156 2550 
Q 5481 2550 5806 2569 
Q 5788 2394 5806 2219 
Q 5481 2231 5156 2231 
L 4206 2231 
L 4206 1300 
L 5525 1300 
Q 5850 1300 6175 1319 
Q 6156 1144 6175 969 
Q 5850 981 5525 981 
L 4206 981 
L 4206 113 
Q 4206 -325 4231 -769 
z
M 906 -738 
Q 656 -588 288 -575 
Q 550 -69 831 581 
Q 1113 1231 1650 2838 
L 1900 2706 
L 1200 338 
L 906 -738 
z
M 1388 2856 
L 1000 2550 
L 100 3400 
L 488 3713 
L 1388 2856 
z
M 1494 3913 
Q 1075 4388 588 4800 
L 950 5125 
Q 1469 4688 1906 4188 
L 1494 3913 
z
" transform="scale(0.015625)"/>
       </defs>
       <use xlink:href="#WenQuanYiZenHei-5927"/>
       <use xlink:href="#WenQuanYiZenHei-6d0b" transform="translate(100 0)"/>
       <use xlink:href="#WenQuanYiZenHei-6d32" transform="translate(200 0)"/>
      </g>
     </g>
    </g>
    <g id="ytick_10">
     <g id="line2d_27">
      <g>
       <use xlink:href="#mfe0b4be019" x="68.40625" y="328.573393" style="stroke: #000000; stroke-width: 0.8"/>
      </g>
     </g>
     <g id="text_13">
      <!-- 澳大利亞 -->
      <g transform="translate(21.40625 332.587455) scale(0.1 -0.1)">
       <defs>
        <path id="WenQuanYiZenHei-6fb3" d="M 2456 794 
Q 2188 794 1919 781 
Q 1931 931 1919 1075 
Q 2188 1063 2456 1063 
L 3519 1063 
Q 3588 1300 3619 1456 
L 3638 1456 
L 3638 2419 
Q 3350 1975 2769 1538 
Q 2725 1631 2644 1706 
Q 2650 1544 2656 1388 
Q 2438 1406 2213 1388 
Q 2231 1794 2231 2206 
L 2231 4556 
L 3156 4556 
Q 3425 4800 3644 5175 
Q 3825 5044 4025 4950 
Q 3919 4744 3744 4556 
L 5488 4556 
L 5488 1444 
L 5081 1444 
L 5081 2856 
L 4038 2856 
L 4038 2794 
L 4050 2813 
Q 4588 2419 5069 1963 
L 4756 1644 
Q 4413 1969 4038 2263 
L 4038 1419 
L 3950 1419 
L 4063 1406 
Q 4031 1231 3988 1063 
L 5419 1063 
Q 5688 1063 5956 1075 
Q 5944 931 5956 781 
Q 5688 794 5419 794 
L 4206 794 
Q 4888 -213 6100 -350 
Q 5925 -519 5900 -763 
Q 5256 -669 4737 -278 
Q 4219 113 3850 675 
Q 3556 25 2984 -387 
Q 2413 -800 1725 -838 
Q 1744 -588 1606 -375 
Q 2156 -356 2631 -106 
Q 3219 188 3425 794 
L 2456 794 
z
M 4038 3338 
Q 4344 3638 4538 4113 
Q 4738 4006 4950 3944 
Q 4775 3494 4369 3094 
L 5081 3094 
L 5081 4294 
L 4038 4294 
L 4038 3338 
z
M 2638 3094 
L 3638 3094 
L 3638 4294 
L 3456 4294 
L 3375 4219 
Q 3356 4256 3325 4294 
L 2638 4294 
Q 2638 4100 2638 3894 
L 3013 4119 
L 3463 3369 
L 3081 3138 
L 2638 3875 
L 2638 3094 
z
M 4038 3094 
L 4319 3094 
Q 4206 3238 4038 3300 
L 4038 3094 
z
M 2638 2856 
L 2638 1938 
Q 3000 2225 3381 2856 
L 2638 2856 
z
M 844 -738 
Q 613 -588 269 -575 
Q 513 -69 772 581 
Q 1031 1231 1531 2838 
L 1763 2706 
L 1119 338 
L 844 -738 
z
M 1288 2856 
L 931 2550 
L 94 3400 
L 450 3713 
L 1288 2856 
z
M 1388 3913 
Q 1000 4388 544 4800 
L 881 5125 
Q 1363 4688 1775 4188 
L 1388 3913 
z
" transform="scale(0.015625)"/>
        <path id="WenQuanYiZenHei-5229" d="M 1038 2931 
Q 688 2931 338 2913 
Q 363 3106 338 3294 
Q 688 3275 1038 3275 
L 1731 3275 
L 1731 4281 
Q 1169 4119 500 3981 
Q 488 4213 344 4400 
Q 1263 4569 2219 4950 
L 3025 5288 
Q 3100 5050 3225 4838 
Q 2719 4600 2175 4419 
L 2175 3275 
L 2819 3275 
Q 3169 3275 3519 3294 
Q 3500 3106 3519 2913 
Q 3169 2931 2819 2931 
L 2175 2931 
L 2175 2856 
Q 2825 2200 3413 1475 
L 3031 1169 
Q 2619 1675 2175 2150 
L 2175 138 
Q 2175 -313 2194 -769 
Q 1950 -738 1706 -769 
Q 1731 -313 1731 138 
L 1731 2075 
Q 1206 919 431 163 
Q 269 388 0 469 
Q 888 1281 1250 2106 
Q 1394 2438 1550 2931 
L 1038 2931 
z
M 4756 -888 
Q 4806 -544 4606 -350 
Q 4806 -375 5059 -378 
Q 5313 -381 5388 -325 
Q 5463 -269 5463 38 
L 5463 4181 
Q 5463 4631 5444 5075 
Q 5688 5050 5931 5075 
Q 5913 4631 5913 4181 
L 5913 -106 
Q 5913 -656 5500 -800 
Q 5150 -913 4756 -888 
z
M 4613 756 
Q 4369 781 4119 756 
Q 4144 1200 4144 1650 
L 4144 3269 
Q 4144 3713 4119 4163 
Q 4369 4138 4613 4163 
Q 4588 3713 4588 3269 
L 4588 1650 
Q 4588 1200 4613 756 
z
" transform="scale(0.015625)"/>
        <path id="WenQuanYiZenHei-4e9e" d="M 6138 -88 
Q 6113 -269 6138 -450 
Q 5800 -431 5463 -431 
L 788 -431 
Q 450 -431 113 -450 
Q 138 -269 113 -88 
Q 450 -106 788 -106 
L 2056 -106 
L 2056 1300 
L 538 1300 
L 531 3356 
L 1969 3356 
L 1969 4606 
L 863 4606 
Q 525 4606 194 4594 
Q 213 4775 194 4956 
Q 525 4938 863 4938 
L 5263 4938 
Q 5600 4938 5938 4956 
Q 5919 4775 5938 4594 
Q 5600 4606 5263 4606 
L 4100 4606 
L 4100 3369 
L 5550 3369 
L 5538 1325 
L 4113 1325 
L 4113 -106 
L 5463 -106 
Q 5800 -106 6138 -88 
z
M 3675 -106 
L 3675 1656 
L 5100 1656 
L 5106 3038 
L 3663 3038 
L 3663 4606 
L 2406 4606 
L 2406 3025 
L 969 3025 
L 975 1631 
L 2494 1631 
L 2494 -106 
L 3675 -106 
z
" transform="scale(0.015625)"/>
       </defs>
       <use xlink:href="#WenQuanYiZenHei-6fb3"/>
       <use xlink:href="#WenQuanYiZenHei-5927" transform="translate(100 0)"/>
       <use xlink:href="#WenQuanYiZenHei-5229" transform="translate(200 0)"/>
       <use xlink:href="#WenQuanYiZenHei-4e9e" transform="translate(300 0)"/>
      </g>
     </g>
    </g>
    <g id="text_14">
     <!-- 國家/地區別 -->
     <g transform="translate(15.696875 217.313906) rotate(-90) scale(0.1 -0.1)">
      <defs>
       <path id="WenQuanYiZenHei-5bb6" d="M 1750 3363 
Q 1438 3363 1125 3344 
Q 1144 3513 1125 3681 
Q 1438 3669 1750 3669 
L 4469 3669 
Q 4781 3669 5094 3681 
Q 5075 3513 5094 3344 
Q 4781 3363 4469 3363 
L 3294 3363 
L 3319 3338 
L 2994 3050 
Q 3488 2794 3706 2075 
Q 4088 2256 4431 2512 
Q 4775 2769 5200 3169 
Q 5350 2981 5531 2838 
Q 5069 2350 4419 1969 
Q 4663 881 5394 350 
Q 5713 119 6075 -25 
Q 5850 -150 5763 -388 
Q 5138 -125 4700 456 
Q 4263 1038 4063 1775 
L 3800 1650 
Q 3931 669 3613 -238 
Q 3550 -388 3444 -538 
Q 3219 -850 2744 -925 
Q 2675 -638 2406 -525 
Q 3038 -531 3213 -106 
Q 3419 488 3413 1181 
Q 1988 -113 431 -544 
Q 394 -275 206 -81 
Q 869 88 1512 384 
Q 2156 681 2575 1040 
Q 2994 1400 3331 1756 
L 3356 1731 
Q 3306 2000 3219 2219 
Q 1938 956 538 606 
Q 506 869 325 1069 
Q 869 1194 1387 1419 
Q 1906 1644 2256 1941 
Q 2606 2238 2894 2556 
L 3188 2281 
Q 3025 2613 2750 2694 
Q 2663 2719 2575 2706 
Q 1606 1963 638 1638 
Q 581 1900 388 2081 
Q 1575 2450 2281 3025 
Q 2431 3150 2663 3363 
L 1750 3363 
z
M 781 3469 
L 350 3469 
L 350 4669 
L 3006 4669 
L 2463 5050 
L 2731 5438 
L 3406 4963 
L 3200 4669 
L 5863 4669 
L 5863 3469 
L 5431 3469 
L 5431 4363 
L 781 4363 
L 781 3469 
z
" transform="scale(0.015625)"/>
       <path id="WenQuanYiZenHei-2f" d="M 3213 4388 
L 563 -1094 
L 138 -1094 
L 2775 4388 
L 3213 4388 
z
" transform="scale(0.015625)"/>
       <path id="WenQuanYiZenHei-5730" d="M 3238 -688 
Q 2981 -688 2775 -500 
Q 2569 -313 2569 75 
L 2569 2438 
Q 2263 2325 1956 2194 
Q 1906 2388 1819 2563 
L 2569 2825 
L 2569 3406 
Q 2569 3863 2550 4325 
Q 2800 4294 3044 4325 
Q 3025 3863 3025 3406 
L 3025 2988 
L 3819 3281 
L 3819 4344 
Q 3819 4800 3800 5263 
Q 4050 5238 4294 5263 
Q 4275 4800 4275 4344 
L 4275 3450 
L 5700 3975 
L 5700 1388 
Q 5669 994 5350 869 
Q 5050 738 4625 744 
Q 4694 1050 4488 1294 
Q 4669 1275 4916 1269 
Q 5163 1263 5203 1303 
Q 5244 1344 5244 1506 
L 5244 3425 
L 4275 3069 
L 4275 1331 
Q 4275 869 4294 413 
Q 4050 438 3800 413 
Q 3819 869 3819 1331 
L 3819 2900 
L 3025 2606 
L 3025 75 
Q 3025 -69 3081 -175 
Q 3138 -281 3244 -281 
L 5456 -275 
Q 5575 -275 5653 -165 
Q 5731 -56 5750 100 
L 5875 988 
Q 6075 850 6313 856 
L 6138 -244 
Q 6113 -431 6025 -559 
Q 5938 -688 5794 -688 
L 3238 -688 
z
M -31 625 
Q 481 763 956 975 
L 956 3206 
L 638 3206 
Q 356 3206 69 3188 
Q 88 3356 69 3531 
Q 356 3513 638 3513 
L 956 3513 
L 956 4263 
Q 956 4700 938 5131 
Q 1150 5106 1363 5131 
Q 1344 4700 1344 4263 
L 1344 3513 
L 2131 3531 
Q 2113 3356 2131 3188 
L 1344 3206 
L 1344 1163 
L 2044 1531 
L 2088 1256 
Q 1206 775 775 519 
L 188 144 
Q 131 438 -31 625 
z
" transform="scale(0.015625)"/>
       <path id="WenQuanYiZenHei-5340" d="M 3738 650 
Q 3813 1400 3738 2150 
L 5625 2150 
Q 5544 1400 5613 650 
L 3738 650 
z
M 1406 650 
Q 1488 1400 1406 2150 
L 3294 2150 
Q 3213 1400 3281 650 
L 1406 650 
z
M 2125 2756 
Q 2200 3431 2125 4106 
L 4869 4106 
Q 4788 3431 4863 2756 
L 2125 2756 
z
M 4163 1850 
L 4163 950 
L 5194 950 
L 5200 1850 
L 4163 1850 
z
M 1831 1850 
L 1831 950 
L 2863 950 
L 2869 1850 
L 1831 1850 
z
M 2544 3806 
L 2544 3056 
L 4444 3056 
L 4444 3806 
L 2544 3806 
z
M 6025 5013 
Q 6006 4844 6025 4675 
Q 5700 4688 5369 4688 
L 863 4688 
L 863 -25 
L 6131 -25 
L 6131 -338 
L 413 -338 
L 406 5000 
L 5369 5000 
Q 5700 5000 6025 5013 
z
" transform="scale(0.015625)"/>
       <path id="WenQuanYiZenHei-5225" d="M 1213 2813 
L 769 2813 
L 769 4969 
L 3263 4969 
L 3263 2813 
L 2819 2813 
L 2819 3075 
L 1850 3075 
L 1850 2281 
L 3306 2281 
L 3306 -194 
Q 3306 -431 3147 -575 
Q 2988 -719 2769 -775 
Q 2531 -831 2156 -825 
Q 2225 -519 2006 -281 
Q 2206 -306 2487 -309 
Q 2769 -313 2816 -275 
Q 2863 -238 2863 -69 
L 2863 1938 
L 1850 1938 
Q 1906 756 1350 -38 
Q 1031 -500 544 -788 
Q 419 -538 156 -450 
Q 669 -231 988 225 
Q 1406 813 1406 1663 
L 1406 3075 
Q 1313 3075 1213 3075 
L 1213 2813 
z
M 2819 4625 
L 1219 4625 
L 1213 3419 
L 2819 3419 
L 2819 4625 
z
M 4831 -888 
Q 4881 -544 4688 -350 
Q 4881 -375 5122 -378 
Q 5363 -381 5434 -325 
Q 5506 -269 5506 38 
L 5506 4181 
Q 5506 4631 5488 5075 
Q 5719 5050 5956 5075 
Q 5931 4631 5931 4181 
L 5931 -106 
Q 5931 -656 5538 -800 
Q 5206 -913 4831 -888 
z
M 4694 756 
Q 4456 781 4225 756 
Q 4244 1200 4244 1650 
L 4244 3269 
Q 4244 3713 4225 4163 
Q 4456 4138 4694 4163 
Q 4669 3713 4669 3269 
L 4669 1650 
Q 4669 1200 4694 756 
z
" transform="scale(0.015625)"/>
      </defs>
      <use xlink:href="#WenQuanYiZenHei-570b"/>
      <use xlink:href="#WenQuanYiZenHei-5bb6" transform="translate(100 0)"/>
      <use xlink:href="#WenQuanYiZenHei-2f" transform="translate(200 0)"/>
      <use xlink:href="#WenQuanYiZenHei-5730" transform="translate(251.953125 0)"/>
      <use xlink:href="#WenQuanYiZenHei-5340" transform="translate(351.953125 0)"/>
      <use xlink:href="#WenQuanYiZenHei-5225" transform="translate(451.953125 0)"/>
     </g>
    </g>
   </g>
   <g id="patch_13">
    <path d="M 68.40625 356.03625 
L 68.40625 23.39625 
" style="fill: none; stroke: #000000; stroke-width: 0.8; stroke-linejoin: miter; stroke-linecap: square"/>
   </g>
   <g id="patch_14">
    <path d="M 570.60625 356.03625 
L 570.60625 23.39625 
" style="fill: none; stroke: #000000; stroke-width: 0.8; stroke-linejoin: miter; stroke-linecap: square"/>
   </g>
   <g id="patch_15">
    <path d="M 68.40625 356.03625 
L 570.60625 356.03625 
" style="fill: none; stroke: #000000; stroke-width: 0.8; stroke-linejoin: miter; stroke-linecap: square"/>
   </g>
   <g id="patch_16">
    <path d="M 68.40625 23.39625 
L 570.60625 23.39625 
" style="fill: none; stroke: #000000; stroke-width: 0.8; stroke-linejoin: miter; stroke-linecap: square"/>
   </g>
   <g id="text_15">
    <!-- 112年度國家財政部出口統計 (1)食用蔬菜 Top 10 -->
    <g transform="translate(189.453438 17.39625) scale(0.12 -0.12)">
     <defs>
      <path id="WenQuanYiZenHei-32" d="M 3488 0 
L 369 0 
L 369 456 
L 2150 1850 
Q 2931 2463 2931 3144 
Q 2931 3619 2488 3863 
Q 2231 4013 1931 4013 
Q 1425 4013 1113 3619 
Q 894 3356 881 3013 
L 369 3169 
Q 531 3981 1213 4300 
Q 1544 4456 1950 4456 
Q 2631 4456 3088 4044 
L 3225 3888 
L 3350 3706 
Q 3481 3444 3481 3144 
Q 3481 2313 2519 1569 
L 1069 456 
L 3488 456 
L 3488 0 
z
" transform="scale(0.015625)"/>
      <path id="WenQuanYiZenHei-5e74" d="M 3638 -769 
Q 3388 -744 3138 -769 
Q 3163 -313 3163 150 
L 3163 1044 
L 969 1044 
Q 606 1044 244 1025 
Q 263 1219 244 1419 
Q 606 1400 969 1400 
L 1406 1400 
L 1400 2963 
L 3163 2963 
L 3163 3925 
L 1725 3925 
Q 1131 2881 494 2244 
Q 319 2463 50 2544 
Q 756 3219 1125 3794 
Q 1494 4369 1763 5169 
Q 2006 5044 2269 4969 
L 1925 4281 
L 5044 4281 
Q 5406 4281 5769 4300 
Q 5750 4106 5769 3906 
Q 5406 3925 5044 3925 
L 3613 3925 
L 3613 2963 
L 4769 2963 
Q 5131 2963 5494 2981 
Q 5475 2788 5494 2588 
Q 5131 2606 4769 2606 
L 3613 2606 
L 3613 1400 
L 5406 1400 
Q 5769 1400 6131 1419 
Q 6113 1219 6131 1025 
Q 5769 1044 5406 1044 
L 3613 1044 
L 3613 150 
Q 3613 -313 3638 -769 
z
M 3163 1400 
L 3163 2606 
L 1850 2606 
L 1856 1400 
L 3163 1400 
z
" transform="scale(0.015625)"/>
      <path id="WenQuanYiZenHei-5ea6" d="M 1863 1488 
Q 1881 1663 1863 1838 
Q 2181 1819 2506 1819 
L 5231 1819 
Q 4863 869 4081 213 
Q 4381 25 4763 -94 
Q 5388 -294 6044 -238 
Q 5894 -450 5913 -706 
Q 4731 -769 3744 -44 
Q 2731 -725 1519 -731 
Q 1450 -475 1300 -256 
Q 2431 -356 3388 244 
Q 2825 763 2413 1500 
Q 2138 1500 1863 1488 
z
M 5400 3613 
Q 5725 3613 6050 3631 
Q 6031 3456 6050 3281 
Q 5725 3294 5400 3294 
L 4800 3294 
Q 4794 2600 4794 2275 
L 2531 2275 
Q 2531 2781 2531 3294 
L 2213 3294 
Q 1894 3294 1569 3281 
Q 1588 3456 1569 3631 
Q 1894 3613 2213 3613 
L 2531 3613 
Q 2531 3963 2513 4306 
Q 2750 4281 2988 4306 
Q 2975 3963 2969 3613 
L 4363 3613 
Q 4363 3944 4350 4275 
Q 4588 4250 4825 4275 
Q 4806 3944 4800 3613 
L 5400 3613 
z
M 1013 4738 
L 3413 4738 
L 3025 5069 
L 3331 5431 
L 3856 4981 
L 3650 4738 
L 5444 4738 
Q 5769 4738 6094 4750 
Q 6075 4575 6094 4400 
Q 5769 4419 5444 4419 
L 1444 4419 
L 1456 1550 
Q 1463 44 600 -738 
Q 444 -525 181 -481 
Q 1044 100 1019 1550 
L 1013 4738 
z
M 2863 1500 
Q 3250 869 3719 475 
Q 4256 906 4581 1500 
L 2863 1500 
z
M 2969 3294 
Q 2969 2956 2969 2594 
L 4356 2594 
Q 4363 2931 4363 3294 
L 2969 3294 
z
" transform="scale(0.015625)"/>
      <path id="WenQuanYiZenHei-8ca1" d="M 3594 3363 
Q 3281 3363 2969 3344 
Q 2988 3513 2969 3681 
Q 3281 3669 3594 3669 
L 4706 3669 
L 4706 4313 
Q 4706 4744 4688 5181 
Q 4925 5156 5156 5181 
Q 5138 4744 5138 4313 
L 5138 3669 
L 5563 3669 
Q 5875 3669 6188 3681 
Q 6169 3513 6188 3344 
Q 5875 3363 5563 3363 
L 5138 3363 
L 5138 -44 
Q 5138 -481 4900 -644 
Q 4644 -819 4025 -813 
Q 4094 -513 3888 -288 
Q 4075 -313 4319 -316 
Q 4563 -319 4638 -263 
Q 4719 -144 4706 231 
L 4706 2669 
Q 3869 1169 3038 206 
Q 2856 406 2600 463 
Q 3469 1400 3950 2231 
Q 4225 2694 4556 3363 
L 3594 3363 
z
M 2331 -756 
Q 2050 -150 1688 394 
L 2031 575 
L 2031 881 
L 925 881 
L 925 556 
L 888 556 
Q 1088 494 1313 463 
Q 1138 -194 688 -656 
Q 569 -788 431 -919 
Q 294 -750 56 -681 
Q 588 -206 825 556 
L 469 556 
L 469 4969 
L 2488 4969 
L 2488 556 
L 2163 556 
Q 2506 19 2794 -588 
L 2331 -756 
z
M 2031 3681 
L 2031 4700 
L 925 4700 
L 925 3681 
L 2031 3681 
z
M 2031 2394 
L 2031 3444 
L 925 3444 
L 925 2394 
L 2031 2394 
z
M 2031 2156 
L 925 2156 
L 925 1119 
L 2031 1119 
L 2031 2156 
z
" transform="scale(0.015625)"/>
      <path id="WenQuanYiZenHei-653f" d="M 2925 2750 
Q 2906 2575 2925 2400 
Q 2656 2413 2444 2413 
L 2031 2413 
L 2031 381 
Q 2388 475 3094 681 
L 3094 394 
Q 1206 -156 175 -538 
Q 175 -250 19 -13 
Q 275 13 538 56 
L 538 2356 
Q 538 2800 513 3238 
Q 750 3213 994 3238 
Q 969 2800 969 2356 
L 969 131 
Q 1275 188 1600 269 
L 1600 4275 
L 813 4275 
Q 488 4275 169 4263 
Q 181 4438 169 4613 
Q 488 4594 813 4594 
L 2556 4594 
Q 2881 4594 3206 4613 
Q 3188 4438 3206 4263 
Q 2881 4275 2556 4275 
L 2031 4275 
L 2031 2731 
L 2275 2731 
Q 2600 2731 2925 2750 
z
M 3569 5031 
Q 3800 4963 4069 4944 
Q 3950 4400 3788 3869 
L 3763 3781 
L 5275 3781 
Q 5619 3781 5956 3800 
Q 5938 3600 5956 3406 
L 5256 3419 
Q 5188 1925 4613 888 
Q 5206 106 6194 -306 
Q 5975 -438 5881 -694 
Q 4969 -288 4388 519 
Q 3750 -469 2663 -906 
Q 2600 -613 2413 -438 
Q 3531 -44 4131 913 
Q 3600 1806 3481 2963 
Q 3256 2381 2875 1806 
Q 2700 1981 2419 2025 
Q 2681 2406 2968 2937 
Q 3256 3469 3381 3991 
Q 3506 4513 3569 5031 
z
M 3831 3419 
Q 3850 2794 3997 2244 
Q 4144 1694 4350 1300 
Q 4763 2181 4788 3419 
L 3831 3419 
z
" transform="scale(0.015625)"/>
      <path id="WenQuanYiZenHei-90e8" d="M 1169 -763 
Q 931 -738 700 -763 
Q 719 -331 719 106 
L 719 1925 
L 3125 1925 
L 3125 -750 
L 2694 -750 
L 2694 -38 
L 1150 -38 
Q 1150 -400 1169 -763 
z
M 3763 2806 
Q 3744 2638 3763 2469 
Q 3450 2481 3138 2481 
L 694 2481 
Q 381 2481 69 2469 
Q 88 2638 69 2806 
Q 381 2788 694 2788 
L 1150 2788 
Q 875 3388 531 3950 
L 931 4200 
Q 1313 3575 1613 2906 
L 1350 2788 
L 2006 2788 
Q 2475 3350 2681 4288 
L 831 4288 
Q 519 4288 206 4275 
Q 225 4444 206 4613 
Q 519 4594 831 4594 
L 1688 4594 
L 1256 5094 
L 1613 5400 
L 2169 4756 
L 1988 4594 
L 3013 4594 
Q 3325 4594 3638 4613 
Q 3619 4444 3638 4275 
Q 3388 4281 3138 4288 
Q 3056 3538 2538 2788 
L 3138 2788 
Q 3450 2788 3763 2806 
z
M 2694 1619 
L 1150 1619 
L 1150 275 
L 2694 275 
L 2694 1619 
z
M 4431 -856 
Q 4225 -831 4019 -856 
Q 4038 -394 4038 75 
L 4038 4819 
L 5856 4819 
L 5856 4438 
Q 5763 4313 5713 4156 
L 5238 2756 
Q 5600 2450 5806 1972 
Q 6013 1494 6013 947 
Q 6013 400 5325 56 
L 5081 -56 
Q 4994 188 4869 388 
L 5263 531 
Q 5650 669 5650 950 
Q 5650 1494 5428 1969 
Q 5206 2444 4819 2719 
L 5400 4438 
L 4413 4438 
L 4413 75 
Q 4413 -388 4431 -856 
z
" transform="scale(0.015625)"/>
      <path id="WenQuanYiZenHei-51fa" d="M 5400 -594 
Q 5150 -569 4906 -594 
Q 4919 -356 4919 -119 
L 431 -119 
L 431 981 
Q 431 1438 406 1894 
Q 656 1869 900 1894 
Q 881 1438 881 981 
L 881 238 
L 2675 238 
L 2675 2500 
L 688 2500 
L 688 3488 
Q 688 3950 663 4406 
Q 913 4381 1163 4406 
Q 1138 3950 1138 3488 
L 1138 2856 
L 2675 2856 
L 2675 4344 
Q 2675 4806 2656 5263 
Q 2906 5238 3150 5263 
Q 3131 4806 3131 4344 
L 3131 2856 
L 4669 2856 
Q 4669 3175 4669 3562 
Q 4669 3950 4644 4406 
Q 4894 4381 5144 4406 
Q 5125 3988 5122 3516 
Q 5119 3044 5119 2500 
L 3131 2500 
L 3131 238 
L 4925 238 
L 4925 981 
Q 4925 1438 4906 1894 
Q 5150 1869 5400 1894 
Q 5381 1438 5381 981 
L 5381 325 
Q 5381 -138 5400 -594 
z
" transform="scale(0.015625)"/>
      <path id="WenQuanYiZenHei-53e3" d="M 1181 -781 
Q 925 -756 669 -781 
Q 688 -313 688 163 
L 694 4506 
L 5288 4506 
L 5288 -769 
L 4825 -769 
L 4825 219 
L 1156 219 
L 1156 163 
Q 1156 -313 1181 -781 
z
M 4825 4113 
L 1156 4113 
L 1156 619 
L 4825 619 
L 4825 4113 
z
" transform="scale(0.015625)"/>
      <path id="WenQuanYiZenHei-7d71" d="M 4894 -663 
Q 4594 -663 4434 -488 
Q 4275 -313 4275 -44 
L 4275 2250 
L 3844 2188 
L 3844 1556 
Q 3844 781 3403 143 
Q 2963 -494 2275 -788 
Q 2181 -538 1931 -438 
Q 2581 -244 3003 303 
Q 3425 850 3425 1556 
L 3425 2119 
L 2619 1988 
L 2575 2275 
Q 2675 2306 2750 2381 
Q 2931 2575 3209 3081 
Q 3488 3588 3575 3950 
L 3125 3950 
Q 2831 3950 2538 3938 
Q 2556 4094 2538 4250 
Q 2831 4238 3125 4238 
L 4044 4238 
L 3513 4950 
L 3875 5225 
L 4563 4325 
L 4450 4238 
L 5306 4238 
Q 5600 4238 5894 4250 
Q 5875 4094 5894 3938 
Q 5600 3950 5306 3950 
L 4081 3950 
Q 3988 3656 3638 3081 
Q 3325 2538 3200 2369 
L 4956 2631 
L 4581 3156 
L 4950 3431 
Q 5456 2756 5881 2031 
L 5481 1794 
Q 5313 2094 5125 2375 
L 4694 2319 
L 4694 -44 
Q 4694 -150 4750 -228 
Q 4806 -306 4900 -306 
L 5594 -306 
Q 5669 -300 5688 -238 
L 5825 663 
Q 6013 544 6231 538 
L 6038 -506 
Q 6019 -594 5969 -644 
Q 5938 -663 5894 -663 
L 4894 -663 
z
M 2631 431 
L 2200 263 
L 1838 1194 
L 2269 1363 
L 2631 431 
z
M 1819 163 
L 1388 -6 
L 1025 925 
L 1456 1094 
L 1819 163 
z
M 125 -294 
Q 338 288 444 900 
L 900 819 
Q 781 169 556 -456 
L 125 -294 
z
M 2600 1781 
L 2231 1506 
L 2069 1725 
L 1863 1700 
L 200 1350 
L 144 1631 
Q 263 1663 344 1756 
Q 738 2219 1388 3138 
L 225 3119 
L 225 3413 
Q 325 3413 400 3481 
Q 613 3688 953 4272 
Q 1294 4856 1331 5188 
Q 1569 5088 1819 5044 
Q 1788 4919 1709 4766 
Q 1631 4613 1290 4094 
Q 950 3575 819 3413 
L 1463 3394 
L 1575 3406 
Q 1844 3806 1963 4044 
Q 2163 3888 2388 3775 
Q 2269 3588 1869 3075 
L 831 1769 
L 1813 1950 
L 1881 1975 
L 1594 2363 
L 1963 2638 
L 2600 1781 
z
" transform="scale(0.015625)"/>
      <path id="WenQuanYiZenHei-8a08" d="M 4600 -763 
Q 4363 -738 4119 -763 
Q 4144 -325 4144 119 
L 4144 2806 
L 3338 2806 
Q 3019 2806 2694 2794 
Q 2713 2969 2694 3144 
Q 3019 3125 3338 3125 
L 4144 3125 
L 4144 4463 
Q 4144 4900 4119 5338 
Q 4363 5313 4600 5338 
Q 4575 4900 4575 4463 
L 4575 3125 
L 5538 3125 
Q 5863 3125 6188 3144 
Q 6169 2969 6188 2794 
Q 5863 2806 5538 2806 
L 4575 2806 
L 4575 119 
Q 4575 -325 4600 -763 
z
M 675 -844 
Q 425 -819 175 -844 
Q 200 -431 200 -13 
L 200 1413 
L 2363 1413 
L 2363 -831 
L 1900 -831 
L 1900 -300 
L 656 -300 
Q 663 -569 675 -844 
z
M 2281 2444 
Q 2263 2294 2281 2144 
Q 1969 2156 1663 2156 
L 913 2156 
Q 606 2156 294 2144 
Q 313 2294 294 2444 
Q 606 2431 913 2431 
L 1663 2431 
Q 1969 2431 2281 2444 
z
M 2294 3394 
Q 2275 3244 2294 3094 
Q 1988 3106 1675 3106 
L 900 3106 
Q 588 3106 281 3094 
Q 294 3244 281 3394 
Q 588 3381 900 3381 
L 1675 3381 
Q 1988 3381 2294 3394 
z
M 2556 4356 
Q 2538 4206 2556 4056 
Q 2244 4075 1938 4075 
L 706 4075 
Q 400 4075 88 4056 
Q 106 4206 88 4356 
Q 400 4344 706 4344 
L 1938 4344 
Q 2244 4344 2556 4356 
z
M 1719 4731 
L 1413 4369 
L 569 4944 
L 869 5306 
L 1719 4731 
z
M 1900 1144 
L 656 1144 
L 656 -50 
L 1900 -50 
L 1900 1144 
z
" transform="scale(0.015625)"/>
      <path id="WenQuanYiZenHei-20" transform="scale(0.015625)"/>
      <path id="WenQuanYiZenHei-54" d="M 3119 3913 
L 1869 3913 
L 1869 0 
L 1319 0 
L 1319 3913 
L 69 3913 
L 69 4388 
L 3119 4388 
L 3119 3913 
z
" transform="scale(0.015625)"/>
      <path id="WenQuanYiZenHei-6f" d="M 3175 1644 
Q 3175 813 2681 331 
Q 2281 -63 1663 -63 
Q 856 -63 481 656 
Q 256 1088 256 1650 
Q 256 2494 763 2969 
Q 1150 3338 1750 3338 
Q 2525 3338 2919 2656 
Q 3175 2219 3175 1644 
z
M 2619 1650 
Q 2619 2481 2181 2788 
Q 1981 2925 1706 2925 
Q 1069 2925 875 2188 
Q 813 1938 813 1650 
Q 813 750 1288 463 
Q 1463 350 1706 350 
Q 2400 350 2575 1169 
Q 2619 1394 2619 1650 
z
" transform="scale(0.015625)"/>
      <path id="WenQuanYiZenHei-70" d="M 3256 1650 
Q 3256 838 2856 350 
Q 2513 -63 1969 -63 
Q 1344 -63 1000 513 
L 1000 -1063 
L 500 -1063 
L 500 3250 
L 956 3250 
L 956 2625 
L 969 2625 
Q 1169 3163 1688 3294 
Q 1825 3338 1969 3338 
Q 2713 3338 3056 2600 
Q 3256 2175 3256 1650 
z
M 2694 1631 
Q 2694 2419 2319 2731 
L 2181 2825 
Q 2038 2894 1856 2894 
Q 1419 2894 1150 2463 
Q 1106 2400 1075 2325 
Q 1000 2169 1000 2100 
L 1000 1275 
Q 1000 875 1319 581 
Q 1563 356 1856 356 
Q 2525 356 2669 1238 
Q 2694 1419 2694 1631 
z
" transform="scale(0.015625)"/>
     </defs>
     <use xlink:href="#WenQuanYiZenHei-31"/>
     <use xlink:href="#WenQuanYiZenHei-31" transform="translate(59.960938 0)"/>
     <use xlink:href="#WenQuanYiZenHei-32" transform="translate(119.921875 0)"/>
     <use xlink:href="#WenQuanYiZenHei-5e74" transform="translate(179.882812 0)"/>
     <use xlink:href="#WenQuanYiZenHei-5ea6" transform="translate(279.882812 0)"/>
     <use xlink:href="#WenQuanYiZenHei-570b" transform="translate(379.882812 0)"/>
     <use xlink:href="#WenQuanYiZenHei-5bb6" transform="translate(479.882812 0)"/>
     <use xlink:href="#WenQuanYiZenHei-8ca1" transform="translate(579.882812 0)"/>
     <use xlink:href="#WenQuanYiZenHei-653f" transform="translate(679.882812 0)"/>
     <use xlink:href="#WenQuanYiZenHei-90e8" transform="translate(779.882812 0)"/>
     <use xlink:href="#WenQuanYiZenHei-51fa" transform="translate(879.882812 0)"/>
     <use xlink:href="#WenQuanYiZenHei-53e3" transform="translate(979.882812 0)"/>
     <use xlink:href="#WenQuanYiZenHei-7d71" transform="translate(1079.882812 0)"/>
     <use xlink:href="#WenQuanYiZenHei-8a08" transform="translate(1179.882812 0)"/>
     <use xlink:href="#WenQuanYiZenHei-20" transform="translate(1279.882812 0)"/>
     <use xlink:href="#WenQuanYiZenHei-28" transform="translate(1309.863281 0)"/>
     <use xlink:href="#WenQuanYiZenHei-31" transform="translate(1339.84375 0)"/>
     <use xlink:href="#WenQuanYiZenHei-29" transform="translate(1399.804688 0)"/>
     <use xlink:href="#WenQuanYiZenHei-98df" transform="translate(1429.785156 0)"/>
     <use xlink:href="#WenQuanYiZenHei-7528" transform="translate(1529.785156 0)"/>
     <use xlink:href="#WenQuanYiZenHei-852c" transform="translate(1629.785156 0)"/>
     <use xlink:href="#WenQuanYiZenHei-83dc" transform="translate(1729.785156 0)"/>
     <use xlink:href="#WenQuanYiZenHei-20" transform="translate(1829.785156 0)"/>
     <use xlink:href="#WenQuanYiZenHei-54" transform="translate(1859.765625 0)"/>
     <use xlink:href="#WenQuanYiZenHei-6f" transform="translate(1909.765625 0)"/>
     <use xlink:href="#WenQuanYiZenHei-70" transform="translate(1963.671875 0)"/>
     <use xlink:href="#WenQuanYiZenHei-20" transform="translate(2017.578125 0)"/>
     <use xlink:href="#WenQuanYiZenHei-31" transform="translate(2047.558594 0)"/>
     <use xlink:href="#WenQuanYiZenHei-30" transform="translate(2107.519531 0)"/>
    </g>
   </g>
  </g>
 </g>
 <defs>
  <clipPath id="pc6c7ca35ad">
   <rect x="68.40625" y="23.39625" width="502.2" height="332.64"/>
  </clipPath>
 </defs>
</svg>
