<?xml version="1.0" encoding="utf-8" standalone="no"?>
<!DOCTYPE svg PUBLIC "-//W3C//DTD SVG 1.1//EN"
  "http://www.w3.org/Graphics/SVG/1.1/DTD/svg11.dtd">
<svg xmlns:xlink="http://www.w3.org/1999/xlink" width="568.70625pt" height="392.68625pt" viewBox="0 0 568.70625 392.68625" xmlns="http://www.w3.org/2000/svg" version="1.1">
 <metadata>
  <rdf:RDF xmlns:dc="http://purl.org/dc/elements/1.1/" xmlns:cc="http://creativecommons.org/ns#" xmlns:rdf="http://www.w3.org/1999/02/22-rdf-syntax-ns#">
   <cc:Work>
    <dc:type rdf:resource="http://purl.org/dc/dcmitype/StillImage"/>
    <dc:date>2026-01-15T11:53:15.705126</dc:date>
    <dc:format>image/svg+xml</dc:format>
    <dc:creator>
     <cc:Agent>
      <dc:title>Matplotlib v3.10.8, https://matplotlib.org/</dc:title>
     </cc:Agent>
    </dc:creator>
   </cc:Work>
  </rdf:RDF>
 </metadata>
 <defs>
  <style type="text/css">*{stroke-linejoin: round; stroke-linecap: butt}</style>
 </defs>
 <g id="figure_1">
  <g id="patch_1">
   <path d="M -0 392.68625 
L 568.70625 392.68625 
L 568.70625 0 
L -0 0 
z
" style="fill: #ffffff"/>
  </g>
  <g id="axes_1">
   <g id="patch_2">
    <path d="M 59.30625 356.03625 
L 561.50625 356.03625 
L 561.50625 23.39625 
L 59.30625 23.39625 
z
" style="fill: #ffffff"/>
   </g>
   <g id="matplotlib.axis_1">
    <g id="xtick_1">
     <g id="line2d_1">
      <defs>
       <path id="m700469b045" d="M 0 0 
L 0 3.5 
" style="stroke: #000000; stroke-width: 0.8"/>
      </defs>
      <g>
       <use xlink:href="#m700469b045" x="82.133523" y="356.03625" style="stroke: #000000; stroke-width: 0.8"/>
      </g>
     </g>
     <g id="text_1">
      <!-- 104 -->
      <g transform="translate(73.13821 369.8925) scale(0.1 -0.1)">
       <defs>
        <path id="WenQuanYiZenHei-31" d="M 3556 0 
L 488 0 
L 488 406 
L 1800 406 
L 1800 3725 
Q 1231 3125 588 2788 
L 588 3338 
Q 1456 3781 1931 4388 
L 2331 4388 
L 2331 406 
L 3556 406 
L 3556 0 
z
" transform="scale(0.015625)"/>
        <path id="WenQuanYiZenHei-30" d="M 3581 2175 
Q 3581 1288 3169 638 
Q 2713 -63 1938 -63 
Q 1025 -63 563 831 
Q 256 1425 256 2188 
Q 256 3188 700 3819 
Q 1138 4456 1888 4456 
Q 2863 4456 3306 3500 
Q 3581 2925 3581 2175 
z
M 3019 2100 
Q 3019 3356 2500 3806 
L 2350 3919 
Q 2144 4031 1888 4031 
Q 1100 4031 888 2956 
Q 819 2625 819 2225 
Q 819 1013 1338 569 
Q 1588 356 1938 356 
Q 2675 356 2925 1294 
Q 3019 1663 3019 2100 
z
" transform="scale(0.015625)"/>
        <path id="WenQuanYiZenHei-34" d="M 3631 1025 
L 2913 1025 
L 2913 0 
L 2381 0 
L 2381 1025 
L 219 1025 
L 219 1388 
L 2225 4388 
L 2913 4388 
L 2913 1444 
L 3631 1444 
L 3631 1025 
z
M 2381 1444 
L 2381 3963 
L 788 1444 
L 2381 1444 
z
" transform="scale(0.015625)"/>
       </defs>
       <use xlink:href="#WenQuanYiZenHei-31"/>
       <use xlink:href="#WenQuanYiZenHei-30" transform="translate(59.960938 0)"/>
       <use xlink:href="#WenQuanYiZenHei-34" transform="translate(119.921875 0)"/>
      </g>
     </g>
    </g>
    <g id="xtick_2">
     <g id="line2d_2">
      <g>
       <use xlink:href="#m700469b045" x="127.788068" y="356.03625" style="stroke: #000000; stroke-width: 0.8"/>
      </g>
     </g>
     <g id="text_2">
      <!-- 105 -->
      <g transform="translate(118.792756 369.8925) scale(0.1 -0.1)">
       <defs>
        <path id="WenQuanYiZenHei-35" d="M 3531 1488 
Q 3531 688 2913 250 
Q 2456 -63 1844 -63 
Q 1175 -63 706 350 
Q 413 613 306 975 
L 781 1131 
Q 1000 538 1569 406 
Q 1706 369 1856 369 
Q 2550 369 2850 869 
Q 3000 1131 3000 1494 
Q 3000 2056 2581 2356 
Q 2319 2538 1969 2538 
Q 1400 2538 1031 2075 
Q 981 2013 938 1938 
L 500 2031 
L 644 4388 
L 3244 4388 
L 3200 3919 
L 1044 3919 
L 950 2500 
Q 1431 2975 2006 2975 
Q 2713 2975 3163 2475 
Q 3531 2063 3531 1488 
z
" transform="scale(0.015625)"/>
       </defs>
       <use xlink:href="#WenQuanYiZenHei-31"/>
       <use xlink:href="#WenQuanYiZenHei-30" transform="translate(59.960938 0)"/>
       <use xlink:href="#WenQuanYiZenHei-35" transform="translate(119.921875 0)"/>
      </g>
     </g>
    </g>
    <g id="xtick_3">
     <g id="line2d_3">
      <g>
       <use xlink:href="#m700469b045" x="173.442614" y="356.03625" style="stroke: #000000; stroke-width: 0.8"/>
      </g>
     </g>
     <g id="text_3">
      <!-- 106 -->
      <g transform="translate(164.447301 369.8925) scale(0.1 -0.1)">
       <defs>
        <path id="WenQuanYiZenHei-36" d="M 3550 1431 
Q 3550 725 3006 288 
Q 2581 -63 1994 -63 
Q 1013 -63 563 825 
Q 288 1363 288 2081 
Q 288 3294 856 3938 
Q 1319 4456 2075 4456 
Q 2969 4456 3363 3756 
Q 3431 3631 3481 3481 
L 2988 3350 
Q 2750 3994 2075 4006 
Q 1056 4006 844 2669 
Q 794 2356 794 1981 
L 806 1981 
Q 1006 2506 1544 2744 
Q 1819 2869 2119 2869 
Q 2788 2869 3213 2375 
Q 3550 1975 3550 1431 
z
M 3038 1406 
Q 3038 1906 2656 2213 
Q 2381 2431 2038 2431 
Q 1525 2431 1181 2044 
Q 919 1744 919 1356 
Q 919 881 1344 581 
Q 1631 375 1981 375 
Q 2519 375 2838 781 
Q 3038 1050 3038 1406 
z
" transform="scale(0.015625)"/>
       </defs>
       <use xlink:href="#WenQuanYiZenHei-31"/>
       <use xlink:href="#WenQuanYiZenHei-30" transform="translate(59.960938 0)"/>
       <use xlink:href="#WenQuanYiZenHei-36" transform="translate(119.921875 0)"/>
      </g>
     </g>
    </g>
    <g id="xtick_4">
     <g id="line2d_4">
      <g>
       <use xlink:href="#m700469b045" x="219.097159" y="356.03625" style="stroke: #000000; stroke-width: 0.8"/>
      </g>
     </g>
     <g id="text_4">
      <!-- 107 -->
      <g transform="translate(210.101847 369.8925) scale(0.1 -0.1)">
       <defs>
        <path id="WenQuanYiZenHei-37" d="M 3400 4056 
Q 1838 2175 1838 0 
L 1275 0 
Q 1269 1438 2056 2825 
Q 2381 3400 2825 3913 
L 444 3913 
L 500 4388 
L 3400 4388 
L 3400 4056 
z
" transform="scale(0.015625)"/>
       </defs>
       <use xlink:href="#WenQuanYiZenHei-31"/>
       <use xlink:href="#WenQuanYiZenHei-30" transform="translate(59.960938 0)"/>
       <use xlink:href="#WenQuanYiZenHei-37" transform="translate(119.921875 0)"/>
      </g>
     </g>
    </g>
    <g id="xtick_5">
     <g id="line2d_5">
      <g>
       <use xlink:href="#m700469b045" x="264.751705" y="356.03625" style="stroke: #000000; stroke-width: 0.8"/>
      </g>
     </g>
     <g id="text_5">
      <!-- 108 -->
      <g transform="translate(255.756392 369.8925) scale(0.1 -0.1)">
       <defs>
        <path id="WenQuanYiZenHei-38" d="M 3619 1175 
Q 3619 431 2850 100 
Q 2444 -63 1944 -63 
Q 1231 -63 725 269 
Q 225 594 225 1125 
Q 225 1881 1269 2281 
Q 719 2481 519 2938 
Q 444 3119 444 3319 
Q 444 4000 1144 4294 
Q 1519 4456 1963 4456 
Q 2669 4456 3094 4094 
Q 3425 3813 3425 3369 
Q 3425 2638 2575 2356 
Q 3231 2056 3450 1725 
Q 3619 1488 3619 1175 
z
M 2944 3344 
Q 2944 3906 2288 4019 
Q 2138 4044 1969 4044 
Q 1438 4044 1163 3775 
Q 1000 3613 1000 3375 
Q 1000 2925 1594 2663 
Q 1756 2588 1931 2550 
Q 2581 2725 2788 2956 
Q 2944 3125 2944 3344 
z
M 3075 1094 
Q 3075 1738 1875 2050 
Q 1094 1881 850 1463 
Q 763 1313 763 1131 
Q 763 569 1456 406 
Q 1681 344 1944 344 
Q 2519 344 2850 619 
Q 3075 813 3075 1094 
z
" transform="scale(0.015625)"/>
       </defs>
       <use xlink:href="#WenQuanYiZenHei-31"/>
       <use xlink:href="#WenQuanYiZenHei-30" transform="translate(59.960938 0)"/>
       <use xlink:href="#WenQuanYiZenHei-38" transform="translate(119.921875 0)"/>
      </g>
     </g>
    </g>
    <g id="xtick_6">
     <g id="line2d_6">
      <g>
       <use xlink:href="#m700469b045" x="310.40625" y="356.03625" style="stroke: #000000; stroke-width: 0.8"/>
      </g>
     </g>
     <g id="text_6">
      <!-- 109 -->
      <g transform="translate(301.410938 369.8925) scale(0.1 -0.1)">
       <defs>
        <path id="WenQuanYiZenHei-39" d="M 3544 2300 
Q 3544 1163 3019 513 
Q 2563 -63 1775 -63 
Q 956 -63 563 488 
Q 463 631 394 813 
L 838 975 
Q 1025 494 1550 388 
Q 1656 369 1775 369 
Q 2594 369 2900 1325 
Q 3044 1769 3038 2313 
L 3025 2313 
Q 2675 1638 1944 1544 
Q 1844 1531 1744 1531 
Q 1050 1531 625 2031 
Q 294 2419 294 2963 
Q 294 3656 813 4094 
Q 1238 4456 1819 4456 
Q 2988 4456 3381 3363 
Q 3544 2900 3544 2300 
z
M 2925 2994 
Q 2925 3563 2469 3844 
Q 2206 4006 1863 4006 
Q 1275 4006 988 3563 
Q 844 3344 825 3056 
Q 819 3006 819 2956 
Q 819 2413 1269 2131 
Q 1538 1963 1875 1963 
Q 2363 1963 2681 2350 
Q 2925 2638 2925 2994 
z
" transform="scale(0.015625)"/>
       </defs>
       <use xlink:href="#WenQuanYiZenHei-31"/>
       <use xlink:href="#WenQuanYiZenHei-30" transform="translate(59.960938 0)"/>
       <use xlink:href="#WenQuanYiZenHei-39" transform="translate(119.921875 0)"/>
      </g>
     </g>
    </g>
    <g id="xtick_7">
     <g id="line2d_7">
      <g>
       <use xlink:href="#m700469b045" x="356.060795" y="356.03625" style="stroke: #000000; stroke-width: 0.8"/>
      </g>
     </g>
     <g id="text_7">
      <!-- 110 -->
      <g transform="translate(347.065483 369.8925) scale(0.1 -0.1)">
       <use xlink:href="#WenQuanYiZenHei-31"/>
       <use xlink:href="#WenQuanYiZenHei-31" transform="translate(59.960938 0)"/>
       <use xlink:href="#WenQuanYiZenHei-30" transform="translate(119.921875 0)"/>
      </g>
     </g>
    </g>
    <g id="xtick_8">
     <g id="line2d_8">
      <g>
       <use xlink:href="#m700469b045" x="401.715341" y="356.03625" style="stroke: #000000; stroke-width: 0.8"/>
      </g>
     </g>
     <g id="text_8">
      <!-- 111 -->
      <g transform="translate(392.720028 369.8925) scale(0.1 -0.1)">
       <use xlink:href="#WenQuanYiZenHei-31"/>
       <use xlink:href="#WenQuanYiZenHei-31" transform="translate(59.960938 0)"/>
       <use xlink:href="#WenQuanYiZenHei-31" transform="translate(119.921875 0)"/>
      </g>
     </g>
    </g>
    <g id="xtick_9">
     <g id="line2d_9">
      <g>
       <use xlink:href="#m700469b045" x="447.369886" y="356.03625" style="stroke: #000000; stroke-width: 0.8"/>
      </g>
     </g>
     <g id="text_9">
      <!-- 112 -->
      <g transform="translate(438.374574 369.8925) scale(0.1 -0.1)">
       <defs>
        <path id="WenQuanYiZenHei-32" d="M 3488 0 
L 369 0 
L 369 456 
L 2150 1850 
Q 2931 2463 2931 3144 
Q 2931 3619 2488 3863 
Q 2231 4013 1931 4013 
Q 1425 4013 1113 3619 
Q 894 3356 881 3013 
L 369 3169 
Q 531 3981 1213 4300 
Q 1544 4456 1950 4456 
Q 2631 4456 3088 4044 
L 3225 3888 
L 3350 3706 
Q 3481 3444 3481 3144 
Q 3481 2313 2519 1569 
L 1069 456 
L 3488 456 
L 3488 0 
z
" transform="scale(0.015625)"/>
       </defs>
       <use xlink:href="#WenQuanYiZenHei-31"/>
       <use xlink:href="#WenQuanYiZenHei-31" transform="translate(59.960938 0)"/>
       <use xlink:href="#WenQuanYiZenHei-32" transform="translate(119.921875 0)"/>
      </g>
     </g>
    </g>
    <g id="xtick_10">
     <g id="line2d_10">
      <g>
       <use xlink:href="#m700469b045" x="493.024432" y="356.03625" style="stroke: #000000; stroke-width: 0.8"/>
      </g>
     </g>
     <g id="text_10">
      <!-- 113 -->
      <g transform="translate(484.029119 369.8925) scale(0.1 -0.1)">
       <defs>
        <path id="WenQuanYiZenHei-33" d="M 3588 1231 
Q 3588 494 2875 144 
Q 2450 -63 1925 -63 
Q 1044 -63 556 488 
Q 356 706 256 1000 
L 769 1169 
Q 994 375 1913 375 
Q 2631 375 2900 788 
Q 3019 975 3019 1231 
Q 3019 1638 2638 1881 
Q 2325 2081 1613 2069 
L 1338 2069 
L 1338 2494 
Q 1969 2494 2094 2506 
Q 2325 2544 2463 2613 
Q 2763 2756 2844 3100 
Q 2863 3169 2863 3244 
Q 2863 3744 2381 3944 
L 2163 4006 
Q 2056 4025 1931 4025 
Q 1388 4025 1075 3631 
Q 969 3488 906 3313 
L 419 3456 
Q 675 4150 1400 4369 
Q 1669 4456 1975 4456 
Q 2694 4456 3106 4050 
Q 3419 3744 3419 3275 
Q 3419 2813 3025 2513 
Q 2825 2356 2575 2319 
L 2575 2306 
Q 3181 2213 3450 1769 
Q 3588 1525 3588 1231 
z
" transform="scale(0.015625)"/>
       </defs>
       <use xlink:href="#WenQuanYiZenHei-31"/>
       <use xlink:href="#WenQuanYiZenHei-31" transform="translate(59.960938 0)"/>
       <use xlink:href="#WenQuanYiZenHei-33" transform="translate(119.921875 0)"/>
      </g>
     </g>
    </g>
    <g id="xtick_11">
     <g id="line2d_11">
      <g>
       <use xlink:href="#m700469b045" x="538.678977" y="356.03625" style="stroke: #000000; stroke-width: 0.8"/>
      </g>
     </g>
     <g id="text_11">
      <!-- 114 -->
      <g transform="translate(529.683665 369.8925) scale(0.1 -0.1)">
       <use xlink:href="#WenQuanYiZenHei-31"/>
       <use xlink:href="#WenQuanYiZenHei-31" transform="translate(59.960938 0)"/>
       <use xlink:href="#WenQuanYiZenHei-34" transform="translate(119.921875 0)"/>
      </g>
     </g>
    </g>
    <g id="text_12">
     <!-- (2)其他基本金屬及其製品 -->
     <g transform="translate(254.409375 383.776875) scale(0.1 -0.1)">
      <defs>
       <path id="WenQuanYiZenHei-28" d="M 1606 -1094 
L 1275 -1094 
Q 475 -100 338 1231 
Q 319 1438 319 1656 
Q 319 3031 1156 4244 
Q 1213 4313 1269 4388 
L 1600 4388 
Q 806 3169 794 1681 
Q 794 188 1606 -1094 
z
" transform="scale(0.015625)"/>
       <path id="WenQuanYiZenHei-29" d="M 1600 1656 
Q 1600 306 869 -788 
Q 769 -950 644 -1094 
L 313 -1094 
Q 1125 188 1125 1681 
Q 1125 3169 338 4363 
Q 325 4375 319 4388 
L 650 4388 
Q 1525 3231 1594 1863 
Q 1600 1763 1600 1656 
z
" transform="scale(0.015625)"/>
       <path id="WenQuanYiZenHei-5176" d="M 5438 -869 
Q 4681 -138 3719 288 
L 3913 731 
Q 4956 269 5775 -525 
L 5438 -869 
z
M 6138 1088 
Q 6119 906 6138 725 
Q 5800 738 5463 738 
L 1988 738 
Q 2163 588 2369 469 
Q 1694 -525 388 -1013 
Q 344 -781 175 -619 
Q 744 -431 1150 -106 
Q 1556 219 1969 738 
L 806 738 
Q 475 738 138 725 
Q 156 906 138 1088 
Q 475 1069 806 1069 
L 1688 1069 
L 1688 4050 
L 944 4050 
Q 613 4050 275 4038 
Q 294 4219 275 4400 
Q 613 4381 944 4381 
L 1688 4381 
Q 1688 4819 1663 5256 
Q 1906 5231 2144 5256 
Q 2125 4819 2125 4381 
L 4056 4381 
Q 4056 4819 4031 5256 
Q 4275 5231 4519 5256 
Q 4494 4819 4494 4381 
L 5219 4381 
Q 5556 4381 5888 4400 
Q 5869 4219 5888 4038 
Q 5556 4050 5219 4050 
L 4494 4050 
L 4494 1069 
L 5463 1069 
Q 5800 1069 6138 1088 
z
M 4056 3356 
L 4056 4050 
L 2125 4050 
L 2125 3356 
L 4056 3356 
z
M 4056 2200 
L 4056 3025 
L 2125 3025 
L 2125 2200 
L 4056 2200 
z
M 4056 1069 
L 4056 1875 
L 2125 1875 
L 2125 1069 
L 4056 1069 
z
" transform="scale(0.015625)"/>
       <path id="WenQuanYiZenHei-4ed6" d="M 3075 -694 
Q 2819 -694 2609 -506 
Q 2400 -319 2400 81 
L 2400 2563 
L 1644 2313 
Q 1600 2513 1519 2706 
Q 1888 2800 2256 2913 
L 2400 2956 
L 2400 3188 
Q 2400 3656 2375 4119 
Q 2631 4094 2881 4119 
Q 2856 3656 2856 3188 
L 2856 3100 
L 3775 3381 
L 3775 4200 
Q 3775 4663 3756 5125 
Q 4006 5100 4256 5125 
Q 4238 4663 4238 4200 
L 4238 3525 
L 5750 3994 
L 5750 1694 
Q 5731 1431 5550 1281 
Q 5238 1044 4625 1056 
Q 4694 1375 4481 1619 
Q 4669 1594 4937 1591 
Q 5206 1588 5247 1622 
Q 5288 1656 5288 1800 
L 5288 3456 
L 4238 3131 
L 4238 1525 
Q 4238 1063 4256 594 
Q 4006 625 3756 594 
Q 3775 1063 3775 1525 
L 3775 2988 
L 2856 2706 
L 2856 81 
Q 2856 -69 2915 -172 
Q 2975 -275 3081 -275 
L 5431 -275 
Q 5556 -275 5640 -165 
Q 5725 -56 5744 94 
L 5875 969 
Q 6075 831 6319 831 
L 6138 -256 
Q 6113 -438 6016 -566 
Q 5919 -694 5775 -694 
L 3075 -694 
z
M 1975 4925 
Q 1738 4075 1369 3338 
L 1369 31 
Q 1369 -413 1388 -850 
Q 1175 -825 963 -850 
Q 981 -413 981 31 
L 981 2681 
Q 700 2269 356 1931 
Q 225 2156 0 2256 
Q 306 2544 581 2875 
Q 1025 3425 1219 3950 
Q 1400 4469 1525 5050 
Q 1731 4963 1975 4925 
z
" transform="scale(0.015625)"/>
       <path id="WenQuanYiZenHei-57fa" d="M 5769 -225 
Q 5750 -388 5769 -556 
Q 5469 -538 5163 -538 
L 1381 -538 
Q 1081 -538 775 -556 
Q 794 -394 775 -225 
Q 1081 -244 1381 -244 
L 2975 -244 
L 2975 569 
L 2281 569 
Q 1975 569 1675 550 
Q 1694 719 1675 881 
Q 1975 863 2281 863 
L 2975 863 
Q 2969 1263 2950 1663 
Q 3181 1638 3419 1663 
Q 3400 1263 3394 863 
L 4181 863 
Q 4481 863 4781 881 
Q 4763 719 4781 550 
Q 4481 569 4181 569 
L 3394 569 
L 3394 -244 
L 5163 -244 
Q 5469 -244 5769 -225 
z
M 881 1925 
Q 581 1925 275 1913 
Q 294 2075 275 2238 
Q 581 2225 881 2225 
L 1825 2225 
L 1825 4325 
L 1131 4325 
Q 831 4325 525 4313 
Q 544 4475 525 4638 
Q 831 4625 1131 4625 
L 1825 4625 
Q 1819 4944 1806 5263 
Q 2038 5238 2269 5263 
Q 2256 4944 2250 4625 
L 4163 4625 
Q 4156 4931 4144 5231 
Q 4375 5206 4606 5231 
Q 4594 4931 4588 4625 
L 5281 4625 
Q 5581 4625 5888 4638 
Q 5869 4475 5888 4313 
Q 5581 4325 5281 4325 
L 4588 4325 
L 4588 2225 
L 5444 2225 
Q 5744 2225 6050 2238 
Q 6031 2075 6050 1913 
Q 5744 1925 5444 1925 
L 4369 1925 
Q 4725 1488 5109 1244 
Q 5494 1000 6100 844 
Q 5900 694 5844 444 
Q 5288 600 4769 1009 
Q 4250 1419 3881 1925 
L 2519 1925 
Q 1844 813 388 238 
Q 344 456 175 606 
Q 725 806 1140 1122 
Q 1556 1438 1969 1925 
L 881 1925 
z
M 4163 4325 
L 2250 4325 
L 2250 3825 
L 3725 3825 
Q 3944 3825 4163 3838 
L 4163 4325 
z
M 4163 3025 
L 4163 3544 
Q 3944 3556 3725 3556 
L 2250 3556 
L 2250 3025 
L 4163 3025 
z
M 4163 2225 
L 4163 2750 
L 2250 2750 
L 2250 2225 
L 4163 2225 
z
" transform="scale(0.015625)"/>
       <path id="WenQuanYiZenHei-672c" d="M 4713 1181 
Q 4694 975 4713 769 
Q 4331 788 3950 788 
L 3369 788 
L 3369 163 
Q 3369 -300 3394 -769 
Q 3138 -738 2888 -769 
Q 2913 -300 2913 163 
L 2913 788 
L 2325 788 
Q 1944 788 1563 769 
Q 1588 975 1563 1181 
Q 1944 1163 2325 1163 
L 2913 1163 
L 2913 3200 
Q 1881 1388 463 363 
Q 331 613 69 738 
Q 1725 1856 2563 3569 
L 1081 3569 
Q 700 3569 319 3550 
Q 338 3756 319 3963 
Q 700 3944 1081 3944 
L 2913 3944 
L 2913 4331 
Q 2913 4794 2888 5263 
Q 3138 5231 3394 5263 
Q 3369 4794 3369 4331 
L 3369 3944 
L 5200 3944 
Q 5581 3944 5963 3963 
Q 5938 3756 5963 3550 
Q 5581 3569 5200 3569 
L 3738 3569 
Q 4181 2650 4728 2034 
Q 5275 1419 6163 900 
Q 5906 806 5769 569 
Q 4906 1100 4294 1894 
Q 3756 2588 3369 3375 
L 3369 1163 
L 3950 1163 
Q 4331 1163 4713 1181 
z
" transform="scale(0.015625)"/>
       <path id="WenQuanYiZenHei-91d1" d="M 3319 4794 
Q 4200 3331 6106 2888 
Q 5894 2725 5838 2469 
Q 5019 2675 4287 3203 
Q 3556 3731 3075 4438 
Q 2425 3525 1656 2863 
Q 1963 2850 2269 2850 
L 4088 2850 
Q 4425 2850 4756 2869 
Q 4738 2688 4756 2506 
Q 4425 2519 4088 2519 
L 3356 2519 
L 3356 1669 
L 4706 1669 
Q 5038 1669 5375 1688 
Q 5356 1506 5375 1325 
Q 5038 1338 4706 1338 
L 3356 1338 
L 3356 -131 
L 3650 -131 
Q 3831 119 4194 725 
L 4488 1206 
Q 4681 1063 4906 963 
L 4763 719 
L 4481 288 
L 4181 -131 
L 5256 -131 
Q 5594 -131 5931 -113 
Q 5913 -294 5931 -475 
Q 5594 -463 5256 -463 
L 3944 -463 
Q 3938 -481 3925 -463 
L 1219 -463 
Q 888 -463 550 -475 
Q 569 -294 550 -113 
Q 888 -131 1219 -131 
L 1944 -131 
Q 1606 419 1206 919 
L 1581 1225 
Q 2025 681 2381 75 
L 2044 -131 
L 2919 -131 
L 2919 1338 
L 1700 1338 
Q 1363 1338 1025 1325 
Q 1050 1506 1025 1688 
Q 1363 1669 1700 1669 
L 2919 1669 
L 2919 2519 
L 2269 2519 
Q 1931 2519 1600 2506 
Q 1613 2663 1600 2819 
Q 1038 2344 425 2025 
Q 331 2288 106 2438 
Q 1456 3100 2131 3950 
Q 2575 4544 2950 5200 
Q 3169 5050 3419 4944 
L 3319 4794 
z
" transform="scale(0.015625)"/>
       <path id="WenQuanYiZenHei-5c6c" d="M 3344 456 
L 2069 456 
Q 2131 806 2088 1144 
Q 1813 813 1406 469 
Q 1344 575 1250 650 
Q 1075 -125 556 -638 
Q 400 -450 163 -431 
Q 606 -88 787 418 
Q 969 925 969 1681 
L 963 5219 
L 5944 5219 
L 5944 4238 
Q 5694 4238 5444 4238 
Q 5488 4056 5563 3881 
Q 5531 3875 4844 3656 
L 5656 3338 
L 5500 2944 
L 4413 3369 
L 4475 3519 
L 4438 3500 
Q 4394 3700 4238 3838 
Q 4419 3906 4728 4031 
Q 5038 4156 5281 4238 
L 4019 4238 
L 4019 3756 
Q 4019 3363 4038 2975 
Q 3825 3000 3613 2975 
Q 3631 3300 3631 3575 
L 3631 4238 
L 1344 4238 
L 1350 1681 
Q 1350 1238 1294 875 
Q 1775 1306 2213 2131 
L 1606 2131 
Q 1675 2538 1606 2944 
L 1819 2944 
Q 1819 3188 1694 3400 
Q 2200 3375 2844 3525 
L 1850 3800 
L 1963 4206 
L 3038 3906 
L 2938 3544 
L 3175 3600 
L 3175 3394 
Q 2313 3131 1850 2944 
L 5775 2944 
Q 5700 2538 5769 2131 
L 2444 2131 
Q 2544 2081 2650 2050 
Q 2594 1931 2538 1819 
L 6050 1819 
L 6050 -250 
Q 6025 -581 5763 -688 
Q 5531 -794 5225 -794 
Q 5281 -519 5106 -300 
L 4938 -419 
L 4700 -88 
Q 2863 -238 1763 -381 
Q 1813 -131 1725 100 
Q 2525 38 3344 56 
L 3344 456 
z
M 5669 -144 
L 5669 1588 
L 3731 1588 
L 3731 1263 
L 4963 1263 
Q 4894 863 4956 456 
L 4831 456 
L 5281 -169 
L 5113 -294 
Q 5388 -375 5625 -325 
Q 5669 -300 5669 -144 
z
M 3731 456 
L 3731 69 
Q 4063 81 4563 113 
L 4456 256 
L 4744 456 
L 3731 456 
z
M 3344 1263 
L 3344 1588 
L 2406 1588 
Q 2300 1419 2181 1263 
L 3344 1263 
z
M 3731 1025 
L 3731 694 
L 4575 694 
L 4575 1025 
L 3731 1025 
z
M 3344 1025 
L 2456 1025 
L 2456 694 
L 3344 694 
L 3344 1025 
z
M 4456 2713 
L 4456 2363 
L 5388 2363 
L 5388 2713 
L 4456 2713 
z
M 4075 2713 
L 3156 2713 
L 3156 2363 
L 4075 2363 
L 4075 2713 
z
M 2775 2713 
L 1988 2713 
L 1988 2363 
L 2775 2363 
L 2775 2713 
z
M 1344 4469 
L 5556 4469 
L 5556 4988 
L 1344 4988 
Q 1344 4731 1344 4469 
z
" transform="scale(0.015625)"/>
       <path id="WenQuanYiZenHei-53ca" d="M 1725 4575 
Q 1300 4575 881 4550 
Q 906 4781 881 5006 
Q 1300 4988 1725 4988 
L 4794 4988 
L 3894 3113 
L 5181 3113 
Q 4938 1769 4006 756 
Q 4881 38 6119 -269 
Q 5894 -438 5831 -713 
Q 4650 -425 3688 444 
Q 2663 -488 1294 -725 
Q 1181 -469 994 -269 
Q 1663 -213 2269 56 
Q 2875 325 3356 763 
Q 2669 1488 2175 2475 
Q 1669 594 506 -681 
Q 319 -456 31 -388 
Q 1494 1163 1844 3225 
L 1806 3319 
L 1863 3338 
Q 1950 3919 1963 4575 
L 1725 4575 
z
M 2331 3156 
Q 2869 1875 3656 1075 
Q 4281 1781 4513 2700 
L 3169 2700 
L 4069 4575 
L 2481 4575 
Q 2463 3869 2331 3156 
z
" transform="scale(0.015625)"/>
       <path id="WenQuanYiZenHei-88fd" d="M 1838 -238 
L 1838 369 
Q 1213 -25 394 -375 
Q 344 -163 175 -25 
Q 1056 325 1888 944 
L 2306 1269 
L 844 1269 
Q 569 1269 294 1256 
Q 306 1406 294 1556 
Q 569 1544 844 1544 
L 2988 1544 
L 2631 1813 
L 2819 2056 
L 2744 2056 
Q 2800 2331 2631 2556 
Q 2913 2519 3188 2538 
Q 3231 2544 3231 2600 
L 3231 3125 
L 2381 3125 
L 2381 2825 
Q 2381 2406 2406 1994 
Q 2181 2019 1956 1994 
Q 1975 2406 1975 2825 
L 1975 3125 
L 1150 3125 
L 1150 2919 
Q 1156 2506 1181 2088 
Q 950 2106 731 2081 
Q 744 2500 738 2913 
L 731 3363 
L 1144 3369 
L 1144 3338 
L 1975 3338 
L 1975 3713 
L 1194 3713 
Q 944 3713 694 3700 
Q 700 3763 700 3831 
L 531 3650 
Q 406 3825 200 3888 
Q 450 4131 625 4409 
Q 800 4688 994 5138 
Q 1200 5038 1413 4975 
Q 1344 4781 1256 4613 
L 1975 4613 
Q 1969 4938 1956 5256 
Q 2181 5238 2406 5256 
Q 2388 4938 2381 4613 
L 3006 4613 
Q 3288 4613 3563 4631 
Q 3544 4481 3563 4331 
Q 3288 4344 3006 4344 
L 2381 4344 
L 2381 3956 
L 3238 3956 
Q 3488 3956 3738 3969 
Q 3725 3831 3738 3700 
Q 3488 3713 3238 3713 
L 2381 3713 
L 2381 3338 
L 3644 3338 
L 3644 2563 
Q 3644 2394 3469 2259 
Q 3294 2125 3025 2081 
L 3575 1663 
L 3481 1544 
L 5438 1544 
Q 5713 1544 5988 1556 
Q 5975 1406 5988 1256 
Q 5713 1269 5438 1269 
L 3319 1269 
Q 3681 856 4044 569 
Q 4481 838 4975 1238 
Q 5100 1044 5256 888 
Q 4944 619 4406 313 
Q 5075 -106 6081 -269 
Q 5900 -431 5863 -675 
Q 4981 -538 4231 -28 
Q 3481 481 2894 1194 
Q 2594 894 2250 644 
L 2250 -213 
L 3475 63 
L 3500 -219 
Q 3269 -250 2778 -412 
Q 2288 -575 1888 -744 
L 1794 -344 
Q 1838 -300 1838 -238 
z
M 5256 2681 
L 5256 4425 
Q 5256 4844 5238 5256 
Q 5463 5238 5688 5256 
Q 5669 4844 5669 4425 
L 5669 2538 
Q 5650 2169 5369 2044 
Q 5094 1919 4694 1925 
Q 4756 2206 4575 2425 
Q 4731 2400 4943 2397 
Q 5156 2394 5206 2431 
Q 5256 2469 5256 2681 
z
M 4638 2731 
Q 4413 2756 4188 2731 
Q 4206 3144 4206 3563 
L 4206 3919 
Q 4206 4338 4188 4750 
Q 4413 4725 4638 4750 
Q 4619 4338 4619 3919 
L 4619 3563 
Q 4619 3144 4638 2731 
z
M 1975 3956 
L 1975 4344 
L 1094 4344 
Q 969 4156 813 3963 
L 1975 3956 
z
" transform="scale(0.015625)"/>
       <path id="WenQuanYiZenHei-54c1" d="M 4025 -769 
Q 3788 -744 3544 -769 
Q 3569 -331 3569 113 
L 3569 2106 
L 5925 2106 
L 5925 -756 
L 5488 -756 
L 5488 -288 
L 4006 -288 
Q 4013 -531 4025 -769 
z
M 781 -769 
Q 544 -744 306 -769 
Q 325 -331 325 113 
L 325 2106 
L 2681 2106 
L 2681 -756 
L 2250 -756 
L 2250 -288 
L 763 -288 
Q 769 -531 781 -769 
z
M 1913 2588 
L 1481 2588 
L 1481 5075 
L 4938 5069 
L 4938 2588 
L 4506 2588 
L 4506 2944 
L 1913 2944 
L 1913 2588 
z
M 5488 1788 
L 4000 1788 
L 4000 31 
L 5488 31 
L 5488 1788 
z
M 2250 1788 
L 763 1788 
L 763 31 
L 2250 31 
L 2250 1788 
z
M 4506 4750 
L 1913 4750 
L 1913 3263 
L 4506 3263 
L 4506 4750 
z
" transform="scale(0.015625)"/>
      </defs>
      <use xlink:href="#WenQuanYiZenHei-28"/>
      <use xlink:href="#WenQuanYiZenHei-32" transform="translate(29.980469 0)"/>
      <use xlink:href="#WenQuanYiZenHei-29" transform="translate(89.941406 0)"/>
      <use xlink:href="#WenQuanYiZenHei-5176" transform="translate(119.921875 0)"/>
      <use xlink:href="#WenQuanYiZenHei-4ed6" transform="translate(219.921875 0)"/>
      <use xlink:href="#WenQuanYiZenHei-57fa" transform="translate(319.921875 0)"/>
      <use xlink:href="#WenQuanYiZenHei-672c" transform="translate(419.921875 0)"/>
      <use xlink:href="#WenQuanYiZenHei-91d1" transform="translate(519.921875 0)"/>
      <use xlink:href="#WenQuanYiZenHei-5c6c" transform="translate(619.921875 0)"/>
      <use xlink:href="#WenQuanYiZenHei-53ca" transform="translate(719.921875 0)"/>
      <use xlink:href="#WenQuanYiZenHei-5176" transform="translate(819.921875 0)"/>
      <use xlink:href="#WenQuanYiZenHei-88fd" transform="translate(919.921875 0)"/>
      <use xlink:href="#WenQuanYiZenHei-54c1" transform="translate(1019.921875 0)"/>
     </g>
    </g>
   </g>
   <g id="matplotlib.axis_2">
    <g id="ytick_1">
     <g id="line2d_12">
      <defs>
       <path id="mb3bd4cf442" d="M 0 0 
L -2 0 
" style="stroke: #000000; stroke-width: 0.6"/>
      </defs>
      <g>
       <use xlink:href="#mb3bd4cf442" x="59.30625" y="323.767141" style="stroke: #000000; stroke-width: 0.6"/>
      </g>
     </g>
     <g id="text_13">
      <!-- $\mathdefault{2\times10^{6}}$ -->
      <g transform="translate(21.40625 327.236672) scale(0.1 -0.1)">
       <defs>
        <path id="WenQuanYiZenHei-d7" d="M 3569 481 
L 3275 188 
L 1919 1550 
L 563 188 
L 269 481 
L 1625 1844 
L 269 3206 
L 563 3500 
L 1919 2138 
L 3275 3500 
L 3569 3206 
L 2213 1844 
L 3569 481 
z
" transform="scale(0.015625)"/>
       </defs>
       <use xlink:href="#WenQuanYiZenHei-32" transform="translate(0 0.715625)"/>
       <use xlink:href="#WenQuanYiZenHei-d7" transform="translate(79.443359 0.715625)"/>
       <use xlink:href="#WenQuanYiZenHei-31" transform="translate(158.886719 0.715625)"/>
       <use xlink:href="#WenQuanYiZenHei-30" transform="translate(218.847656 0.715625)"/>
       <use xlink:href="#WenQuanYiZenHei-36" transform="translate(279.697266 36.2625) scale(0.7)"/>
      </g>
     </g>
    </g>
    <g id="ytick_2">
     <g id="line2d_13">
      <g>
       <use xlink:href="#mb3bd4cf442" x="59.30625" y="198.392982" style="stroke: #000000; stroke-width: 0.6"/>
      </g>
     </g>
     <g id="text_14">
      <!-- $\mathdefault{3\times10^{6}}$ -->
      <g transform="translate(21.40625 201.862513) scale(0.1 -0.1)">
       <use xlink:href="#WenQuanYiZenHei-33" transform="translate(0 0.715625)"/>
       <use xlink:href="#WenQuanYiZenHei-d7" transform="translate(79.443359 0.715625)"/>
       <use xlink:href="#WenQuanYiZenHei-31" transform="translate(158.886719 0.715625)"/>
       <use xlink:href="#WenQuanYiZenHei-30" transform="translate(218.847656 0.715625)"/>
       <use xlink:href="#WenQuanYiZenHei-36" transform="translate(279.697266 36.2625) scale(0.7)"/>
      </g>
     </g>
    </g>
    <g id="ytick_3">
     <g id="line2d_14">
      <g>
       <use xlink:href="#mb3bd4cf442" x="59.30625" y="109.4386" style="stroke: #000000; stroke-width: 0.6"/>
      </g>
     </g>
     <g id="text_15">
      <!-- $\mathdefault{4\times10^{6}}$ -->
      <g transform="translate(21.40625 112.908131) scale(0.1 -0.1)">
       <use xlink:href="#WenQuanYiZenHei-34" transform="translate(0 0.715625)"/>
       <use xlink:href="#WenQuanYiZenHei-d7" transform="translate(79.443359 0.715625)"/>
       <use xlink:href="#WenQuanYiZenHei-31" transform="translate(158.886719 0.715625)"/>
       <use xlink:href="#WenQuanYiZenHei-30" transform="translate(218.847656 0.715625)"/>
       <use xlink:href="#WenQuanYiZenHei-36" transform="translate(279.697266 36.2625) scale(0.7)"/>
      </g>
     </g>
    </g>
    <g id="ytick_4">
     <g id="line2d_15">
      <g>
       <use xlink:href="#mb3bd4cf442" x="59.30625" y="40.440222" style="stroke: #000000; stroke-width: 0.6"/>
      </g>
     </g>
    </g>
    <g id="text_16">
     <!-- 國家/地區別 -->
     <g transform="translate(15.696875 217.313906) rotate(-90) scale(0.1 -0.1)">
      <defs>
       <path id="WenQuanYiZenHei-570b" d="M 3681 1469 
Q 3294 2275 3288 3525 
L 1738 3525 
Q 1431 3525 1131 3513 
Q 1150 3675 1131 3838 
Q 1431 3825 1738 3825 
L 3288 3825 
L 3269 4681 
Q 3500 4656 3731 4681 
L 3719 3825 
L 4450 3825 
L 4000 4431 
L 4338 4681 
L 913 4681 
L 913 25 
L 5338 25 
L 5338 4681 
L 4394 4681 
L 4900 4000 
L 4663 3825 
Q 4900 3825 5131 3838 
Q 5113 3675 5131 3513 
Q 4831 3525 4525 3525 
L 3713 3525 
Q 3706 2594 3969 1888 
Q 4213 2431 4331 3088 
Q 4581 3025 4838 3013 
Q 4650 2144 4175 1438 
Q 4381 1056 4681 756 
Q 4675 1075 4650 1388 
Q 4869 1269 5113 1288 
Q 5175 794 5106 300 
Q 5094 106 4913 75 
Q 4825 63 4756 113 
Q 4244 513 3894 1075 
Q 3338 419 2588 100 
Q 2513 356 2306 519 
Q 3169 863 3681 1469 
z
M 1063 1181 
Q 1781 1181 2363 1313 
Q 2569 1356 3013 1469 
L 3006 1200 
Q 1825 894 1188 663 
Q 1200 938 1063 1181 
z
M 931 -769 
Q 700 -750 469 -769 
Q 488 -344 488 88 
L 488 4981 
L 5763 4975 
L 5763 -763 
L 5338 -763 
L 5338 -250 
L 913 -250 
Q 919 -513 931 -769 
z
M 1731 2744 
L 1731 2069 
L 2456 2069 
L 2463 2744 
L 1731 2744 
z
M 1306 3038 
L 2888 3038 
L 2875 1769 
L 1306 1769 
L 1306 3038 
z
" transform="scale(0.015625)"/>
       <path id="WenQuanYiZenHei-5bb6" d="M 1750 3363 
Q 1438 3363 1125 3344 
Q 1144 3513 1125 3681 
Q 1438 3669 1750 3669 
L 4469 3669 
Q 4781 3669 5094 3681 
Q 5075 3513 5094 3344 
Q 4781 3363 4469 3363 
L 3294 3363 
L 3319 3338 
L 2994 3050 
Q 3488 2794 3706 2075 
Q 4088 2256 4431 2512 
Q 4775 2769 5200 3169 
Q 5350 2981 5531 2838 
Q 5069 2350 4419 1969 
Q 4663 881 5394 350 
Q 5713 119 6075 -25 
Q 5850 -150 5763 -388 
Q 5138 -125 4700 456 
Q 4263 1038 4063 1775 
L 3800 1650 
Q 3931 669 3613 -238 
Q 3550 -388 3444 -538 
Q 3219 -850 2744 -925 
Q 2675 -638 2406 -525 
Q 3038 -531 3213 -106 
Q 3419 488 3413 1181 
Q 1988 -113 431 -544 
Q 394 -275 206 -81 
Q 869 88 1512 384 
Q 2156 681 2575 1040 
Q 2994 1400 3331 1756 
L 3356 1731 
Q 3306 2000 3219 2219 
Q 1938 956 538 606 
Q 506 869 325 1069 
Q 869 1194 1387 1419 
Q 1906 1644 2256 1941 
Q 2606 2238 2894 2556 
L 3188 2281 
Q 3025 2613 2750 2694 
Q 2663 2719 2575 2706 
Q 1606 1963 638 1638 
Q 581 1900 388 2081 
Q 1575 2450 2281 3025 
Q 2431 3150 2663 3363 
L 1750 3363 
z
M 781 3469 
L 350 3469 
L 350 4669 
L 3006 4669 
L 2463 5050 
L 2731 5438 
L 3406 4963 
L 3200 4669 
L 5863 4669 
L 5863 3469 
L 5431 3469 
L 5431 4363 
L 781 4363 
L 781 3469 
z
" transform="scale(0.015625)"/>
       <path id="WenQuanYiZenHei-2f" d="M 3213 4388 
L 563 -1094 
L 138 -1094 
L 2775 4388 
L 3213 4388 
z
" transform="scale(0.015625)"/>
       <path id="WenQuanYiZenHei-5730" d="M 3238 -688 
Q 2981 -688 2775 -500 
Q 2569 -313 2569 75 
L 2569 2438 
Q 2263 2325 1956 2194 
Q 1906 2388 1819 2563 
L 2569 2825 
L 2569 3406 
Q 2569 3863 2550 4325 
Q 2800 4294 3044 4325 
Q 3025 3863 3025 3406 
L 3025 2988 
L 3819 3281 
L 3819 4344 
Q 3819 4800 3800 5263 
Q 4050 5238 4294 5263 
Q 4275 4800 4275 4344 
L 4275 3450 
L 5700 3975 
L 5700 1388 
Q 5669 994 5350 869 
Q 5050 738 4625 744 
Q 4694 1050 4488 1294 
Q 4669 1275 4916 1269 
Q 5163 1263 5203 1303 
Q 5244 1344 5244 1506 
L 5244 3425 
L 4275 3069 
L 4275 1331 
Q 4275 869 4294 413 
Q 4050 438 3800 413 
Q 3819 869 3819 1331 
L 3819 2900 
L 3025 2606 
L 3025 75 
Q 3025 -69 3081 -175 
Q 3138 -281 3244 -281 
L 5456 -275 
Q 5575 -275 5653 -165 
Q 5731 -56 5750 100 
L 5875 988 
Q 6075 850 6313 856 
L 6138 -244 
Q 6113 -431 6025 -559 
Q 5938 -688 5794 -688 
L 3238 -688 
z
M -31 625 
Q 481 763 956 975 
L 956 3206 
L 638 3206 
Q 356 3206 69 3188 
Q 88 3356 69 3531 
Q 356 3513 638 3513 
L 956 3513 
L 956 4263 
Q 956 4700 938 5131 
Q 1150 5106 1363 5131 
Q 1344 4700 1344 4263 
L 1344 3513 
L 2131 3531 
Q 2113 3356 2131 3188 
L 1344 3206 
L 1344 1163 
L 2044 1531 
L 2088 1256 
Q 1206 775 775 519 
L 188 144 
Q 131 438 -31 625 
z
" transform="scale(0.015625)"/>
       <path id="WenQuanYiZenHei-5340" d="M 3738 650 
Q 3813 1400 3738 2150 
L 5625 2150 
Q 5544 1400 5613 650 
L 3738 650 
z
M 1406 650 
Q 1488 1400 1406 2150 
L 3294 2150 
Q 3213 1400 3281 650 
L 1406 650 
z
M 2125 2756 
Q 2200 3431 2125 4106 
L 4869 4106 
Q 4788 3431 4863 2756 
L 2125 2756 
z
M 4163 1850 
L 4163 950 
L 5194 950 
L 5200 1850 
L 4163 1850 
z
M 1831 1850 
L 1831 950 
L 2863 950 
L 2869 1850 
L 1831 1850 
z
M 2544 3806 
L 2544 3056 
L 4444 3056 
L 4444 3806 
L 2544 3806 
z
M 6025 5013 
Q 6006 4844 6025 4675 
Q 5700 4688 5369 4688 
L 863 4688 
L 863 -25 
L 6131 -25 
L 6131 -338 
L 413 -338 
L 406 5000 
L 5369 5000 
Q 5700 5000 6025 5013 
z
" transform="scale(0.015625)"/>
       <path id="WenQuanYiZenHei-5225" d="M 1213 2813 
L 769 2813 
L 769 4969 
L 3263 4969 
L 3263 2813 
L 2819 2813 
L 2819 3075 
L 1850 3075 
L 1850 2281 
L 3306 2281 
L 3306 -194 
Q 3306 -431 3147 -575 
Q 2988 -719 2769 -775 
Q 2531 -831 2156 -825 
Q 2225 -519 2006 -281 
Q 2206 -306 2487 -309 
Q 2769 -313 2816 -275 
Q 2863 -238 2863 -69 
L 2863 1938 
L 1850 1938 
Q 1906 756 1350 -38 
Q 1031 -500 544 -788 
Q 419 -538 156 -450 
Q 669 -231 988 225 
Q 1406 813 1406 1663 
L 1406 3075 
Q 1313 3075 1213 3075 
L 1213 2813 
z
M 2819 4625 
L 1219 4625 
L 1213 3419 
L 2819 3419 
L 2819 4625 
z
M 4831 -888 
Q 4881 -544 4688 -350 
Q 4881 -375 5122 -378 
Q 5363 -381 5434 -325 
Q 5506 -269 5506 38 
L 5506 4181 
Q 5506 4631 5488 5075 
Q 5719 5050 5956 5075 
Q 5931 4631 5931 4181 
L 5931 -106 
Q 5931 -656 5538 -800 
Q 5206 -913 4831 -888 
z
M 4694 756 
Q 4456 781 4225 756 
Q 4244 1200 4244 1650 
L 4244 3269 
Q 4244 3713 4225 4163 
Q 4456 4138 4694 4163 
Q 4669 3713 4669 3269 
L 4669 1650 
Q 4669 1200 4694 756 
z
" transform="scale(0.015625)"/>
      </defs>
      <use xlink:href="#WenQuanYiZenHei-570b"/>
      <use xlink:href="#WenQuanYiZenHei-5bb6" transform="translate(100 0)"/>
      <use xlink:href="#WenQuanYiZenHei-2f" transform="translate(200 0)"/>
      <use xlink:href="#WenQuanYiZenHei-5730" transform="translate(251.953125 0)"/>
      <use xlink:href="#WenQuanYiZenHei-5340" transform="translate(351.953125 0)"/>
      <use xlink:href="#WenQuanYiZenHei-5225" transform="translate(451.953125 0)"/>
     </g>
    </g>
   </g>
   <g id="line2d_16">
    <path d="M 82.133523 182.560525 
L 127.788068 190.634504 
L 173.442614 109.034417 
L 219.097159 97.23087 
L 264.751705 143.933189 
L 310.40625 141.625954 
L 356.060795 38.51625 
L 401.715341 97.606811 
L 447.369886 180.021194 
L 493.024432 133.493753 
L 538.678977 110.089323 
" clip-path="url(#peb7a7c824d)" style="fill: none; stroke: #1f77b4; stroke-width: 1.5; stroke-linecap: square"/>
    <defs>
     <path id="mbe54de5ae1" d="M -3 3 
L 3 3 
L 3 -3 
L -3 -3 
z
" style="stroke: #1f77b4; stroke-linejoin: miter"/>
    </defs>
    <g clip-path="url(#peb7a7c824d)">
     <use xlink:href="#mbe54de5ae1" x="82.133523" y="182.560525" style="fill: #1f77b4; stroke: #1f77b4; stroke-linejoin: miter"/>
     <use xlink:href="#mbe54de5ae1" x="127.788068" y="190.634504" style="fill: #1f77b4; stroke: #1f77b4; stroke-linejoin: miter"/>
     <use xlink:href="#mbe54de5ae1" x="173.442614" y="109.034417" style="fill: #1f77b4; stroke: #1f77b4; stroke-linejoin: miter"/>
     <use xlink:href="#mbe54de5ae1" x="219.097159" y="97.23087" style="fill: #1f77b4; stroke: #1f77b4; stroke-linejoin: miter"/>
     <use xlink:href="#mbe54de5ae1" x="264.751705" y="143.933189" style="fill: #1f77b4; stroke: #1f77b4; stroke-linejoin: miter"/>
     <use xlink:href="#mbe54de5ae1" x="310.40625" y="141.625954" style="fill: #1f77b4; stroke: #1f77b4; stroke-linejoin: miter"/>
     <use xlink:href="#mbe54de5ae1" x="356.060795" y="38.51625" style="fill: #1f77b4; stroke: #1f77b4; stroke-linejoin: miter"/>
     <use xlink:href="#mbe54de5ae1" x="401.715341" y="97.606811" style="fill: #1f77b4; stroke: #1f77b4; stroke-linejoin: miter"/>
     <use xlink:href="#mbe54de5ae1" x="447.369886" y="180.021194" style="fill: #1f77b4; stroke: #1f77b4; stroke-linejoin: miter"/>
     <use xlink:href="#mbe54de5ae1" x="493.024432" y="133.493753" style="fill: #1f77b4; stroke: #1f77b4; stroke-linejoin: miter"/>
     <use xlink:href="#mbe54de5ae1" x="538.678977" y="110.089323" style="fill: #1f77b4; stroke: #1f77b4; stroke-linejoin: miter"/>
    </g>
   </g>
   <g id="line2d_17">
    <path d="M 82.133523 333.127921 
L 127.788068 340.91625 
L 173.442614 318.50564 
L 219.097159 268.663153 
L 264.751705 251.593571 
L 310.40625 248.323802 
L 356.060795 176.722241 
L 401.715341 151.090988 
L 447.369886 222.464317 
L 493.024432 224.718409 
L 538.678977 193.293198 
" clip-path="url(#peb7a7c824d)" style="fill: none; stroke: #ff7f0e; stroke-width: 1.5; stroke-linecap: square"/>
    <defs>
     <path id="m8e6c67eb09" d="M 0 3 
C 0.795609 3 1.55874 2.683901 2.12132 2.12132 
C 2.683901 1.55874 3 0.795609 3 0 
C 3 -0.795609 2.683901 -1.55874 2.12132 -2.12132 
C 1.55874 -2.683901 0.795609 -3 0 -3 
C -0.795609 -3 -1.55874 -2.683901 -2.12132 -2.12132 
C -2.683901 -1.55874 -3 -0.795609 -3 0 
C -3 0.795609 -2.683901 1.55874 -2.12132 2.12132 
C -1.55874 2.683901 -0.795609 3 0 3 
z
" style="stroke: #ff7f0e"/>
    </defs>
    <g clip-path="url(#peb7a7c824d)">
     <use xlink:href="#m8e6c67eb09" x="82.133523" y="333.127921" style="fill: #ff7f0e; stroke: #ff7f0e"/>
     <use xlink:href="#m8e6c67eb09" x="127.788068" y="340.91625" style="fill: #ff7f0e; stroke: #ff7f0e"/>
     <use xlink:href="#m8e6c67eb09" x="173.442614" y="318.50564" style="fill: #ff7f0e; stroke: #ff7f0e"/>
     <use xlink:href="#m8e6c67eb09" x="219.097159" y="268.663153" style="fill: #ff7f0e; stroke: #ff7f0e"/>
     <use xlink:href="#m8e6c67eb09" x="264.751705" y="251.593571" style="fill: #ff7f0e; stroke: #ff7f0e"/>
     <use xlink:href="#m8e6c67eb09" x="310.40625" y="248.323802" style="fill: #ff7f0e; stroke: #ff7f0e"/>
     <use xlink:href="#m8e6c67eb09" x="356.060795" y="176.722241" style="fill: #ff7f0e; stroke: #ff7f0e"/>
     <use xlink:href="#m8e6c67eb09" x="401.715341" y="151.090988" style="fill: #ff7f0e; stroke: #ff7f0e"/>
     <use xlink:href="#m8e6c67eb09" x="447.369886" y="222.464317" style="fill: #ff7f0e; stroke: #ff7f0e"/>
     <use xlink:href="#m8e6c67eb09" x="493.024432" y="224.718409" style="fill: #ff7f0e; stroke: #ff7f0e"/>
     <use xlink:href="#m8e6c67eb09" x="538.678977" y="193.293198" style="fill: #ff7f0e; stroke: #ff7f0e"/>
    </g>
   </g>
   <g id="patch_3">
    <path d="M 59.30625 356.03625 
L 59.30625 23.39625 
" style="fill: none; stroke: #000000; stroke-width: 0.8; stroke-linejoin: miter; stroke-linecap: square"/>
   </g>
   <g id="patch_4">
    <path d="M 561.50625 356.03625 
L 561.50625 23.39625 
" style="fill: none; stroke: #000000; stroke-width: 0.8; stroke-linejoin: miter; stroke-linecap: square"/>
   </g>
   <g id="patch_5">
    <path d="M 59.30625 356.03625 
L 561.50625 356.03625 
" style="fill: none; stroke: #000000; stroke-width: 0.8; stroke-linejoin: miter; stroke-linecap: square"/>
   </g>
   <g id="patch_6">
    <path d="M 59.30625 23.39625 
L 561.50625 23.39625 
" style="fill: none; stroke: #000000; stroke-width: 0.8; stroke-linejoin: miter; stroke-linecap: square"/>
   </g>
   <g id="text_17">
    <!-- 104 年度國家財政部出口統計 (2)其他基本金屬及其製品 -->
    <g transform="translate(162.8175 17.39625) scale(0.12 -0.12)">
     <defs>
      <path id="WenQuanYiZenHei-20" transform="scale(0.015625)"/>
      <path id="WenQuanYiZenHei-5e74" d="M 3638 -769 
Q 3388 -744 3138 -769 
Q 3163 -313 3163 150 
L 3163 1044 
L 969 1044 
Q 606 1044 244 1025 
Q 263 1219 244 1419 
Q 606 1400 969 1400 
L 1406 1400 
L 1400 2963 
L 3163 2963 
L 3163 3925 
L 1725 3925 
Q 1131 2881 494 2244 
Q 319 2463 50 2544 
Q 756 3219 1125 3794 
Q 1494 4369 1763 5169 
Q 2006 5044 2269 4969 
L 1925 4281 
L 5044 4281 
Q 5406 4281 5769 4300 
Q 5750 4106 5769 3906 
Q 5406 3925 5044 3925 
L 3613 3925 
L 3613 2963 
L 4769 2963 
Q 5131 2963 5494 2981 
Q 5475 2788 5494 2588 
Q 5131 2606 4769 2606 
L 3613 2606 
L 3613 1400 
L 5406 1400 
Q 5769 1400 6131 1419 
Q 6113 1219 6131 1025 
Q 5769 1044 5406 1044 
L 3613 1044 
L 3613 150 
Q 3613 -313 3638 -769 
z
M 3163 1400 
L 3163 2606 
L 1850 2606 
L 1856 1400 
L 3163 1400 
z
" transform="scale(0.015625)"/>
      <path id="WenQuanYiZenHei-5ea6" d="M 1863 1488 
Q 1881 1663 1863 1838 
Q 2181 1819 2506 1819 
L 5231 1819 
Q 4863 869 4081 213 
Q 4381 25 4763 -94 
Q 5388 -294 6044 -238 
Q 5894 -450 5913 -706 
Q 4731 -769 3744 -44 
Q 2731 -725 1519 -731 
Q 1450 -475 1300 -256 
Q 2431 -356 3388 244 
Q 2825 763 2413 1500 
Q 2138 1500 1863 1488 
z
M 5400 3613 
Q 5725 3613 6050 3631 
Q 6031 3456 6050 3281 
Q 5725 3294 5400 3294 
L 4800 3294 
Q 4794 2600 4794 2275 
L 2531 2275 
Q 2531 2781 2531 3294 
L 2213 3294 
Q 1894 3294 1569 3281 
Q 1588 3456 1569 3631 
Q 1894 3613 2213 3613 
L 2531 3613 
Q 2531 3963 2513 4306 
Q 2750 4281 2988 4306 
Q 2975 3963 2969 3613 
L 4363 3613 
Q 4363 3944 4350 4275 
Q 4588 4250 4825 4275 
Q 4806 3944 4800 3613 
L 5400 3613 
z
M 1013 4738 
L 3413 4738 
L 3025 5069 
L 3331 5431 
L 3856 4981 
L 3650 4738 
L 5444 4738 
Q 5769 4738 6094 4750 
Q 6075 4575 6094 4400 
Q 5769 4419 5444 4419 
L 1444 4419 
L 1456 1550 
Q 1463 44 600 -738 
Q 444 -525 181 -481 
Q 1044 100 1019 1550 
L 1013 4738 
z
M 2863 1500 
Q 3250 869 3719 475 
Q 4256 906 4581 1500 
L 2863 1500 
z
M 2969 3294 
Q 2969 2956 2969 2594 
L 4356 2594 
Q 4363 2931 4363 3294 
L 2969 3294 
z
" transform="scale(0.015625)"/>
      <path id="WenQuanYiZenHei-8ca1" d="M 3594 3363 
Q 3281 3363 2969 3344 
Q 2988 3513 2969 3681 
Q 3281 3669 3594 3669 
L 4706 3669 
L 4706 4313 
Q 4706 4744 4688 5181 
Q 4925 5156 5156 5181 
Q 5138 4744 5138 4313 
L 5138 3669 
L 5563 3669 
Q 5875 3669 6188 3681 
Q 6169 3513 6188 3344 
Q 5875 3363 5563 3363 
L 5138 3363 
L 5138 -44 
Q 5138 -481 4900 -644 
Q 4644 -819 4025 -813 
Q 4094 -513 3888 -288 
Q 4075 -313 4319 -316 
Q 4563 -319 4638 -263 
Q 4719 -144 4706 231 
L 4706 2669 
Q 3869 1169 3038 206 
Q 2856 406 2600 463 
Q 3469 1400 3950 2231 
Q 4225 2694 4556 3363 
L 3594 3363 
z
M 2331 -756 
Q 2050 -150 1688 394 
L 2031 575 
L 2031 881 
L 925 881 
L 925 556 
L 888 556 
Q 1088 494 1313 463 
Q 1138 -194 688 -656 
Q 569 -788 431 -919 
Q 294 -750 56 -681 
Q 588 -206 825 556 
L 469 556 
L 469 4969 
L 2488 4969 
L 2488 556 
L 2163 556 
Q 2506 19 2794 -588 
L 2331 -756 
z
M 2031 3681 
L 2031 4700 
L 925 4700 
L 925 3681 
L 2031 3681 
z
M 2031 2394 
L 2031 3444 
L 925 3444 
L 925 2394 
L 2031 2394 
z
M 2031 2156 
L 925 2156 
L 925 1119 
L 2031 1119 
L 2031 2156 
z
" transform="scale(0.015625)"/>
      <path id="WenQuanYiZenHei-653f" d="M 2925 2750 
Q 2906 2575 2925 2400 
Q 2656 2413 2444 2413 
L 2031 2413 
L 2031 381 
Q 2388 475 3094 681 
L 3094 394 
Q 1206 -156 175 -538 
Q 175 -250 19 -13 
Q 275 13 538 56 
L 538 2356 
Q 538 2800 513 3238 
Q 750 3213 994 3238 
Q 969 2800 969 2356 
L 969 131 
Q 1275 188 1600 269 
L 1600 4275 
L 813 4275 
Q 488 4275 169 4263 
Q 181 4438 169 4613 
Q 488 4594 813 4594 
L 2556 4594 
Q 2881 4594 3206 4613 
Q 3188 4438 3206 4263 
Q 2881 4275 2556 4275 
L 2031 4275 
L 2031 2731 
L 2275 2731 
Q 2600 2731 2925 2750 
z
M 3569 5031 
Q 3800 4963 4069 4944 
Q 3950 4400 3788 3869 
L 3763 3781 
L 5275 3781 
Q 5619 3781 5956 3800 
Q 5938 3600 5956 3406 
L 5256 3419 
Q 5188 1925 4613 888 
Q 5206 106 6194 -306 
Q 5975 -438 5881 -694 
Q 4969 -288 4388 519 
Q 3750 -469 2663 -906 
Q 2600 -613 2413 -438 
Q 3531 -44 4131 913 
Q 3600 1806 3481 2963 
Q 3256 2381 2875 1806 
Q 2700 1981 2419 2025 
Q 2681 2406 2968 2937 
Q 3256 3469 3381 3991 
Q 3506 4513 3569 5031 
z
M 3831 3419 
Q 3850 2794 3997 2244 
Q 4144 1694 4350 1300 
Q 4763 2181 4788 3419 
L 3831 3419 
z
" transform="scale(0.015625)"/>
      <path id="WenQuanYiZenHei-90e8" d="M 1169 -763 
Q 931 -738 700 -763 
Q 719 -331 719 106 
L 719 1925 
L 3125 1925 
L 3125 -750 
L 2694 -750 
L 2694 -38 
L 1150 -38 
Q 1150 -400 1169 -763 
z
M 3763 2806 
Q 3744 2638 3763 2469 
Q 3450 2481 3138 2481 
L 694 2481 
Q 381 2481 69 2469 
Q 88 2638 69 2806 
Q 381 2788 694 2788 
L 1150 2788 
Q 875 3388 531 3950 
L 931 4200 
Q 1313 3575 1613 2906 
L 1350 2788 
L 2006 2788 
Q 2475 3350 2681 4288 
L 831 4288 
Q 519 4288 206 4275 
Q 225 4444 206 4613 
Q 519 4594 831 4594 
L 1688 4594 
L 1256 5094 
L 1613 5400 
L 2169 4756 
L 1988 4594 
L 3013 4594 
Q 3325 4594 3638 4613 
Q 3619 4444 3638 4275 
Q 3388 4281 3138 4288 
Q 3056 3538 2538 2788 
L 3138 2788 
Q 3450 2788 3763 2806 
z
M 2694 1619 
L 1150 1619 
L 1150 275 
L 2694 275 
L 2694 1619 
z
M 4431 -856 
Q 4225 -831 4019 -856 
Q 4038 -394 4038 75 
L 4038 4819 
L 5856 4819 
L 5856 4438 
Q 5763 4313 5713 4156 
L 5238 2756 
Q 5600 2450 5806 1972 
Q 6013 1494 6013 947 
Q 6013 400 5325 56 
L 5081 -56 
Q 4994 188 4869 388 
L 5263 531 
Q 5650 669 5650 950 
Q 5650 1494 5428 1969 
Q 5206 2444 4819 2719 
L 5400 4438 
L 4413 4438 
L 4413 75 
Q 4413 -388 4431 -856 
z
" transform="scale(0.015625)"/>
      <path id="WenQuanYiZenHei-51fa" d="M 5400 -594 
Q 5150 -569 4906 -594 
Q 4919 -356 4919 -119 
L 431 -119 
L 431 981 
Q 431 1438 406 1894 
Q 656 1869 900 1894 
Q 881 1438 881 981 
L 881 238 
L 2675 238 
L 2675 2500 
L 688 2500 
L 688 3488 
Q 688 3950 663 4406 
Q 913 4381 1163 4406 
Q 1138 3950 1138 3488 
L 1138 2856 
L 2675 2856 
L 2675 4344 
Q 2675 4806 2656 5263 
Q 2906 5238 3150 5263 
Q 3131 4806 3131 4344 
L 3131 2856 
L 4669 2856 
Q 4669 3175 4669 3562 
Q 4669 3950 4644 4406 
Q 4894 4381 5144 4406 
Q 5125 3988 5122 3516 
Q 5119 3044 5119 2500 
L 3131 2500 
L 3131 238 
L 4925 238 
L 4925 981 
Q 4925 1438 4906 1894 
Q 5150 1869 5400 1894 
Q 5381 1438 5381 981 
L 5381 325 
Q 5381 -138 5400 -594 
z
" transform="scale(0.015625)"/>
      <path id="WenQuanYiZenHei-53e3" d="M 1181 -781 
Q 925 -756 669 -781 
Q 688 -313 688 163 
L 694 4506 
L 5288 4506 
L 5288 -769 
L 4825 -769 
L 4825 219 
L 1156 219 
L 1156 163 
Q 1156 -313 1181 -781 
z
M 4825 4113 
L 1156 4113 
L 1156 619 
L 4825 619 
L 4825 4113 
z
" transform="scale(0.015625)"/>
      <path id="WenQuanYiZenHei-7d71" d="M 4894 -663 
Q 4594 -663 4434 -488 
Q 4275 -313 4275 -44 
L 4275 2250 
L 3844 2188 
L 3844 1556 
Q 3844 781 3403 143 
Q 2963 -494 2275 -788 
Q 2181 -538 1931 -438 
Q 2581 -244 3003 303 
Q 3425 850 3425 1556 
L 3425 2119 
L 2619 1988 
L 2575 2275 
Q 2675 2306 2750 2381 
Q 2931 2575 3209 3081 
Q 3488 3588 3575 3950 
L 3125 3950 
Q 2831 3950 2538 3938 
Q 2556 4094 2538 4250 
Q 2831 4238 3125 4238 
L 4044 4238 
L 3513 4950 
L 3875 5225 
L 4563 4325 
L 4450 4238 
L 5306 4238 
Q 5600 4238 5894 4250 
Q 5875 4094 5894 3938 
Q 5600 3950 5306 3950 
L 4081 3950 
Q 3988 3656 3638 3081 
Q 3325 2538 3200 2369 
L 4956 2631 
L 4581 3156 
L 4950 3431 
Q 5456 2756 5881 2031 
L 5481 1794 
Q 5313 2094 5125 2375 
L 4694 2319 
L 4694 -44 
Q 4694 -150 4750 -228 
Q 4806 -306 4900 -306 
L 5594 -306 
Q 5669 -300 5688 -238 
L 5825 663 
Q 6013 544 6231 538 
L 6038 -506 
Q 6019 -594 5969 -644 
Q 5938 -663 5894 -663 
L 4894 -663 
z
M 2631 431 
L 2200 263 
L 1838 1194 
L 2269 1363 
L 2631 431 
z
M 1819 163 
L 1388 -6 
L 1025 925 
L 1456 1094 
L 1819 163 
z
M 125 -294 
Q 338 288 444 900 
L 900 819 
Q 781 169 556 -456 
L 125 -294 
z
M 2600 1781 
L 2231 1506 
L 2069 1725 
L 1863 1700 
L 200 1350 
L 144 1631 
Q 263 1663 344 1756 
Q 738 2219 1388 3138 
L 225 3119 
L 225 3413 
Q 325 3413 400 3481 
Q 613 3688 953 4272 
Q 1294 4856 1331 5188 
Q 1569 5088 1819 5044 
Q 1788 4919 1709 4766 
Q 1631 4613 1290 4094 
Q 950 3575 819 3413 
L 1463 3394 
L 1575 3406 
Q 1844 3806 1963 4044 
Q 2163 3888 2388 3775 
Q 2269 3588 1869 3075 
L 831 1769 
L 1813 1950 
L 1881 1975 
L 1594 2363 
L 1963 2638 
L 2600 1781 
z
" transform="scale(0.015625)"/>
      <path id="WenQuanYiZenHei-8a08" d="M 4600 -763 
Q 4363 -738 4119 -763 
Q 4144 -325 4144 119 
L 4144 2806 
L 3338 2806 
Q 3019 2806 2694 2794 
Q 2713 2969 2694 3144 
Q 3019 3125 3338 3125 
L 4144 3125 
L 4144 4463 
Q 4144 4900 4119 5338 
Q 4363 5313 4600 5338 
Q 4575 4900 4575 4463 
L 4575 3125 
L 5538 3125 
Q 5863 3125 6188 3144 
Q 6169 2969 6188 2794 
Q 5863 2806 5538 2806 
L 4575 2806 
L 4575 119 
Q 4575 -325 4600 -763 
z
M 675 -844 
Q 425 -819 175 -844 
Q 200 -431 200 -13 
L 200 1413 
L 2363 1413 
L 2363 -831 
L 1900 -831 
L 1900 -300 
L 656 -300 
Q 663 -569 675 -844 
z
M 2281 2444 
Q 2263 2294 2281 2144 
Q 1969 2156 1663 2156 
L 913 2156 
Q 606 2156 294 2144 
Q 313 2294 294 2444 
Q 606 2431 913 2431 
L 1663 2431 
Q 1969 2431 2281 2444 
z
M 2294 3394 
Q 2275 3244 2294 3094 
Q 1988 3106 1675 3106 
L 900 3106 
Q 588 3106 281 3094 
Q 294 3244 281 3394 
Q 588 3381 900 3381 
L 1675 3381 
Q 1988 3381 2294 3394 
z
M 2556 4356 
Q 2538 4206 2556 4056 
Q 2244 4075 1938 4075 
L 706 4075 
Q 400 4075 88 4056 
Q 106 4206 88 4356 
Q 400 4344 706 4344 
L 1938 4344 
Q 2244 4344 2556 4356 
z
M 1719 4731 
L 1413 4369 
L 569 4944 
L 869 5306 
L 1719 4731 
z
M 1900 1144 
L 656 1144 
L 656 -50 
L 1900 -50 
L 1900 1144 
z
" transform="scale(0.015625)"/>
     </defs>
     <use xlink:href="#WenQuanYiZenHei-31"/>
     <use xlink:href="#WenQuanYiZenHei-30" transform="translate(59.960938 0)"/>
     <use xlink:href="#WenQuanYiZenHei-34" transform="translate(119.921875 0)"/>
     <use xlink:href="#WenQuanYiZenHei-20" transform="translate(179.882812 0)"/>
     <use xlink:href="#WenQuanYiZenHei-5e74" transform="translate(209.863281 0)"/>
     <use xlink:href="#WenQuanYiZenHei-5ea6" transform="translate(309.863281 0)"/>
     <use xlink:href="#WenQuanYiZenHei-570b" transform="translate(409.863281 0)"/>
     <use xlink:href="#WenQuanYiZenHei-5bb6" transform="translate(509.863281 0)"/>
     <use xlink:href="#WenQuanYiZenHei-8ca1" transform="translate(609.863281 0)"/>
     <use xlink:href="#WenQuanYiZenHei-653f" transform="translate(709.863281 0)"/>
     <use xlink:href="#WenQuanYiZenHei-90e8" transform="translate(809.863281 0)"/>
     <use xlink:href="#WenQuanYiZenHei-51fa" transform="translate(909.863281 0)"/>
     <use xlink:href="#WenQuanYiZenHei-53e3" transform="translate(1009.863281 0)"/>
     <use xlink:href="#WenQuanYiZenHei-7d71" transform="translate(1109.863281 0)"/>
     <use xlink:href="#WenQuanYiZenHei-8a08" transform="translate(1209.863281 0)"/>
     <use xlink:href="#WenQuanYiZenHei-20" transform="translate(1309.863281 0)"/>
     <use xlink:href="#WenQuanYiZenHei-28" transform="translate(1339.84375 0)"/>
     <use xlink:href="#WenQuanYiZenHei-32" transform="translate(1369.824219 0)"/>
     <use xlink:href="#WenQuanYiZenHei-29" transform="translate(1429.785156 0)"/>
     <use xlink:href="#WenQuanYiZenHei-5176" transform="translate(1459.765625 0)"/>
     <use xlink:href="#WenQuanYiZenHei-4ed6" transform="translate(1559.765625 0)"/>
     <use xlink:href="#WenQuanYiZenHei-57fa" transform="translate(1659.765625 0)"/>
     <use xlink:href="#WenQuanYiZenHei-672c" transform="translate(1759.765625 0)"/>
     <use xlink:href="#WenQuanYiZenHei-91d1" transform="translate(1859.765625 0)"/>
     <use xlink:href="#WenQuanYiZenHei-5c6c" transform="translate(1959.765625 0)"/>
     <use xlink:href="#WenQuanYiZenHei-53ca" transform="translate(2059.765625 0)"/>
     <use xlink:href="#WenQuanYiZenHei-5176" transform="translate(2159.765625 0)"/>
     <use xlink:href="#WenQuanYiZenHei-88fd" transform="translate(2259.765625 0)"/>
     <use xlink:href="#WenQuanYiZenHei-54c1" transform="translate(2359.765625 0)"/>
    </g>
   </g>
   <g id="legend_1">
    <g id="patch_7">
     <path d="M 497.75 58.718125 
L 554.50625 58.718125 
Q 556.50625 58.718125 556.50625 56.718125 
L 556.50625 30.39625 
Q 556.50625 28.39625 554.50625 28.39625 
L 497.75 28.39625 
Q 495.75 28.39625 495.75 30.39625 
L 495.75 56.718125 
Q 495.75 58.718125 497.75 58.718125 
z
" style="fill: #ffffff; opacity: 0.8; stroke: #cccccc; stroke-linejoin: miter"/>
    </g>
    <g id="line2d_18">
     <path d="M 499.75 35.89625 
L 509.75 35.89625 
L 519.75 35.89625 
" style="fill: none; stroke: #1f77b4; stroke-width: 1.5; stroke-linecap: square"/>
     <g>
      <use xlink:href="#mbe54de5ae1" x="509.75" y="35.89625" style="fill: #1f77b4; stroke: #1f77b4; stroke-linejoin: miter"/>
     </g>
    </g>
    <g id="text_18">
     <!-- China -->
     <g transform="translate(527.75 39.39625) scale(0.1 -0.1)">
      <defs>
       <path id="WenQuanYiZenHei-43" d="M 3681 1369 
Q 3388 163 2413 -31 
Q 2238 -63 2056 -63 
Q 1075 -63 588 844 
Q 269 1444 269 2238 
Q 269 3294 819 3913 
Q 1306 4456 2100 4456 
Q 3031 4456 3469 3638 
Q 3613 3375 3681 3050 
L 3163 2956 
Q 2906 3894 2244 3981 
Q 2163 3994 2081 3994 
Q 1281 3994 994 3075 
Q 869 2675 869 2194 
Q 869 1350 1231 838 
Q 1544 394 2056 394 
Q 2888 394 3163 1406 
Q 3175 1444 3181 1481 
L 3681 1369 
z
" transform="scale(0.015625)"/>
       <path id="WenQuanYiZenHei-68" d="M 3006 0 
L 2506 0 
L 2506 1894 
Q 2506 2538 2313 2750 
L 2206 2844 
L 2063 2900 
Q 1969 2925 1856 2925 
Q 1488 2925 1194 2581 
Q 956 2231 950 1669 
L 950 0 
L 450 0 
L 450 4388 
L 950 4388 
L 950 2650 
L 969 2650 
Q 1288 3338 1975 3338 
Q 2706 3338 2931 2650 
Q 3006 2413 3006 2119 
L 3006 0 
z
" transform="scale(0.015625)"/>
       <path id="WenQuanYiZenHei-69" d="M 1044 3825 
L 494 3825 
L 494 4388 
L 1044 4388 
L 1044 3825 
z
M 1019 0 
L 519 0 
L 519 3250 
L 1019 3250 
L 1019 0 
z
" transform="scale(0.015625)"/>
       <path id="WenQuanYiZenHei-6e" d="M 3013 0 
L 2513 0 
L 2513 2013 
Q 2513 2425 2444 2575 
Q 2438 2594 2425 2613 
Q 2288 2856 1956 2900 
Q 1913 2906 1869 2906 
Q 1263 2906 1038 2288 
Q 944 2019 944 1700 
L 944 0 
L 444 0 
L 444 3250 
L 913 3250 
L 913 2650 
L 925 2650 
Q 1156 3150 1644 3288 
Q 1788 3338 1938 3338 
Q 2544 3338 2844 2856 
L 2863 2831 
Q 3013 2569 3013 1931 
L 3013 0 
z
" transform="scale(0.015625)"/>
       <path id="WenQuanYiZenHei-61" d="M 3181 0 
L 2681 0 
L 2625 606 
Q 2294 -63 1488 -63 
Q 856 -63 544 331 
Q 350 575 350 919 
Q 350 1400 763 1706 
Q 850 1781 956 1825 
Q 1375 2025 2344 2019 
L 2625 2019 
L 2625 2156 
Q 2625 2756 2200 2894 
L 1975 2938 
Q 1894 2944 1800 2944 
Q 1025 2944 906 2369 
L 444 2444 
Q 525 3075 1281 3263 
Q 1544 3338 1844 3338 
Q 2675 3338 2931 2894 
Q 3113 2594 3113 1944 
L 3113 688 
Q 3113 244 3181 0 
z
M 2625 1425 
L 2625 1638 
L 2206 1638 
Q 888 1638 888 894 
Q 888 488 1319 363 
Q 1444 325 1594 325 
Q 2125 325 2425 769 
Q 2625 1063 2625 1425 
z
" transform="scale(0.015625)"/>
      </defs>
      <use xlink:href="#WenQuanYiZenHei-43"/>
      <use xlink:href="#WenQuanYiZenHei-68" transform="translate(61.914062 0)"/>
      <use xlink:href="#WenQuanYiZenHei-69" transform="translate(115.820312 0)"/>
      <use xlink:href="#WenQuanYiZenHei-6e" transform="translate(139.746094 0)"/>
      <use xlink:href="#WenQuanYiZenHei-61" transform="translate(193.652344 0)"/>
     </g>
    </g>
    <g id="line2d_19">
     <path d="M 499.75 49.557187 
L 509.75 49.557187 
L 519.75 49.557187 
" style="fill: none; stroke: #ff7f0e; stroke-width: 1.5; stroke-linecap: square"/>
     <g>
      <use xlink:href="#m8e6c67eb09" x="509.75" y="49.557187" style="fill: #ff7f0e; stroke: #ff7f0e"/>
     </g>
    </g>
    <g id="text_19">
     <!-- USA -->
     <g transform="translate(527.75 53.057187) scale(0.1 -0.1)">
      <defs>
       <path id="WenQuanYiZenHei-55" d="M 3544 1613 
Q 3544 919 3338 569 
Q 3281 494 3225 425 
Q 2819 -63 2044 -63 
Q 944 -63 644 731 
Q 519 1075 519 1613 
L 519 4388 
L 1069 4388 
L 1069 1613 
Q 1069 869 1363 619 
Q 1600 425 2088 425 
Q 2869 425 3031 1088 
Q 3088 1306 3088 1613 
L 3088 4388 
L 3544 4388 
L 3544 1613 
z
" transform="scale(0.015625)"/>
       <path id="WenQuanYiZenHei-53" d="M 3688 1256 
Q 3688 444 2931 106 
Q 2544 -63 2050 -63 
Q 700 -63 269 1181 
L 763 1294 
Q 963 613 1663 450 
Q 1850 406 2063 406 
Q 2700 406 2975 750 
Q 3119 925 3119 1181 
Q 3119 1631 2550 1850 
L 2144 1963 
Q 1406 2150 1338 2175 
Q 1013 2281 844 2431 
Q 488 2750 488 3244 
Q 488 3994 1181 4300 
Q 1538 4456 1975 4456 
Q 2881 4456 3338 3800 
L 3463 3569 
Q 3506 3481 3538 3381 
L 3038 3244 
Q 2956 3675 2488 3900 
Q 2238 4019 1963 4019 
Q 1506 4019 1219 3756 
Q 1025 3575 1025 3319 
Q 1025 2888 1563 2688 
Q 1694 2644 2394 2481 
Q 3019 2338 3275 2125 
Q 3688 1794 3688 1256 
z
" transform="scale(0.015625)"/>
       <path id="WenQuanYiZenHei-41" d="M 3550 0 
L 2988 0 
L 2550 1281 
L 919 1281 
L 531 0 
L 69 0 
L 1494 4388 
L 2125 4388 
L 3550 0 
z
M 2425 1694 
L 1756 3800 
L 1075 1694 
L 2425 1694 
z
" transform="scale(0.015625)"/>
      </defs>
      <use xlink:href="#WenQuanYiZenHei-55"/>
      <use xlink:href="#WenQuanYiZenHei-53" transform="translate(63.964844 0)"/>
      <use xlink:href="#WenQuanYiZenHei-41" transform="translate(125.878906 0)"/>
     </g>
    </g>
   </g>
  </g>
 </g>
 <defs>
  <clipPath id="peb7a7c824d">
   <rect x="59.30625" y="23.39625" width="502.2" height="332.64"/>
  </clipPath>
 </defs>
</svg>
