<?xml version="1.0" encoding="utf-8" standalone="no"?>
<!DOCTYPE svg PUBLIC "-//W3C//DTD SVG 1.1//EN"
  "http://www.w3.org/Graphics/SVG/1.1/DTD/svg11.dtd">
<svg xmlns:xlink="http://www.w3.org/1999/xlink" width="577.80625pt" height="392.769062pt" viewBox="0 0 577.80625 392.769062" xmlns="http://www.w3.org/2000/svg" version="1.1">
 <metadata>
  <rdf:RDF xmlns:dc="http://purl.org/dc/elements/1.1/" xmlns:cc="http://creativecommons.org/ns#" xmlns:rdf="http://www.w3.org/1999/02/22-rdf-syntax-ns#">
   <cc:Work>
    <dc:type rdf:resource="http://purl.org/dc/dcmitype/StillImage"/>
    <dc:date>2026-01-15T11:53:45.866568</dc:date>
    <dc:format>image/svg+xml</dc:format>
    <dc:creator>
     <cc:Agent>
      <dc:title>Matplotlib v3.10.8, https://matplotlib.org/</dc:title>
     </cc:Agent>
    </dc:creator>
   </cc:Work>
  </rdf:RDF>
 </metadata>
 <defs>
  <style type="text/css">*{stroke-linejoin: round; stroke-linecap: butt}</style>
 </defs>
 <g id="figure_1">
  <g id="patch_1">
   <path d="M 0 392.769062 
L 577.80625 392.769062 
L 577.80625 0 
L 0 0 
z
" style="fill: #ffffff"/>
  </g>
  <g id="axes_1">
   <g id="patch_2">
    <path d="M 68.40625 356.03625 
L 570.60625 356.03625 
L 570.60625 23.39625 
L 68.40625 23.39625 
z
" style="fill: #ffffff"/>
   </g>
   <g id="patch_3">
    <path d="M -334545.43893 38.51625 
L 547.778977 38.51625 
L 547.778977 63.201964 
L -334545.43893 63.201964 
z
" clip-path="url(#pe244818ddd)" style="fill: #66c5cc"/>
   </g>
   <g id="patch_4">
    <path d="M -334545.43893 69.373393 
L 408.320899 69.373393 
L 408.320899 94.059107 
L -334545.43893 94.059107 
z
" clip-path="url(#pe244818ddd)" style="fill: #f6cf71"/>
   </g>
   <g id="patch_5">
    <path d="M -334545.43893 100.230536 
L 304.96015 100.230536 
L 304.96015 124.91625 
L -334545.43893 124.91625 
z
" clip-path="url(#pe244818ddd)" style="fill: #f89c74"/>
   </g>
   <g id="patch_6">
    <path d="M -334545.43893 131.087679 
L 298.45793 131.087679 
L 298.45793 155.773393 
L -334545.43893 155.773393 
z
" clip-path="url(#pe244818ddd)" style="fill: #dcb0f2"/>
   </g>
   <g id="patch_7">
    <path d="M -334545.43893 161.944821 
L 188.265691 161.944821 
L 188.265691 186.630536 
L -334545.43893 186.630536 
z
" clip-path="url(#pe244818ddd)" style="fill: #87c55f"/>
   </g>
   <g id="patch_8">
    <path d="M -334545.43893 192.801964 
L 163.384659 192.801964 
L 163.384659 217.487679 
L -334545.43893 217.487679 
z
" clip-path="url(#pe244818ddd)" style="fill: #9eb9f3"/>
   </g>
   <g id="patch_9">
    <path d="M -334545.43893 223.659107 
L 161.779405 223.659107 
L 161.779405 248.344821 
L -334545.43893 248.344821 
z
" clip-path="url(#pe244818ddd)" style="fill: #b3b3b3"/>
   </g>
   <g id="patch_10">
    <path d="M -334545.43893 254.51625 
L 94.041147 254.51625 
L 94.041147 279.201964 
L -334545.43893 279.201964 
z
" clip-path="url(#pe244818ddd)" style="fill: #fe88b1"/>
   </g>
   <g id="patch_11">
    <path d="M -334545.43893 285.373393 
L 92.500246 285.373393 
L 92.500246 310.059107 
L -334545.43893 310.059107 
z
" clip-path="url(#pe244818ddd)" style="fill: #8be0a4"/>
   </g>
   <g id="patch_12">
    <path d="M -334545.43893 316.230536 
L 91.233523 316.230536 
L 91.233523 340.91625 
L -334545.43893 340.91625 
z
" clip-path="url(#pe244818ddd)" style="fill: #66c5cc"/>
   </g>
   <g id="matplotlib.axis_1">
    <g id="xtick_1">
     <g id="line2d_1">
      <defs>
       <path id="m99a37328b1" d="M 0 0 
L 0 3.5 
" style="stroke: #000000; stroke-width: 0.8"/>
      </defs>
      <g>
       <use xlink:href="#m99a37328b1" x="192.08381" y="356.03625" style="stroke: #000000; stroke-width: 0.8"/>
      </g>
     </g>
     <g id="text_1">
      <!-- $\mathdefault{10^{5}}$ -->
      <g transform="translate(183.78381 369.8925) scale(0.1 -0.1)">
       <defs>
        <path id="WenQuanYiZenHei-31" d="M 3556 0 
L 488 0 
L 488 406 
L 1800 406 
L 1800 3725 
Q 1231 3125 588 2788 
L 588 3338 
Q 1456 3781 1931 4388 
L 2331 4388 
L 2331 406 
L 3556 406 
L 3556 0 
z
" transform="scale(0.015625)"/>
        <path id="WenQuanYiZenHei-30" d="M 3581 2175 
Q 3581 1288 3169 638 
Q 2713 -63 1938 -63 
Q 1025 -63 563 831 
Q 256 1425 256 2188 
Q 256 3188 700 3819 
Q 1138 4456 1888 4456 
Q 2863 4456 3306 3500 
Q 3581 2925 3581 2175 
z
M 3019 2100 
Q 3019 3356 2500 3806 
L 2350 3919 
Q 2144 4031 1888 4031 
Q 1100 4031 888 2956 
Q 819 2625 819 2225 
Q 819 1013 1338 569 
Q 1588 356 1938 356 
Q 2675 356 2925 1294 
Q 3019 1663 3019 2100 
z
" transform="scale(0.015625)"/>
        <path id="WenQuanYiZenHei-35" d="M 3531 1488 
Q 3531 688 2913 250 
Q 2456 -63 1844 -63 
Q 1175 -63 706 350 
Q 413 613 306 975 
L 781 1131 
Q 1000 538 1569 406 
Q 1706 369 1856 369 
Q 2550 369 2850 869 
Q 3000 1131 3000 1494 
Q 3000 2056 2581 2356 
Q 2319 2538 1969 2538 
Q 1400 2538 1031 2075 
Q 981 2013 938 1938 
L 500 2031 
L 644 4388 
L 3244 4388 
L 3200 3919 
L 1044 3919 
L 950 2500 
Q 1431 2975 2006 2975 
Q 2713 2975 3163 2475 
Q 3531 2063 3531 1488 
z
" transform="scale(0.015625)"/>
       </defs>
       <use xlink:href="#WenQuanYiZenHei-31" transform="translate(0 0.459375)"/>
       <use xlink:href="#WenQuanYiZenHei-30" transform="translate(59.960938 0.459375)"/>
       <use xlink:href="#WenQuanYiZenHei-35" transform="translate(120.810547 36.00625) scale(0.7)"/>
      </g>
     </g>
    </g>
    <g id="xtick_2">
     <g id="line2d_2">
      <g>
       <use xlink:href="#m99a37328b1" x="525.155971" y="356.03625" style="stroke: #000000; stroke-width: 0.8"/>
      </g>
     </g>
     <g id="text_2">
      <!-- $\mathdefault{10^{6}}$ -->
      <g transform="translate(516.855971 369.975312) scale(0.1 -0.1)">
       <defs>
        <path id="WenQuanYiZenHei-36" d="M 3550 1431 
Q 3550 725 3006 288 
Q 2581 -63 1994 -63 
Q 1013 -63 563 825 
Q 288 1363 288 2081 
Q 288 3294 856 3938 
Q 1319 4456 2075 4456 
Q 2969 4456 3363 3756 
Q 3431 3631 3481 3481 
L 2988 3350 
Q 2750 3994 2075 4006 
Q 1056 4006 844 2669 
Q 794 2356 794 1981 
L 806 1981 
Q 1006 2506 1544 2744 
Q 1819 2869 2119 2869 
Q 2788 2869 3213 2375 
Q 3550 1975 3550 1431 
z
M 3038 1406 
Q 3038 1906 2656 2213 
Q 2381 2431 2038 2431 
Q 1525 2431 1181 2044 
Q 919 1744 919 1356 
Q 919 881 1344 581 
Q 1631 375 1981 375 
Q 2519 375 2838 781 
Q 3038 1050 3038 1406 
z
" transform="scale(0.015625)"/>
       </defs>
       <use xlink:href="#WenQuanYiZenHei-31" transform="translate(0 0.715625)"/>
       <use xlink:href="#WenQuanYiZenHei-30" transform="translate(59.960938 0.715625)"/>
       <use xlink:href="#WenQuanYiZenHei-36" transform="translate(120.810547 36.2625) scale(0.7)"/>
      </g>
     </g>
    </g>
    <g id="xtick_3">
     <g id="line2d_3">
      <defs>
       <path id="m216d7840fb" d="M 0 0 
L 0 2 
" style="stroke: #000000; stroke-width: 0.6"/>
      </defs>
      <g>
       <use xlink:href="#m216d7840fb" x="91.819098" y="356.03625" style="stroke: #000000; stroke-width: 0.6"/>
      </g>
     </g>
    </g>
    <g id="xtick_4">
     <g id="line2d_4">
      <g>
       <use xlink:href="#m216d7840fb" x="118.192167" y="356.03625" style="stroke: #000000; stroke-width: 0.6"/>
      </g>
     </g>
    </g>
    <g id="xtick_5">
     <g id="line2d_5">
      <g>
       <use xlink:href="#m216d7840fb" x="140.490279" y="356.03625" style="stroke: #000000; stroke-width: 0.6"/>
      </g>
     </g>
    </g>
    <g id="xtick_6">
     <g id="line2d_6">
      <g>
       <use xlink:href="#m216d7840fb" x="159.805782" y="356.03625" style="stroke: #000000; stroke-width: 0.6"/>
      </g>
     </g>
    </g>
    <g id="xtick_7">
     <g id="line2d_7">
      <g>
       <use xlink:href="#m216d7840fb" x="176.843263" y="356.03625" style="stroke: #000000; stroke-width: 0.6"/>
      </g>
     </g>
    </g>
    <g id="xtick_8">
     <g id="line2d_8">
      <g>
       <use xlink:href="#m216d7840fb" x="292.348521" y="356.03625" style="stroke: #000000; stroke-width: 0.6"/>
      </g>
     </g>
    </g>
    <g id="xtick_9">
     <g id="line2d_9">
      <g>
       <use xlink:href="#m216d7840fb" x="350.999617" y="356.03625" style="stroke: #000000; stroke-width: 0.6"/>
      </g>
     </g>
    </g>
    <g id="xtick_10">
     <g id="line2d_10">
      <g>
       <use xlink:href="#m216d7840fb" x="392.613232" y="356.03625" style="stroke: #000000; stroke-width: 0.6"/>
      </g>
     </g>
    </g>
    <g id="xtick_11">
     <g id="line2d_11">
      <g>
       <use xlink:href="#m216d7840fb" x="424.89126" y="356.03625" style="stroke: #000000; stroke-width: 0.6"/>
      </g>
     </g>
    </g>
    <g id="xtick_12">
     <g id="line2d_12">
      <g>
       <use xlink:href="#m216d7840fb" x="451.264329" y="356.03625" style="stroke: #000000; stroke-width: 0.6"/>
      </g>
     </g>
    </g>
    <g id="xtick_13">
     <g id="line2d_13">
      <g>
       <use xlink:href="#m216d7840fb" x="473.562441" y="356.03625" style="stroke: #000000; stroke-width: 0.6"/>
      </g>
     </g>
    </g>
    <g id="xtick_14">
     <g id="line2d_14">
      <g>
       <use xlink:href="#m216d7840fb" x="492.877944" y="356.03625" style="stroke: #000000; stroke-width: 0.6"/>
      </g>
     </g>
    </g>
    <g id="xtick_15">
     <g id="line2d_15">
      <g>
       <use xlink:href="#m216d7840fb" x="509.915425" y="356.03625" style="stroke: #000000; stroke-width: 0.6"/>
      </g>
     </g>
    </g>
    <g id="text_3">
     <!-- (2)玩具與運動用品 -->
     <g transform="translate(278.509375 383.859687) scale(0.1 -0.1)">
      <defs>
       <path id="WenQuanYiZenHei-28" d="M 1606 -1094 
L 1275 -1094 
Q 475 -100 338 1231 
Q 319 1438 319 1656 
Q 319 3031 1156 4244 
Q 1213 4313 1269 4388 
L 1600 4388 
Q 806 3169 794 1681 
Q 794 188 1606 -1094 
z
" transform="scale(0.015625)"/>
       <path id="WenQuanYiZenHei-32" d="M 3488 0 
L 369 0 
L 369 456 
L 2150 1850 
Q 2931 2463 2931 3144 
Q 2931 3619 2488 3863 
Q 2231 4013 1931 4013 
Q 1425 4013 1113 3619 
Q 894 3356 881 3013 
L 369 3169 
Q 531 3981 1213 4300 
Q 1544 4456 1950 4456 
Q 2631 4456 3088 4044 
L 3225 3888 
L 3350 3706 
Q 3481 3444 3481 3144 
Q 3481 2313 2519 1569 
L 1069 456 
L 3488 456 
L 3488 0 
z
" transform="scale(0.015625)"/>
       <path id="WenQuanYiZenHei-29" d="M 1600 1656 
Q 1600 306 869 -788 
Q 769 -950 644 -1094 
L 313 -1094 
Q 1125 188 1125 1681 
Q 1125 3169 338 4363 
Q 325 4375 319 4388 
L 650 4388 
Q 1525 3231 1594 1863 
Q 1600 1763 1600 1656 
z
" transform="scale(0.015625)"/>
       <path id="WenQuanYiZenHei-73a9" d="M 5075 -681 
Q 4788 -681 4606 -500 
Q 4425 -319 4425 -19 
L 4425 2863 
L 3744 2863 
L 3744 1975 
Q 3744 1088 3266 366 
Q 2788 -356 2019 -706 
Q 1913 -438 1644 -344 
Q 2400 -106 2853 534 
Q 3306 1175 3306 1975 
L 3306 2863 
L 2425 2844 
Q 2444 3031 2425 3213 
Q 2763 3194 3094 3194 
L 5319 3194 
Q 5656 3194 5988 3213 
Q 5969 3031 5988 2844 
Q 5656 2863 5319 2863 
L 4869 2863 
L 4869 -19 
Q 4869 -131 4928 -212 
Q 4988 -294 5081 -294 
L 5631 -294 
Q 5706 -294 5728 -231 
Q 5750 -169 5740 -87 
Q 5731 -6 5744 75 
L 5863 950 
Q 6056 813 6288 819 
L 6119 -250 
Q 6119 -525 6044 -656 
Q 6013 -681 5956 -681 
L 5075 -681 
z
M 5619 4950 
Q 5600 4763 5619 4581 
Q 5288 4600 4950 4600 
L 3494 4600 
Q 3163 4600 2825 4581 
Q 2844 4763 2825 4950 
Q 3163 4931 3494 4931 
L 4950 4931 
Q 5288 4931 5619 4950 
z
M 6 575 
Q 538 631 1031 750 
L 1031 2594 
L 138 2581 
Q 156 2738 138 2900 
L 1031 2888 
L 1031 4475 
L 650 4475 
Q 344 4475 38 4456 
Q 56 4619 38 4775 
Q 344 4763 650 4763 
L 1781 4763 
Q 2088 4763 2394 4775 
Q 2375 4619 2394 4456 
Q 2088 4475 1781 4475 
L 1469 4475 
L 1469 2888 
L 2269 2900 
Q 2250 2738 2269 2581 
L 1469 2594 
L 1469 869 
Q 1869 981 2394 1150 
L 2413 888 
Q 1388 550 959 387 
Q 531 225 188 81 
Q 163 375 6 575 
z
" transform="scale(0.015625)"/>
       <path id="WenQuanYiZenHei-5177" d="M 5625 -513 
L 5281 -856 
L 4556 -156 
L 3806 500 
L 4113 869 
L 4888 200 
L 5625 -513 
z
M 1913 825 
Q 2100 675 2319 569 
Q 1688 -463 400 -1013 
Q 344 -781 169 -631 
Q 719 -419 1116 -78 
Q 1513 263 1913 825 
z
M 6138 1238 
Q 6119 1056 6138 875 
Q 5800 888 5463 888 
L 856 888 
Q 519 888 188 875 
Q 206 1056 188 1238 
Q 519 1219 856 1219 
L 1606 1219 
L 1600 5075 
L 4700 5075 
L 4700 1219 
L 5463 1219 
Q 5800 1219 6138 1238 
z
M 4263 4119 
L 4263 4744 
L 2038 4744 
Q 2038 4438 2038 4119 
L 4263 4119 
z
M 4263 3163 
L 4263 3788 
L 2038 3788 
L 2044 3163 
L 4263 3163 
z
M 4263 2200 
L 4263 2831 
L 2044 2831 
L 2044 2200 
L 4263 2200 
z
M 4263 1219 
L 4263 1875 
L 2044 1875 
L 2044 1219 
L 4263 1219 
z
" transform="scale(0.015625)"/>
       <path id="WenQuanYiZenHei-8207" d="M 5763 -519 
L 5444 -838 
L 4694 -138 
L 3925 531 
L 4213 888 
L 5000 200 
L 5763 -519 
z
M 1963 844 
Q 2144 700 2350 600 
Q 1706 -463 388 -994 
Q 344 -781 181 -631 
Q 744 -425 1153 -78 
Q 1563 269 1963 844 
z
M 6131 1213 
Q 6119 1063 6131 906 
Q 5850 919 5563 919 
L 719 919 
Q 431 919 150 906 
Q 163 1063 150 1213 
L 788 1200 
L 788 4800 
L 900 4800 
Q 1031 4850 1163 4913 
L 1538 5094 
Q 1706 5169 1881 5244 
Q 1950 5025 2063 4825 
Q 1869 4731 1572 4622 
Q 1275 4513 1200 4481 
L 1200 3731 
L 1513 3731 
Q 1794 3731 2081 3744 
Q 2063 3588 2081 3438 
Q 1813 3450 1544 3450 
L 1200 3450 
L 1200 2456 
L 1513 2456 
Q 1794 2456 2081 2469 
Q 2063 2313 2081 2163 
Q 1813 2175 1544 2175 
L 1200 2175 
L 1200 1200 
L 2481 1200 
L 2481 1856 
Q 2481 2275 2463 2700 
Q 2688 2675 2919 2700 
Q 2900 2288 2900 1881 
L 2900 1200 
L 3494 1200 
L 3494 3106 
L 2406 3106 
L 2406 4425 
Q 2406 4844 2381 5263 
Q 2613 5244 2838 5263 
L 2819 4400 
L 3444 4400 
Q 3725 4400 4013 4413 
Q 3994 4256 4013 4106 
Q 3725 4119 3444 4119 
L 2819 4119 
L 2819 3381 
L 3913 3381 
L 3913 1200 
L 5050 1200 
L 5050 2150 
L 4219 2131 
Q 4231 2288 4219 2444 
Q 4463 2431 4688 2425 
L 5050 2425 
L 5050 3456 
L 4200 3444 
Q 4219 3594 4200 3750 
Q 4450 3738 4688 3738 
L 5050 3738 
L 5050 4763 
L 4219 4750 
Q 4231 4900 4219 5056 
Q 4500 5044 4788 5044 
L 5463 5044 
L 5463 1200 
L 6131 1213 
z
" transform="scale(0.015625)"/>
       <path id="WenQuanYiZenHei-904b" d="M 3663 -556 
Q 2200 -569 1456 219 
L 425 -513 
Q 325 -300 181 -119 
L 1269 463 
L 1269 3125 
L 800 3125 
Q 513 3125 219 3106 
Q 231 3269 219 3425 
Q 513 3413 800 3413 
L 1688 3413 
L 1688 456 
Q 2163 119 2600 -6 
Q 2938 -94 3663 -100 
L 6013 -113 
Q 5788 -275 5806 -556 
L 3663 -556 
z
M 1588 4281 
L 1219 4000 
L 506 4919 
L 875 5200 
L 1588 4281 
z
M 2069 3850 
L 2069 5069 
L 5700 5069 
L 5700 3850 
L 4056 3850 
L 4056 3481 
L 5381 3481 
Q 5300 2481 5375 1481 
L 4056 1481 
L 4056 1050 
L 5163 1050 
Q 5456 1050 5744 1063 
Q 5731 906 5744 744 
Q 5456 763 5163 763 
L 4056 763 
Q 4056 406 4075 50 
Q 3844 75 3613 50 
Q 3631 406 3638 763 
L 2563 763 
Q 2269 763 1975 744 
Q 1994 906 1975 1063 
Q 2269 1050 2563 1050 
L 3638 1050 
L 3638 1481 
L 2413 1481 
Q 2488 2481 2413 3481 
L 3638 3481 
L 3638 3850 
L 2069 3850 
z
M 4056 2613 
L 4956 2613 
L 4963 3194 
L 4056 3194 
L 4056 2613 
z
M 3638 2613 
L 3638 3194 
L 2831 3194 
L 2831 2613 
L 3638 2613 
z
M 4056 2350 
L 4056 1769 
L 4956 1769 
L 4956 2350 
L 4056 2350 
z
M 3638 2350 
L 2831 2350 
L 2831 1769 
L 3638 1769 
L 3638 2350 
z
M 4056 4138 
L 5281 4138 
L 5281 4781 
L 4056 4781 
L 4056 4138 
z
M 3638 4138 
L 3638 4781 
L 2488 4781 
Q 2488 4475 2488 4138 
L 3638 4138 
z
" transform="scale(0.015625)"/>
       <path id="WenQuanYiZenHei-52d5" d="M 1631 725 
L 950 725 
Q 644 725 344 713 
Q 363 875 344 1038 
Q 644 1025 950 1025 
L 1631 1025 
L 1631 1463 
L 450 1463 
Q 531 2450 450 3431 
L 1631 3431 
L 1631 3750 
L 825 3750 
Q 525 3750 225 3731 
Q 238 3894 225 4063 
Q 525 4044 825 4044 
L 1631 4044 
L 1631 4469 
Q 938 4450 716 4428 
Q 494 4406 450 4406 
L 213 4819 
Q 794 4738 1544 4791 
Q 2294 4844 2550 4909 
Q 2806 4975 2988 5075 
Q 3038 4844 3131 4631 
Q 2788 4519 2050 4481 
L 2050 4044 
L 2825 4044 
Q 3131 4044 3431 4063 
Q 3413 3894 3431 3731 
Q 3131 3750 2825 3750 
L 2050 3750 
L 2050 3431 
L 3231 3431 
Q 3144 2450 3213 1463 
L 2050 1463 
L 2050 1025 
L 2675 1025 
Q 2981 1025 3281 1038 
Q 3263 875 3281 713 
Q 2981 725 2675 725 
L 2050 725 
L 2050 150 
Q 2488 194 3388 319 
L 3350 50 
Q 1350 -231 244 -456 
Q 281 -181 169 75 
Q 863 50 1631 113 
L 1631 725 
z
M 2050 2531 
L 2800 2531 
L 2806 3138 
L 2050 3138 
L 2050 2531 
z
M 1631 2531 
L 1631 3138 
L 875 3138 
L 875 2531 
L 1631 2531 
z
M 2050 2256 
L 2050 1756 
L 2794 1756 
L 2800 2256 
L 2050 2256 
z
M 1631 2256 
L 875 2256 
L 875 1756 
L 1631 1756 
L 1631 2256 
z
M 4963 -694 
Q 5006 -350 4831 -156 
Q 5006 -175 5237 -178 
Q 5469 -181 5525 -138 
Q 5575 -63 5575 175 
L 5575 3200 
Q 5138 3200 4831 3200 
L 4831 2331 
Q 4831 1056 4188 106 
Q 3756 -531 3113 -863 
Q 3013 -606 2763 -513 
Q 3444 -256 3888 388 
Q 4444 1200 4444 2331 
L 4444 3200 
Q 3919 3194 3700 3181 
Q 3719 3375 3700 3563 
L 4444 3544 
L 4444 4200 
Q 4444 4650 4425 5100 
Q 4638 5075 4850 5100 
Q 4831 4650 4831 4200 
L 4831 3544 
L 5963 3544 
L 5963 -6 
Q 5950 -463 5606 -606 
Q 5300 -725 4963 -694 
z
" transform="scale(0.015625)"/>
       <path id="WenQuanYiZenHei-7528" d="M 3556 -775 
Q 3306 -744 3050 -775 
Q 3075 -306 3075 156 
L 3075 1606 
L 1481 1606 
Q 1450 813 1234 250 
Q 1019 -313 625 -738 
Q 438 -519 156 -500 
Q 631 -100 828 472 
Q 1025 1044 1025 1856 
L 1013 4963 
L 5688 4963 
L 5688 150 
Q 5688 -294 5413 -456 
Q 5119 -625 4500 -619 
Q 4575 -300 4350 -63 
Q 4556 -88 4822 -91 
Q 5088 -94 5156 -38 
Q 5244 56 5231 394 
L 5231 1606 
L 3531 1606 
L 3531 156 
Q 3531 -306 3556 -775 
z
M 3531 1981 
L 5231 1981 
L 5231 3025 
L 3531 3025 
L 3531 1981 
z
M 3075 1981 
L 3075 3025 
L 1481 3025 
L 1481 1981 
L 3075 1981 
z
M 3531 3400 
L 5231 3400 
L 5231 4588 
L 3531 4588 
L 3531 3400 
z
M 3075 3400 
L 3075 4588 
L 1475 4581 
L 1475 3400 
L 3075 3400 
z
" transform="scale(0.015625)"/>
       <path id="WenQuanYiZenHei-54c1" d="M 4025 -769 
Q 3788 -744 3544 -769 
Q 3569 -331 3569 113 
L 3569 2106 
L 5925 2106 
L 5925 -756 
L 5488 -756 
L 5488 -288 
L 4006 -288 
Q 4013 -531 4025 -769 
z
M 781 -769 
Q 544 -744 306 -769 
Q 325 -331 325 113 
L 325 2106 
L 2681 2106 
L 2681 -756 
L 2250 -756 
L 2250 -288 
L 763 -288 
Q 769 -531 781 -769 
z
M 1913 2588 
L 1481 2588 
L 1481 5075 
L 4938 5069 
L 4938 2588 
L 4506 2588 
L 4506 2944 
L 1913 2944 
L 1913 2588 
z
M 5488 1788 
L 4000 1788 
L 4000 31 
L 5488 31 
L 5488 1788 
z
M 2250 1788 
L 763 1788 
L 763 31 
L 2250 31 
L 2250 1788 
z
M 4506 4750 
L 1913 4750 
L 1913 3263 
L 4506 3263 
L 4506 4750 
z
" transform="scale(0.015625)"/>
      </defs>
      <use xlink:href="#WenQuanYiZenHei-28"/>
      <use xlink:href="#WenQuanYiZenHei-32" transform="translate(29.980469 0)"/>
      <use xlink:href="#WenQuanYiZenHei-29" transform="translate(89.941406 0)"/>
      <use xlink:href="#WenQuanYiZenHei-73a9" transform="translate(119.921875 0)"/>
      <use xlink:href="#WenQuanYiZenHei-5177" transform="translate(219.921875 0)"/>
      <use xlink:href="#WenQuanYiZenHei-8207" transform="translate(319.921875 0)"/>
      <use xlink:href="#WenQuanYiZenHei-904b" transform="translate(419.921875 0)"/>
      <use xlink:href="#WenQuanYiZenHei-52d5" transform="translate(519.921875 0)"/>
      <use xlink:href="#WenQuanYiZenHei-7528" transform="translate(619.921875 0)"/>
      <use xlink:href="#WenQuanYiZenHei-54c1" transform="translate(719.921875 0)"/>
     </g>
    </g>
   </g>
   <g id="matplotlib.axis_2">
    <g id="ytick_1">
     <g id="line2d_16">
      <defs>
       <path id="m24e2b23c97" d="M 0 0 
L -3.5 0 
" style="stroke: #000000; stroke-width: 0.8"/>
      </defs>
      <g>
       <use xlink:href="#m24e2b23c97" x="68.40625" y="50.859107" style="stroke: #000000; stroke-width: 0.8"/>
      </g>
     </g>
     <g id="text_4">
      <!-- 美國 -->
      <g transform="translate(41.40625 54.965357) scale(0.1 -0.1)">
       <defs>
        <path id="WenQuanYiZenHei-7f8e" d="M 1044 1231 
Q 719 1231 400 1213 
Q 419 1388 400 1563 
Q 719 1550 1044 1550 
L 2919 1550 
L 2919 2194 
L 1031 2194 
Q 706 2194 381 2181 
Q 400 2356 381 2531 
Q 706 2513 1031 2513 
L 2925 2513 
L 2925 3163 
L 1663 3163 
Q 1338 3163 1019 3150 
Q 1031 3325 1019 3500 
Q 1338 3481 1663 3481 
L 2925 3481 
L 2925 4131 
L 1313 4131 
Q 994 4131 669 4113 
Q 688 4288 669 4463 
Q 994 4450 1313 4450 
L 2250 4450 
L 1681 5169 
L 2056 5469 
L 2763 4563 
L 2619 4450 
L 3531 4450 
Q 3819 4756 4100 5194 
Q 4288 5044 4506 4938 
Q 4363 4694 4131 4450 
L 4956 4450 
Q 5275 4450 5600 4463 
Q 5581 4288 5600 4113 
Q 5275 4131 4956 4131 
L 3819 4131 
L 3769 4081 
Q 3750 4106 3731 4131 
L 3356 4131 
L 3356 3481 
L 4606 3481 
Q 4931 3481 5256 3500 
Q 5238 3325 5256 3150 
Q 4931 3163 4606 3163 
L 3356 3163 
L 3356 2513 
L 5244 2513 
Q 5563 2513 5888 2531 
Q 5869 2356 5888 2181 
Q 5563 2194 5244 2194 
L 3350 2194 
L 3350 1550 
L 5394 1550 
Q 5713 1550 6038 1563 
Q 6019 1388 6038 1213 
Q 5713 1231 5394 1231 
L 3513 1231 
Q 4025 444 4794 19 
Q 5369 -281 6088 -375 
Q 5900 -556 5869 -813 
Q 5056 -700 4384 -218 
Q 3713 263 3219 969 
Q 3025 519 2594 131 
Q 1800 -600 619 -850 
Q 556 -556 275 -431 
Q 1519 -263 2306 444 
Q 2713 806 2856 1231 
L 1044 1231 
z
" transform="scale(0.015625)"/>
        <path id="WenQuanYiZenHei-570b" d="M 3681 1469 
Q 3294 2275 3288 3525 
L 1738 3525 
Q 1431 3525 1131 3513 
Q 1150 3675 1131 3838 
Q 1431 3825 1738 3825 
L 3288 3825 
L 3269 4681 
Q 3500 4656 3731 4681 
L 3719 3825 
L 4450 3825 
L 4000 4431 
L 4338 4681 
L 913 4681 
L 913 25 
L 5338 25 
L 5338 4681 
L 4394 4681 
L 4900 4000 
L 4663 3825 
Q 4900 3825 5131 3838 
Q 5113 3675 5131 3513 
Q 4831 3525 4525 3525 
L 3713 3525 
Q 3706 2594 3969 1888 
Q 4213 2431 4331 3088 
Q 4581 3025 4838 3013 
Q 4650 2144 4175 1438 
Q 4381 1056 4681 756 
Q 4675 1075 4650 1388 
Q 4869 1269 5113 1288 
Q 5175 794 5106 300 
Q 5094 106 4913 75 
Q 4825 63 4756 113 
Q 4244 513 3894 1075 
Q 3338 419 2588 100 
Q 2513 356 2306 519 
Q 3169 863 3681 1469 
z
M 1063 1181 
Q 1781 1181 2363 1313 
Q 2569 1356 3013 1469 
L 3006 1200 
Q 1825 894 1188 663 
Q 1200 938 1063 1181 
z
M 931 -769 
Q 700 -750 469 -769 
Q 488 -344 488 88 
L 488 4981 
L 5763 4975 
L 5763 -763 
L 5338 -763 
L 5338 -250 
L 913 -250 
Q 919 -513 931 -769 
z
M 1731 2744 
L 1731 2069 
L 2456 2069 
L 2463 2744 
L 1731 2744 
z
M 1306 3038 
L 2888 3038 
L 2875 1769 
L 1306 1769 
L 1306 3038 
z
" transform="scale(0.015625)"/>
       </defs>
       <use xlink:href="#WenQuanYiZenHei-7f8e"/>
       <use xlink:href="#WenQuanYiZenHei-570b" transform="translate(100 0)"/>
      </g>
     </g>
    </g>
    <g id="ytick_2">
     <g id="line2d_17">
      <g>
       <use xlink:href="#m24e2b23c97" x="68.40625" y="81.71625" style="stroke: #000000; stroke-width: 0.8"/>
      </g>
     </g>
     <g id="text_5">
      <!-- 歐洲 -->
      <g transform="translate(41.40625 85.670937) scale(0.1 -0.1)">
       <defs>
        <path id="WenQuanYiZenHei-6b50" d="M 2725 675 
L 2319 675 
L 2319 2263 
L 3581 2263 
L 3581 675 
L 3175 675 
L 3175 894 
L 2725 894 
L 2725 675 
z
M 1288 675 
L 881 675 
L 881 2250 
L 2131 2250 
L 2131 675 
L 1725 675 
L 1725 894 
L 1288 894 
L 1288 675 
z
M 1319 2788 
Q 1394 3419 1319 4050 
L 2956 4050 
Q 2881 3419 2944 2788 
L 1319 2788 
z
M 3444 4725 
Q 3425 4581 3444 4431 
Q 3175 4444 2906 4444 
L 675 4444 
L 675 250 
L 3600 250 
L 3600 -13 
L 269 -13 
L 269 4713 
L 2906 4713 
Q 3175 4713 3444 4725 
z
M 3175 2000 
L 2725 2000 
L 2725 1138 
L 3175 1138 
L 3175 2000 
z
M 1725 1988 
L 1288 1988 
L 1288 1138 
L 1725 1138 
L 1725 1988 
z
M 1725 3788 
L 1725 3056 
L 2544 3056 
L 2550 3788 
L 1725 3788 
z
M 3169 -869 
Q 3088 -613 2869 -519 
Q 3481 -313 3900 269 
Q 4456 1025 4406 2169 
Q 4406 2594 4388 3019 
Q 4575 2994 4769 3019 
Q 4750 2594 4750 2175 
Q 4806 1800 4925 1375 
Q 5150 556 5638 56 
Q 5906 -238 6219 -444 
Q 6025 -544 5925 -756 
Q 5325 -331 4963 419 
Q 4794 756 4669 1144 
Q 4506 481 4156 -6 
Q 3750 -581 3169 -869 
z
M 4438 4975 
Q 4425 4288 4256 3675 
L 5888 3675 
L 5938 3319 
Q 5875 3306 5844 3250 
L 5500 2444 
L 5188 2638 
L 5506 3388 
L 4169 3388 
Q 3969 2800 3681 2306 
Q 3563 2450 3369 2494 
Q 3519 2744 3681 3112 
Q 3844 3481 3931 3972 
Q 4019 4463 4056 4994 
Q 4244 4963 4438 4975 
z
" transform="scale(0.015625)"/>
        <path id="WenQuanYiZenHei-6d32" d="M 5794 -769 
Q 5550 -744 5313 -769 
Q 5338 -325 5338 113 
L 5338 4375 
Q 5338 4819 5313 5256 
Q 5550 5231 5794 5256 
Q 5769 4819 5769 4375 
L 5769 113 
Q 5769 -325 5794 -769 
z
M 4444 -769 
Q 4206 -744 3969 -769 
Q 3988 -325 3988 113 
L 3988 4288 
Q 3988 4725 3969 5169 
Q 4206 5144 4444 5169 
Q 4425 4725 4425 4288 
L 4425 3206 
L 4794 3369 
Q 5069 2738 5250 2075 
L 4788 1950 
Q 4638 2494 4425 3013 
L 4425 113 
Q 4425 -325 4444 -769 
z
M 2688 2100 
L 2688 4363 
Q 2688 4806 2669 5244 
Q 2906 5219 3144 5244 
Q 3125 4806 3125 4363 
L 3125 3175 
L 3525 3325 
Q 3763 2700 3906 2050 
L 3438 1950 
Q 3319 2506 3125 3044 
L 3125 2100 
Q 3125 188 1938 -744 
Q 1788 -513 1513 -475 
Q 2688 250 2688 2100 
z
M 1706 1950 
Q 1981 2631 2169 3338 
L 2631 3213 
Q 2438 2475 2150 1769 
L 1706 1950 
z
M 819 -738 
Q 594 -588 256 -575 
Q 494 -69 747 581 
Q 1000 1231 1481 2838 
L 1706 2706 
L 1081 338 
L 819 -738 
z
M 1244 2856 
L 900 2550 
L 94 3400 
L 438 3713 
L 1244 2856 
z
M 1344 3913 
Q 969 4388 525 4800 
L 850 5125 
Q 1319 4688 1713 4188 
L 1344 3913 
z
" transform="scale(0.015625)"/>
       </defs>
       <use xlink:href="#WenQuanYiZenHei-6b50"/>
       <use xlink:href="#WenQuanYiZenHei-6d32" transform="translate(100 0)"/>
      </g>
     </g>
    </g>
    <g id="ytick_3">
     <g id="line2d_18">
      <g>
       <use xlink:href="#m24e2b23c97" x="68.40625" y="112.573393" style="stroke: #000000; stroke-width: 0.8"/>
      </g>
     </g>
     <g id="text_6">
      <!-- 中國大陸 -->
      <g transform="translate(21.40625 116.518705) scale(0.1 -0.1)">
       <defs>
        <path id="WenQuanYiZenHei-4e2d" d="M 3200 -688 
Q 2944 -663 2694 -688 
Q 2719 -225 2719 244 
L 2719 1700 
L 813 1700 
L 813 1375 
L 356 1375 
L 356 3938 
L 2719 3938 
L 2719 4331 
Q 2719 4794 2694 5263 
Q 2944 5238 3200 5263 
Q 3175 4794 3175 4331 
L 3175 3938 
L 5538 3938 
L 5538 1375 
L 5081 1375 
L 5081 1700 
L 3175 1700 
L 3175 244 
Q 3175 -225 3200 -688 
z
M 3175 2075 
L 5081 2075 
L 5081 3563 
L 3175 3563 
L 3175 2075 
z
M 2719 2075 
L 2719 3563 
L 813 3563 
L 813 2075 
L 2719 2075 
z
" transform="scale(0.015625)"/>
        <path id="WenQuanYiZenHei-5927" d="M 1281 3069 
Q 863 3069 438 3050 
Q 463 3275 438 3506 
Q 863 3488 1281 3488 
L 2931 3488 
L 2931 4300 
Q 2931 4781 2906 5263 
Q 3163 5231 3425 5263 
Q 3400 4781 3400 4300 
L 3400 3488 
L 5188 3488 
Q 5606 3488 6025 3506 
Q 6000 3275 6025 3050 
Q 5606 3069 5188 3069 
L 3481 3069 
Q 3894 1500 4863 550 
Q 5431 25 6156 -313 
Q 5906 -438 5788 -694 
Q 4919 -269 4284 515 
Q 3650 1300 3281 2294 
Q 3038 1256 2350 443 
Q 1663 -369 700 -775 
Q 556 -475 231 -413 
Q 1394 -50 2119 903 
Q 2844 1856 2919 3069 
L 1281 3069 
z
" transform="scale(0.015625)"/>
        <path id="WenQuanYiZenHei-9678" d="M 6175 -231 
Q 6156 -400 6175 -569 
Q 5863 -550 5550 -550 
L 2731 -550 
Q 2419 -550 2106 -569 
Q 2125 -400 2106 -231 
Q 2419 -244 2731 -244 
L 3931 -244 
L 3931 644 
L 3119 644 
Q 2806 644 2494 631 
Q 2513 800 2494 969 
Q 2806 956 3119 956 
L 3931 956 
L 3913 1888 
Q 4150 1863 4381 1888 
L 4363 956 
L 5219 956 
Q 5531 956 5844 969 
Q 5825 800 5844 631 
Q 5531 644 5219 644 
L 4363 644 
L 4363 -244 
L 5550 -244 
Q 5863 -244 6175 -231 
z
M 2894 2938 
Q 2581 2938 2269 2925 
Q 2288 3094 2269 3263 
Q 2581 3244 2894 3244 
L 3931 3244 
L 3931 4044 
L 3181 4044 
Q 2869 4044 2556 4031 
Q 2575 4200 2556 4369 
Q 2869 4356 3181 4356 
L 3931 4356 
Q 3931 4781 3913 5213 
Q 4150 5188 4381 5213 
Q 4363 4781 4363 4356 
L 5163 4356 
Q 5475 4356 5788 4369 
Q 5769 4200 5788 4031 
Q 5475 4044 5163 4044 
L 4363 4044 
L 4363 3244 
L 5431 3244 
Q 5744 3244 6056 3263 
Q 6038 3094 6056 2925 
Q 5744 2938 5431 2938 
L 5006 2938 
Q 5563 2400 6050 1800 
L 5681 1500 
Q 5206 2088 4656 2619 
L 4963 2938 
L 2894 2938 
z
M 3331 2900 
Q 3531 2775 3750 2694 
Q 3369 1856 2388 1356 
Q 2319 1569 2138 1706 
Q 2531 1888 2803 2166 
Q 3075 2444 3331 2900 
z
M 763 -850 
Q 544 -825 325 -850 
Q 344 -419 344 19 
L 338 4938 
L 2106 4938 
L 2106 4625 
Q 2006 4513 1938 4375 
L 1381 3238 
Q 2038 2319 2038 1156 
Q 2000 400 1463 163 
L 1313 88 
Q 1206 300 1063 481 
Q 1206 538 1356 606 
Q 1644 744 1675 1156 
Q 1675 1744 1494 2300 
Q 1313 2856 969 3313 
L 1606 4625 
L 738 4625 
L 744 19 
Q 744 -419 763 -850 
z
" transform="scale(0.015625)"/>
       </defs>
       <use xlink:href="#WenQuanYiZenHei-4e2d"/>
       <use xlink:href="#WenQuanYiZenHei-570b" transform="translate(100 0)"/>
       <use xlink:href="#WenQuanYiZenHei-5927" transform="translate(200 0)"/>
       <use xlink:href="#WenQuanYiZenHei-9678" transform="translate(300 0)"/>
      </g>
     </g>
    </g>
    <g id="ytick_4">
     <g id="line2d_19">
      <g>
       <use xlink:href="#m24e2b23c97" x="68.40625" y="143.430536" style="stroke: #000000; stroke-width: 0.8"/>
      </g>
     </g>
     <g id="text_7">
      <!-- 日本 -->
      <g transform="translate(41.40625 147.317254) scale(0.1 -0.1)">
       <defs>
        <path id="WenQuanYiZenHei-65e5" d="M 1494 -775 
Q 1244 -750 988 -775 
Q 1013 -313 1013 156 
L 1013 4875 
L 5269 4875 
L 5269 -763 
L 4813 -763 
L 4813 156 
L 1469 156 
Q 1469 -313 1494 -775 
z
M 4813 2700 
L 4813 4500 
L 1469 4500 
L 1469 2700 
L 4813 2700 
z
M 4813 531 
L 4813 2325 
L 1469 2325 
L 1469 531 
L 4813 531 
z
" transform="scale(0.015625)"/>
        <path id="WenQuanYiZenHei-672c" d="M 4713 1181 
Q 4694 975 4713 769 
Q 4331 788 3950 788 
L 3369 788 
L 3369 163 
Q 3369 -300 3394 -769 
Q 3138 -738 2888 -769 
Q 2913 -300 2913 163 
L 2913 788 
L 2325 788 
Q 1944 788 1563 769 
Q 1588 975 1563 1181 
Q 1944 1163 2325 1163 
L 2913 1163 
L 2913 3200 
Q 1881 1388 463 363 
Q 331 613 69 738 
Q 1725 1856 2563 3569 
L 1081 3569 
Q 700 3569 319 3550 
Q 338 3756 319 3963 
Q 700 3944 1081 3944 
L 2913 3944 
L 2913 4331 
Q 2913 4794 2888 5263 
Q 3138 5231 3394 5263 
Q 3369 4794 3369 4331 
L 3369 3944 
L 5200 3944 
Q 5581 3944 5963 3963 
Q 5938 3756 5963 3550 
Q 5581 3569 5200 3569 
L 3738 3569 
Q 4181 2650 4728 2034 
Q 5275 1419 6163 900 
Q 5906 806 5769 569 
Q 4906 1100 4294 1894 
Q 3756 2588 3369 3375 
L 3369 1163 
L 3950 1163 
Q 4331 1163 4713 1181 
z
" transform="scale(0.015625)"/>
       </defs>
       <use xlink:href="#WenQuanYiZenHei-65e5"/>
       <use xlink:href="#WenQuanYiZenHei-672c" transform="translate(100 0)"/>
      </g>
     </g>
    </g>
    <g id="ytick_5">
     <g id="line2d_20">
      <g>
       <use xlink:href="#m24e2b23c97" x="68.40625" y="174.287679" style="stroke: #000000; stroke-width: 0.8"/>
      </g>
     </g>
     <g id="text_8">
      <!-- 英國 -->
      <g transform="translate(41.40625 178.237679) scale(0.1 -0.1)">
       <defs>
        <path id="WenQuanYiZenHei-82f1" d="M 975 1175 
Q 644 1175 306 1156 
Q 325 1344 306 1525 
Q 644 1506 975 1506 
L 1238 1506 
L 1238 3044 
L 2869 3044 
Q 2869 3419 2850 3800 
Q 3088 3775 3331 3800 
Q 3313 3419 3313 3044 
L 5006 3044 
L 5006 1506 
L 5350 1506 
Q 5688 1506 6025 1525 
Q 6006 1344 6025 1156 
Q 5688 1175 5350 1175 
L 3638 1175 
Q 3963 569 4431 194 
Q 4738 -44 5150 -197 
Q 5563 -350 6069 -350 
Q 5894 -550 5894 -813 
Q 5469 -794 5075 -647 
Q 4681 -500 4406 -303 
Q 4131 -106 3888 163 
Q 3494 588 3250 1063 
Q 3113 569 2675 150 
Q 1869 -631 613 -856 
Q 556 -563 275 -431 
Q 831 -394 1368 -178 
Q 1906 38 2306 397 
Q 2706 756 2825 1175 
L 975 1175 
z
M 3313 1506 
L 4563 1506 
L 4563 2713 
L 3313 2713 
L 3313 1506 
z
M 2869 1506 
L 2869 2713 
L 1675 2713 
L 1675 1506 
L 2869 1506 
z
M 4419 3544 
Q 4169 3575 3919 3544 
Q 3938 3863 3938 4156 
L 2138 4156 
Q 2138 3850 2156 3544 
Q 1906 3575 1656 3544 
Q 1675 3863 1675 4156 
L 844 4156 
Q 481 4156 113 4138 
Q 138 4338 113 4544 
Q 481 4525 844 4525 
L 1681 4525 
Q 1675 4894 1656 5263 
Q 1906 5238 2156 5263 
Q 2138 4881 2131 4525 
L 3944 4525 
Q 3938 4894 3919 5263 
Q 4169 5238 4419 5263 
Q 4400 4881 4394 4525 
L 5406 4525 
Q 5769 4525 6138 4544 
Q 6113 4338 6138 4138 
Q 5769 4156 5406 4156 
L 4394 4156 
Q 4400 3850 4419 3544 
z
" transform="scale(0.015625)"/>
       </defs>
       <use xlink:href="#WenQuanYiZenHei-82f1"/>
       <use xlink:href="#WenQuanYiZenHei-570b" transform="translate(100 0)"/>
      </g>
     </g>
    </g>
    <g id="ytick_6">
     <g id="line2d_21">
      <g>
       <use xlink:href="#m24e2b23c97" x="68.40625" y="205.144821" style="stroke: #000000; stroke-width: 0.8"/>
      </g>
     </g>
     <g id="text_9">
      <!-- 德國 -->
      <g transform="translate(41.40625 208.972946) scale(0.1 -0.1)">
       <defs>
        <path id="WenQuanYiZenHei-5fb7" d="M 5975 -113 
Q 5644 406 5219 844 
L 5538 1156 
Q 6000 688 6350 125 
L 5975 -113 
z
M 4688 488 
L 4306 250 
L 3800 1056 
L 4175 1294 
L 4688 488 
z
M 3538 -650 
Q 3250 -650 3094 -487 
Q 2938 -325 2938 -69 
L 2938 250 
Q 2938 663 2919 1069 
Q 3138 1050 3363 1069 
Q 3344 663 3344 250 
L 3344 -69 
Q 3344 -169 3400 -244 
Q 3456 -319 3544 -319 
L 4938 -313 
Q 5013 -313 5066 -247 
Q 5119 -181 5138 -88 
L 5238 450 
Q 5419 344 5625 331 
L 5463 -369 
Q 5438 -488 5375 -569 
Q 5313 -650 5219 -650 
L 3538 -650 
z
M 1725 -263 
Q 2044 325 2288 950 
L 2700 794 
Q 2450 138 2119 -475 
L 1725 -263 
z
M 6125 1650 
Q 6106 1506 6125 1363 
Q 5856 1375 5581 1375 
L 2606 1375 
Q 2338 1375 2069 1363 
Q 2088 1506 2069 1650 
Q 2338 1638 2606 1638 
L 5581 1638 
Q 5856 1638 6125 1650 
z
M 2450 2125 
Q 2525 2869 2450 3606 
L 3413 3606 
L 3413 3644 
L 3475 3644 
Q 3581 3888 3669 4175 
L 2700 4175 
Q 2431 4175 2163 4163 
Q 2175 4306 2163 4450 
Q 2431 4438 2700 4438 
L 3750 4438 
L 3925 5113 
Q 4138 5044 4363 5019 
Q 4306 4725 4213 4438 
L 5600 4438 
Q 5869 4438 6138 4450 
Q 6125 4306 6138 4163 
Q 5869 4175 5600 4175 
L 4125 4175 
L 3894 3606 
L 5825 3606 
Q 5750 2869 5819 2125 
L 2450 2125 
z
M 2856 3344 
L 2856 2388 
L 3413 2388 
L 3413 3344 
L 2856 3344 
z
M 4769 3344 
L 4769 2388 
L 5413 2388 
L 5419 3344 
L 4769 3344 
z
M 4363 3344 
L 3819 3344 
L 3819 2388 
L 4363 2388 
L 4363 3344 
z
M 1688 3663 
Q 1869 3519 2088 3419 
Q 1794 2919 1444 2469 
L 1444 13 
Q 1444 -419 1469 -850 
Q 1231 -825 1000 -850 
Q 1019 -419 1019 13 
L 1019 1956 
L 381 1263 
Q 256 1438 38 1513 
Q 688 2144 1244 2981 
L 1688 3663 
z
M 1519 5094 
Q 1706 4969 1931 4875 
Q 1531 4119 881 3525 
Q 669 3325 438 3138 
Q 325 3331 125 3425 
Q 694 3850 1131 4488 
Q 1338 4788 1519 5094 
z
" transform="scale(0.015625)"/>
       </defs>
       <use xlink:href="#WenQuanYiZenHei-5fb7"/>
       <use xlink:href="#WenQuanYiZenHei-570b" transform="translate(100 0)"/>
      </g>
     </g>
    </g>
    <g id="ytick_7">
     <g id="line2d_22">
      <g>
       <use xlink:href="#m24e2b23c97" x="68.40625" y="236.001964" style="stroke: #000000; stroke-width: 0.8"/>
      </g>
     </g>
     <g id="text_10">
      <!-- 荷蘭 -->
      <g transform="translate(41.40625 239.962121) scale(0.1 -0.1)">
       <defs>
        <path id="WenQuanYiZenHei-8377" d="M 2800 156 
L 2369 156 
L 2369 2375 
L 4044 2375 
L 4044 156 
L 3619 156 
L 3619 663 
L 2800 663 
L 2800 156 
z
M 4831 0 
L 4831 2975 
L 2750 2975 
Q 2438 2975 2125 2963 
Q 2138 3131 2125 3300 
Q 2438 3281 2750 3281 
L 5481 3281 
Q 5794 3281 6106 3300 
Q 6088 3131 6106 2963 
L 5256 2975 
L 5256 -175 
Q 5256 -538 4994 -688 
Q 4713 -844 4206 -838 
Q 4269 -544 4069 -319 
Q 4250 -338 4487 -341 
Q 4725 -344 4778 -300 
Q 4831 -256 4831 0 
z
M 1631 -800 
Q 1394 -775 1163 -800 
Q 1181 -363 1181 75 
L 1181 1906 
Q 850 1544 444 1238 
Q 338 1438 131 1538 
Q 731 1969 1097 2487 
Q 1463 3006 1763 3750 
Q 1981 3650 2206 3594 
Q 2000 2981 1613 2431 
L 1613 75 
Q 1613 -363 1631 -800 
z
M 3619 2069 
L 2800 2069 
L 2800 969 
L 3619 969 
L 3619 2069 
z
M 4419 3713 
Q 4169 3738 3919 3713 
Q 3938 4000 3938 4269 
L 2138 4269 
Q 2138 3994 2156 3713 
Q 1906 3738 1656 3713 
Q 1675 4000 1675 4269 
L 844 4269 
Q 481 4269 113 4256 
Q 138 4438 113 4625 
Q 481 4606 844 4606 
L 1681 4606 
Q 1675 4944 1656 5281 
Q 1906 5256 2156 5281 
Q 2138 4931 2131 4606 
L 3944 4606 
Q 3938 4944 3919 5281 
Q 4169 5256 4419 5281 
Q 4400 4931 4394 4606 
L 5406 4606 
Q 5769 4606 6138 4625 
Q 6113 4438 6138 4256 
Q 5769 4269 5406 4269 
L 4394 4269 
Q 4400 3994 4419 3713 
z
" transform="scale(0.015625)"/>
        <path id="WenQuanYiZenHei-862d" d="M 3294 1619 
L 3294 950 
L 3463 950 
Q 3419 975 3363 1000 
Q 3494 1094 3556 1219 
Q 3619 1344 3675 1550 
Q 3881 1488 4094 1463 
Q 4056 1200 3850 950 
L 4263 950 
L 4263 1619 
L 3294 1619 
z
M 3294 713 
L 3294 700 
Q 4038 425 4750 81 
L 4563 -300 
Q 3938 0 3294 244 
L 3294 -6 
Q 3294 -400 3313 -794 
Q 3100 -769 2888 -794 
Q 2906 -400 2906 -6 
L 2906 406 
Q 2275 -119 1269 -381 
Q 1250 -181 1113 -25 
Q 1856 144 2606 713 
L 1500 713 
Q 1569 1288 1500 1856 
L 2906 1856 
L 2900 2106 
L 1800 2106 
Q 1581 2106 1369 2094 
Q 1381 2213 1369 2331 
Q 1581 2319 1800 2319 
L 2900 2319 
Q 2894 2500 2888 2675 
Q 3100 2656 3313 2675 
Q 3300 2500 3300 2319 
L 4369 2319 
Q 4581 2319 4800 2331 
Q 4788 2213 4800 2094 
Q 4581 2106 4369 2106 
L 3294 2106 
L 3294 1856 
L 4656 1856 
Q 4581 1288 4650 713 
L 3294 713 
z
M 5400 81 
L 5400 2594 
L 3494 2594 
L 3481 3963 
L 5381 3956 
L 5381 4000 
Q 5594 3975 5806 4000 
Q 5788 3606 5788 3213 
L 5788 -138 
Q 5788 -456 5594 -631 
Q 5388 -806 4875 -800 
Q 4931 -531 4756 -325 
Q 4906 -344 5103 -347 
Q 5300 -350 5350 -300 
Q 5400 -250 5400 81 
z
M 375 3944 
L 2688 3950 
L 2688 2606 
L 763 2606 
L 763 -6 
Q 763 -400 781 -794 
Q 569 -769 356 -794 
Q 375 -400 375 -6 
L 375 3944 
z
M 2906 950 
L 2906 1619 
L 1888 1619 
L 1888 950 
L 2306 950 
L 2025 1363 
L 2381 1600 
L 2713 1100 
L 2488 950 
L 2906 950 
z
M 5394 3719 
L 3869 3719 
L 3875 3356 
L 5400 3356 
Q 5400 3538 5394 3719 
z
M 5400 3144 
L 3875 3144 
L 3881 2831 
L 5400 2831 
L 5400 3144 
z
M 763 2819 
L 2300 2819 
L 2300 3125 
L 763 3125 
L 763 2819 
z
M 763 3338 
L 2300 3338 
L 2300 3713 
L 763 3713 
L 763 3338 
z
M 4175 3856 
Q 3938 3881 3706 3856 
Q 3725 4131 3725 4394 
L 2381 4394 
Q 2388 4125 2400 3856 
Q 2169 3881 1938 3856 
Q 1950 4131 1956 4394 
L 719 4394 
Q 419 4394 119 4381 
Q 131 4525 119 4669 
Q 419 4656 719 4656 
L 1956 4656 
Q 1950 4969 1938 5275 
Q 2169 5256 2400 5275 
Q 2381 4956 2381 4656 
L 3725 4656 
Q 3725 4975 3706 5288 
Q 3938 5269 4175 5288 
Q 4156 4969 4150 4656 
L 5531 4656 
Q 5831 4656 6131 4669 
Q 6119 4525 6131 4381 
Q 5831 4394 5531 4394 
L 4156 4394 
Q 4156 4125 4175 3856 
z
" transform="scale(0.015625)"/>
       </defs>
       <use xlink:href="#WenQuanYiZenHei-8377"/>
       <use xlink:href="#WenQuanYiZenHei-862d" transform="translate(100 0)"/>
      </g>
     </g>
    </g>
    <g id="ytick_8">
     <g id="line2d_23">
      <g>
       <use xlink:href="#m24e2b23c97" x="68.40625" y="266.859107" style="stroke: #000000; stroke-width: 0.8"/>
      </g>
     </g>
     <g id="text_11">
      <!-- 大洋洲 -->
      <g transform="translate(31.40625 270.745826) scale(0.1 -0.1)">
       <defs>
        <path id="WenQuanYiZenHei-6d0b" d="M 4231 -769 
Q 3994 -744 3750 -769 
Q 3775 -325 3775 113 
L 3775 981 
L 2669 981 
Q 2350 981 2025 969 
Q 2044 1144 2025 1319 
Q 2350 1300 2669 1300 
L 3775 1300 
L 3775 2231 
L 3025 2231 
Q 2700 2231 2381 2219 
Q 2400 2394 2381 2569 
Q 2700 2550 3025 2550 
L 3775 2550 
L 3775 3463 
L 2394 3463 
L 2394 3781 
L 3400 3781 
Q 3163 4369 2744 4856 
L 3113 5169 
Q 3588 4606 3856 3925 
L 3506 3781 
L 4044 3781 
Q 4288 4056 4469 4365 
Q 4650 4675 4869 5156 
Q 5081 5044 5313 4975 
Q 5088 4406 4600 3781 
L 5313 3781 
Q 5631 3781 5956 3800 
Q 5938 3625 5956 3450 
Q 5631 3463 5313 3463 
L 4338 3463 
L 4306 3431 
Q 4281 3475 4206 3463 
L 4206 2550 
L 5156 2550 
Q 5481 2550 5806 2569 
Q 5788 2394 5806 2219 
Q 5481 2231 5156 2231 
L 4206 2231 
L 4206 1300 
L 5525 1300 
Q 5850 1300 6175 1319 
Q 6156 1144 6175 969 
Q 5850 981 5525 981 
L 4206 981 
L 4206 113 
Q 4206 -325 4231 -769 
z
M 906 -738 
Q 656 -588 288 -575 
Q 550 -69 831 581 
Q 1113 1231 1650 2838 
L 1900 2706 
L 1200 338 
L 906 -738 
z
M 1388 2856 
L 1000 2550 
L 100 3400 
L 488 3713 
L 1388 2856 
z
M 1494 3913 
Q 1075 4388 588 4800 
L 950 5125 
Q 1469 4688 1906 4188 
L 1494 3913 
z
" transform="scale(0.015625)"/>
       </defs>
       <use xlink:href="#WenQuanYiZenHei-5927"/>
       <use xlink:href="#WenQuanYiZenHei-6d0b" transform="translate(100 0)"/>
       <use xlink:href="#WenQuanYiZenHei-6d32" transform="translate(200 0)"/>
      </g>
     </g>
    </g>
    <g id="ytick_9">
     <g id="line2d_24">
      <g>
       <use xlink:href="#m24e2b23c97" x="68.40625" y="297.71625" style="stroke: #000000; stroke-width: 0.8"/>
      </g>
     </g>
     <g id="text_12">
      <!-- 香港 -->
      <g transform="translate(41.40625 301.637344) scale(0.1 -0.1)">
       <defs>
        <path id="WenQuanYiZenHei-9999" d="M 1975 -763 
Q 1738 -738 1494 -763 
Q 1519 -325 1519 119 
L 1519 2119 
Q 988 1713 394 1519 
Q 344 1781 144 1963 
Q 619 2106 1069 2365 
Q 1519 2625 1806 2969 
Q 1981 3175 2213 3531 
L 1113 3531 
Q 788 3531 463 3513 
Q 481 3688 463 3863 
Q 788 3850 1113 3850 
L 2981 3850 
L 2981 4694 
L 975 4538 
L 744 4963 
Q 1681 4906 3081 5063 
Q 4306 5188 4956 5319 
Q 4950 5069 5000 4825 
Q 4419 4800 3413 4725 
L 3413 3850 
L 5256 3850 
Q 5581 3850 5900 3863 
Q 5881 3688 5900 3513 
Q 5581 3531 5256 3531 
L 4006 3531 
Q 4463 2969 4928 2622 
Q 5394 2275 6125 1975 
Q 5900 1850 5813 1606 
Q 5013 1956 4413 2531 
Q 3900 3013 3513 3531 
L 3413 3531 
L 3413 2144 
L 4806 2144 
L 4806 -750 
L 4369 -750 
L 4369 -281 
L 1956 -281 
Q 1963 -525 1975 -763 
z
M 4369 1088 
L 4369 1825 
L 1950 1825 
L 1950 1088 
L 4369 1088 
z
M 4369 769 
L 1950 769 
L 1950 38 
L 4369 38 
L 4369 769 
z
M 1550 2144 
L 2981 2144 
L 2981 3531 
L 2775 3531 
Q 2269 2700 1550 2144 
z
" transform="scale(0.015625)"/>
        <path id="WenQuanYiZenHei-6e2f" d="M 3175 -656 
Q 2881 -656 2718 -484 
Q 2556 -313 2556 -44 
L 2556 1513 
Q 2138 1031 1544 644 
Q 1456 844 1263 956 
Q 1775 1275 2131 1697 
Q 2488 2119 2806 2769 
L 2319 2769 
Q 2025 2769 1731 2756 
Q 1750 2913 1731 3069 
Q 2025 3056 2319 3056 
L 2844 3056 
L 2844 3875 
L 2544 3875 
Q 2250 3875 1956 3856 
Q 1975 4019 1956 4175 
Q 2250 4163 2544 4163 
L 2844 4163 
L 2844 4413 
Q 2844 4838 2825 5263 
Q 3050 5238 3281 5263 
Q 3263 4838 3263 4413 
L 3263 4163 
L 4231 4163 
L 4231 4413 
Q 4231 4838 4206 5263 
Q 4438 5238 4669 5263 
Q 4650 4838 4650 4413 
L 4650 4163 
L 5069 4163 
Q 5363 4163 5656 4175 
Q 5638 4019 5656 3856 
Q 5363 3875 5069 3875 
L 4650 3875 
L 4650 3056 
L 5338 3056 
Q 5631 3056 5925 3069 
Q 5906 2913 5925 2756 
Q 5631 2769 5338 2769 
L 4563 2769 
Q 4875 2225 5219 1900 
Q 5563 1575 6156 1281 
Q 5925 1175 5825 950 
Q 5250 1244 4738 1856 
L 4738 438 
L 4319 438 
L 4319 606 
L 2975 606 
L 2975 -44 
Q 2975 -150 3031 -228 
Q 3088 -306 3181 -306 
L 4756 -300 
Q 4838 -300 4897 -228 
Q 4956 -156 4975 -50 
L 5081 550 
Q 5269 438 5488 425 
L 5313 -344 
Q 5288 -475 5222 -565 
Q 5156 -656 5050 -656 
L 3175 -656 
z
M 2975 875 
L 4319 875 
L 4319 1606 
L 2975 1606 
L 2975 875 
z
M 2850 1894 
L 4706 1894 
Q 4375 2306 4131 2769 
L 3275 2769 
Q 3131 2313 2850 1894 
z
M 4231 3056 
L 4231 3875 
L 3263 3875 
L 3263 3056 
L 4231 3056 
z
M 775 -738 
Q 563 -588 244 -575 
Q 469 -69 709 581 
Q 950 1231 1406 2838 
L 1613 2706 
L 1025 338 
L 775 -738 
z
M 1181 2856 
L 850 2550 
L 88 3400 
L 413 3713 
L 1181 2856 
z
M 1275 3913 
Q 919 4388 500 4800 
L 806 5125 
Q 1250 4688 1625 4188 
L 1275 3913 
z
" transform="scale(0.015625)"/>
       </defs>
       <use xlink:href="#WenQuanYiZenHei-9999"/>
       <use xlink:href="#WenQuanYiZenHei-6e2f" transform="translate(100 0)"/>
      </g>
     </g>
    </g>
    <g id="ytick_10">
     <g id="line2d_25">
      <g>
       <use xlink:href="#m24e2b23c97" x="68.40625" y="328.573393" style="stroke: #000000; stroke-width: 0.8"/>
      </g>
     </g>
     <g id="text_13">
      <!-- 加拿大 -->
      <g transform="translate(31.40625 332.587455) scale(0.1 -0.1)">
       <defs>
        <path id="WenQuanYiZenHei-52a0" d="M 4100 -194 
L 3638 -194 
L 3638 4250 
L 5725 4250 
L 5725 -194 
L 5269 -194 
L 5269 150 
L 4100 150 
L 4100 -194 
z
M 144 -519 
Q 1475 894 1394 3688 
L 1188 3688 
Q 806 3688 425 3669 
Q 444 3875 425 4081 
Q 806 4063 1188 4063 
L 1394 4063 
L 1394 4331 
Q 1394 4800 1369 5263 
Q 1619 5238 1875 5263 
Q 1850 4794 1850 4331 
L 1850 4063 
L 3125 4063 
L 3125 181 
Q 3125 -225 2838 -381 
Q 2531 -544 1950 -538 
Q 2025 -219 1800 19 
Q 2000 -6 2269 -9 
Q 2538 -13 2600 38 
Q 2663 119 2663 375 
L 2663 3688 
L 1850 3688 
L 1850 3506 
Q 1875 856 669 -650 
Q 438 -456 144 -519 
z
M 5269 3875 
L 4100 3875 
L 4100 531 
L 5269 531 
L 5269 3875 
z
" transform="scale(0.015625)"/>
        <path id="WenQuanYiZenHei-62ff" d="M 3694 3588 
L 2588 3588 
Q 2275 3588 1963 3569 
Q 1969 3650 1969 3731 
Q 1213 3150 394 2856 
Q 338 3113 138 3294 
Q 688 3475 1216 3759 
Q 1744 4044 2113 4406 
Q 2506 4813 2863 5263 
L 3056 5119 
L 3200 5213 
Q 3644 4538 4363 4088 
Q 5069 3669 6088 3500 
Q 5894 3331 5863 3075 
Q 5063 3200 4313 3650 
Q 4313 3613 4319 3569 
Q 4006 3588 3694 3588 
z
M 1925 2975 
L 1925 2575 
L 4338 2575 
L 4338 2975 
L 1925 2975 
z
M 4769 3281 
Q 4688 2775 4769 2269 
L 1494 2269 
Q 1569 2775 1494 3281 
L 4769 3281 
z
M 2181 3900 
L 3950 3894 
Q 3431 4275 3056 4756 
Q 2644 4281 2181 3900 
z
M 4825 1950 
Q 4850 1738 4925 1550 
Q 4600 1488 4322 1469 
Q 4044 1450 3338 1438 
Q 3331 1256 3331 1069 
L 4625 1069 
Q 4938 1069 5250 1081 
Q 5231 944 5250 800 
Q 4938 813 4625 813 
L 3331 813 
L 3331 400 
L 5513 400 
Q 5825 400 6138 413 
Q 6119 275 6138 131 
Q 5825 144 5513 144 
L 3331 144 
L 3331 -419 
Q 3331 -619 3178 -737 
Q 3025 -856 2856 -888 
Q 2544 -938 2225 -938 
Q 2275 -663 2081 -506 
Q 2275 -525 2540 -525 
Q 2806 -525 2856 -494 
Q 2906 -463 2906 -306 
L 2906 144 
L 950 144 
Q 638 144 325 131 
Q 344 275 325 413 
Q 638 400 950 400 
L 2906 400 
L 2906 813 
L 1644 813 
Q 1331 813 1019 800 
Q 1038 944 1019 1081 
Q 1331 1069 1644 1069 
L 2906 1069 
Q 2900 1250 2894 1431 
L 2831 1431 
Q 1694 1413 1422 1394 
Q 1150 1375 1094 1375 
L 856 1713 
Q 2656 1663 4206 1813 
Q 4525 1856 4825 1950 
z
" transform="scale(0.015625)"/>
       </defs>
       <use xlink:href="#WenQuanYiZenHei-52a0"/>
       <use xlink:href="#WenQuanYiZenHei-62ff" transform="translate(100 0)"/>
       <use xlink:href="#WenQuanYiZenHei-5927" transform="translate(200 0)"/>
      </g>
     </g>
    </g>
    <g id="text_14">
     <!-- 國家/地區別 -->
     <g transform="translate(15.696875 217.313906) rotate(-90) scale(0.1 -0.1)">
      <defs>
       <path id="WenQuanYiZenHei-5bb6" d="M 1750 3363 
Q 1438 3363 1125 3344 
Q 1144 3513 1125 3681 
Q 1438 3669 1750 3669 
L 4469 3669 
Q 4781 3669 5094 3681 
Q 5075 3513 5094 3344 
Q 4781 3363 4469 3363 
L 3294 3363 
L 3319 3338 
L 2994 3050 
Q 3488 2794 3706 2075 
Q 4088 2256 4431 2512 
Q 4775 2769 5200 3169 
Q 5350 2981 5531 2838 
Q 5069 2350 4419 1969 
Q 4663 881 5394 350 
Q 5713 119 6075 -25 
Q 5850 -150 5763 -388 
Q 5138 -125 4700 456 
Q 4263 1038 4063 1775 
L 3800 1650 
Q 3931 669 3613 -238 
Q 3550 -388 3444 -538 
Q 3219 -850 2744 -925 
Q 2675 -638 2406 -525 
Q 3038 -531 3213 -106 
Q 3419 488 3413 1181 
Q 1988 -113 431 -544 
Q 394 -275 206 -81 
Q 869 88 1512 384 
Q 2156 681 2575 1040 
Q 2994 1400 3331 1756 
L 3356 1731 
Q 3306 2000 3219 2219 
Q 1938 956 538 606 
Q 506 869 325 1069 
Q 869 1194 1387 1419 
Q 1906 1644 2256 1941 
Q 2606 2238 2894 2556 
L 3188 2281 
Q 3025 2613 2750 2694 
Q 2663 2719 2575 2706 
Q 1606 1963 638 1638 
Q 581 1900 388 2081 
Q 1575 2450 2281 3025 
Q 2431 3150 2663 3363 
L 1750 3363 
z
M 781 3469 
L 350 3469 
L 350 4669 
L 3006 4669 
L 2463 5050 
L 2731 5438 
L 3406 4963 
L 3200 4669 
L 5863 4669 
L 5863 3469 
L 5431 3469 
L 5431 4363 
L 781 4363 
L 781 3469 
z
" transform="scale(0.015625)"/>
       <path id="WenQuanYiZenHei-2f" d="M 3213 4388 
L 563 -1094 
L 138 -1094 
L 2775 4388 
L 3213 4388 
z
" transform="scale(0.015625)"/>
       <path id="WenQuanYiZenHei-5730" d="M 3238 -688 
Q 2981 -688 2775 -500 
Q 2569 -313 2569 75 
L 2569 2438 
Q 2263 2325 1956 2194 
Q 1906 2388 1819 2563 
L 2569 2825 
L 2569 3406 
Q 2569 3863 2550 4325 
Q 2800 4294 3044 4325 
Q 3025 3863 3025 3406 
L 3025 2988 
L 3819 3281 
L 3819 4344 
Q 3819 4800 3800 5263 
Q 4050 5238 4294 5263 
Q 4275 4800 4275 4344 
L 4275 3450 
L 5700 3975 
L 5700 1388 
Q 5669 994 5350 869 
Q 5050 738 4625 744 
Q 4694 1050 4488 1294 
Q 4669 1275 4916 1269 
Q 5163 1263 5203 1303 
Q 5244 1344 5244 1506 
L 5244 3425 
L 4275 3069 
L 4275 1331 
Q 4275 869 4294 413 
Q 4050 438 3800 413 
Q 3819 869 3819 1331 
L 3819 2900 
L 3025 2606 
L 3025 75 
Q 3025 -69 3081 -175 
Q 3138 -281 3244 -281 
L 5456 -275 
Q 5575 -275 5653 -165 
Q 5731 -56 5750 100 
L 5875 988 
Q 6075 850 6313 856 
L 6138 -244 
Q 6113 -431 6025 -559 
Q 5938 -688 5794 -688 
L 3238 -688 
z
M -31 625 
Q 481 763 956 975 
L 956 3206 
L 638 3206 
Q 356 3206 69 3188 
Q 88 3356 69 3531 
Q 356 3513 638 3513 
L 956 3513 
L 956 4263 
Q 956 4700 938 5131 
Q 1150 5106 1363 5131 
Q 1344 4700 1344 4263 
L 1344 3513 
L 2131 3531 
Q 2113 3356 2131 3188 
L 1344 3206 
L 1344 1163 
L 2044 1531 
L 2088 1256 
Q 1206 775 775 519 
L 188 144 
Q 131 438 -31 625 
z
" transform="scale(0.015625)"/>
       <path id="WenQuanYiZenHei-5340" d="M 3738 650 
Q 3813 1400 3738 2150 
L 5625 2150 
Q 5544 1400 5613 650 
L 3738 650 
z
M 1406 650 
Q 1488 1400 1406 2150 
L 3294 2150 
Q 3213 1400 3281 650 
L 1406 650 
z
M 2125 2756 
Q 2200 3431 2125 4106 
L 4869 4106 
Q 4788 3431 4863 2756 
L 2125 2756 
z
M 4163 1850 
L 4163 950 
L 5194 950 
L 5200 1850 
L 4163 1850 
z
M 1831 1850 
L 1831 950 
L 2863 950 
L 2869 1850 
L 1831 1850 
z
M 2544 3806 
L 2544 3056 
L 4444 3056 
L 4444 3806 
L 2544 3806 
z
M 6025 5013 
Q 6006 4844 6025 4675 
Q 5700 4688 5369 4688 
L 863 4688 
L 863 -25 
L 6131 -25 
L 6131 -338 
L 413 -338 
L 406 5000 
L 5369 5000 
Q 5700 5000 6025 5013 
z
" transform="scale(0.015625)"/>
       <path id="WenQuanYiZenHei-5225" d="M 1213 2813 
L 769 2813 
L 769 4969 
L 3263 4969 
L 3263 2813 
L 2819 2813 
L 2819 3075 
L 1850 3075 
L 1850 2281 
L 3306 2281 
L 3306 -194 
Q 3306 -431 3147 -575 
Q 2988 -719 2769 -775 
Q 2531 -831 2156 -825 
Q 2225 -519 2006 -281 
Q 2206 -306 2487 -309 
Q 2769 -313 2816 -275 
Q 2863 -238 2863 -69 
L 2863 1938 
L 1850 1938 
Q 1906 756 1350 -38 
Q 1031 -500 544 -788 
Q 419 -538 156 -450 
Q 669 -231 988 225 
Q 1406 813 1406 1663 
L 1406 3075 
Q 1313 3075 1213 3075 
L 1213 2813 
z
M 2819 4625 
L 1219 4625 
L 1213 3419 
L 2819 3419 
L 2819 4625 
z
M 4831 -888 
Q 4881 -544 4688 -350 
Q 4881 -375 5122 -378 
Q 5363 -381 5434 -325 
Q 5506 -269 5506 38 
L 5506 4181 
Q 5506 4631 5488 5075 
Q 5719 5050 5956 5075 
Q 5931 4631 5931 4181 
L 5931 -106 
Q 5931 -656 5538 -800 
Q 5206 -913 4831 -888 
z
M 4694 756 
Q 4456 781 4225 756 
Q 4244 1200 4244 1650 
L 4244 3269 
Q 4244 3713 4225 4163 
Q 4456 4138 4694 4163 
Q 4669 3713 4669 3269 
L 4669 1650 
Q 4669 1200 4694 756 
z
" transform="scale(0.015625)"/>
      </defs>
      <use xlink:href="#WenQuanYiZenHei-570b"/>
      <use xlink:href="#WenQuanYiZenHei-5bb6" transform="translate(100 0)"/>
      <use xlink:href="#WenQuanYiZenHei-2f" transform="translate(200 0)"/>
      <use xlink:href="#WenQuanYiZenHei-5730" transform="translate(251.953125 0)"/>
      <use xlink:href="#WenQuanYiZenHei-5340" transform="translate(351.953125 0)"/>
      <use xlink:href="#WenQuanYiZenHei-5225" transform="translate(451.953125 0)"/>
     </g>
    </g>
   </g>
   <g id="patch_13">
    <path d="M 68.40625 356.03625 
L 68.40625 23.39625 
" style="fill: none; stroke: #000000; stroke-width: 0.8; stroke-linejoin: miter; stroke-linecap: square"/>
   </g>
   <g id="patch_14">
    <path d="M 570.60625 356.03625 
L 570.60625 23.39625 
" style="fill: none; stroke: #000000; stroke-width: 0.8; stroke-linejoin: miter; stroke-linecap: square"/>
   </g>
   <g id="patch_15">
    <path d="M 68.40625 356.03625 
L 570.60625 356.03625 
" style="fill: none; stroke: #000000; stroke-width: 0.8; stroke-linejoin: miter; stroke-linecap: square"/>
   </g>
   <g id="patch_16">
    <path d="M 68.40625 23.39625 
L 570.60625 23.39625 
" style="fill: none; stroke: #000000; stroke-width: 0.8; stroke-linejoin: miter; stroke-linecap: square"/>
   </g>
   <g id="text_15">
    <!-- 108年度國家財政部出口統計 (2)玩具與運動用品 Top 10 -->
    <g transform="translate(171.453438 17.39625) scale(0.12 -0.12)">
     <defs>
      <path id="WenQuanYiZenHei-38" d="M 3619 1175 
Q 3619 431 2850 100 
Q 2444 -63 1944 -63 
Q 1231 -63 725 269 
Q 225 594 225 1125 
Q 225 1881 1269 2281 
Q 719 2481 519 2938 
Q 444 3119 444 3319 
Q 444 4000 1144 4294 
Q 1519 4456 1963 4456 
Q 2669 4456 3094 4094 
Q 3425 3813 3425 3369 
Q 3425 2638 2575 2356 
Q 3231 2056 3450 1725 
Q 3619 1488 3619 1175 
z
M 2944 3344 
Q 2944 3906 2288 4019 
Q 2138 4044 1969 4044 
Q 1438 4044 1163 3775 
Q 1000 3613 1000 3375 
Q 1000 2925 1594 2663 
Q 1756 2588 1931 2550 
Q 2581 2725 2788 2956 
Q 2944 3125 2944 3344 
z
M 3075 1094 
Q 3075 1738 1875 2050 
Q 1094 1881 850 1463 
Q 763 1313 763 1131 
Q 763 569 1456 406 
Q 1681 344 1944 344 
Q 2519 344 2850 619 
Q 3075 813 3075 1094 
z
" transform="scale(0.015625)"/>
      <path id="WenQuanYiZenHei-5e74" d="M 3638 -769 
Q 3388 -744 3138 -769 
Q 3163 -313 3163 150 
L 3163 1044 
L 969 1044 
Q 606 1044 244 1025 
Q 263 1219 244 1419 
Q 606 1400 969 1400 
L 1406 1400 
L 1400 2963 
L 3163 2963 
L 3163 3925 
L 1725 3925 
Q 1131 2881 494 2244 
Q 319 2463 50 2544 
Q 756 3219 1125 3794 
Q 1494 4369 1763 5169 
Q 2006 5044 2269 4969 
L 1925 4281 
L 5044 4281 
Q 5406 4281 5769 4300 
Q 5750 4106 5769 3906 
Q 5406 3925 5044 3925 
L 3613 3925 
L 3613 2963 
L 4769 2963 
Q 5131 2963 5494 2981 
Q 5475 2788 5494 2588 
Q 5131 2606 4769 2606 
L 3613 2606 
L 3613 1400 
L 5406 1400 
Q 5769 1400 6131 1419 
Q 6113 1219 6131 1025 
Q 5769 1044 5406 1044 
L 3613 1044 
L 3613 150 
Q 3613 -313 3638 -769 
z
M 3163 1400 
L 3163 2606 
L 1850 2606 
L 1856 1400 
L 3163 1400 
z
" transform="scale(0.015625)"/>
      <path id="WenQuanYiZenHei-5ea6" d="M 1863 1488 
Q 1881 1663 1863 1838 
Q 2181 1819 2506 1819 
L 5231 1819 
Q 4863 869 4081 213 
Q 4381 25 4763 -94 
Q 5388 -294 6044 -238 
Q 5894 -450 5913 -706 
Q 4731 -769 3744 -44 
Q 2731 -725 1519 -731 
Q 1450 -475 1300 -256 
Q 2431 -356 3388 244 
Q 2825 763 2413 1500 
Q 2138 1500 1863 1488 
z
M 5400 3613 
Q 5725 3613 6050 3631 
Q 6031 3456 6050 3281 
Q 5725 3294 5400 3294 
L 4800 3294 
Q 4794 2600 4794 2275 
L 2531 2275 
Q 2531 2781 2531 3294 
L 2213 3294 
Q 1894 3294 1569 3281 
Q 1588 3456 1569 3631 
Q 1894 3613 2213 3613 
L 2531 3613 
Q 2531 3963 2513 4306 
Q 2750 4281 2988 4306 
Q 2975 3963 2969 3613 
L 4363 3613 
Q 4363 3944 4350 4275 
Q 4588 4250 4825 4275 
Q 4806 3944 4800 3613 
L 5400 3613 
z
M 1013 4738 
L 3413 4738 
L 3025 5069 
L 3331 5431 
L 3856 4981 
L 3650 4738 
L 5444 4738 
Q 5769 4738 6094 4750 
Q 6075 4575 6094 4400 
Q 5769 4419 5444 4419 
L 1444 4419 
L 1456 1550 
Q 1463 44 600 -738 
Q 444 -525 181 -481 
Q 1044 100 1019 1550 
L 1013 4738 
z
M 2863 1500 
Q 3250 869 3719 475 
Q 4256 906 4581 1500 
L 2863 1500 
z
M 2969 3294 
Q 2969 2956 2969 2594 
L 4356 2594 
Q 4363 2931 4363 3294 
L 2969 3294 
z
" transform="scale(0.015625)"/>
      <path id="WenQuanYiZenHei-8ca1" d="M 3594 3363 
Q 3281 3363 2969 3344 
Q 2988 3513 2969 3681 
Q 3281 3669 3594 3669 
L 4706 3669 
L 4706 4313 
Q 4706 4744 4688 5181 
Q 4925 5156 5156 5181 
Q 5138 4744 5138 4313 
L 5138 3669 
L 5563 3669 
Q 5875 3669 6188 3681 
Q 6169 3513 6188 3344 
Q 5875 3363 5563 3363 
L 5138 3363 
L 5138 -44 
Q 5138 -481 4900 -644 
Q 4644 -819 4025 -813 
Q 4094 -513 3888 -288 
Q 4075 -313 4319 -316 
Q 4563 -319 4638 -263 
Q 4719 -144 4706 231 
L 4706 2669 
Q 3869 1169 3038 206 
Q 2856 406 2600 463 
Q 3469 1400 3950 2231 
Q 4225 2694 4556 3363 
L 3594 3363 
z
M 2331 -756 
Q 2050 -150 1688 394 
L 2031 575 
L 2031 881 
L 925 881 
L 925 556 
L 888 556 
Q 1088 494 1313 463 
Q 1138 -194 688 -656 
Q 569 -788 431 -919 
Q 294 -750 56 -681 
Q 588 -206 825 556 
L 469 556 
L 469 4969 
L 2488 4969 
L 2488 556 
L 2163 556 
Q 2506 19 2794 -588 
L 2331 -756 
z
M 2031 3681 
L 2031 4700 
L 925 4700 
L 925 3681 
L 2031 3681 
z
M 2031 2394 
L 2031 3444 
L 925 3444 
L 925 2394 
L 2031 2394 
z
M 2031 2156 
L 925 2156 
L 925 1119 
L 2031 1119 
L 2031 2156 
z
" transform="scale(0.015625)"/>
      <path id="WenQuanYiZenHei-653f" d="M 2925 2750 
Q 2906 2575 2925 2400 
Q 2656 2413 2444 2413 
L 2031 2413 
L 2031 381 
Q 2388 475 3094 681 
L 3094 394 
Q 1206 -156 175 -538 
Q 175 -250 19 -13 
Q 275 13 538 56 
L 538 2356 
Q 538 2800 513 3238 
Q 750 3213 994 3238 
Q 969 2800 969 2356 
L 969 131 
Q 1275 188 1600 269 
L 1600 4275 
L 813 4275 
Q 488 4275 169 4263 
Q 181 4438 169 4613 
Q 488 4594 813 4594 
L 2556 4594 
Q 2881 4594 3206 4613 
Q 3188 4438 3206 4263 
Q 2881 4275 2556 4275 
L 2031 4275 
L 2031 2731 
L 2275 2731 
Q 2600 2731 2925 2750 
z
M 3569 5031 
Q 3800 4963 4069 4944 
Q 3950 4400 3788 3869 
L 3763 3781 
L 5275 3781 
Q 5619 3781 5956 3800 
Q 5938 3600 5956 3406 
L 5256 3419 
Q 5188 1925 4613 888 
Q 5206 106 6194 -306 
Q 5975 -438 5881 -694 
Q 4969 -288 4388 519 
Q 3750 -469 2663 -906 
Q 2600 -613 2413 -438 
Q 3531 -44 4131 913 
Q 3600 1806 3481 2963 
Q 3256 2381 2875 1806 
Q 2700 1981 2419 2025 
Q 2681 2406 2968 2937 
Q 3256 3469 3381 3991 
Q 3506 4513 3569 5031 
z
M 3831 3419 
Q 3850 2794 3997 2244 
Q 4144 1694 4350 1300 
Q 4763 2181 4788 3419 
L 3831 3419 
z
" transform="scale(0.015625)"/>
      <path id="WenQuanYiZenHei-90e8" d="M 1169 -763 
Q 931 -738 700 -763 
Q 719 -331 719 106 
L 719 1925 
L 3125 1925 
L 3125 -750 
L 2694 -750 
L 2694 -38 
L 1150 -38 
Q 1150 -400 1169 -763 
z
M 3763 2806 
Q 3744 2638 3763 2469 
Q 3450 2481 3138 2481 
L 694 2481 
Q 381 2481 69 2469 
Q 88 2638 69 2806 
Q 381 2788 694 2788 
L 1150 2788 
Q 875 3388 531 3950 
L 931 4200 
Q 1313 3575 1613 2906 
L 1350 2788 
L 2006 2788 
Q 2475 3350 2681 4288 
L 831 4288 
Q 519 4288 206 4275 
Q 225 4444 206 4613 
Q 519 4594 831 4594 
L 1688 4594 
L 1256 5094 
L 1613 5400 
L 2169 4756 
L 1988 4594 
L 3013 4594 
Q 3325 4594 3638 4613 
Q 3619 4444 3638 4275 
Q 3388 4281 3138 4288 
Q 3056 3538 2538 2788 
L 3138 2788 
Q 3450 2788 3763 2806 
z
M 2694 1619 
L 1150 1619 
L 1150 275 
L 2694 275 
L 2694 1619 
z
M 4431 -856 
Q 4225 -831 4019 -856 
Q 4038 -394 4038 75 
L 4038 4819 
L 5856 4819 
L 5856 4438 
Q 5763 4313 5713 4156 
L 5238 2756 
Q 5600 2450 5806 1972 
Q 6013 1494 6013 947 
Q 6013 400 5325 56 
L 5081 -56 
Q 4994 188 4869 388 
L 5263 531 
Q 5650 669 5650 950 
Q 5650 1494 5428 1969 
Q 5206 2444 4819 2719 
L 5400 4438 
L 4413 4438 
L 4413 75 
Q 4413 -388 4431 -856 
z
" transform="scale(0.015625)"/>
      <path id="WenQuanYiZenHei-51fa" d="M 5400 -594 
Q 5150 -569 4906 -594 
Q 4919 -356 4919 -119 
L 431 -119 
L 431 981 
Q 431 1438 406 1894 
Q 656 1869 900 1894 
Q 881 1438 881 981 
L 881 238 
L 2675 238 
L 2675 2500 
L 688 2500 
L 688 3488 
Q 688 3950 663 4406 
Q 913 4381 1163 4406 
Q 1138 3950 1138 3488 
L 1138 2856 
L 2675 2856 
L 2675 4344 
Q 2675 4806 2656 5263 
Q 2906 5238 3150 5263 
Q 3131 4806 3131 4344 
L 3131 2856 
L 4669 2856 
Q 4669 3175 4669 3562 
Q 4669 3950 4644 4406 
Q 4894 4381 5144 4406 
Q 5125 3988 5122 3516 
Q 5119 3044 5119 2500 
L 3131 2500 
L 3131 238 
L 4925 238 
L 4925 981 
Q 4925 1438 4906 1894 
Q 5150 1869 5400 1894 
Q 5381 1438 5381 981 
L 5381 325 
Q 5381 -138 5400 -594 
z
" transform="scale(0.015625)"/>
      <path id="WenQuanYiZenHei-53e3" d="M 1181 -781 
Q 925 -756 669 -781 
Q 688 -313 688 163 
L 694 4506 
L 5288 4506 
L 5288 -769 
L 4825 -769 
L 4825 219 
L 1156 219 
L 1156 163 
Q 1156 -313 1181 -781 
z
M 4825 4113 
L 1156 4113 
L 1156 619 
L 4825 619 
L 4825 4113 
z
" transform="scale(0.015625)"/>
      <path id="WenQuanYiZenHei-7d71" d="M 4894 -663 
Q 4594 -663 4434 -488 
Q 4275 -313 4275 -44 
L 4275 2250 
L 3844 2188 
L 3844 1556 
Q 3844 781 3403 143 
Q 2963 -494 2275 -788 
Q 2181 -538 1931 -438 
Q 2581 -244 3003 303 
Q 3425 850 3425 1556 
L 3425 2119 
L 2619 1988 
L 2575 2275 
Q 2675 2306 2750 2381 
Q 2931 2575 3209 3081 
Q 3488 3588 3575 3950 
L 3125 3950 
Q 2831 3950 2538 3938 
Q 2556 4094 2538 4250 
Q 2831 4238 3125 4238 
L 4044 4238 
L 3513 4950 
L 3875 5225 
L 4563 4325 
L 4450 4238 
L 5306 4238 
Q 5600 4238 5894 4250 
Q 5875 4094 5894 3938 
Q 5600 3950 5306 3950 
L 4081 3950 
Q 3988 3656 3638 3081 
Q 3325 2538 3200 2369 
L 4956 2631 
L 4581 3156 
L 4950 3431 
Q 5456 2756 5881 2031 
L 5481 1794 
Q 5313 2094 5125 2375 
L 4694 2319 
L 4694 -44 
Q 4694 -150 4750 -228 
Q 4806 -306 4900 -306 
L 5594 -306 
Q 5669 -300 5688 -238 
L 5825 663 
Q 6013 544 6231 538 
L 6038 -506 
Q 6019 -594 5969 -644 
Q 5938 -663 5894 -663 
L 4894 -663 
z
M 2631 431 
L 2200 263 
L 1838 1194 
L 2269 1363 
L 2631 431 
z
M 1819 163 
L 1388 -6 
L 1025 925 
L 1456 1094 
L 1819 163 
z
M 125 -294 
Q 338 288 444 900 
L 900 819 
Q 781 169 556 -456 
L 125 -294 
z
M 2600 1781 
L 2231 1506 
L 2069 1725 
L 1863 1700 
L 200 1350 
L 144 1631 
Q 263 1663 344 1756 
Q 738 2219 1388 3138 
L 225 3119 
L 225 3413 
Q 325 3413 400 3481 
Q 613 3688 953 4272 
Q 1294 4856 1331 5188 
Q 1569 5088 1819 5044 
Q 1788 4919 1709 4766 
Q 1631 4613 1290 4094 
Q 950 3575 819 3413 
L 1463 3394 
L 1575 3406 
Q 1844 3806 1963 4044 
Q 2163 3888 2388 3775 
Q 2269 3588 1869 3075 
L 831 1769 
L 1813 1950 
L 1881 1975 
L 1594 2363 
L 1963 2638 
L 2600 1781 
z
" transform="scale(0.015625)"/>
      <path id="WenQuanYiZenHei-8a08" d="M 4600 -763 
Q 4363 -738 4119 -763 
Q 4144 -325 4144 119 
L 4144 2806 
L 3338 2806 
Q 3019 2806 2694 2794 
Q 2713 2969 2694 3144 
Q 3019 3125 3338 3125 
L 4144 3125 
L 4144 4463 
Q 4144 4900 4119 5338 
Q 4363 5313 4600 5338 
Q 4575 4900 4575 4463 
L 4575 3125 
L 5538 3125 
Q 5863 3125 6188 3144 
Q 6169 2969 6188 2794 
Q 5863 2806 5538 2806 
L 4575 2806 
L 4575 119 
Q 4575 -325 4600 -763 
z
M 675 -844 
Q 425 -819 175 -844 
Q 200 -431 200 -13 
L 200 1413 
L 2363 1413 
L 2363 -831 
L 1900 -831 
L 1900 -300 
L 656 -300 
Q 663 -569 675 -844 
z
M 2281 2444 
Q 2263 2294 2281 2144 
Q 1969 2156 1663 2156 
L 913 2156 
Q 606 2156 294 2144 
Q 313 2294 294 2444 
Q 606 2431 913 2431 
L 1663 2431 
Q 1969 2431 2281 2444 
z
M 2294 3394 
Q 2275 3244 2294 3094 
Q 1988 3106 1675 3106 
L 900 3106 
Q 588 3106 281 3094 
Q 294 3244 281 3394 
Q 588 3381 900 3381 
L 1675 3381 
Q 1988 3381 2294 3394 
z
M 2556 4356 
Q 2538 4206 2556 4056 
Q 2244 4075 1938 4075 
L 706 4075 
Q 400 4075 88 4056 
Q 106 4206 88 4356 
Q 400 4344 706 4344 
L 1938 4344 
Q 2244 4344 2556 4356 
z
M 1719 4731 
L 1413 4369 
L 569 4944 
L 869 5306 
L 1719 4731 
z
M 1900 1144 
L 656 1144 
L 656 -50 
L 1900 -50 
L 1900 1144 
z
" transform="scale(0.015625)"/>
      <path id="WenQuanYiZenHei-20" transform="scale(0.015625)"/>
      <path id="WenQuanYiZenHei-54" d="M 3119 3913 
L 1869 3913 
L 1869 0 
L 1319 0 
L 1319 3913 
L 69 3913 
L 69 4388 
L 3119 4388 
L 3119 3913 
z
" transform="scale(0.015625)"/>
      <path id="WenQuanYiZenHei-6f" d="M 3175 1644 
Q 3175 813 2681 331 
Q 2281 -63 1663 -63 
Q 856 -63 481 656 
Q 256 1088 256 1650 
Q 256 2494 763 2969 
Q 1150 3338 1750 3338 
Q 2525 3338 2919 2656 
Q 3175 2219 3175 1644 
z
M 2619 1650 
Q 2619 2481 2181 2788 
Q 1981 2925 1706 2925 
Q 1069 2925 875 2188 
Q 813 1938 813 1650 
Q 813 750 1288 463 
Q 1463 350 1706 350 
Q 2400 350 2575 1169 
Q 2619 1394 2619 1650 
z
" transform="scale(0.015625)"/>
      <path id="WenQuanYiZenHei-70" d="M 3256 1650 
Q 3256 838 2856 350 
Q 2513 -63 1969 -63 
Q 1344 -63 1000 513 
L 1000 -1063 
L 500 -1063 
L 500 3250 
L 956 3250 
L 956 2625 
L 969 2625 
Q 1169 3163 1688 3294 
Q 1825 3338 1969 3338 
Q 2713 3338 3056 2600 
Q 3256 2175 3256 1650 
z
M 2694 1631 
Q 2694 2419 2319 2731 
L 2181 2825 
Q 2038 2894 1856 2894 
Q 1419 2894 1150 2463 
Q 1106 2400 1075 2325 
Q 1000 2169 1000 2100 
L 1000 1275 
Q 1000 875 1319 581 
Q 1563 356 1856 356 
Q 2525 356 2669 1238 
Q 2694 1419 2694 1631 
z
" transform="scale(0.015625)"/>
     </defs>
     <use xlink:href="#WenQuanYiZenHei-31"/>
     <use xlink:href="#WenQuanYiZenHei-30" transform="translate(59.960938 0)"/>
     <use xlink:href="#WenQuanYiZenHei-38" transform="translate(119.921875 0)"/>
     <use xlink:href="#WenQuanYiZenHei-5e74" transform="translate(179.882812 0)"/>
     <use xlink:href="#WenQuanYiZenHei-5ea6" transform="translate(279.882812 0)"/>
     <use xlink:href="#WenQuanYiZenHei-570b" transform="translate(379.882812 0)"/>
     <use xlink:href="#WenQuanYiZenHei-5bb6" transform="translate(479.882812 0)"/>
     <use xlink:href="#WenQuanYiZenHei-8ca1" transform="translate(579.882812 0)"/>
     <use xlink:href="#WenQuanYiZenHei-653f" transform="translate(679.882812 0)"/>
     <use xlink:href="#WenQuanYiZenHei-90e8" transform="translate(779.882812 0)"/>
     <use xlink:href="#WenQuanYiZenHei-51fa" transform="translate(879.882812 0)"/>
     <use xlink:href="#WenQuanYiZenHei-53e3" transform="translate(979.882812 0)"/>
     <use xlink:href="#WenQuanYiZenHei-7d71" transform="translate(1079.882812 0)"/>
     <use xlink:href="#WenQuanYiZenHei-8a08" transform="translate(1179.882812 0)"/>
     <use xlink:href="#WenQuanYiZenHei-20" transform="translate(1279.882812 0)"/>
     <use xlink:href="#WenQuanYiZenHei-28" transform="translate(1309.863281 0)"/>
     <use xlink:href="#WenQuanYiZenHei-32" transform="translate(1339.84375 0)"/>
     <use xlink:href="#WenQuanYiZenHei-29" transform="translate(1399.804688 0)"/>
     <use xlink:href="#WenQuanYiZenHei-73a9" transform="translate(1429.785156 0)"/>
     <use xlink:href="#WenQuanYiZenHei-5177" transform="translate(1529.785156 0)"/>
     <use xlink:href="#WenQuanYiZenHei-8207" transform="translate(1629.785156 0)"/>
     <use xlink:href="#WenQuanYiZenHei-904b" transform="translate(1729.785156 0)"/>
     <use xlink:href="#WenQuanYiZenHei-52d5" transform="translate(1829.785156 0)"/>
     <use xlink:href="#WenQuanYiZenHei-7528" transform="translate(1929.785156 0)"/>
     <use xlink:href="#WenQuanYiZenHei-54c1" transform="translate(2029.785156 0)"/>
     <use xlink:href="#WenQuanYiZenHei-20" transform="translate(2129.785156 0)"/>
     <use xlink:href="#WenQuanYiZenHei-54" transform="translate(2159.765625 0)"/>
     <use xlink:href="#WenQuanYiZenHei-6f" transform="translate(2209.765625 0)"/>
     <use xlink:href="#WenQuanYiZenHei-70" transform="translate(2263.671875 0)"/>
     <use xlink:href="#WenQuanYiZenHei-20" transform="translate(2317.578125 0)"/>
     <use xlink:href="#WenQuanYiZenHei-31" transform="translate(2347.558594 0)"/>
     <use xlink:href="#WenQuanYiZenHei-30" transform="translate(2407.519531 0)"/>
    </g>
   </g>
  </g>
 </g>
 <defs>
  <clipPath id="pe244818ddd">
   <rect x="68.40625" y="23.39625" width="502.2" height="332.64"/>
  </clipPath>
 </defs>
</svg>
