<?xml version="1.0" encoding="utf-8" standalone="no"?>
<!DOCTYPE svg PUBLIC "-//W3C//DTD SVG 1.1//EN"
  "http://www.w3.org/Graphics/SVG/1.1/DTD/svg11.dtd">
<svg xmlns:xlink="http://www.w3.org/1999/xlink" width="577.80625pt" height="392.73pt" viewBox="0 0 577.80625 392.73" xmlns="http://www.w3.org/2000/svg" version="1.1">
 <metadata>
  <rdf:RDF xmlns:dc="http://purl.org/dc/elements/1.1/" xmlns:cc="http://creativecommons.org/ns#" xmlns:rdf="http://www.w3.org/1999/02/22-rdf-syntax-ns#">
   <cc:Work>
    <dc:type rdf:resource="http://purl.org/dc/dcmitype/StillImage"/>
    <dc:date>2026-01-15T11:53:35.386451</dc:date>
    <dc:format>image/svg+xml</dc:format>
    <dc:creator>
     <cc:Agent>
      <dc:title>Matplotlib v3.10.8, https://matplotlib.org/</dc:title>
     </cc:Agent>
    </dc:creator>
   </cc:Work>
  </rdf:RDF>
 </metadata>
 <defs>
  <style type="text/css">*{stroke-linejoin: round; stroke-linecap: butt}</style>
 </defs>
 <g id="figure_1">
  <g id="patch_1">
   <path d="M 0 392.73 
L 577.80625 392.73 
L 577.80625 0 
L 0 0 
z
" style="fill: #ffffff"/>
  </g>
  <g id="axes_1">
   <g id="patch_2">
    <path d="M 68.40625 356.03625 
L 570.60625 356.03625 
L 570.60625 23.39625 
L 68.40625 23.39625 
z
" style="fill: #ffffff"/>
   </g>
   <g id="patch_3">
    <path d="M -293924.083108 38.51625 
L 547.778977 38.51625 
L 547.778977 63.201964 
L -293924.083108 63.201964 
z
" clip-path="url(#pab9e23ae78)" style="fill: #66c5cc"/>
   </g>
   <g id="patch_4">
    <path d="M -293924.083108 69.373393 
L 375.337378 69.373393 
L 375.337378 94.059107 
L -293924.083108 94.059107 
z
" clip-path="url(#pab9e23ae78)" style="fill: #f6cf71"/>
   </g>
   <g id="patch_5">
    <path d="M -293924.083108 100.230536 
L 353.362809 100.230536 
L 353.362809 124.91625 
L -293924.083108 124.91625 
z
" clip-path="url(#pab9e23ae78)" style="fill: #f89c74"/>
   </g>
   <g id="patch_6">
    <path d="M -293924.083108 131.087679 
L 281.585793 131.087679 
L 281.585793 155.773393 
L -293924.083108 155.773393 
z
" clip-path="url(#pab9e23ae78)" style="fill: #dcb0f2"/>
   </g>
   <g id="patch_7">
    <path d="M -293924.083108 161.944821 
L 253.011289 161.944821 
L 253.011289 186.630536 
L -293924.083108 186.630536 
z
" clip-path="url(#pab9e23ae78)" style="fill: #87c55f"/>
   </g>
   <g id="patch_8">
    <path d="M -293924.083108 192.801964 
L 210.702548 192.801964 
L 210.702548 217.487679 
L -293924.083108 217.487679 
z
" clip-path="url(#pab9e23ae78)" style="fill: #fe88b1"/>
   </g>
   <g id="patch_9">
    <path d="M -293924.083108 223.659107 
L 184.183361 223.659107 
L 184.183361 248.344821 
L -293924.083108 248.344821 
z
" clip-path="url(#pab9e23ae78)" style="fill: #9eb9f3"/>
   </g>
   <g id="patch_10">
    <path d="M -293924.083108 254.51625 
L 91.736523 254.51625 
L 91.736523 279.201964 
L -293924.083108 279.201964 
z
" clip-path="url(#pab9e23ae78)" style="fill: #c9db74"/>
   </g>
   <g id="patch_11">
    <path d="M -293924.083108 285.373393 
L 91.257842 285.373393 
L 91.257842 310.059107 
L -293924.083108 310.059107 
z
" clip-path="url(#pab9e23ae78)" style="fill: #b3b3b3"/>
   </g>
   <g id="patch_12">
    <path d="M -293924.083108 316.230536 
L 91.233523 316.230536 
L 91.233523 340.91625 
L -293924.083108 340.91625 
z
" clip-path="url(#pab9e23ae78)" style="fill: #f6cf71"/>
   </g>
   <g id="matplotlib.axis_1">
    <g id="xtick_1">
     <g id="line2d_1">
      <defs>
       <path id="m2ccb889a10" d="M 0 0 
L 0 3.5 
" style="stroke: #000000; stroke-width: 0.8"/>
      </defs>
      <g>
       <use xlink:href="#m2ccb889a10" x="252.0083" y="356.03625" style="stroke: #000000; stroke-width: 0.8"/>
      </g>
     </g>
     <g id="text_1">
      <!-- $\mathdefault{10^{6}}$ -->
      <g transform="translate(243.7083 369.975312) scale(0.1 -0.1)">
       <defs>
        <path id="WenQuanYiZenHei-31" d="M 3556 0 
L 488 0 
L 488 406 
L 1800 406 
L 1800 3725 
Q 1231 3125 588 2788 
L 588 3338 
Q 1456 3781 1931 4388 
L 2331 4388 
L 2331 406 
L 3556 406 
L 3556 0 
z
" transform="scale(0.015625)"/>
        <path id="WenQuanYiZenHei-30" d="M 3581 2175 
Q 3581 1288 3169 638 
Q 2713 -63 1938 -63 
Q 1025 -63 563 831 
Q 256 1425 256 2188 
Q 256 3188 700 3819 
Q 1138 4456 1888 4456 
Q 2863 4456 3306 3500 
Q 3581 2925 3581 2175 
z
M 3019 2100 
Q 3019 3356 2500 3806 
L 2350 3919 
Q 2144 4031 1888 4031 
Q 1100 4031 888 2956 
Q 819 2625 819 2225 
Q 819 1013 1338 569 
Q 1588 356 1938 356 
Q 2675 356 2925 1294 
Q 3019 1663 3019 2100 
z
" transform="scale(0.015625)"/>
        <path id="WenQuanYiZenHei-36" d="M 3550 1431 
Q 3550 725 3006 288 
Q 2581 -63 1994 -63 
Q 1013 -63 563 825 
Q 288 1363 288 2081 
Q 288 3294 856 3938 
Q 1319 4456 2075 4456 
Q 2969 4456 3363 3756 
Q 3431 3631 3481 3481 
L 2988 3350 
Q 2750 3994 2075 4006 
Q 1056 4006 844 2669 
Q 794 2356 794 1981 
L 806 1981 
Q 1006 2506 1544 2744 
Q 1819 2869 2119 2869 
Q 2788 2869 3213 2375 
Q 3550 1975 3550 1431 
z
M 3038 1406 
Q 3038 1906 2656 2213 
Q 2381 2431 2038 2431 
Q 1525 2431 1181 2044 
Q 919 1744 919 1356 
Q 919 881 1344 581 
Q 1631 375 1981 375 
Q 2519 375 2838 781 
Q 3038 1050 3038 1406 
z
" transform="scale(0.015625)"/>
       </defs>
       <use xlink:href="#WenQuanYiZenHei-31" transform="translate(0 0.715625)"/>
       <use xlink:href="#WenQuanYiZenHei-30" transform="translate(59.960938 0.715625)"/>
       <use xlink:href="#WenQuanYiZenHei-36" transform="translate(120.810547 36.2625) scale(0.7)"/>
      </g>
     </g>
    </g>
    <g id="xtick_2">
     <g id="line2d_2">
      <g>
       <use xlink:href="#m2ccb889a10" x="544.429862" y="356.03625" style="stroke: #000000; stroke-width: 0.8"/>
      </g>
     </g>
     <g id="text_2">
      <!-- $\mathdefault{10^{7}}$ -->
      <g transform="translate(536.129862 369.8925) scale(0.1 -0.1)">
       <defs>
        <path id="WenQuanYiZenHei-37" d="M 3400 4056 
Q 1838 2175 1838 0 
L 1275 0 
Q 1269 1438 2056 2825 
Q 2381 3400 2825 3913 
L 444 3913 
L 500 4388 
L 3400 4388 
L 3400 4056 
z
" transform="scale(0.015625)"/>
       </defs>
       <use xlink:href="#WenQuanYiZenHei-31" transform="translate(0 0.459375)"/>
       <use xlink:href="#WenQuanYiZenHei-30" transform="translate(59.960938 0.459375)"/>
       <use xlink:href="#WenQuanYiZenHei-37" transform="translate(120.810547 36.00625) scale(0.7)"/>
      </g>
     </g>
    </g>
    <g id="xtick_3">
     <g id="line2d_3">
      <defs>
       <path id="m0a78361c2a" d="M 0 0 
L 0 2 
" style="stroke: #000000; stroke-width: 0.6"/>
      </defs>
      <g>
       <use xlink:href="#m0a78361c2a" x="99.107281" y="356.03625" style="stroke: #000000; stroke-width: 0.6"/>
      </g>
     </g>
    </g>
    <g id="xtick_4">
     <g id="line2d_4">
      <g>
       <use xlink:href="#m0a78361c2a" x="135.642061" y="356.03625" style="stroke: #000000; stroke-width: 0.6"/>
      </g>
     </g>
    </g>
    <g id="xtick_5">
     <g id="line2d_5">
      <g>
       <use xlink:href="#m0a78361c2a" x="163.980639" y="356.03625" style="stroke: #000000; stroke-width: 0.6"/>
      </g>
     </g>
    </g>
    <g id="xtick_6">
     <g id="line2d_6">
      <g>
       <use xlink:href="#m0a78361c2a" x="187.134942" y="356.03625" style="stroke: #000000; stroke-width: 0.6"/>
      </g>
     </g>
    </g>
    <g id="xtick_7">
     <g id="line2d_7">
      <g>
       <use xlink:href="#m0a78361c2a" x="206.711627" y="356.03625" style="stroke: #000000; stroke-width: 0.6"/>
      </g>
     </g>
    </g>
    <g id="xtick_8">
     <g id="line2d_8">
      <g>
       <use xlink:href="#m0a78361c2a" x="223.669723" y="356.03625" style="stroke: #000000; stroke-width: 0.6"/>
      </g>
     </g>
    </g>
    <g id="xtick_9">
     <g id="line2d_9">
      <g>
       <use xlink:href="#m0a78361c2a" x="238.627823" y="356.03625" style="stroke: #000000; stroke-width: 0.6"/>
      </g>
     </g>
    </g>
    <g id="xtick_10">
     <g id="line2d_10">
      <g>
       <use xlink:href="#m0a78361c2a" x="340.035962" y="356.03625" style="stroke: #000000; stroke-width: 0.6"/>
      </g>
     </g>
    </g>
    <g id="xtick_11">
     <g id="line2d_11">
      <g>
       <use xlink:href="#m0a78361c2a" x="391.528843" y="356.03625" style="stroke: #000000; stroke-width: 0.6"/>
      </g>
     </g>
    </g>
    <g id="xtick_12">
     <g id="line2d_12">
      <g>
       <use xlink:href="#m0a78361c2a" x="428.063623" y="356.03625" style="stroke: #000000; stroke-width: 0.6"/>
      </g>
     </g>
    </g>
    <g id="xtick_13">
     <g id="line2d_13">
      <g>
       <use xlink:href="#m0a78361c2a" x="456.402201" y="356.03625" style="stroke: #000000; stroke-width: 0.6"/>
      </g>
     </g>
    </g>
    <g id="xtick_14">
     <g id="line2d_14">
      <g>
       <use xlink:href="#m0a78361c2a" x="479.556504" y="356.03625" style="stroke: #000000; stroke-width: 0.6"/>
      </g>
     </g>
    </g>
    <g id="xtick_15">
     <g id="line2d_15">
      <g>
       <use xlink:href="#m0a78361c2a" x="499.133189" y="356.03625" style="stroke: #000000; stroke-width: 0.6"/>
      </g>
     </g>
    </g>
    <g id="xtick_16">
     <g id="line2d_16">
      <g>
       <use xlink:href="#m0a78361c2a" x="516.091285" y="356.03625" style="stroke: #000000; stroke-width: 0.6"/>
      </g>
     </g>
    </g>
    <g id="xtick_17">
     <g id="line2d_17">
      <g>
       <use xlink:href="#m0a78361c2a" x="531.049385" y="356.03625" style="stroke: #000000; stroke-width: 0.6"/>
      </g>
     </g>
    </g>
    <g id="text_3">
     <!-- 18.光學及精密儀器；鐘錶；樂器 -->
     <g transform="translate(247.010156 383.869062) scale(0.1 -0.1)">
      <defs>
       <path id="WenQuanYiZenHei-38" d="M 3619 1175 
Q 3619 431 2850 100 
Q 2444 -63 1944 -63 
Q 1231 -63 725 269 
Q 225 594 225 1125 
Q 225 1881 1269 2281 
Q 719 2481 519 2938 
Q 444 3119 444 3319 
Q 444 4000 1144 4294 
Q 1519 4456 1963 4456 
Q 2669 4456 3094 4094 
Q 3425 3813 3425 3369 
Q 3425 2638 2575 2356 
Q 3231 2056 3450 1725 
Q 3619 1488 3619 1175 
z
M 2944 3344 
Q 2944 3906 2288 4019 
Q 2138 4044 1969 4044 
Q 1438 4044 1163 3775 
Q 1000 3613 1000 3375 
Q 1000 2925 1594 2663 
Q 1756 2588 1931 2550 
Q 2581 2725 2788 2956 
Q 2944 3125 2944 3344 
z
M 3075 1094 
Q 3075 1738 1875 2050 
Q 1094 1881 850 1463 
Q 763 1313 763 1131 
Q 763 569 1456 406 
Q 1681 344 1944 344 
Q 2519 344 2850 619 
Q 3075 813 3075 1094 
z
" transform="scale(0.015625)"/>
       <path id="WenQuanYiZenHei-2e" d="M 1344 0 
L 631 0 
L 631 725 
L 1344 725 
L 1344 0 
z
" transform="scale(0.015625)"/>
       <path id="WenQuanYiZenHei-5149" d="M 4175 -688 
Q 3713 -644 3575 -231 
Q 3513 -50 3513 194 
L 3513 2250 
L 2594 2250 
Q 2775 813 1425 -475 
Q 1063 -825 775 -850 
Q 506 -581 169 -413 
Q 1625 -281 2025 1125 
Q 2181 1681 2106 2250 
L 988 2250 
Q 625 2250 256 2231 
Q 281 2431 256 2625 
Q 625 2606 988 2606 
L 2944 2606 
L 2944 4338 
Q 2944 4800 2919 5256 
Q 3169 5231 3413 5256 
Q 3394 4800 3394 4338 
L 3394 2606 
L 5406 2606 
Q 5775 2606 6138 2625 
Q 6119 2431 6138 2231 
Q 5775 2250 5406 2250 
L 3963 2250 
L 3963 194 
Q 3963 -281 4188 -281 
L 5350 -281 
Q 5419 -281 5441 -243 
Q 5463 -206 5475 -184 
Q 5488 -163 5494 -122 
Q 5500 -81 5506 -56 
L 5625 981 
Q 5825 844 6069 856 
L 5888 -438 
Q 5869 -575 5794 -656 
Q 5756 -688 5694 -688 
L 4175 -688 
z
M 5088 4638 
Q 5275 4475 5494 4356 
Q 5288 4038 5056 3731 
L 4231 2675 
Q 4069 2850 3838 2900 
Q 4019 3119 4188 3350 
L 5088 4638 
z
M 1944 2775 
Q 1438 3575 856 4319 
L 1244 4625 
Q 1844 3863 2363 3044 
L 1944 2775 
z
" transform="scale(0.015625)"/>
       <path id="WenQuanYiZenHei-5b78" d="M 5838 850 
Q 5819 706 5838 563 
Q 5575 575 5313 575 
L 3500 575 
L 3500 -263 
Q 3500 -450 3331 -588 
Q 3075 -800 2456 -794 
Q 2525 -513 2325 -300 
Q 2506 -325 2772 -328 
Q 3038 -331 3066 -300 
Q 3094 -269 3094 -194 
L 3094 575 
L 969 575 
Q 706 575 444 563 
Q 456 706 444 850 
Q 706 838 969 838 
L 3094 838 
L 3094 1181 
L 3906 1588 
L 2019 1588 
Q 1756 1588 1494 1575 
Q 1506 1719 1494 1863 
Q 1756 1844 2019 1844 
L 4744 1844 
L 4819 1519 
Q 4619 1494 4444 1406 
L 3500 931 
L 3500 838 
L 5313 838 
Q 5575 838 5838 850 
z
M 606 1531 
L 206 1531 
L 206 2488 
Q 506 2488 813 2488 
L 813 4706 
L 900 4706 
Q 1094 4775 1594 5025 
L 1963 5200 
Q 2044 4994 2163 4806 
Q 1719 4563 1350 4456 
L 1213 4400 
Q 1213 4263 1213 4119 
L 1669 4119 
Q 1931 4119 2194 4131 
Q 2181 3988 2194 3850 
Q 1931 3863 1669 3863 
L 1213 3863 
L 1213 3313 
L 1719 3313 
Q 1956 3313 2194 3325 
Q 2181 3200 2194 3069 
Q 1956 3081 1719 3081 
L 1213 3081 
L 1213 2488 
L 2494 2488 
Q 2406 2613 2281 2681 
Q 2581 2869 2844 3106 
L 2431 3444 
L 2700 3794 
L 3150 3425 
Q 3306 3600 3500 3850 
L 3575 3788 
L 3163 4163 
Q 2913 3956 2550 3713 
Q 2469 3913 2281 4019 
Q 2581 4200 2844 4444 
L 2431 4775 
L 2700 5125 
L 3150 4763 
Q 3306 4931 3500 5181 
Q 3663 5031 3856 4925 
Q 3694 4688 3488 4469 
L 3900 4081 
L 3594 3769 
Q 3719 3669 3856 3588 
Q 3694 3350 3488 3138 
L 3900 2750 
L 3650 2488 
L 5088 2488 
L 5088 3075 
L 4619 3075 
Q 4381 3075 4144 3063 
Q 4156 3188 4144 3319 
Q 4381 3306 4619 3306 
L 5088 3306 
L 5088 3856 
L 4669 3856 
Q 4406 3856 4144 3844 
Q 4156 3988 4144 4125 
Q 4406 4113 4669 4113 
L 5088 4113 
L 5088 4681 
L 4638 4681 
Q 4375 4681 4113 4669 
Q 4131 4813 4113 4956 
Q 4375 4944 4638 4944 
L 5488 4944 
L 5488 2488 
L 6044 2488 
L 6044 1531 
L 5644 1531 
L 5644 2231 
L 606 2231 
L 606 1531 
z
M 3531 2488 
L 3163 2831 
Q 2963 2663 2713 2488 
L 3531 2488 
z
" transform="scale(0.015625)"/>
       <path id="WenQuanYiZenHei-53ca" d="M 1725 4575 
Q 1300 4575 881 4550 
Q 906 4781 881 5006 
Q 1300 4988 1725 4988 
L 4794 4988 
L 3894 3113 
L 5181 3113 
Q 4938 1769 4006 756 
Q 4881 38 6119 -269 
Q 5894 -438 5831 -713 
Q 4650 -425 3688 444 
Q 2663 -488 1294 -725 
Q 1181 -469 994 -269 
Q 1663 -213 2269 56 
Q 2875 325 3356 763 
Q 2669 1488 2175 2475 
Q 1669 594 506 -681 
Q 319 -456 31 -388 
Q 1494 1163 1844 3225 
L 1806 3319 
L 1863 3338 
Q 1950 3919 1963 4575 
L 1725 4575 
z
M 2331 3156 
Q 2869 1875 3656 1075 
Q 4281 1781 4513 2700 
L 3169 2700 
L 4069 4575 
L 2481 4575 
Q 2463 3869 2331 3156 
z
" transform="scale(0.015625)"/>
       <path id="WenQuanYiZenHei-7cbe" d="M 5356 -75 
L 5356 419 
L 3631 419 
L 3631 81 
Q 3631 -331 3650 -750 
Q 3425 -725 3200 -750 
Q 3219 -331 3219 81 
L 3219 2319 
L 3625 2319 
L 3625 2288 
L 5763 2288 
L 5763 -200 
Q 5744 -563 5456 -681 
Q 5194 -800 4831 -800 
Q 4888 -519 4713 -294 
Q 4863 -319 5063 -322 
Q 5263 -325 5309 -294 
Q 5356 -263 5356 -75 
z
M 6188 2956 
Q 6175 2819 6188 2688 
Q 5938 2700 5688 2700 
L 3381 2700 
Q 3131 2700 2881 2688 
Q 2894 2819 2881 2956 
Q 3131 2944 3381 2944 
L 4306 2944 
L 4306 3456 
L 3650 3456 
Q 3400 3456 3150 3444 
Q 3163 3581 3150 3719 
Q 3400 3706 3650 3706 
L 4306 3706 
L 4306 4256 
L 3544 4256 
Q 3263 4256 2988 4238 
Q 3006 4388 2988 4538 
Q 3269 4525 3544 4525 
L 4306 4525 
Q 4300 4869 4288 5213 
Q 4513 5188 4738 5213 
Q 4719 4869 4713 4525 
L 5556 4525 
Q 5831 4525 6113 4538 
Q 6094 4388 6113 4238 
Q 5831 4256 5556 4256 
L 4713 4256 
L 4713 3706 
L 5288 3706 
Q 5538 3706 5794 3719 
Q 5775 3581 5794 3444 
Q 5538 3456 5288 3456 
L 4713 3456 
L 4713 2944 
L 5688 2944 
Q 5938 2944 6188 2956 
z
M 5356 1494 
L 5356 2081 
L 3625 2081 
Q 3625 1781 3625 1494 
L 5356 1494 
z
M 5356 663 
L 5356 1244 
L 3631 1244 
L 3631 663 
L 5356 663 
z
M 2281 4388 
Q 2481 4325 2713 4306 
Q 2613 3681 2313 3206 
Q 2225 3056 2125 2906 
Q 2000 3050 1806 3100 
L 1806 2838 
L 2188 2838 
Q 2469 2838 2750 2850 
Q 2738 2688 2750 2525 
Q 2469 2538 2188 2538 
L 1806 2538 
L 1806 2050 
L 2006 2206 
Q 2350 1700 2631 1131 
L 2250 913 
Q 2044 1319 1806 1700 
L 1806 6 
Q 1806 -425 1825 -850 
Q 1606 -825 1388 -850 
Q 1406 -425 1406 6 
L 1406 1725 
Q 1000 788 388 -44 
Q 256 113 38 163 
Q 556 831 944 1750 
Q 1106 2144 1250 2538 
L 913 2538 
Q 631 2538 350 2525 
Q 363 2688 350 2850 
Q 631 2838 913 2838 
L 1406 2838 
L 1406 4081 
Q 1406 4506 1388 4938 
Q 1606 4913 1825 4938 
Q 1806 4506 1806 4081 
L 1806 3150 
Q 2156 3656 2281 4388 
z
M 906 3050 
Q 675 3613 381 4119 
L 750 4369 
Q 1063 3831 1306 3231 
L 906 3050 
z
" transform="scale(0.015625)"/>
       <path id="WenQuanYiZenHei-5bc6" d="M 5263 -763 
Q 5031 -738 4794 -763 
Q 4800 -606 4806 -450 
Q 3500 -469 1169 -706 
L 1169 -281 
Q 1200 350 1156 1075 
Q 1394 1050 1625 1075 
Q 1606 644 1606 213 
L 1606 -256 
L 3000 -213 
L 3000 738 
Q 3000 1169 2975 1594 
Q 3213 1569 3444 1594 
Q 3419 1169 3419 738 
L 3419 -200 
L 4813 -150 
L 4819 150 
Q 4819 581 4794 1006 
Q 5031 981 5263 1006 
L 5238 100 
Q 5238 -331 5263 -763 
z
M 5900 1838 
Q 5438 2475 4900 3056 
L 5244 3375 
Q 5800 2775 6275 2113 
L 5900 1838 
z
M 2456 1700 
Q 2375 1700 2294 1719 
Q 1513 1338 700 1200 
Q 563 1513 244 1638 
Q 1138 1719 1913 2031 
Q 1831 2188 1831 2413 
L 1831 2806 
Q 1831 3238 1813 3669 
Q 2044 3644 2275 3669 
Q 2256 3238 2256 2806 
L 2256 2413 
Q 2256 2288 2288 2200 
Q 3481 2794 4238 3919 
Q 4431 3744 4650 3613 
Q 3900 2688 2906 2056 
L 4319 2063 
Q 4531 2088 4569 2306 
L 4669 2875 
Q 4856 2769 5075 2756 
L 4913 2000 
Q 4894 1875 4812 1787 
Q 4731 1700 4619 1700 
L 2456 1700 
z
M 3269 3063 
Q 2956 3563 2525 3956 
L 2838 4300 
Q 3319 3863 3663 3306 
L 3269 3063 
z
M 425 2313 
Q 813 2925 1119 3575 
L 1544 3375 
Q 1219 2700 813 2063 
L 425 2313 
z
M 875 3463 
L 450 3463 
L 450 4638 
L 3038 4638 
L 2569 5075 
L 2881 5419 
L 3594 4756 
L 3488 4638 
L 5981 4638 
L 5981 3463 
L 5556 3463 
L 5556 4344 
L 875 4344 
L 875 3463 
z
" transform="scale(0.015625)"/>
       <path id="WenQuanYiZenHei-5100" d="M 5769 2081 
L 5475 1744 
L 4844 2294 
L 5138 2631 
L 5769 2081 
z
M 4544 344 
Q 4294 781 4238 1381 
L 3319 1381 
L 3319 913 
Q 3506 969 3919 1100 
L 3925 863 
L 3319 650 
L 3319 31 
Q 3300 -325 3013 -438 
Q 2738 -556 2350 -550 
Q 2406 -275 2225 -56 
Q 2388 -81 2600 -84 
Q 2813 -88 2863 -56 
Q 2913 -25 2913 150 
L 2913 506 
Q 2444 331 1988 138 
Q 1981 406 1831 625 
Q 2350 663 2913 806 
L 2913 1381 
L 2500 1381 
Q 2231 1381 1963 1369 
Q 1975 1519 1963 1663 
Q 2231 1650 2500 1650 
L 2913 1650 
L 2913 2025 
Q 2569 1938 2163 1881 
Q 2169 2094 2050 2275 
Q 2681 2331 3425 2681 
L 2494 2681 
Q 2250 2681 2006 2669 
Q 2025 2800 2006 2931 
Q 2250 2919 2494 2919 
L 3813 2919 
L 3813 3381 
L 2938 3381 
Q 2688 3381 2444 3369 
Q 2463 3506 2444 3638 
Q 2688 3625 2938 3625 
L 3813 3625 
L 3813 4075 
L 2700 4075 
Q 2425 4075 2156 4063 
Q 2175 4206 2156 4356 
Q 2425 4344 2700 4344 
L 3169 4344 
L 2788 4831 
L 3144 5106 
L 3719 4356 
L 3694 4344 
L 4338 4344 
Q 4606 4650 4863 5088 
Q 5044 4963 5250 4869 
Q 5113 4613 4875 4344 
L 5438 4344 
Q 5713 4344 5981 4356 
Q 5963 4206 5981 4063 
Q 5713 4075 5438 4075 
L 4638 4075 
L 4581 4019 
Q 4563 4050 4531 4075 
L 4219 4075 
L 4219 3625 
L 5188 3625 
Q 5431 3625 5675 3638 
Q 5663 3506 5675 3369 
Q 5431 3381 5188 3381 
L 4219 3381 
L 4219 2919 
L 5638 2919 
Q 5888 2919 6131 2931 
Q 6113 2800 6131 2669 
Q 5888 2681 5638 2681 
L 3669 2681 
Q 3738 2525 3838 2381 
Q 3581 2244 3319 2150 
L 3319 1650 
L 4219 1650 
L 4194 2656 
Q 4419 2631 4638 2656 
L 4619 1994 
Q 4619 1800 4625 1650 
L 5588 1650 
Q 5863 1650 6131 1663 
Q 6113 1519 6131 1369 
Q 5863 1381 5588 1381 
L 4650 1381 
Q 4694 950 4850 631 
Q 5119 944 5344 1300 
Q 5525 1169 5731 1075 
Q 5481 619 5088 256 
Q 5163 169 5306 31 
Q 5450 -106 5694 -231 
Q 5694 50 5675 325 
Q 5888 225 6119 244 
Q 6169 -150 6100 -531 
Q 6100 -600 6056 -656 
Q 5969 -781 5825 -744 
Q 5200 -525 4781 -6 
Q 4225 -425 3538 -638 
Q 3506 -425 3363 -269 
Q 4025 -81 4544 344 
z
M 2063 4925 
Q 1813 4075 1425 3338 
L 1425 31 
Q 1425 -413 1450 -850 
Q 1225 -825 1006 -850 
Q 1025 -413 1025 31 
L 1025 2681 
Q 731 2269 369 1931 
Q 238 2156 0 2256 
Q 319 2544 600 2875 
Q 1069 3425 1275 3950 
Q 1463 4469 1588 5050 
Q 1806 4963 2063 4925 
z
" transform="scale(0.015625)"/>
       <path id="WenQuanYiZenHei-5668" d="M 3850 -769 
Q 3631 -744 3413 -769 
Q 3431 -363 3431 44 
L 3431 1169 
L 5156 1169 
Q 4213 1556 3381 2388 
L 3388 2400 
L 2856 2400 
Q 2300 1556 1425 1169 
L 2819 1169 
L 2819 -756 
L 2419 -756 
L 2419 -425 
L 1356 -425 
Q 1356 -600 1369 -769 
Q 1144 -744 925 -769 
Q 944 -363 944 44 
L 944 1000 
Q 644 919 331 906 
Q 350 1156 219 1369 
Q 863 1394 1456 1662 
Q 2050 1931 2381 2400 
L 1013 2400 
Q 744 2400 481 2388 
Q 500 2525 481 2669 
Q 744 2656 1013 2656 
L 2531 2656 
Q 2781 3163 2881 3631 
Q 3119 3556 3356 3531 
Q 3244 3069 3013 2656 
L 4338 2656 
L 3825 3169 
L 4144 3481 
L 4788 2831 
L 4613 2656 
L 5319 2656 
Q 5581 2656 5844 2669 
Q 5825 2525 5844 2388 
Q 5581 2400 5319 2400 
L 3900 2400 
Q 4375 1969 4869 1725 
Q 5363 1481 6081 1356 
Q 5900 1194 5863 956 
Q 5588 1006 5300 1113 
L 5300 -756 
L 4900 -756 
L 4900 -413 
L 3838 -413 
Q 3844 -594 3850 -769 
z
M 3500 3619 
Q 3575 4356 3500 5094 
L 5375 5094 
Q 5300 4356 5369 3619 
L 3500 3619 
z
M 931 3619 
Q 1006 4356 931 5094 
L 2806 5094 
Q 2731 4356 2800 3619 
L 931 3619 
z
M 4900 906 
L 3831 906 
L 3831 -181 
L 4900 -181 
L 4900 906 
z
M 2419 906 
L 1350 906 
L 1350 -194 
L 2419 -194 
L 2419 906 
z
M 3900 4831 
L 3900 3875 
L 4969 3875 
L 4975 4831 
L 3900 4831 
z
M 1338 4831 
L 1338 3875 
L 2400 3875 
L 2406 4831 
L 1338 4831 
z
" transform="scale(0.015625)"/>
       <path id="WenQuanYiZenHei-ff1b" d="M 3575 2525 
L 2869 2525 
L 2869 3250 
L 3575 3250 
L 3575 2525 
z
M 3575 75 
L 3100 -825 
L 2825 -825 
L 3206 0 
L 2875 0 
L 2875 738 
L 3575 738 
L 3575 75 
z
" transform="scale(0.015625)"/>
       <path id="WenQuanYiZenHei-9418" d="M 6150 -400 
Q 6138 -531 6150 -656 
Q 5906 -650 5669 -650 
L 2838 -650 
Q 2600 -650 2356 -656 
Q 2369 -531 2356 -400 
Q 2600 -413 2838 -413 
L 4031 -413 
L 4031 125 
L 3263 125 
Q 3025 125 2781 113 
Q 2794 244 2781 375 
Q 3025 363 3263 363 
L 4031 363 
L 4031 856 
L 2869 856 
Q 2938 1775 2869 2700 
L 5631 2700 
Q 5556 1781 5619 856 
L 4419 856 
L 4419 363 
L 5300 363 
Q 5538 363 5781 375 
Q 5769 244 5781 113 
Q 5538 125 5300 125 
L 4419 125 
L 4419 -413 
L 5669 -413 
Q 5906 -413 6150 -400 
z
M 6175 3319 
Q 6163 3188 6175 3056 
Q 5938 3069 5694 3069 
L 3000 3069 
Q 2756 3069 2519 3056 
Q 2531 3188 2519 3319 
Q 2756 3306 3000 3306 
L 3538 3306 
L 3081 4031 
L 3294 4163 
L 2619 4150 
Q 2638 4281 2619 4413 
Q 2863 4400 3100 4400 
L 4000 4400 
L 3663 4956 
L 4031 5175 
L 4494 4400 
L 5431 4400 
Q 5675 4400 5913 4413 
Q 5900 4281 5913 4150 
L 5369 4163 
Q 5263 3763 4938 3306 
L 5694 3306 
Q 5938 3306 6175 3319 
z
M 4419 1888 
L 5238 1888 
L 5244 2463 
L 4419 2463 
L 4419 1888 
z
M 4031 1888 
L 4031 2463 
L 3256 2463 
L 3256 1888 
L 4031 1888 
z
M 4419 1669 
L 4419 1094 
L 5231 1094 
L 5238 1669 
L 4419 1669 
z
M 4031 1669 
L 3256 1669 
L 3256 1094 
L 4031 1094 
L 4031 1669 
z
M 4469 3306 
Q 4706 3625 4938 4163 
L 3500 4163 
L 4025 3331 
L 3988 3306 
L 4469 3306 
z
M 244 -250 
Q 719 -175 1156 -31 
L 1156 1863 
L 894 1863 
Q 613 1863 338 1844 
Q 356 2013 338 2175 
Q 613 2156 894 2156 
L 1156 2156 
L 1156 2800 
Q 925 2800 694 2788 
Q 700 2844 700 2900 
Q 538 2675 369 2456 
Q 244 2619 38 2681 
Q 581 3325 988 4206 
Q 1169 4600 1331 5006 
Q 1513 4900 1725 4838 
Q 1688 4725 1644 4613 
Q 2063 4181 2419 3675 
L 2081 3394 
Q 1775 3819 1456 4169 
Q 1206 3631 844 3106 
L 1663 3100 
Q 1938 3100 2219 3113 
Q 2200 2950 2219 2788 
L 1544 2800 
L 1544 2156 
L 1813 2156 
Q 2088 2156 2369 2175 
Q 2350 2013 2369 1844 
Q 2088 1863 1813 1863 
L 1544 1863 
L 1544 863 
Q 1563 1056 1666 1253 
Q 1769 1450 1900 1625 
Q 2063 1475 2256 1369 
L 2025 1006 
Q 1931 856 1925 778 
Q 1919 700 1950 638 
Q 1744 581 1619 413 
Q 1556 544 1544 688 
L 1544 106 
Q 1869 231 2294 406 
L 2319 138 
Q 1444 -238 1078 -413 
Q 713 -588 419 -744 
Q 388 -450 244 -250 
z
M 1100 506 
L 738 256 
L 194 1194 
L 556 1444 
L 1100 506 
z
" transform="scale(0.015625)"/>
       <path id="WenQuanYiZenHei-9336" d="M 3100 -219 
L 3100 813 
Q 2788 588 2425 425 
Q 2369 631 2206 763 
Q 2738 975 3081 1328 
Q 3425 1681 3694 2194 
L 3088 2194 
Q 2825 2194 2563 2181 
Q 2575 2319 2563 2463 
Q 2825 2450 3088 2450 
L 4000 2450 
L 4000 3100 
L 3269 3100 
Q 3006 3100 2744 3088 
Q 2756 3231 2744 3375 
Q 3006 3363 3269 3363 
L 4000 3363 
L 4000 4013 
L 3100 4013 
Q 2838 4013 2575 4000 
Q 2594 4144 2575 4288 
Q 2838 4275 3100 4275 
L 4000 4275 
Q 4000 4675 3981 5081 
Q 4200 5056 4419 5081 
Q 4400 4675 4400 4275 
L 5313 4275 
Q 5575 4275 5838 4288 
Q 5825 4144 5838 4000 
Q 5575 4013 5313 4013 
L 4400 4013 
L 4400 3363 
L 5000 3363 
Q 5263 3363 5525 3375 
Q 5506 3231 5525 3088 
Q 5263 3100 5000 3100 
L 4400 3100 
L 4400 2450 
L 5494 2450 
Q 5756 2450 6019 2463 
Q 6000 2319 6019 2181 
Q 5756 2194 5494 2194 
L 4375 2194 
Q 4506 1719 4681 1350 
Q 4931 1494 5263 1856 
Q 5419 1700 5600 1575 
Q 5350 1250 4863 1000 
Q 5319 238 6181 -288 
Q 5950 -363 5831 -569 
Q 5175 -156 4737 516 
Q 4300 1188 4063 1963 
Q 3863 1525 3500 1156 
L 3500 -188 
L 4375 94 
L 4431 -169 
Q 4244 -206 3859 -390 
Q 3475 -575 3175 -756 
L 3038 -375 
Q 3100 -313 3100 -219 
z
M 231 -250 
Q 688 -175 1113 -31 
L 1113 1863 
L 856 1863 
Q 594 1863 325 1844 
Q 338 2013 325 2175 
Q 594 2156 856 2156 
L 1113 2156 
L 1113 2800 
Q 888 2800 669 2788 
Q 675 2844 675 2900 
Q 519 2675 356 2456 
Q 238 2619 38 2681 
Q 563 3325 950 4206 
Q 1125 4600 1281 5006 
Q 1456 4900 1663 4838 
Q 1625 4725 1581 4613 
Q 1981 4181 2325 3675 
L 2000 3394 
Q 1713 3819 1400 4169 
Q 1156 3631 813 3106 
L 1600 3100 
Q 1869 3100 2131 3113 
Q 2119 2950 2131 2788 
L 1481 2800 
L 1481 2156 
L 1744 2156 
Q 2013 2156 2275 2175 
Q 2263 2013 2275 1844 
Q 2013 1863 1744 1863 
L 1481 1863 
L 1481 863 
Q 1500 1056 1600 1253 
Q 1700 1450 1825 1625 
Q 1981 1475 2169 1369 
L 1950 1006 
Q 1856 856 1853 778 
Q 1850 700 1875 638 
Q 1675 581 1556 413 
Q 1494 544 1481 688 
L 1481 106 
Q 1800 231 2206 406 
L 2231 138 
Q 1388 -238 1034 -413 
Q 681 -588 400 -744 
Q 369 -450 231 -250 
z
M 1063 506 
L 713 256 
L 188 1194 
L 531 1444 
L 1063 506 
z
" transform="scale(0.015625)"/>
       <path id="WenQuanYiZenHei-6a02" d="M 5981 1869 
L 5569 1713 
L 5413 2113 
L 4006 1850 
L 3963 2113 
Q 4069 2138 4131 2231 
Q 4431 2675 4900 3506 
L 3925 3450 
L 3913 3713 
Q 4006 3719 4069 3788 
Q 4231 3988 4512 4500 
Q 4794 5013 4838 5294 
Q 5063 5188 5300 5131 
Q 5250 4988 5044 4638 
Q 5044 4638 4656 4019 
Q 4475 3744 4469 3738 
L 5038 3750 
Q 5294 4213 5400 4475 
Q 5600 4331 5831 4244 
L 4544 2213 
L 5331 2338 
L 5156 2794 
L 5575 2950 
L 5981 1869 
z
M 2231 1869 
L 1819 1713 
L 1663 2113 
L 256 1850 
L 213 2113 
Q 319 2138 381 2231 
Q 681 2675 1150 3506 
L 175 3450 
L 163 3713 
Q 256 3719 319 3788 
Q 481 3988 762 4500 
Q 1044 5013 1088 5294 
Q 1313 5188 1550 5131 
Q 1456 4856 719 3738 
L 1288 3750 
Q 1544 4213 1650 4475 
Q 1856 4331 2081 4244 
L 794 2213 
L 1581 2338 
L 1406 2794 
L 1825 2950 
L 2231 1869 
z
M 2238 1994 
Q 2306 3294 2238 4600 
L 2663 4600 
Q 2781 4650 2872 4781 
Q 2963 4913 2900 5038 
Q 3131 5100 3338 5200 
Q 3438 4906 3269 4600 
L 3894 4600 
Q 3819 3294 3888 1994 
L 2238 1994 
z
M 2644 4331 
L 2644 3413 
L 3488 3413 
L 3488 4331 
L 3056 4331 
Q 2981 4269 2931 4269 
Q 2913 4300 2888 4331 
L 2644 4331 
z
M 2644 3169 
L 2644 2256 
L 3481 2256 
L 3488 3169 
L 2644 3169 
z
M 5888 -319 
Q 5713 -475 5656 -756 
Q 4838 -563 4206 -81 
Q 3669 313 3275 738 
L 3275 6 
Q 3275 -456 3294 -913 
Q 3069 -888 2838 -913 
Q 2863 -456 2863 6 
L 2863 656 
Q 2125 -81 1206 -488 
Q 794 -663 350 -744 
Q 331 -431 188 -238 
Q 1375 -44 2125 588 
Q 2344 775 2538 981 
L 844 981 
Q 556 981 275 969 
Q 294 1138 275 1306 
Q 556 1288 844 1288 
L 2813 1288 
Q 2825 1300 2856 1288 
Q 2856 1619 2838 1944 
Q 3069 1913 3294 1944 
Q 3281 1619 3275 1288 
L 5413 1288 
Q 5694 1288 5981 1306 
Q 5963 1138 5981 969 
Q 5694 981 5413 981 
L 3581 981 
Q 3988 556 4406 263 
Q 5038 -131 5888 -319 
z
" transform="scale(0.015625)"/>
      </defs>
      <use xlink:href="#WenQuanYiZenHei-31"/>
      <use xlink:href="#WenQuanYiZenHei-38" transform="translate(59.960938 0)"/>
      <use xlink:href="#WenQuanYiZenHei-2e" transform="translate(119.921875 0)"/>
      <use xlink:href="#WenQuanYiZenHei-5149" transform="translate(149.902344 0)"/>
      <use xlink:href="#WenQuanYiZenHei-5b78" transform="translate(249.902344 0)"/>
      <use xlink:href="#WenQuanYiZenHei-53ca" transform="translate(349.902344 0)"/>
      <use xlink:href="#WenQuanYiZenHei-7cbe" transform="translate(449.902344 0)"/>
      <use xlink:href="#WenQuanYiZenHei-5bc6" transform="translate(549.902344 0)"/>
      <use xlink:href="#WenQuanYiZenHei-5100" transform="translate(649.902344 0)"/>
      <use xlink:href="#WenQuanYiZenHei-5668" transform="translate(749.902344 0)"/>
      <use xlink:href="#WenQuanYiZenHei-ff1b" transform="translate(849.902344 0)"/>
      <use xlink:href="#WenQuanYiZenHei-9418" transform="translate(949.902344 0)"/>
      <use xlink:href="#WenQuanYiZenHei-9336" transform="translate(1049.902344 0)"/>
      <use xlink:href="#WenQuanYiZenHei-ff1b" transform="translate(1149.902344 0)"/>
      <use xlink:href="#WenQuanYiZenHei-6a02" transform="translate(1249.902344 0)"/>
      <use xlink:href="#WenQuanYiZenHei-5668" transform="translate(1349.902344 0)"/>
     </g>
    </g>
   </g>
   <g id="matplotlib.axis_2">
    <g id="ytick_1">
     <g id="line2d_18">
      <defs>
       <path id="mc900f3787c" d="M 0 0 
L -3.5 0 
" style="stroke: #000000; stroke-width: 0.8"/>
      </defs>
      <g>
       <use xlink:href="#mc900f3787c" x="68.40625" y="50.859107" style="stroke: #000000; stroke-width: 0.8"/>
      </g>
     </g>
     <g id="text_4">
      <!-- 中國大陸 -->
      <g transform="translate(21.40625 54.80442) scale(0.1 -0.1)">
       <defs>
        <path id="WenQuanYiZenHei-4e2d" d="M 3200 -688 
Q 2944 -663 2694 -688 
Q 2719 -225 2719 244 
L 2719 1700 
L 813 1700 
L 813 1375 
L 356 1375 
L 356 3938 
L 2719 3938 
L 2719 4331 
Q 2719 4794 2694 5263 
Q 2944 5238 3200 5263 
Q 3175 4794 3175 4331 
L 3175 3938 
L 5538 3938 
L 5538 1375 
L 5081 1375 
L 5081 1700 
L 3175 1700 
L 3175 244 
Q 3175 -225 3200 -688 
z
M 3175 2075 
L 5081 2075 
L 5081 3563 
L 3175 3563 
L 3175 2075 
z
M 2719 2075 
L 2719 3563 
L 813 3563 
L 813 2075 
L 2719 2075 
z
" transform="scale(0.015625)"/>
        <path id="WenQuanYiZenHei-570b" d="M 3681 1469 
Q 3294 2275 3288 3525 
L 1738 3525 
Q 1431 3525 1131 3513 
Q 1150 3675 1131 3838 
Q 1431 3825 1738 3825 
L 3288 3825 
L 3269 4681 
Q 3500 4656 3731 4681 
L 3719 3825 
L 4450 3825 
L 4000 4431 
L 4338 4681 
L 913 4681 
L 913 25 
L 5338 25 
L 5338 4681 
L 4394 4681 
L 4900 4000 
L 4663 3825 
Q 4900 3825 5131 3838 
Q 5113 3675 5131 3513 
Q 4831 3525 4525 3525 
L 3713 3525 
Q 3706 2594 3969 1888 
Q 4213 2431 4331 3088 
Q 4581 3025 4838 3013 
Q 4650 2144 4175 1438 
Q 4381 1056 4681 756 
Q 4675 1075 4650 1388 
Q 4869 1269 5113 1288 
Q 5175 794 5106 300 
Q 5094 106 4913 75 
Q 4825 63 4756 113 
Q 4244 513 3894 1075 
Q 3338 419 2588 100 
Q 2513 356 2306 519 
Q 3169 863 3681 1469 
z
M 1063 1181 
Q 1781 1181 2363 1313 
Q 2569 1356 3013 1469 
L 3006 1200 
Q 1825 894 1188 663 
Q 1200 938 1063 1181 
z
M 931 -769 
Q 700 -750 469 -769 
Q 488 -344 488 88 
L 488 4981 
L 5763 4975 
L 5763 -763 
L 5338 -763 
L 5338 -250 
L 913 -250 
Q 919 -513 931 -769 
z
M 1731 2744 
L 1731 2069 
L 2456 2069 
L 2463 2744 
L 1731 2744 
z
M 1306 3038 
L 2888 3038 
L 2875 1769 
L 1306 1769 
L 1306 3038 
z
" transform="scale(0.015625)"/>
        <path id="WenQuanYiZenHei-5927" d="M 1281 3069 
Q 863 3069 438 3050 
Q 463 3275 438 3506 
Q 863 3488 1281 3488 
L 2931 3488 
L 2931 4300 
Q 2931 4781 2906 5263 
Q 3163 5231 3425 5263 
Q 3400 4781 3400 4300 
L 3400 3488 
L 5188 3488 
Q 5606 3488 6025 3506 
Q 6000 3275 6025 3050 
Q 5606 3069 5188 3069 
L 3481 3069 
Q 3894 1500 4863 550 
Q 5431 25 6156 -313 
Q 5906 -438 5788 -694 
Q 4919 -269 4284 515 
Q 3650 1300 3281 2294 
Q 3038 1256 2350 443 
Q 1663 -369 700 -775 
Q 556 -475 231 -413 
Q 1394 -50 2119 903 
Q 2844 1856 2919 3069 
L 1281 3069 
z
" transform="scale(0.015625)"/>
        <path id="WenQuanYiZenHei-9678" d="M 6175 -231 
Q 6156 -400 6175 -569 
Q 5863 -550 5550 -550 
L 2731 -550 
Q 2419 -550 2106 -569 
Q 2125 -400 2106 -231 
Q 2419 -244 2731 -244 
L 3931 -244 
L 3931 644 
L 3119 644 
Q 2806 644 2494 631 
Q 2513 800 2494 969 
Q 2806 956 3119 956 
L 3931 956 
L 3913 1888 
Q 4150 1863 4381 1888 
L 4363 956 
L 5219 956 
Q 5531 956 5844 969 
Q 5825 800 5844 631 
Q 5531 644 5219 644 
L 4363 644 
L 4363 -244 
L 5550 -244 
Q 5863 -244 6175 -231 
z
M 2894 2938 
Q 2581 2938 2269 2925 
Q 2288 3094 2269 3263 
Q 2581 3244 2894 3244 
L 3931 3244 
L 3931 4044 
L 3181 4044 
Q 2869 4044 2556 4031 
Q 2575 4200 2556 4369 
Q 2869 4356 3181 4356 
L 3931 4356 
Q 3931 4781 3913 5213 
Q 4150 5188 4381 5213 
Q 4363 4781 4363 4356 
L 5163 4356 
Q 5475 4356 5788 4369 
Q 5769 4200 5788 4031 
Q 5475 4044 5163 4044 
L 4363 4044 
L 4363 3244 
L 5431 3244 
Q 5744 3244 6056 3263 
Q 6038 3094 6056 2925 
Q 5744 2938 5431 2938 
L 5006 2938 
Q 5563 2400 6050 1800 
L 5681 1500 
Q 5206 2088 4656 2619 
L 4963 2938 
L 2894 2938 
z
M 3331 2900 
Q 3531 2775 3750 2694 
Q 3369 1856 2388 1356 
Q 2319 1569 2138 1706 
Q 2531 1888 2803 2166 
Q 3075 2444 3331 2900 
z
M 763 -850 
Q 544 -825 325 -850 
Q 344 -419 344 19 
L 338 4938 
L 2106 4938 
L 2106 4625 
Q 2006 4513 1938 4375 
L 1381 3238 
Q 2038 2319 2038 1156 
Q 2000 400 1463 163 
L 1313 88 
Q 1206 300 1063 481 
Q 1206 538 1356 606 
Q 1644 744 1675 1156 
Q 1675 1744 1494 2300 
Q 1313 2856 969 3313 
L 1606 4625 
L 738 4625 
L 744 19 
Q 744 -419 763 -850 
z
" transform="scale(0.015625)"/>
       </defs>
       <use xlink:href="#WenQuanYiZenHei-4e2d"/>
       <use xlink:href="#WenQuanYiZenHei-570b" transform="translate(100 0)"/>
       <use xlink:href="#WenQuanYiZenHei-5927" transform="translate(200 0)"/>
       <use xlink:href="#WenQuanYiZenHei-9678" transform="translate(300 0)"/>
      </g>
     </g>
    </g>
    <g id="ytick_2">
     <g id="line2d_19">
      <g>
       <use xlink:href="#mc900f3787c" x="68.40625" y="81.71625" style="stroke: #000000; stroke-width: 0.8"/>
      </g>
     </g>
     <g id="text_5">
      <!-- 香港 -->
      <g transform="translate(41.40625 85.637344) scale(0.1 -0.1)">
       <defs>
        <path id="WenQuanYiZenHei-9999" d="M 1975 -763 
Q 1738 -738 1494 -763 
Q 1519 -325 1519 119 
L 1519 2119 
Q 988 1713 394 1519 
Q 344 1781 144 1963 
Q 619 2106 1069 2365 
Q 1519 2625 1806 2969 
Q 1981 3175 2213 3531 
L 1113 3531 
Q 788 3531 463 3513 
Q 481 3688 463 3863 
Q 788 3850 1113 3850 
L 2981 3850 
L 2981 4694 
L 975 4538 
L 744 4963 
Q 1681 4906 3081 5063 
Q 4306 5188 4956 5319 
Q 4950 5069 5000 4825 
Q 4419 4800 3413 4725 
L 3413 3850 
L 5256 3850 
Q 5581 3850 5900 3863 
Q 5881 3688 5900 3513 
Q 5581 3531 5256 3531 
L 4006 3531 
Q 4463 2969 4928 2622 
Q 5394 2275 6125 1975 
Q 5900 1850 5813 1606 
Q 5013 1956 4413 2531 
Q 3900 3013 3513 3531 
L 3413 3531 
L 3413 2144 
L 4806 2144 
L 4806 -750 
L 4369 -750 
L 4369 -281 
L 1956 -281 
Q 1963 -525 1975 -763 
z
M 4369 1088 
L 4369 1825 
L 1950 1825 
L 1950 1088 
L 4369 1088 
z
M 4369 769 
L 1950 769 
L 1950 38 
L 4369 38 
L 4369 769 
z
M 1550 2144 
L 2981 2144 
L 2981 3531 
L 2775 3531 
Q 2269 2700 1550 2144 
z
" transform="scale(0.015625)"/>
        <path id="WenQuanYiZenHei-6e2f" d="M 3175 -656 
Q 2881 -656 2718 -484 
Q 2556 -313 2556 -44 
L 2556 1513 
Q 2138 1031 1544 644 
Q 1456 844 1263 956 
Q 1775 1275 2131 1697 
Q 2488 2119 2806 2769 
L 2319 2769 
Q 2025 2769 1731 2756 
Q 1750 2913 1731 3069 
Q 2025 3056 2319 3056 
L 2844 3056 
L 2844 3875 
L 2544 3875 
Q 2250 3875 1956 3856 
Q 1975 4019 1956 4175 
Q 2250 4163 2544 4163 
L 2844 4163 
L 2844 4413 
Q 2844 4838 2825 5263 
Q 3050 5238 3281 5263 
Q 3263 4838 3263 4413 
L 3263 4163 
L 4231 4163 
L 4231 4413 
Q 4231 4838 4206 5263 
Q 4438 5238 4669 5263 
Q 4650 4838 4650 4413 
L 4650 4163 
L 5069 4163 
Q 5363 4163 5656 4175 
Q 5638 4019 5656 3856 
Q 5363 3875 5069 3875 
L 4650 3875 
L 4650 3056 
L 5338 3056 
Q 5631 3056 5925 3069 
Q 5906 2913 5925 2756 
Q 5631 2769 5338 2769 
L 4563 2769 
Q 4875 2225 5219 1900 
Q 5563 1575 6156 1281 
Q 5925 1175 5825 950 
Q 5250 1244 4738 1856 
L 4738 438 
L 4319 438 
L 4319 606 
L 2975 606 
L 2975 -44 
Q 2975 -150 3031 -228 
Q 3088 -306 3181 -306 
L 4756 -300 
Q 4838 -300 4897 -228 
Q 4956 -156 4975 -50 
L 5081 550 
Q 5269 438 5488 425 
L 5313 -344 
Q 5288 -475 5222 -565 
Q 5156 -656 5050 -656 
L 3175 -656 
z
M 2975 875 
L 4319 875 
L 4319 1606 
L 2975 1606 
L 2975 875 
z
M 2850 1894 
L 4706 1894 
Q 4375 2306 4131 2769 
L 3275 2769 
Q 3131 2313 2850 1894 
z
M 4231 3056 
L 4231 3875 
L 3263 3875 
L 3263 3056 
L 4231 3056 
z
M 775 -738 
Q 563 -588 244 -575 
Q 469 -69 709 581 
Q 950 1231 1406 2838 
L 1613 2706 
L 1025 338 
L 775 -738 
z
M 1181 2856 
L 850 2550 
L 88 3400 
L 413 3713 
L 1181 2856 
z
M 1275 3913 
Q 919 4388 500 4800 
L 806 5125 
Q 1250 4688 1625 4188 
L 1275 3913 
z
" transform="scale(0.015625)"/>
       </defs>
       <use xlink:href="#WenQuanYiZenHei-9999"/>
       <use xlink:href="#WenQuanYiZenHei-6e2f" transform="translate(100 0)"/>
      </g>
     </g>
    </g>
    <g id="ytick_3">
     <g id="line2d_20">
      <g>
       <use xlink:href="#mc900f3787c" x="68.40625" y="112.573393" style="stroke: #000000; stroke-width: 0.8"/>
      </g>
     </g>
     <g id="text_6">
      <!-- 美國 -->
      <g transform="translate(41.40625 116.679643) scale(0.1 -0.1)">
       <defs>
        <path id="WenQuanYiZenHei-7f8e" d="M 1044 1231 
Q 719 1231 400 1213 
Q 419 1388 400 1563 
Q 719 1550 1044 1550 
L 2919 1550 
L 2919 2194 
L 1031 2194 
Q 706 2194 381 2181 
Q 400 2356 381 2531 
Q 706 2513 1031 2513 
L 2925 2513 
L 2925 3163 
L 1663 3163 
Q 1338 3163 1019 3150 
Q 1031 3325 1019 3500 
Q 1338 3481 1663 3481 
L 2925 3481 
L 2925 4131 
L 1313 4131 
Q 994 4131 669 4113 
Q 688 4288 669 4463 
Q 994 4450 1313 4450 
L 2250 4450 
L 1681 5169 
L 2056 5469 
L 2763 4563 
L 2619 4450 
L 3531 4450 
Q 3819 4756 4100 5194 
Q 4288 5044 4506 4938 
Q 4363 4694 4131 4450 
L 4956 4450 
Q 5275 4450 5600 4463 
Q 5581 4288 5600 4113 
Q 5275 4131 4956 4131 
L 3819 4131 
L 3769 4081 
Q 3750 4106 3731 4131 
L 3356 4131 
L 3356 3481 
L 4606 3481 
Q 4931 3481 5256 3500 
Q 5238 3325 5256 3150 
Q 4931 3163 4606 3163 
L 3356 3163 
L 3356 2513 
L 5244 2513 
Q 5563 2513 5888 2531 
Q 5869 2356 5888 2181 
Q 5563 2194 5244 2194 
L 3350 2194 
L 3350 1550 
L 5394 1550 
Q 5713 1550 6038 1563 
Q 6019 1388 6038 1213 
Q 5713 1231 5394 1231 
L 3513 1231 
Q 4025 444 4794 19 
Q 5369 -281 6088 -375 
Q 5900 -556 5869 -813 
Q 5056 -700 4384 -218 
Q 3713 263 3219 969 
Q 3025 519 2594 131 
Q 1800 -600 619 -850 
Q 556 -556 275 -431 
Q 1519 -263 2306 444 
Q 2713 806 2856 1231 
L 1044 1231 
z
" transform="scale(0.015625)"/>
       </defs>
       <use xlink:href="#WenQuanYiZenHei-7f8e"/>
       <use xlink:href="#WenQuanYiZenHei-570b" transform="translate(100 0)"/>
      </g>
     </g>
    </g>
    <g id="ytick_4">
     <g id="line2d_21">
      <g>
       <use xlink:href="#mc900f3787c" x="68.40625" y="143.430536" style="stroke: #000000; stroke-width: 0.8"/>
      </g>
     </g>
     <g id="text_7">
      <!-- 歐洲 -->
      <g transform="translate(41.40625 147.385223) scale(0.1 -0.1)">
       <defs>
        <path id="WenQuanYiZenHei-6b50" d="M 2725 675 
L 2319 675 
L 2319 2263 
L 3581 2263 
L 3581 675 
L 3175 675 
L 3175 894 
L 2725 894 
L 2725 675 
z
M 1288 675 
L 881 675 
L 881 2250 
L 2131 2250 
L 2131 675 
L 1725 675 
L 1725 894 
L 1288 894 
L 1288 675 
z
M 1319 2788 
Q 1394 3419 1319 4050 
L 2956 4050 
Q 2881 3419 2944 2788 
L 1319 2788 
z
M 3444 4725 
Q 3425 4581 3444 4431 
Q 3175 4444 2906 4444 
L 675 4444 
L 675 250 
L 3600 250 
L 3600 -13 
L 269 -13 
L 269 4713 
L 2906 4713 
Q 3175 4713 3444 4725 
z
M 3175 2000 
L 2725 2000 
L 2725 1138 
L 3175 1138 
L 3175 2000 
z
M 1725 1988 
L 1288 1988 
L 1288 1138 
L 1725 1138 
L 1725 1988 
z
M 1725 3788 
L 1725 3056 
L 2544 3056 
L 2550 3788 
L 1725 3788 
z
M 3169 -869 
Q 3088 -613 2869 -519 
Q 3481 -313 3900 269 
Q 4456 1025 4406 2169 
Q 4406 2594 4388 3019 
Q 4575 2994 4769 3019 
Q 4750 2594 4750 2175 
Q 4806 1800 4925 1375 
Q 5150 556 5638 56 
Q 5906 -238 6219 -444 
Q 6025 -544 5925 -756 
Q 5325 -331 4963 419 
Q 4794 756 4669 1144 
Q 4506 481 4156 -6 
Q 3750 -581 3169 -869 
z
M 4438 4975 
Q 4425 4288 4256 3675 
L 5888 3675 
L 5938 3319 
Q 5875 3306 5844 3250 
L 5500 2444 
L 5188 2638 
L 5506 3388 
L 4169 3388 
Q 3969 2800 3681 2306 
Q 3563 2450 3369 2494 
Q 3519 2744 3681 3112 
Q 3844 3481 3931 3972 
Q 4019 4463 4056 4994 
Q 4244 4963 4438 4975 
z
" transform="scale(0.015625)"/>
        <path id="WenQuanYiZenHei-6d32" d="M 5794 -769 
Q 5550 -744 5313 -769 
Q 5338 -325 5338 113 
L 5338 4375 
Q 5338 4819 5313 5256 
Q 5550 5231 5794 5256 
Q 5769 4819 5769 4375 
L 5769 113 
Q 5769 -325 5794 -769 
z
M 4444 -769 
Q 4206 -744 3969 -769 
Q 3988 -325 3988 113 
L 3988 4288 
Q 3988 4725 3969 5169 
Q 4206 5144 4444 5169 
Q 4425 4725 4425 4288 
L 4425 3206 
L 4794 3369 
Q 5069 2738 5250 2075 
L 4788 1950 
Q 4638 2494 4425 3013 
L 4425 113 
Q 4425 -325 4444 -769 
z
M 2688 2100 
L 2688 4363 
Q 2688 4806 2669 5244 
Q 2906 5219 3144 5244 
Q 3125 4806 3125 4363 
L 3125 3175 
L 3525 3325 
Q 3763 2700 3906 2050 
L 3438 1950 
Q 3319 2506 3125 3044 
L 3125 2100 
Q 3125 188 1938 -744 
Q 1788 -513 1513 -475 
Q 2688 250 2688 2100 
z
M 1706 1950 
Q 1981 2631 2169 3338 
L 2631 3213 
Q 2438 2475 2150 1769 
L 1706 1950 
z
M 819 -738 
Q 594 -588 256 -575 
Q 494 -69 747 581 
Q 1000 1231 1481 2838 
L 1706 2706 
L 1081 338 
L 819 -738 
z
M 1244 2856 
L 900 2550 
L 94 3400 
L 438 3713 
L 1244 2856 
z
M 1344 3913 
Q 969 4388 525 4800 
L 850 5125 
Q 1319 4688 1713 4188 
L 1344 3913 
z
" transform="scale(0.015625)"/>
       </defs>
       <use xlink:href="#WenQuanYiZenHei-6b50"/>
       <use xlink:href="#WenQuanYiZenHei-6d32" transform="translate(100 0)"/>
      </g>
     </g>
    </g>
    <g id="ytick_5">
     <g id="line2d_22">
      <g>
       <use xlink:href="#mc900f3787c" x="68.40625" y="174.287679" style="stroke: #000000; stroke-width: 0.8"/>
      </g>
     </g>
     <g id="text_8">
      <!-- 日本 -->
      <g transform="translate(41.40625 178.174397) scale(0.1 -0.1)">
       <defs>
        <path id="WenQuanYiZenHei-65e5" d="M 1494 -775 
Q 1244 -750 988 -775 
Q 1013 -313 1013 156 
L 1013 4875 
L 5269 4875 
L 5269 -763 
L 4813 -763 
L 4813 156 
L 1469 156 
Q 1469 -313 1494 -775 
z
M 4813 2700 
L 4813 4500 
L 1469 4500 
L 1469 2700 
L 4813 2700 
z
M 4813 531 
L 4813 2325 
L 1469 2325 
L 1469 531 
L 4813 531 
z
" transform="scale(0.015625)"/>
        <path id="WenQuanYiZenHei-672c" d="M 4713 1181 
Q 4694 975 4713 769 
Q 4331 788 3950 788 
L 3369 788 
L 3369 163 
Q 3369 -300 3394 -769 
Q 3138 -738 2888 -769 
Q 2913 -300 2913 163 
L 2913 788 
L 2325 788 
Q 1944 788 1563 769 
Q 1588 975 1563 1181 
Q 1944 1163 2325 1163 
L 2913 1163 
L 2913 3200 
Q 1881 1388 463 363 
Q 331 613 69 738 
Q 1725 1856 2563 3569 
L 1081 3569 
Q 700 3569 319 3550 
Q 338 3756 319 3963 
Q 700 3944 1081 3944 
L 2913 3944 
L 2913 4331 
Q 2913 4794 2888 5263 
Q 3138 5231 3394 5263 
Q 3369 4794 3369 4331 
L 3369 3944 
L 5200 3944 
Q 5581 3944 5963 3963 
Q 5938 3756 5963 3550 
Q 5581 3569 5200 3569 
L 3738 3569 
Q 4181 2650 4728 2034 
Q 5275 1419 6163 900 
Q 5906 806 5769 569 
Q 4906 1100 4294 1894 
Q 3756 2588 3369 3375 
L 3369 1163 
L 3950 1163 
Q 4331 1163 4713 1181 
z
" transform="scale(0.015625)"/>
       </defs>
       <use xlink:href="#WenQuanYiZenHei-65e5"/>
       <use xlink:href="#WenQuanYiZenHei-672c" transform="translate(100 0)"/>
      </g>
     </g>
    </g>
    <g id="ytick_6">
     <g id="line2d_23">
      <g>
       <use xlink:href="#mc900f3787c" x="68.40625" y="205.144821" style="stroke: #000000; stroke-width: 0.8"/>
      </g>
     </g>
     <g id="text_9">
      <!-- 越南 -->
      <g transform="translate(41.40625 209.099509) scale(0.1 -0.1)">
       <defs>
        <path id="WenQuanYiZenHei-8d8a" d="M 5519 4250 
L 5156 3956 
L 4581 4669 
L 4938 4956 
L 5519 4250 
z
M 4688 1700 
Q 5056 2431 5044 3331 
Q 5281 3306 5525 3331 
Q 5538 2238 4894 1294 
Q 5094 988 5388 763 
Q 5388 1244 5363 1725 
Q 5569 1588 5819 1594 
Q 5875 981 5800 375 
Q 5800 275 5725 213 
Q 5613 106 5475 175 
Q 4975 475 4631 950 
Q 4363 631 3994 315 
Q 3625 0 3331 -25 
Q 3056 219 2725 356 
Q 3819 450 4431 1275 
Q 4156 1788 4084 2291 
Q 4013 2794 4031 3556 
L 3513 3556 
L 3513 1556 
L 3975 1788 
L 4094 1513 
Q 3988 1481 3716 1272 
Q 3444 1063 3231 856 
L 3013 1219 
Q 3094 1325 3094 1463 
L 3094 3844 
L 4038 3844 
L 4025 5244 
Q 4250 5219 4481 5244 
L 4456 3844 
L 5269 3844 
Q 5563 3844 5856 3856 
Q 5838 3700 5856 3544 
Q 5563 3556 5269 3556 
L 4444 3556 
Q 4413 2388 4688 1700 
z
M 175 -588 
Q 844 -75 794 1150 
Q 794 1575 775 2000 
Q 1000 1975 1231 2000 
Q 1213 1575 1213 1150 
L 1213 881 
Q 1363 550 1631 300 
L 1631 2494 
L 1019 2494 
Q 725 2494 431 2481 
Q 450 2638 431 2794 
Q 725 2781 1019 2781 
L 1638 2781 
L 1638 3725 
L 1169 3725 
Q 881 3725 588 3713 
Q 600 3869 588 4031 
Q 881 4013 1169 4013 
L 1638 4013 
L 1638 4325 
Q 1638 4750 1619 5175 
Q 1850 5150 2081 5175 
Q 2056 4750 2056 4325 
L 2056 4013 
L 2900 4031 
Q 2881 3869 2900 3713 
L 2056 3725 
L 2056 2781 
L 2344 2781 
Q 2638 2781 2931 2794 
Q 2913 2638 2931 2481 
Q 2638 2494 2344 2494 
L 2050 2494 
L 2050 1563 
Q 2606 1569 2875 1581 
Q 2856 1419 2875 1263 
Q 2719 1269 2050 1275 
L 2050 19 
L 2031 19 
Q 2550 -256 3438 -331 
Q 3681 -350 4718 -387 
Q 5756 -425 5981 -425 
Q 5825 -594 5813 -869 
Q 5219 -844 4484 -822 
Q 3750 -800 3419 -769 
Q 1850 -650 1131 219 
Q 988 -394 581 -819 
Q 438 -638 175 -588 
z
" transform="scale(0.015625)"/>
        <path id="WenQuanYiZenHei-5357" d="M 3363 -769 
Q 3125 -744 2888 -769 
Q 2906 -325 2906 113 
L 2906 700 
L 1906 700 
Q 1581 700 1263 681 
Q 1281 856 1263 1031 
Q 1581 1019 1906 1019 
L 2906 1019 
L 2906 1619 
L 2050 1619 
Q 1731 1619 1406 1606 
Q 1425 1781 1406 1956 
L 2281 1938 
Q 2013 2375 1694 2781 
L 2000 3025 
L 1013 3025 
L 1019 131 
Q 1019 -306 1044 -750 
Q 800 -725 563 -750 
Q 588 -306 581 131 
L 581 3344 
L 2906 3344 
L 2906 4075 
L 763 4075 
Q 438 4075 119 4056 
Q 131 4231 119 4406 
Q 438 4394 763 4394 
L 2906 4394 
Q 2906 4825 2888 5256 
Q 3125 5231 3363 5256 
Q 3344 4825 3344 4394 
L 5488 4394 
Q 5813 4394 6131 4406 
Q 6119 4231 6131 4056 
Q 5813 4075 5488 4075 
L 3344 4075 
L 3344 3344 
L 5663 3344 
L 5663 -125 
Q 5663 -506 5388 -650 
Q 5100 -806 4544 -800 
Q 4613 -494 4400 -269 
Q 4594 -294 4856 -297 
Q 5119 -300 5175 -253 
Q 5231 -206 5231 50 
L 5231 3025 
L 4063 3025 
Q 4238 2894 4431 2800 
Q 4269 2525 3831 1938 
L 4200 1938 
Q 4519 1938 4844 1956 
Q 4825 1781 4844 1606 
Q 4519 1619 4200 1619 
L 3600 1619 
Q 3588 1588 3569 1619 
L 3344 1619 
L 3344 1019 
L 4344 1019 
Q 4669 1019 4988 1031 
Q 4969 856 4988 681 
Q 4669 700 4344 700 
L 3344 700 
L 3344 113 
Q 3344 -325 3363 -769 
z
M 3300 1938 
Q 3394 2063 3475 2181 
L 4006 3025 
L 2113 3025 
Q 2500 2525 2819 1975 
L 2750 1938 
L 3300 1938 
z
" transform="scale(0.015625)"/>
       </defs>
       <use xlink:href="#WenQuanYiZenHei-8d8a"/>
       <use xlink:href="#WenQuanYiZenHei-5357" transform="translate(100 0)"/>
      </g>
     </g>
    </g>
    <g id="ytick_7">
     <g id="line2d_24">
      <g>
       <use xlink:href="#mc900f3787c" x="68.40625" y="236.001964" style="stroke: #000000; stroke-width: 0.8"/>
      </g>
     </g>
     <g id="text_10">
      <!-- 南韓 -->
      <g transform="translate(41.40625 239.907433) scale(0.1 -0.1)">
       <defs>
        <path id="WenQuanYiZenHei-97d3" d="M 3019 1356 
L 3044 1356 
L 3056 1394 
L 3231 1350 
L 4144 1350 
L 4144 1856 
L 3238 1856 
Q 3306 2425 3238 2994 
L 5563 2994 
Q 5481 2425 5544 1856 
L 4544 1856 
L 4544 1350 
L 5275 1350 
Q 5531 1350 5788 1363 
Q 5775 1225 5788 1088 
Q 5531 1100 5275 1100 
L 4544 1100 
L 4544 469 
L 6081 469 
L 6081 213 
L 4544 213 
L 4544 44 
Q 4544 -363 4563 -763 
Q 4344 -744 4125 -763 
Q 4144 -363 4144 44 
L 4144 213 
L 2763 213 
L 3019 1256 
L 3019 1356 
z
M 6131 3656 
Q 6119 3513 6131 3375 
Q 5875 3388 5619 3388 
L 3306 3388 
Q 3050 3388 2794 3375 
Q 2813 3513 2794 3656 
Q 3050 3644 3306 3644 
L 3713 3644 
L 3850 4331 
L 3019 4319 
Q 3038 4456 3019 4594 
L 3894 4581 
Q 3956 4913 4006 5238 
Q 4213 5175 4431 5156 
Q 4363 4869 4306 4581 
L 5500 4581 
L 5500 3644 
L 6131 3656 
z
M 1631 -763 
Q 1413 -744 1194 -763 
Q 1213 -363 1213 44 
L 1213 688 
L 681 688 
Q 419 688 163 675 
Q 181 813 163 950 
Q 419 938 681 938 
L 1213 938 
L 1213 1675 
L 375 1675 
Q 444 2650 375 3619 
L 1206 3619 
L 1206 4194 
L 706 4194 
Q 450 4194 194 4181 
Q 213 4319 194 4456 
Q 450 4444 706 4444 
L 1206 4450 
Q 1206 4856 1188 5256 
Q 1406 5238 1625 5256 
L 1606 4444 
L 2100 4444 
Q 2356 4444 2613 4456 
Q 2600 4319 2613 4181 
Q 2356 4194 2100 4194 
L 1606 4194 
L 1606 3619 
L 2463 3619 
Q 2388 2650 2463 1675 
L 1613 1675 
L 1613 938 
L 2206 938 
Q 2463 938 2719 950 
Q 2706 813 2719 675 
Q 2463 688 2206 688 
L 1613 688 
L 1613 44 
Q 1613 -363 1631 -763 
z
M 4144 469 
L 4144 1100 
L 3394 1100 
L 3238 469 
L 4144 469 
z
M 3631 2744 
L 3631 2106 
L 5150 2106 
L 5156 2744 
L 3631 2744 
z
M 5100 3644 
L 5100 4331 
L 4250 4331 
L 4119 3644 
L 5100 3644 
z
M 775 3369 
L 775 2769 
L 2063 2769 
L 2063 3369 
L 775 3369 
z
M 775 2538 
L 775 1931 
L 2063 1931 
L 2063 2538 
L 775 2538 
z
" transform="scale(0.015625)"/>
       </defs>
       <use xlink:href="#WenQuanYiZenHei-5357"/>
       <use xlink:href="#WenQuanYiZenHei-97d3" transform="translate(100 0)"/>
      </g>
     </g>
    </g>
    <g id="ytick_8">
     <g id="line2d_25">
      <g>
       <use xlink:href="#mc900f3787c" x="68.40625" y="266.859107" style="stroke: #000000; stroke-width: 0.8"/>
      </g>
     </g>
     <g id="text_11">
      <!-- 德國 -->
      <g transform="translate(41.40625 270.687232) scale(0.1 -0.1)">
       <defs>
        <path id="WenQuanYiZenHei-5fb7" d="M 5975 -113 
Q 5644 406 5219 844 
L 5538 1156 
Q 6000 688 6350 125 
L 5975 -113 
z
M 4688 488 
L 4306 250 
L 3800 1056 
L 4175 1294 
L 4688 488 
z
M 3538 -650 
Q 3250 -650 3094 -487 
Q 2938 -325 2938 -69 
L 2938 250 
Q 2938 663 2919 1069 
Q 3138 1050 3363 1069 
Q 3344 663 3344 250 
L 3344 -69 
Q 3344 -169 3400 -244 
Q 3456 -319 3544 -319 
L 4938 -313 
Q 5013 -313 5066 -247 
Q 5119 -181 5138 -88 
L 5238 450 
Q 5419 344 5625 331 
L 5463 -369 
Q 5438 -488 5375 -569 
Q 5313 -650 5219 -650 
L 3538 -650 
z
M 1725 -263 
Q 2044 325 2288 950 
L 2700 794 
Q 2450 138 2119 -475 
L 1725 -263 
z
M 6125 1650 
Q 6106 1506 6125 1363 
Q 5856 1375 5581 1375 
L 2606 1375 
Q 2338 1375 2069 1363 
Q 2088 1506 2069 1650 
Q 2338 1638 2606 1638 
L 5581 1638 
Q 5856 1638 6125 1650 
z
M 2450 2125 
Q 2525 2869 2450 3606 
L 3413 3606 
L 3413 3644 
L 3475 3644 
Q 3581 3888 3669 4175 
L 2700 4175 
Q 2431 4175 2163 4163 
Q 2175 4306 2163 4450 
Q 2431 4438 2700 4438 
L 3750 4438 
L 3925 5113 
Q 4138 5044 4363 5019 
Q 4306 4725 4213 4438 
L 5600 4438 
Q 5869 4438 6138 4450 
Q 6125 4306 6138 4163 
Q 5869 4175 5600 4175 
L 4125 4175 
L 3894 3606 
L 5825 3606 
Q 5750 2869 5819 2125 
L 2450 2125 
z
M 2856 3344 
L 2856 2388 
L 3413 2388 
L 3413 3344 
L 2856 3344 
z
M 4769 3344 
L 4769 2388 
L 5413 2388 
L 5419 3344 
L 4769 3344 
z
M 4363 3344 
L 3819 3344 
L 3819 2388 
L 4363 2388 
L 4363 3344 
z
M 1688 3663 
Q 1869 3519 2088 3419 
Q 1794 2919 1444 2469 
L 1444 13 
Q 1444 -419 1469 -850 
Q 1231 -825 1000 -850 
Q 1019 -419 1019 13 
L 1019 1956 
L 381 1263 
Q 256 1438 38 1513 
Q 688 2144 1244 2981 
L 1688 3663 
z
M 1519 5094 
Q 1706 4969 1931 4875 
Q 1531 4119 881 3525 
Q 669 3325 438 3138 
Q 325 3331 125 3425 
Q 694 3850 1131 4488 
Q 1338 4788 1519 5094 
z
" transform="scale(0.015625)"/>
       </defs>
       <use xlink:href="#WenQuanYiZenHei-5fb7"/>
       <use xlink:href="#WenQuanYiZenHei-570b" transform="translate(100 0)"/>
      </g>
     </g>
    </g>
    <g id="ytick_9">
     <g id="line2d_26">
      <g>
       <use xlink:href="#mc900f3787c" x="68.40625" y="297.71625" style="stroke: #000000; stroke-width: 0.8"/>
      </g>
     </g>
     <g id="text_12">
      <!-- 馬來西亞 -->
      <g transform="translate(21.40625 301.636562) scale(0.1 -0.1)">
       <defs>
        <path id="WenQuanYiZenHei-99ac" d="M 5100 681 
L 4775 331 
L 3938 1119 
L 4263 1463 
L 5100 681 
z
M 3513 100 
Q 3119 575 2656 994 
L 2975 1350 
Q 3463 913 3881 406 
L 3513 100 
z
M 2200 -94 
Q 1925 444 1575 944 
L 1963 1219 
Q 2338 694 2625 119 
L 2200 -94 
z
M -69 -150 
Q 425 525 838 1244 
L 1250 1006 
Q 825 263 319 -431 
L -69 -150 
z
M 5638 -106 
L 5638 1631 
L 1019 1631 
L 1013 5013 
L 4975 5013 
Q 5300 5013 5625 5031 
Q 5606 4856 5625 4681 
Q 5300 4694 4975 4694 
L 3475 4694 
L 3475 4044 
L 4781 4044 
Q 5106 4044 5431 4056 
Q 5413 3881 5431 3706 
Q 5106 3725 4781 3725 
L 3475 3725 
L 3475 2981 
L 4781 2981 
Q 5106 2981 5431 3000 
Q 5413 2825 5431 2650 
Q 5106 2663 4781 2663 
L 3475 2663 
L 3475 1950 
L 6075 1950 
L 6075 -213 
Q 6075 -438 5856 -625 
Q 5625 -825 4950 -819 
Q 5019 -513 4806 -288 
Q 5000 -313 5275 -316 
Q 5550 -319 5594 -284 
Q 5638 -250 5638 -106 
z
M 3044 1950 
L 3044 2663 
L 1450 2663 
L 1456 1950 
L 3044 1950 
z
M 3044 2981 
L 3044 3725 
L 1450 3725 
L 1450 2981 
L 3044 2981 
z
M 3044 4044 
L 3044 4694 
L 1450 4694 
Q 1450 4369 1450 4044 
L 3044 4044 
z
" transform="scale(0.015625)"/>
        <path id="WenQuanYiZenHei-4f86" d="M 3331 125 
Q 3331 -319 3350 -769 
Q 3113 -744 2869 -769 
Q 2894 -319 2894 125 
L 2894 1606 
Q 1894 144 406 -444 
Q 338 -175 131 0 
Q 744 225 1300 594 
Q 1856 963 2213 1438 
Q 2331 1600 2506 1881 
L 2350 1781 
Q 2063 2238 1675 2619 
Q 1350 2013 794 1531 
Q 669 1725 456 1819 
Q 950 2219 1203 2716 
Q 1456 3213 1569 3938 
Q 1806 3888 2050 3888 
Q 2019 3475 1881 3088 
Q 2338 2675 2675 2163 
Q 2806 2388 2881 2538 
L 2894 2538 
L 2894 4150 
L 1138 4150 
Q 800 4150 463 4131 
Q 481 4313 463 4494 
Q 800 4475 1138 4475 
L 2888 4475 
Q 2888 4869 2869 5256 
Q 3113 5231 3350 5256 
Q 3331 4869 3331 4475 
L 5200 4475 
Q 5538 4475 5875 4494 
Q 5856 4313 5875 4131 
Q 5538 4150 5200 4150 
L 3331 4150 
L 3331 2519 
L 3444 2306 
Q 3769 2675 3966 3087 
Q 4163 3500 4313 4056 
Q 4544 3981 4781 3950 
Q 4713 3600 4569 3269 
Q 5125 2750 5525 2113 
L 5119 1856 
Q 4788 2381 4344 2813 
Q 4081 2350 3669 1913 
Q 4131 1188 4718 734 
Q 5306 281 6119 31 
Q 5900 -113 5825 -363 
Q 5056 -113 4425 434 
Q 3794 981 3331 1713 
L 3331 125 
z
" transform="scale(0.015625)"/>
        <path id="WenQuanYiZenHei-897f" d="M 700 3606 
L 2188 3606 
L 2188 4513 
L 844 4513 
Q 481 4513 113 4494 
Q 138 4694 113 4888 
Q 481 4869 844 4869 
L 5406 4869 
Q 5769 4869 6138 4888 
Q 6113 4694 6138 4494 
Q 5769 4513 5406 4513 
L 3925 4513 
L 3925 3606 
L 5506 3606 
L 5506 -763 
L 5050 -763 
L 5050 -200 
L 1169 -200 
Q 1175 -488 1188 -775 
Q 938 -750 694 -775 
Q 713 -319 713 144 
L 700 3606 
z
M 3475 3250 
L 2638 3250 
L 2638 2663 
Q 2638 1950 2234 1378 
Q 1831 806 1188 556 
Q 1175 594 1163 631 
L 1163 163 
L 5050 163 
L 5050 1119 
L 4144 1119 
Q 3869 1119 3672 1312 
Q 3475 1506 3475 1781 
L 3475 3250 
z
M 3925 3250 
L 3925 1781 
Q 3925 1656 3987 1565 
Q 4050 1475 4150 1475 
L 5050 1475 
L 5050 3250 
L 3925 3250 
z
M 2188 3250 
L 1156 3250 
L 1163 1063 
Q 1625 1269 1906 1700 
Q 2188 2131 2188 2663 
L 2188 3250 
z
M 3475 3606 
L 3475 4513 
L 2638 4513 
L 2638 3606 
L 3475 3606 
z
" transform="scale(0.015625)"/>
        <path id="WenQuanYiZenHei-4e9e" d="M 6138 -88 
Q 6113 -269 6138 -450 
Q 5800 -431 5463 -431 
L 788 -431 
Q 450 -431 113 -450 
Q 138 -269 113 -88 
Q 450 -106 788 -106 
L 2056 -106 
L 2056 1300 
L 538 1300 
L 531 3356 
L 1969 3356 
L 1969 4606 
L 863 4606 
Q 525 4606 194 4594 
Q 213 4775 194 4956 
Q 525 4938 863 4938 
L 5263 4938 
Q 5600 4938 5938 4956 
Q 5919 4775 5938 4594 
Q 5600 4606 5263 4606 
L 4100 4606 
L 4100 3369 
L 5550 3369 
L 5538 1325 
L 4113 1325 
L 4113 -106 
L 5463 -106 
Q 5800 -106 6138 -88 
z
M 3675 -106 
L 3675 1656 
L 5100 1656 
L 5106 3038 
L 3663 3038 
L 3663 4606 
L 2406 4606 
L 2406 3025 
L 969 3025 
L 975 1631 
L 2494 1631 
L 2494 -106 
L 3675 -106 
z
" transform="scale(0.015625)"/>
       </defs>
       <use xlink:href="#WenQuanYiZenHei-99ac"/>
       <use xlink:href="#WenQuanYiZenHei-4f86" transform="translate(100 0)"/>
       <use xlink:href="#WenQuanYiZenHei-897f" transform="translate(200 0)"/>
       <use xlink:href="#WenQuanYiZenHei-4e9e" transform="translate(300 0)"/>
      </g>
     </g>
    </g>
    <g id="ytick_10">
     <g id="line2d_27">
      <g>
       <use xlink:href="#mc900f3787c" x="68.40625" y="328.573393" style="stroke: #000000; stroke-width: 0.8"/>
      </g>
     </g>
     <g id="text_13">
      <!-- 荷蘭 -->
      <g transform="translate(41.40625 332.533549) scale(0.1 -0.1)">
       <defs>
        <path id="WenQuanYiZenHei-8377" d="M 2800 156 
L 2369 156 
L 2369 2375 
L 4044 2375 
L 4044 156 
L 3619 156 
L 3619 663 
L 2800 663 
L 2800 156 
z
M 4831 0 
L 4831 2975 
L 2750 2975 
Q 2438 2975 2125 2963 
Q 2138 3131 2125 3300 
Q 2438 3281 2750 3281 
L 5481 3281 
Q 5794 3281 6106 3300 
Q 6088 3131 6106 2963 
L 5256 2975 
L 5256 -175 
Q 5256 -538 4994 -688 
Q 4713 -844 4206 -838 
Q 4269 -544 4069 -319 
Q 4250 -338 4487 -341 
Q 4725 -344 4778 -300 
Q 4831 -256 4831 0 
z
M 1631 -800 
Q 1394 -775 1163 -800 
Q 1181 -363 1181 75 
L 1181 1906 
Q 850 1544 444 1238 
Q 338 1438 131 1538 
Q 731 1969 1097 2487 
Q 1463 3006 1763 3750 
Q 1981 3650 2206 3594 
Q 2000 2981 1613 2431 
L 1613 75 
Q 1613 -363 1631 -800 
z
M 3619 2069 
L 2800 2069 
L 2800 969 
L 3619 969 
L 3619 2069 
z
M 4419 3713 
Q 4169 3738 3919 3713 
Q 3938 4000 3938 4269 
L 2138 4269 
Q 2138 3994 2156 3713 
Q 1906 3738 1656 3713 
Q 1675 4000 1675 4269 
L 844 4269 
Q 481 4269 113 4256 
Q 138 4438 113 4625 
Q 481 4606 844 4606 
L 1681 4606 
Q 1675 4944 1656 5281 
Q 1906 5256 2156 5281 
Q 2138 4931 2131 4606 
L 3944 4606 
Q 3938 4944 3919 5281 
Q 4169 5256 4419 5281 
Q 4400 4931 4394 4606 
L 5406 4606 
Q 5769 4606 6138 4625 
Q 6113 4438 6138 4256 
Q 5769 4269 5406 4269 
L 4394 4269 
Q 4400 3994 4419 3713 
z
" transform="scale(0.015625)"/>
        <path id="WenQuanYiZenHei-862d" d="M 3294 1619 
L 3294 950 
L 3463 950 
Q 3419 975 3363 1000 
Q 3494 1094 3556 1219 
Q 3619 1344 3675 1550 
Q 3881 1488 4094 1463 
Q 4056 1200 3850 950 
L 4263 950 
L 4263 1619 
L 3294 1619 
z
M 3294 713 
L 3294 700 
Q 4038 425 4750 81 
L 4563 -300 
Q 3938 0 3294 244 
L 3294 -6 
Q 3294 -400 3313 -794 
Q 3100 -769 2888 -794 
Q 2906 -400 2906 -6 
L 2906 406 
Q 2275 -119 1269 -381 
Q 1250 -181 1113 -25 
Q 1856 144 2606 713 
L 1500 713 
Q 1569 1288 1500 1856 
L 2906 1856 
L 2900 2106 
L 1800 2106 
Q 1581 2106 1369 2094 
Q 1381 2213 1369 2331 
Q 1581 2319 1800 2319 
L 2900 2319 
Q 2894 2500 2888 2675 
Q 3100 2656 3313 2675 
Q 3300 2500 3300 2319 
L 4369 2319 
Q 4581 2319 4800 2331 
Q 4788 2213 4800 2094 
Q 4581 2106 4369 2106 
L 3294 2106 
L 3294 1856 
L 4656 1856 
Q 4581 1288 4650 713 
L 3294 713 
z
M 5400 81 
L 5400 2594 
L 3494 2594 
L 3481 3963 
L 5381 3956 
L 5381 4000 
Q 5594 3975 5806 4000 
Q 5788 3606 5788 3213 
L 5788 -138 
Q 5788 -456 5594 -631 
Q 5388 -806 4875 -800 
Q 4931 -531 4756 -325 
Q 4906 -344 5103 -347 
Q 5300 -350 5350 -300 
Q 5400 -250 5400 81 
z
M 375 3944 
L 2688 3950 
L 2688 2606 
L 763 2606 
L 763 -6 
Q 763 -400 781 -794 
Q 569 -769 356 -794 
Q 375 -400 375 -6 
L 375 3944 
z
M 2906 950 
L 2906 1619 
L 1888 1619 
L 1888 950 
L 2306 950 
L 2025 1363 
L 2381 1600 
L 2713 1100 
L 2488 950 
L 2906 950 
z
M 5394 3719 
L 3869 3719 
L 3875 3356 
L 5400 3356 
Q 5400 3538 5394 3719 
z
M 5400 3144 
L 3875 3144 
L 3881 2831 
L 5400 2831 
L 5400 3144 
z
M 763 2819 
L 2300 2819 
L 2300 3125 
L 763 3125 
L 763 2819 
z
M 763 3338 
L 2300 3338 
L 2300 3713 
L 763 3713 
L 763 3338 
z
M 4175 3856 
Q 3938 3881 3706 3856 
Q 3725 4131 3725 4394 
L 2381 4394 
Q 2388 4125 2400 3856 
Q 2169 3881 1938 3856 
Q 1950 4131 1956 4394 
L 719 4394 
Q 419 4394 119 4381 
Q 131 4525 119 4669 
Q 419 4656 719 4656 
L 1956 4656 
Q 1950 4969 1938 5275 
Q 2169 5256 2400 5275 
Q 2381 4956 2381 4656 
L 3725 4656 
Q 3725 4975 3706 5288 
Q 3938 5269 4175 5288 
Q 4156 4969 4150 4656 
L 5531 4656 
Q 5831 4656 6131 4669 
Q 6119 4525 6131 4381 
Q 5831 4394 5531 4394 
L 4156 4394 
Q 4156 4125 4175 3856 
z
" transform="scale(0.015625)"/>
       </defs>
       <use xlink:href="#WenQuanYiZenHei-8377"/>
       <use xlink:href="#WenQuanYiZenHei-862d" transform="translate(100 0)"/>
      </g>
     </g>
    </g>
    <g id="text_14">
     <!-- 國家/地區別 -->
     <g transform="translate(15.696875 217.313906) rotate(-90) scale(0.1 -0.1)">
      <defs>
       <path id="WenQuanYiZenHei-5bb6" d="M 1750 3363 
Q 1438 3363 1125 3344 
Q 1144 3513 1125 3681 
Q 1438 3669 1750 3669 
L 4469 3669 
Q 4781 3669 5094 3681 
Q 5075 3513 5094 3344 
Q 4781 3363 4469 3363 
L 3294 3363 
L 3319 3338 
L 2994 3050 
Q 3488 2794 3706 2075 
Q 4088 2256 4431 2512 
Q 4775 2769 5200 3169 
Q 5350 2981 5531 2838 
Q 5069 2350 4419 1969 
Q 4663 881 5394 350 
Q 5713 119 6075 -25 
Q 5850 -150 5763 -388 
Q 5138 -125 4700 456 
Q 4263 1038 4063 1775 
L 3800 1650 
Q 3931 669 3613 -238 
Q 3550 -388 3444 -538 
Q 3219 -850 2744 -925 
Q 2675 -638 2406 -525 
Q 3038 -531 3213 -106 
Q 3419 488 3413 1181 
Q 1988 -113 431 -544 
Q 394 -275 206 -81 
Q 869 88 1512 384 
Q 2156 681 2575 1040 
Q 2994 1400 3331 1756 
L 3356 1731 
Q 3306 2000 3219 2219 
Q 1938 956 538 606 
Q 506 869 325 1069 
Q 869 1194 1387 1419 
Q 1906 1644 2256 1941 
Q 2606 2238 2894 2556 
L 3188 2281 
Q 3025 2613 2750 2694 
Q 2663 2719 2575 2706 
Q 1606 1963 638 1638 
Q 581 1900 388 2081 
Q 1575 2450 2281 3025 
Q 2431 3150 2663 3363 
L 1750 3363 
z
M 781 3469 
L 350 3469 
L 350 4669 
L 3006 4669 
L 2463 5050 
L 2731 5438 
L 3406 4963 
L 3200 4669 
L 5863 4669 
L 5863 3469 
L 5431 3469 
L 5431 4363 
L 781 4363 
L 781 3469 
z
" transform="scale(0.015625)"/>
       <path id="WenQuanYiZenHei-2f" d="M 3213 4388 
L 563 -1094 
L 138 -1094 
L 2775 4388 
L 3213 4388 
z
" transform="scale(0.015625)"/>
       <path id="WenQuanYiZenHei-5730" d="M 3238 -688 
Q 2981 -688 2775 -500 
Q 2569 -313 2569 75 
L 2569 2438 
Q 2263 2325 1956 2194 
Q 1906 2388 1819 2563 
L 2569 2825 
L 2569 3406 
Q 2569 3863 2550 4325 
Q 2800 4294 3044 4325 
Q 3025 3863 3025 3406 
L 3025 2988 
L 3819 3281 
L 3819 4344 
Q 3819 4800 3800 5263 
Q 4050 5238 4294 5263 
Q 4275 4800 4275 4344 
L 4275 3450 
L 5700 3975 
L 5700 1388 
Q 5669 994 5350 869 
Q 5050 738 4625 744 
Q 4694 1050 4488 1294 
Q 4669 1275 4916 1269 
Q 5163 1263 5203 1303 
Q 5244 1344 5244 1506 
L 5244 3425 
L 4275 3069 
L 4275 1331 
Q 4275 869 4294 413 
Q 4050 438 3800 413 
Q 3819 869 3819 1331 
L 3819 2900 
L 3025 2606 
L 3025 75 
Q 3025 -69 3081 -175 
Q 3138 -281 3244 -281 
L 5456 -275 
Q 5575 -275 5653 -165 
Q 5731 -56 5750 100 
L 5875 988 
Q 6075 850 6313 856 
L 6138 -244 
Q 6113 -431 6025 -559 
Q 5938 -688 5794 -688 
L 3238 -688 
z
M -31 625 
Q 481 763 956 975 
L 956 3206 
L 638 3206 
Q 356 3206 69 3188 
Q 88 3356 69 3531 
Q 356 3513 638 3513 
L 956 3513 
L 956 4263 
Q 956 4700 938 5131 
Q 1150 5106 1363 5131 
Q 1344 4700 1344 4263 
L 1344 3513 
L 2131 3531 
Q 2113 3356 2131 3188 
L 1344 3206 
L 1344 1163 
L 2044 1531 
L 2088 1256 
Q 1206 775 775 519 
L 188 144 
Q 131 438 -31 625 
z
" transform="scale(0.015625)"/>
       <path id="WenQuanYiZenHei-5340" d="M 3738 650 
Q 3813 1400 3738 2150 
L 5625 2150 
Q 5544 1400 5613 650 
L 3738 650 
z
M 1406 650 
Q 1488 1400 1406 2150 
L 3294 2150 
Q 3213 1400 3281 650 
L 1406 650 
z
M 2125 2756 
Q 2200 3431 2125 4106 
L 4869 4106 
Q 4788 3431 4863 2756 
L 2125 2756 
z
M 4163 1850 
L 4163 950 
L 5194 950 
L 5200 1850 
L 4163 1850 
z
M 1831 1850 
L 1831 950 
L 2863 950 
L 2869 1850 
L 1831 1850 
z
M 2544 3806 
L 2544 3056 
L 4444 3056 
L 4444 3806 
L 2544 3806 
z
M 6025 5013 
Q 6006 4844 6025 4675 
Q 5700 4688 5369 4688 
L 863 4688 
L 863 -25 
L 6131 -25 
L 6131 -338 
L 413 -338 
L 406 5000 
L 5369 5000 
Q 5700 5000 6025 5013 
z
" transform="scale(0.015625)"/>
       <path id="WenQuanYiZenHei-5225" d="M 1213 2813 
L 769 2813 
L 769 4969 
L 3263 4969 
L 3263 2813 
L 2819 2813 
L 2819 3075 
L 1850 3075 
L 1850 2281 
L 3306 2281 
L 3306 -194 
Q 3306 -431 3147 -575 
Q 2988 -719 2769 -775 
Q 2531 -831 2156 -825 
Q 2225 -519 2006 -281 
Q 2206 -306 2487 -309 
Q 2769 -313 2816 -275 
Q 2863 -238 2863 -69 
L 2863 1938 
L 1850 1938 
Q 1906 756 1350 -38 
Q 1031 -500 544 -788 
Q 419 -538 156 -450 
Q 669 -231 988 225 
Q 1406 813 1406 1663 
L 1406 3075 
Q 1313 3075 1213 3075 
L 1213 2813 
z
M 2819 4625 
L 1219 4625 
L 1213 3419 
L 2819 3419 
L 2819 4625 
z
M 4831 -888 
Q 4881 -544 4688 -350 
Q 4881 -375 5122 -378 
Q 5363 -381 5434 -325 
Q 5506 -269 5506 38 
L 5506 4181 
Q 5506 4631 5488 5075 
Q 5719 5050 5956 5075 
Q 5931 4631 5931 4181 
L 5931 -106 
Q 5931 -656 5538 -800 
Q 5206 -913 4831 -888 
z
M 4694 756 
Q 4456 781 4225 756 
Q 4244 1200 4244 1650 
L 4244 3269 
Q 4244 3713 4225 4163 
Q 4456 4138 4694 4163 
Q 4669 3713 4669 3269 
L 4669 1650 
Q 4669 1200 4694 756 
z
" transform="scale(0.015625)"/>
      </defs>
      <use xlink:href="#WenQuanYiZenHei-570b"/>
      <use xlink:href="#WenQuanYiZenHei-5bb6" transform="translate(100 0)"/>
      <use xlink:href="#WenQuanYiZenHei-2f" transform="translate(200 0)"/>
      <use xlink:href="#WenQuanYiZenHei-5730" transform="translate(251.953125 0)"/>
      <use xlink:href="#WenQuanYiZenHei-5340" transform="translate(351.953125 0)"/>
      <use xlink:href="#WenQuanYiZenHei-5225" transform="translate(451.953125 0)"/>
     </g>
    </g>
   </g>
   <g id="patch_13">
    <path d="M 68.40625 356.03625 
L 68.40625 23.39625 
" style="fill: none; stroke: #000000; stroke-width: 0.8; stroke-linejoin: miter; stroke-linecap: square"/>
   </g>
   <g id="patch_14">
    <path d="M 570.60625 356.03625 
L 570.60625 23.39625 
" style="fill: none; stroke: #000000; stroke-width: 0.8; stroke-linejoin: miter; stroke-linecap: square"/>
   </g>
   <g id="patch_15">
    <path d="M 68.40625 356.03625 
L 570.60625 356.03625 
" style="fill: none; stroke: #000000; stroke-width: 0.8; stroke-linejoin: miter; stroke-linecap: square"/>
   </g>
   <g id="patch_16">
    <path d="M 68.40625 23.39625 
L 570.60625 23.39625 
" style="fill: none; stroke: #000000; stroke-width: 0.8; stroke-linejoin: miter; stroke-linecap: square"/>
   </g>
   <g id="text_15">
    <!-- 110年度國家財政部出口統計 18.光學及精密儀器；鐘錶；樂器 Top 10 -->
    <g transform="translate(133.654375 17.39625) scale(0.12 -0.12)">
     <defs>
      <path id="WenQuanYiZenHei-5e74" d="M 3638 -769 
Q 3388 -744 3138 -769 
Q 3163 -313 3163 150 
L 3163 1044 
L 969 1044 
Q 606 1044 244 1025 
Q 263 1219 244 1419 
Q 606 1400 969 1400 
L 1406 1400 
L 1400 2963 
L 3163 2963 
L 3163 3925 
L 1725 3925 
Q 1131 2881 494 2244 
Q 319 2463 50 2544 
Q 756 3219 1125 3794 
Q 1494 4369 1763 5169 
Q 2006 5044 2269 4969 
L 1925 4281 
L 5044 4281 
Q 5406 4281 5769 4300 
Q 5750 4106 5769 3906 
Q 5406 3925 5044 3925 
L 3613 3925 
L 3613 2963 
L 4769 2963 
Q 5131 2963 5494 2981 
Q 5475 2788 5494 2588 
Q 5131 2606 4769 2606 
L 3613 2606 
L 3613 1400 
L 5406 1400 
Q 5769 1400 6131 1419 
Q 6113 1219 6131 1025 
Q 5769 1044 5406 1044 
L 3613 1044 
L 3613 150 
Q 3613 -313 3638 -769 
z
M 3163 1400 
L 3163 2606 
L 1850 2606 
L 1856 1400 
L 3163 1400 
z
" transform="scale(0.015625)"/>
      <path id="WenQuanYiZenHei-5ea6" d="M 1863 1488 
Q 1881 1663 1863 1838 
Q 2181 1819 2506 1819 
L 5231 1819 
Q 4863 869 4081 213 
Q 4381 25 4763 -94 
Q 5388 -294 6044 -238 
Q 5894 -450 5913 -706 
Q 4731 -769 3744 -44 
Q 2731 -725 1519 -731 
Q 1450 -475 1300 -256 
Q 2431 -356 3388 244 
Q 2825 763 2413 1500 
Q 2138 1500 1863 1488 
z
M 5400 3613 
Q 5725 3613 6050 3631 
Q 6031 3456 6050 3281 
Q 5725 3294 5400 3294 
L 4800 3294 
Q 4794 2600 4794 2275 
L 2531 2275 
Q 2531 2781 2531 3294 
L 2213 3294 
Q 1894 3294 1569 3281 
Q 1588 3456 1569 3631 
Q 1894 3613 2213 3613 
L 2531 3613 
Q 2531 3963 2513 4306 
Q 2750 4281 2988 4306 
Q 2975 3963 2969 3613 
L 4363 3613 
Q 4363 3944 4350 4275 
Q 4588 4250 4825 4275 
Q 4806 3944 4800 3613 
L 5400 3613 
z
M 1013 4738 
L 3413 4738 
L 3025 5069 
L 3331 5431 
L 3856 4981 
L 3650 4738 
L 5444 4738 
Q 5769 4738 6094 4750 
Q 6075 4575 6094 4400 
Q 5769 4419 5444 4419 
L 1444 4419 
L 1456 1550 
Q 1463 44 600 -738 
Q 444 -525 181 -481 
Q 1044 100 1019 1550 
L 1013 4738 
z
M 2863 1500 
Q 3250 869 3719 475 
Q 4256 906 4581 1500 
L 2863 1500 
z
M 2969 3294 
Q 2969 2956 2969 2594 
L 4356 2594 
Q 4363 2931 4363 3294 
L 2969 3294 
z
" transform="scale(0.015625)"/>
      <path id="WenQuanYiZenHei-8ca1" d="M 3594 3363 
Q 3281 3363 2969 3344 
Q 2988 3513 2969 3681 
Q 3281 3669 3594 3669 
L 4706 3669 
L 4706 4313 
Q 4706 4744 4688 5181 
Q 4925 5156 5156 5181 
Q 5138 4744 5138 4313 
L 5138 3669 
L 5563 3669 
Q 5875 3669 6188 3681 
Q 6169 3513 6188 3344 
Q 5875 3363 5563 3363 
L 5138 3363 
L 5138 -44 
Q 5138 -481 4900 -644 
Q 4644 -819 4025 -813 
Q 4094 -513 3888 -288 
Q 4075 -313 4319 -316 
Q 4563 -319 4638 -263 
Q 4719 -144 4706 231 
L 4706 2669 
Q 3869 1169 3038 206 
Q 2856 406 2600 463 
Q 3469 1400 3950 2231 
Q 4225 2694 4556 3363 
L 3594 3363 
z
M 2331 -756 
Q 2050 -150 1688 394 
L 2031 575 
L 2031 881 
L 925 881 
L 925 556 
L 888 556 
Q 1088 494 1313 463 
Q 1138 -194 688 -656 
Q 569 -788 431 -919 
Q 294 -750 56 -681 
Q 588 -206 825 556 
L 469 556 
L 469 4969 
L 2488 4969 
L 2488 556 
L 2163 556 
Q 2506 19 2794 -588 
L 2331 -756 
z
M 2031 3681 
L 2031 4700 
L 925 4700 
L 925 3681 
L 2031 3681 
z
M 2031 2394 
L 2031 3444 
L 925 3444 
L 925 2394 
L 2031 2394 
z
M 2031 2156 
L 925 2156 
L 925 1119 
L 2031 1119 
L 2031 2156 
z
" transform="scale(0.015625)"/>
      <path id="WenQuanYiZenHei-653f" d="M 2925 2750 
Q 2906 2575 2925 2400 
Q 2656 2413 2444 2413 
L 2031 2413 
L 2031 381 
Q 2388 475 3094 681 
L 3094 394 
Q 1206 -156 175 -538 
Q 175 -250 19 -13 
Q 275 13 538 56 
L 538 2356 
Q 538 2800 513 3238 
Q 750 3213 994 3238 
Q 969 2800 969 2356 
L 969 131 
Q 1275 188 1600 269 
L 1600 4275 
L 813 4275 
Q 488 4275 169 4263 
Q 181 4438 169 4613 
Q 488 4594 813 4594 
L 2556 4594 
Q 2881 4594 3206 4613 
Q 3188 4438 3206 4263 
Q 2881 4275 2556 4275 
L 2031 4275 
L 2031 2731 
L 2275 2731 
Q 2600 2731 2925 2750 
z
M 3569 5031 
Q 3800 4963 4069 4944 
Q 3950 4400 3788 3869 
L 3763 3781 
L 5275 3781 
Q 5619 3781 5956 3800 
Q 5938 3600 5956 3406 
L 5256 3419 
Q 5188 1925 4613 888 
Q 5206 106 6194 -306 
Q 5975 -438 5881 -694 
Q 4969 -288 4388 519 
Q 3750 -469 2663 -906 
Q 2600 -613 2413 -438 
Q 3531 -44 4131 913 
Q 3600 1806 3481 2963 
Q 3256 2381 2875 1806 
Q 2700 1981 2419 2025 
Q 2681 2406 2968 2937 
Q 3256 3469 3381 3991 
Q 3506 4513 3569 5031 
z
M 3831 3419 
Q 3850 2794 3997 2244 
Q 4144 1694 4350 1300 
Q 4763 2181 4788 3419 
L 3831 3419 
z
" transform="scale(0.015625)"/>
      <path id="WenQuanYiZenHei-90e8" d="M 1169 -763 
Q 931 -738 700 -763 
Q 719 -331 719 106 
L 719 1925 
L 3125 1925 
L 3125 -750 
L 2694 -750 
L 2694 -38 
L 1150 -38 
Q 1150 -400 1169 -763 
z
M 3763 2806 
Q 3744 2638 3763 2469 
Q 3450 2481 3138 2481 
L 694 2481 
Q 381 2481 69 2469 
Q 88 2638 69 2806 
Q 381 2788 694 2788 
L 1150 2788 
Q 875 3388 531 3950 
L 931 4200 
Q 1313 3575 1613 2906 
L 1350 2788 
L 2006 2788 
Q 2475 3350 2681 4288 
L 831 4288 
Q 519 4288 206 4275 
Q 225 4444 206 4613 
Q 519 4594 831 4594 
L 1688 4594 
L 1256 5094 
L 1613 5400 
L 2169 4756 
L 1988 4594 
L 3013 4594 
Q 3325 4594 3638 4613 
Q 3619 4444 3638 4275 
Q 3388 4281 3138 4288 
Q 3056 3538 2538 2788 
L 3138 2788 
Q 3450 2788 3763 2806 
z
M 2694 1619 
L 1150 1619 
L 1150 275 
L 2694 275 
L 2694 1619 
z
M 4431 -856 
Q 4225 -831 4019 -856 
Q 4038 -394 4038 75 
L 4038 4819 
L 5856 4819 
L 5856 4438 
Q 5763 4313 5713 4156 
L 5238 2756 
Q 5600 2450 5806 1972 
Q 6013 1494 6013 947 
Q 6013 400 5325 56 
L 5081 -56 
Q 4994 188 4869 388 
L 5263 531 
Q 5650 669 5650 950 
Q 5650 1494 5428 1969 
Q 5206 2444 4819 2719 
L 5400 4438 
L 4413 4438 
L 4413 75 
Q 4413 -388 4431 -856 
z
" transform="scale(0.015625)"/>
      <path id="WenQuanYiZenHei-51fa" d="M 5400 -594 
Q 5150 -569 4906 -594 
Q 4919 -356 4919 -119 
L 431 -119 
L 431 981 
Q 431 1438 406 1894 
Q 656 1869 900 1894 
Q 881 1438 881 981 
L 881 238 
L 2675 238 
L 2675 2500 
L 688 2500 
L 688 3488 
Q 688 3950 663 4406 
Q 913 4381 1163 4406 
Q 1138 3950 1138 3488 
L 1138 2856 
L 2675 2856 
L 2675 4344 
Q 2675 4806 2656 5263 
Q 2906 5238 3150 5263 
Q 3131 4806 3131 4344 
L 3131 2856 
L 4669 2856 
Q 4669 3175 4669 3562 
Q 4669 3950 4644 4406 
Q 4894 4381 5144 4406 
Q 5125 3988 5122 3516 
Q 5119 3044 5119 2500 
L 3131 2500 
L 3131 238 
L 4925 238 
L 4925 981 
Q 4925 1438 4906 1894 
Q 5150 1869 5400 1894 
Q 5381 1438 5381 981 
L 5381 325 
Q 5381 -138 5400 -594 
z
" transform="scale(0.015625)"/>
      <path id="WenQuanYiZenHei-53e3" d="M 1181 -781 
Q 925 -756 669 -781 
Q 688 -313 688 163 
L 694 4506 
L 5288 4506 
L 5288 -769 
L 4825 -769 
L 4825 219 
L 1156 219 
L 1156 163 
Q 1156 -313 1181 -781 
z
M 4825 4113 
L 1156 4113 
L 1156 619 
L 4825 619 
L 4825 4113 
z
" transform="scale(0.015625)"/>
      <path id="WenQuanYiZenHei-7d71" d="M 4894 -663 
Q 4594 -663 4434 -488 
Q 4275 -313 4275 -44 
L 4275 2250 
L 3844 2188 
L 3844 1556 
Q 3844 781 3403 143 
Q 2963 -494 2275 -788 
Q 2181 -538 1931 -438 
Q 2581 -244 3003 303 
Q 3425 850 3425 1556 
L 3425 2119 
L 2619 1988 
L 2575 2275 
Q 2675 2306 2750 2381 
Q 2931 2575 3209 3081 
Q 3488 3588 3575 3950 
L 3125 3950 
Q 2831 3950 2538 3938 
Q 2556 4094 2538 4250 
Q 2831 4238 3125 4238 
L 4044 4238 
L 3513 4950 
L 3875 5225 
L 4563 4325 
L 4450 4238 
L 5306 4238 
Q 5600 4238 5894 4250 
Q 5875 4094 5894 3938 
Q 5600 3950 5306 3950 
L 4081 3950 
Q 3988 3656 3638 3081 
Q 3325 2538 3200 2369 
L 4956 2631 
L 4581 3156 
L 4950 3431 
Q 5456 2756 5881 2031 
L 5481 1794 
Q 5313 2094 5125 2375 
L 4694 2319 
L 4694 -44 
Q 4694 -150 4750 -228 
Q 4806 -306 4900 -306 
L 5594 -306 
Q 5669 -300 5688 -238 
L 5825 663 
Q 6013 544 6231 538 
L 6038 -506 
Q 6019 -594 5969 -644 
Q 5938 -663 5894 -663 
L 4894 -663 
z
M 2631 431 
L 2200 263 
L 1838 1194 
L 2269 1363 
L 2631 431 
z
M 1819 163 
L 1388 -6 
L 1025 925 
L 1456 1094 
L 1819 163 
z
M 125 -294 
Q 338 288 444 900 
L 900 819 
Q 781 169 556 -456 
L 125 -294 
z
M 2600 1781 
L 2231 1506 
L 2069 1725 
L 1863 1700 
L 200 1350 
L 144 1631 
Q 263 1663 344 1756 
Q 738 2219 1388 3138 
L 225 3119 
L 225 3413 
Q 325 3413 400 3481 
Q 613 3688 953 4272 
Q 1294 4856 1331 5188 
Q 1569 5088 1819 5044 
Q 1788 4919 1709 4766 
Q 1631 4613 1290 4094 
Q 950 3575 819 3413 
L 1463 3394 
L 1575 3406 
Q 1844 3806 1963 4044 
Q 2163 3888 2388 3775 
Q 2269 3588 1869 3075 
L 831 1769 
L 1813 1950 
L 1881 1975 
L 1594 2363 
L 1963 2638 
L 2600 1781 
z
" transform="scale(0.015625)"/>
      <path id="WenQuanYiZenHei-8a08" d="M 4600 -763 
Q 4363 -738 4119 -763 
Q 4144 -325 4144 119 
L 4144 2806 
L 3338 2806 
Q 3019 2806 2694 2794 
Q 2713 2969 2694 3144 
Q 3019 3125 3338 3125 
L 4144 3125 
L 4144 4463 
Q 4144 4900 4119 5338 
Q 4363 5313 4600 5338 
Q 4575 4900 4575 4463 
L 4575 3125 
L 5538 3125 
Q 5863 3125 6188 3144 
Q 6169 2969 6188 2794 
Q 5863 2806 5538 2806 
L 4575 2806 
L 4575 119 
Q 4575 -325 4600 -763 
z
M 675 -844 
Q 425 -819 175 -844 
Q 200 -431 200 -13 
L 200 1413 
L 2363 1413 
L 2363 -831 
L 1900 -831 
L 1900 -300 
L 656 -300 
Q 663 -569 675 -844 
z
M 2281 2444 
Q 2263 2294 2281 2144 
Q 1969 2156 1663 2156 
L 913 2156 
Q 606 2156 294 2144 
Q 313 2294 294 2444 
Q 606 2431 913 2431 
L 1663 2431 
Q 1969 2431 2281 2444 
z
M 2294 3394 
Q 2275 3244 2294 3094 
Q 1988 3106 1675 3106 
L 900 3106 
Q 588 3106 281 3094 
Q 294 3244 281 3394 
Q 588 3381 900 3381 
L 1675 3381 
Q 1988 3381 2294 3394 
z
M 2556 4356 
Q 2538 4206 2556 4056 
Q 2244 4075 1938 4075 
L 706 4075 
Q 400 4075 88 4056 
Q 106 4206 88 4356 
Q 400 4344 706 4344 
L 1938 4344 
Q 2244 4344 2556 4356 
z
M 1719 4731 
L 1413 4369 
L 569 4944 
L 869 5306 
L 1719 4731 
z
M 1900 1144 
L 656 1144 
L 656 -50 
L 1900 -50 
L 1900 1144 
z
" transform="scale(0.015625)"/>
      <path id="WenQuanYiZenHei-20" transform="scale(0.015625)"/>
      <path id="WenQuanYiZenHei-54" d="M 3119 3913 
L 1869 3913 
L 1869 0 
L 1319 0 
L 1319 3913 
L 69 3913 
L 69 4388 
L 3119 4388 
L 3119 3913 
z
" transform="scale(0.015625)"/>
      <path id="WenQuanYiZenHei-6f" d="M 3175 1644 
Q 3175 813 2681 331 
Q 2281 -63 1663 -63 
Q 856 -63 481 656 
Q 256 1088 256 1650 
Q 256 2494 763 2969 
Q 1150 3338 1750 3338 
Q 2525 3338 2919 2656 
Q 3175 2219 3175 1644 
z
M 2619 1650 
Q 2619 2481 2181 2788 
Q 1981 2925 1706 2925 
Q 1069 2925 875 2188 
Q 813 1938 813 1650 
Q 813 750 1288 463 
Q 1463 350 1706 350 
Q 2400 350 2575 1169 
Q 2619 1394 2619 1650 
z
" transform="scale(0.015625)"/>
      <path id="WenQuanYiZenHei-70" d="M 3256 1650 
Q 3256 838 2856 350 
Q 2513 -63 1969 -63 
Q 1344 -63 1000 513 
L 1000 -1063 
L 500 -1063 
L 500 3250 
L 956 3250 
L 956 2625 
L 969 2625 
Q 1169 3163 1688 3294 
Q 1825 3338 1969 3338 
Q 2713 3338 3056 2600 
Q 3256 2175 3256 1650 
z
M 2694 1631 
Q 2694 2419 2319 2731 
L 2181 2825 
Q 2038 2894 1856 2894 
Q 1419 2894 1150 2463 
Q 1106 2400 1075 2325 
Q 1000 2169 1000 2100 
L 1000 1275 
Q 1000 875 1319 581 
Q 1563 356 1856 356 
Q 2525 356 2669 1238 
Q 2694 1419 2694 1631 
z
" transform="scale(0.015625)"/>
     </defs>
     <use xlink:href="#WenQuanYiZenHei-31"/>
     <use xlink:href="#WenQuanYiZenHei-31" transform="translate(59.960938 0)"/>
     <use xlink:href="#WenQuanYiZenHei-30" transform="translate(119.921875 0)"/>
     <use xlink:href="#WenQuanYiZenHei-5e74" transform="translate(179.882812 0)"/>
     <use xlink:href="#WenQuanYiZenHei-5ea6" transform="translate(279.882812 0)"/>
     <use xlink:href="#WenQuanYiZenHei-570b" transform="translate(379.882812 0)"/>
     <use xlink:href="#WenQuanYiZenHei-5bb6" transform="translate(479.882812 0)"/>
     <use xlink:href="#WenQuanYiZenHei-8ca1" transform="translate(579.882812 0)"/>
     <use xlink:href="#WenQuanYiZenHei-653f" transform="translate(679.882812 0)"/>
     <use xlink:href="#WenQuanYiZenHei-90e8" transform="translate(779.882812 0)"/>
     <use xlink:href="#WenQuanYiZenHei-51fa" transform="translate(879.882812 0)"/>
     <use xlink:href="#WenQuanYiZenHei-53e3" transform="translate(979.882812 0)"/>
     <use xlink:href="#WenQuanYiZenHei-7d71" transform="translate(1079.882812 0)"/>
     <use xlink:href="#WenQuanYiZenHei-8a08" transform="translate(1179.882812 0)"/>
     <use xlink:href="#WenQuanYiZenHei-20" transform="translate(1279.882812 0)"/>
     <use xlink:href="#WenQuanYiZenHei-31" transform="translate(1309.863281 0)"/>
     <use xlink:href="#WenQuanYiZenHei-38" transform="translate(1369.824219 0)"/>
     <use xlink:href="#WenQuanYiZenHei-2e" transform="translate(1429.785156 0)"/>
     <use xlink:href="#WenQuanYiZenHei-5149" transform="translate(1459.765625 0)"/>
     <use xlink:href="#WenQuanYiZenHei-5b78" transform="translate(1559.765625 0)"/>
     <use xlink:href="#WenQuanYiZenHei-53ca" transform="translate(1659.765625 0)"/>
     <use xlink:href="#WenQuanYiZenHei-7cbe" transform="translate(1759.765625 0)"/>
     <use xlink:href="#WenQuanYiZenHei-5bc6" transform="translate(1859.765625 0)"/>
     <use xlink:href="#WenQuanYiZenHei-5100" transform="translate(1959.765625 0)"/>
     <use xlink:href="#WenQuanYiZenHei-5668" transform="translate(2059.765625 0)"/>
     <use xlink:href="#WenQuanYiZenHei-ff1b" transform="translate(2159.765625 0)"/>
     <use xlink:href="#WenQuanYiZenHei-9418" transform="translate(2259.765625 0)"/>
     <use xlink:href="#WenQuanYiZenHei-9336" transform="translate(2359.765625 0)"/>
     <use xlink:href="#WenQuanYiZenHei-ff1b" transform="translate(2459.765625 0)"/>
     <use xlink:href="#WenQuanYiZenHei-6a02" transform="translate(2559.765625 0)"/>
     <use xlink:href="#WenQuanYiZenHei-5668" transform="translate(2659.765625 0)"/>
     <use xlink:href="#WenQuanYiZenHei-20" transform="translate(2759.765625 0)"/>
     <use xlink:href="#WenQuanYiZenHei-54" transform="translate(2789.746094 0)"/>
     <use xlink:href="#WenQuanYiZenHei-6f" transform="translate(2839.746094 0)"/>
     <use xlink:href="#WenQuanYiZenHei-70" transform="translate(2893.652344 0)"/>
     <use xlink:href="#WenQuanYiZenHei-20" transform="translate(2947.558594 0)"/>
     <use xlink:href="#WenQuanYiZenHei-31" transform="translate(2977.539062 0)"/>
     <use xlink:href="#WenQuanYiZenHei-30" transform="translate(3037.5 0)"/>
    </g>
   </g>
  </g>
 </g>
 <defs>
  <clipPath id="pab9e23ae78">
   <rect x="68.40625" y="23.39625" width="502.2" height="332.64"/>
  </clipPath>
 </defs>
</svg>
